<svg xmlns="http://www.w3.org/2000/svg" width="610" height="214.709" viewBox="0 0 610 214.709">
  <g id="Grupo_1018015" data-name="Grupo 1018015" transform="translate(8729 -6491.549)">
    <g id="Grupo_1017784" data-name="Grupo 1017784" transform="translate(11206 6530.992)">
      <path id="Trazado_717326" data-name="Trazado 717326" d="M10,0H149a10,10,0,0,1,10,10V86.667a10,10,0,0,1-10,10H10a10,10,0,0,1-10-10V10A10,10,0,0,1,10,0Z" transform="translate(-19904 78.6)" fill="#f6f6f6"/>
      <path id="Trazado_717327" data-name="Trazado 717327" d="M3.328,13.25H8.422V15H1.047V3.625H3.328ZM12.164,15H9.883V6.547h2.281Zm0-10.477H9.883V2.813h2.281Zm9.5,6.484a4.945,4.945,0,0,1-.844,3.023,2.854,2.854,0,0,1-2.437,1.133,2.576,2.576,0,0,1-1.293-.312,2.672,2.672,0,0,1-.934-.914L15.969,15h-1.93V2.813h2.273V7.445a2.582,2.582,0,0,1,.879-.781,2.457,2.457,0,0,1,1.176-.273A2.8,2.8,0,0,1,20.82,7.605a5.577,5.577,0,0,1,.844,3.238Zm-2.273-.164a4.4,4.4,0,0,0-.363-1.957,1.275,1.275,0,0,0-1.238-.723,1.7,1.7,0,0,0-.9.223,1.543,1.543,0,0,0-.578.637V12.6a1.449,1.449,0,0,0,.582.586,1.874,1.874,0,0,0,.91.2,1.3,1.3,0,0,0,1.234-.621,3.618,3.618,0,0,0,.352-1.762Zm8.125-2.336-.836-.023a1.519,1.519,0,0,0-.836.211,1.337,1.337,0,0,0-.5.594V15H23.07V6.547h2.117l.1,1.25a2.667,2.667,0,0,1,.77-1.035,1.8,1.8,0,0,1,1.406-.344q.145.027.293.066Zm4.7,6.656A3.8,3.8,0,0,1,29.266,14,4.252,4.252,0,0,1,28.2,11.016V10.7a4.628,4.628,0,0,1,1.031-3.109,3.506,3.506,0,0,1,2.836-1.2,3.282,3.282,0,0,1,2.613,1.043,4.122,4.122,0,0,1,.91,2.809v1.18H30.555l-.023.047a2.284,2.284,0,0,0,.527,1.406,1.766,1.766,0,0,0,1.4.539,4.692,4.692,0,0,0,1.3-.156,5.307,5.307,0,0,0,1.105-.477l.617,1.406a4.234,4.234,0,0,1-1.375.7A6.1,6.1,0,0,1,32.219,15.164ZM32.07,8.148a1.267,1.267,0,0,0-1.059.473,2.371,2.371,0,0,0-.449,1.254l.016.039h2.781V9.742a1.974,1.974,0,0,0-.3-1.168A1.127,1.127,0,0,0,32.07,8.148Zm8.484,2.7a5.493,5.493,0,0,1,.863-3.227,2.8,2.8,0,0,1,2.434-1.227,2.367,2.367,0,0,1,1.141.273,2.744,2.744,0,0,1,.891.781V2.813h2.289V15H46.227l-.2-1.039a2.826,2.826,0,0,1-.945.895,2.5,2.5,0,0,1-1.25.309,2.858,2.858,0,0,1-2.418-1.141,4.871,4.871,0,0,1-.863-3.016Zm2.273.164a3.443,3.443,0,0,0,.375,1.746,1.306,1.306,0,0,0,1.219.637,1.775,1.775,0,0,0,.859-.2,1.589,1.589,0,0,0,.6-.582v-3.6a1.756,1.756,0,0,0-.6-.621,1.589,1.589,0,0,0-.848-.223,1.287,1.287,0,0,0-1.223.742,4.194,4.194,0,0,0-.387,1.938ZM53.6,15.164A3.8,3.8,0,0,1,50.648,14a4.252,4.252,0,0,1-1.062-2.988V10.7a4.628,4.628,0,0,1,1.031-3.109,3.506,3.506,0,0,1,2.836-1.2,3.282,3.282,0,0,1,2.613,1.043,4.122,4.122,0,0,1,.91,2.809v1.18H51.938l-.023.047a2.284,2.284,0,0,0,.527,1.406,1.766,1.766,0,0,0,1.4.539,4.692,4.692,0,0,0,1.3-.156,5.307,5.307,0,0,0,1.105-.477l.617,1.406a4.234,4.234,0,0,1-1.375.7A6.1,6.1,0,0,1,53.6,15.164Zm-.148-7.016a1.267,1.267,0,0,0-1.059.473,2.371,2.371,0,0,0-.449,1.254l.016.039h2.781V9.742a1.974,1.974,0,0,0-.3-1.168A1.127,1.127,0,0,0,53.453,8.148ZM3.1,25.617a2.9,2.9,0,0,1,.977-.9,2.574,2.574,0,0,1,1.281-.324,2.588,2.588,0,0,1,2.074.879,4.1,4.1,0,0,1,.754,2.715V33H5.906V27.969a2.336,2.336,0,0,0-.316-1.395,1.124,1.124,0,0,0-.949-.41,2.271,2.271,0,0,0-.91.168,1.571,1.571,0,0,0-.629.48V33H.82V20.813H3.1ZM14.891,33a4.8,4.8,0,0,1-.215-.609,4.239,4.239,0,0,1-.129-.656,3.127,3.127,0,0,1-.93,1.023,2.33,2.33,0,0,1-1.375.406A2.855,2.855,0,0,1,10.2,32.48a2.449,2.449,0,0,1-.719-1.863,2.229,2.229,0,0,1,.957-1.926,4.78,4.78,0,0,1,2.793-.684h1.281v-.672a1.315,1.315,0,0,0-.32-.945,1.257,1.257,0,0,0-.953-.336,1.239,1.239,0,0,0-.855.27.941.941,0,0,0-.3.738h-2.2l-.016-.047a2.144,2.144,0,0,1,.934-1.848,4.055,4.055,0,0,1,2.582-.777,3.784,3.784,0,0,1,2.465.766,2.667,2.667,0,0,1,.941,2.2v3.492a6.6,6.6,0,0,0,.09,1.117A5.606,5.606,0,0,0,17.164,33ZM12.8,31.477a1.944,1.944,0,0,0,1.063-.3,1.6,1.6,0,0,0,.641-.687V29.3H13.227a1.519,1.519,0,0,0-1.1.359,1.181,1.181,0,0,0-.371.883.881.881,0,0,0,.277.684A1.1,1.1,0,0,0,12.8,31.477Zm7.813-6.93.094,1.117a2.84,2.84,0,0,1,1.02-.941,2.932,2.932,0,0,1,1.418-.332,2.582,2.582,0,0,1,1.391.359,2.217,2.217,0,0,1,.875,1.086,2.93,2.93,0,0,1,1.016-1.062,2.756,2.756,0,0,1,1.469-.383,2.408,2.408,0,0,1,1.973.887,4.233,4.233,0,0,1,.723,2.707V33H28.313V27.977A2.369,2.369,0,0,0,28,26.563a1.109,1.109,0,0,0-.93-.4,1.592,1.592,0,0,0-.84.215,1.565,1.565,0,0,0-.566.6q0,.148.008.254t.008.215V33H23.406V27.977a2.376,2.376,0,0,0-.312-1.4,1.1,1.1,0,0,0-.937-.41,1.769,1.769,0,0,0-.809.176,1.551,1.551,0,0,0-.574.5V33H18.5V24.547Zm19.352,4.461a4.945,4.945,0,0,1-.844,3.023,2.854,2.854,0,0,1-2.437,1.133,2.576,2.576,0,0,1-1.293-.312,2.672,2.672,0,0,1-.934-.914L34.273,33h-1.93V20.813h2.273v4.633a2.582,2.582,0,0,1,.879-.781,2.457,2.457,0,0,1,1.176-.273,2.8,2.8,0,0,1,2.453,1.215,5.577,5.577,0,0,1,.844,3.238ZM37.7,28.844a4.4,4.4,0,0,0-.363-1.957,1.275,1.275,0,0,0-1.238-.723,1.7,1.7,0,0,0-.9.223,1.543,1.543,0,0,0-.578.637V30.6a1.449,1.449,0,0,0,.582.586,1.874,1.874,0,0,0,.91.2,1.3,1.3,0,0,0,1.234-.621,3.618,3.618,0,0,0,.352-1.762Zm8.125-2.336-.836-.023a1.519,1.519,0,0,0-.836.211,1.337,1.337,0,0,0-.5.594V33H41.375V24.547h2.117l.1,1.25a2.667,2.667,0,0,1,.77-1.035,1.8,1.8,0,0,1,1.406-.344q.145.027.293.066Zm4.7,6.656A3.8,3.8,0,0,1,47.57,32a4.252,4.252,0,0,1-1.062-2.988V28.7a4.628,4.628,0,0,1,1.031-3.109,3.506,3.506,0,0,1,2.836-1.2,3.282,3.282,0,0,1,2.613,1.043,4.122,4.122,0,0,1,.91,2.809v1.18H48.859l-.023.047a2.284,2.284,0,0,0,.527,1.406,1.766,1.766,0,0,0,1.4.539,4.692,4.692,0,0,0,1.3-.156,5.307,5.307,0,0,0,1.105-.477l.617,1.406a4.234,4.234,0,0,1-1.375.7A6.1,6.1,0,0,1,50.523,33.164Zm-.148-7.016a1.267,1.267,0,0,0-1.059.473,2.371,2.371,0,0,0-.449,1.254l.016.039h2.781v-.172a1.974,1.974,0,0,0-.3-1.168A1.127,1.127,0,0,0,50.375,26.148Zm7.234,6.75-1.242,2.461H54.844l.547-2.531V31.047h2.219Zm10.3-2.242a.787.787,0,0,0-.363-.645,3.69,3.69,0,0,0-1.348-.473,5.375,5.375,0,0,1-2.254-.9,1.962,1.962,0,0,1-.77-1.633,2.329,2.329,0,0,1,.922-1.852,3.717,3.717,0,0,1,2.453-.766,4.011,4.011,0,0,1,2.566.766,2.237,2.237,0,0,1,.926,1.906l-.016.047h-2.2a1.106,1.106,0,0,0-.328-.828,1.534,1.534,0,0,0-1.812-.047.85.85,0,0,0-.32.672.759.759,0,0,0,.332.637,3.7,3.7,0,0,0,1.348.441,5.484,5.484,0,0,1,2.316.918,2.014,2.014,0,0,1,.762,1.668,2.231,2.231,0,0,1-.977,1.867,4.215,4.215,0,0,1-2.578.727,3.918,3.918,0,0,1-2.668-.855,2.392,2.392,0,0,1-.934-1.949l.016-.047h2.086a1.186,1.186,0,0,0,.445.984,1.838,1.838,0,0,0,1.1.3,1.567,1.567,0,0,0,.965-.254A.824.824,0,0,0,67.906,30.656Zm7.344,2.508A3.8,3.8,0,0,1,72.3,32a4.252,4.252,0,0,1-1.062-2.988V28.7a4.628,4.628,0,0,1,1.031-3.109,3.506,3.506,0,0,1,2.836-1.2,3.282,3.282,0,0,1,2.613,1.043,4.122,4.122,0,0,1,.91,2.809v1.18H73.586l-.023.047a2.284,2.284,0,0,0,.527,1.406,1.766,1.766,0,0,0,1.4.539,4.692,4.692,0,0,0,1.3-.156,5.307,5.307,0,0,0,1.105-.477l.617,1.406a4.234,4.234,0,0,1-1.375.7A6.1,6.1,0,0,1,75.25,33.164ZM75.1,26.148a1.267,1.267,0,0,0-1.059.473,2.371,2.371,0,0,0-.449,1.254l.016.039h2.781v-.172a1.974,1.974,0,0,0-.3-1.168A1.127,1.127,0,0,0,75.1,26.148Zm4.5,2.7a5.493,5.493,0,0,1,.863-3.227A2.8,2.8,0,0,1,82.9,24.391a2.367,2.367,0,0,1,1.141.273,2.744,2.744,0,0,1,.891.781V20.813h2.289V33H85.273l-.2-1.039a2.826,2.826,0,0,1-.945.895,2.5,2.5,0,0,1-1.25.309,2.858,2.858,0,0,1-2.418-1.141,4.871,4.871,0,0,1-.863-3.016Zm2.273.164a3.443,3.443,0,0,0,.375,1.746,1.306,1.306,0,0,0,1.219.637,1.775,1.775,0,0,0,.859-.2,1.589,1.589,0,0,0,.6-.582v-3.6a1.756,1.756,0,0,0-.6-.621,1.589,1.589,0,0,0-.848-.223,1.287,1.287,0,0,0-1.223.742,4.194,4.194,0,0,0-.387,1.938Zm14.141.445.094.469h.047l1.617-5.375h2.453L96.8,34.266a4.474,4.474,0,0,1-.977,1.527,2.505,2.505,0,0,1-1.852.621,2.863,2.863,0,0,1-.535-.047q-.246-.047-.6-.133L93.1,34.57l.219.031a1.611,1.611,0,0,0,.211.016,1.243,1.243,0,0,0,.867-.277,1.83,1.83,0,0,0,.469-.691l.266-.656-3-8.445h2.453ZM.523,46.844a5.493,5.493,0,0,1,.863-3.227A2.8,2.8,0,0,1,3.82,42.391a2.367,2.367,0,0,1,1.141.273,2.744,2.744,0,0,1,.891.781V38.813H8.141V51H6.2L6,49.961a2.826,2.826,0,0,1-.945.895,2.5,2.5,0,0,1-1.25.309,2.858,2.858,0,0,1-2.418-1.141,4.871,4.871,0,0,1-.863-3.016Zm2.273.164a3.443,3.443,0,0,0,.375,1.746,1.306,1.306,0,0,0,1.219.637,1.775,1.775,0,0,0,.859-.2,1.589,1.589,0,0,0,.6-.582v-3.6a1.756,1.756,0,0,0-.6-.621,1.589,1.589,0,0,0-.848-.223,1.287,1.287,0,0,0-1.223.742A4.194,4.194,0,0,0,2.8,46.844ZM13.57,51.164A3.8,3.8,0,0,1,10.617,50a4.252,4.252,0,0,1-1.062-2.988V46.7a4.628,4.628,0,0,1,1.031-3.109,3.506,3.506,0,0,1,2.836-1.2,3.282,3.282,0,0,1,2.613,1.043,4.122,4.122,0,0,1,.91,2.809v1.18H11.906l-.023.047a2.284,2.284,0,0,0,.527,1.406,1.766,1.766,0,0,0,1.4.539,4.692,4.692,0,0,0,1.3-.156,5.307,5.307,0,0,0,1.105-.477l.617,1.406a4.234,4.234,0,0,1-1.375.7A6.1,6.1,0,0,1,13.57,51.164Zm-.148-7.016a1.267,1.267,0,0,0-1.059.473,2.371,2.371,0,0,0-.449,1.254l.016.039h2.781v-.172a1.974,1.974,0,0,0-.3-1.168A1.127,1.127,0,0,0,13.422,44.148Zm9.422,4.508a.787.787,0,0,0-.363-.645,3.69,3.69,0,0,0-1.348-.473,5.375,5.375,0,0,1-2.254-.9,1.962,1.962,0,0,1-.77-1.633,2.329,2.329,0,0,1,.922-1.852,3.717,3.717,0,0,1,2.453-.766,4.011,4.011,0,0,1,2.566.766,2.237,2.237,0,0,1,.926,1.906l-.016.047h-2.2a1.106,1.106,0,0,0-.328-.828,1.534,1.534,0,0,0-1.812-.047.85.85,0,0,0-.32.672.759.759,0,0,0,.332.637,3.7,3.7,0,0,0,1.348.441,5.484,5.484,0,0,1,2.316.918,2.014,2.014,0,0,1,.762,1.668,2.231,2.231,0,0,1-.977,1.867,4.215,4.215,0,0,1-2.578.727,3.918,3.918,0,0,1-2.668-.855,2.392,2.392,0,0,1-.934-1.949l.016-.047H20a1.186,1.186,0,0,0,.445.984,1.838,1.838,0,0,0,1.1.3,1.567,1.567,0,0,0,.965-.254A.824.824,0,0,0,22.844,48.656Zm5.766-6.109.1,1.211A3.092,3.092,0,0,1,29.75,42.75a2.7,2.7,0,0,1,1.383-.359,2.513,2.513,0,0,1,2,.824,3.908,3.908,0,0,1,.719,2.605V51H31.563V45.828a2.024,2.024,0,0,0-.316-1.285,1.166,1.166,0,0,0-.949-.379,1.992,1.992,0,0,0-.895.191,1.746,1.746,0,0,0-.637.527V51H26.484V42.547Zm12.125,7.2a2.87,2.87,0,0,1-.992,1.047,2.63,2.63,0,0,1-1.4.367,2.57,2.57,0,0,1-2.09-.906,4.347,4.347,0,0,1-.754-2.812v-4.9h2.273v4.914a2.729,2.729,0,0,0,.3,1.52,1.081,1.081,0,0,0,.934.41,2.273,2.273,0,0,0,.938-.176,1.58,1.58,0,0,0,.641-.52V42.547h2.281V51H40.977Zm6.586-9.273v2.07h1.43v1.6H47.32v4.3a.982.982,0,0,0,.207.7.727.727,0,0,0,.543.211,2.178,2.178,0,0,0,.313-.02,2.632,2.632,0,0,0,.3-.066l.188,1.648a4.618,4.618,0,0,1-.668.176,3.982,3.982,0,0,1-.707.059,2.431,2.431,0,0,1-1.816-.648,2.843,2.843,0,0,1-.637-2.055V44.148H43.813v-1.6h1.234v-2.07ZM54.6,44.508l-.836-.023a1.519,1.519,0,0,0-.836.211,1.337,1.337,0,0,0-.5.594V51H50.156V42.547h2.117l.1,1.25a2.667,2.667,0,0,1,.77-1.035,1.8,1.8,0,0,1,1.406-.344q.145.027.293.066ZM58.188,51H55.906V42.547h2.281Zm0-10.477H55.906V38.813h2.281Zm5.406,8.891a1.27,1.27,0,0,0,.945-.355,1.291,1.291,0,0,0,.352-.949h2.078l.016.047a2.645,2.645,0,0,1-.953,2.145,3.564,3.564,0,0,1-2.437.863,3.6,3.6,0,0,1-2.9-1.2A4.558,4.558,0,0,1,59.672,46.9v-.234a4.588,4.588,0,0,1,1.02-3.066,3.57,3.57,0,0,1,2.887-1.207,3.486,3.486,0,0,1,2.492.891,2.976,2.976,0,0,1,.914,2.344l-.016.047H64.891a1.687,1.687,0,0,0-.348-1.09,1.168,1.168,0,0,0-.965-.434,1.3,1.3,0,0,0-1.254.707,3.878,3.878,0,0,0-.371,1.809V46.9a3.863,3.863,0,0,0,.371,1.82A1.32,1.32,0,0,0,63.594,49.414ZM70.711,51H68.43V42.547h2.281Zm0-10.477H68.43V38.813h2.281ZM72.234,46.7a4.536,4.536,0,0,1,1.055-3.1,3.676,3.676,0,0,1,2.922-1.207,3.715,3.715,0,0,1,2.938,1.2,4.512,4.512,0,0,1,1.063,3.1v.164a4.519,4.519,0,0,1-1.059,3.105,4.178,4.178,0,0,1-5.859,0,4.519,4.519,0,0,1-1.059-3.105Zm2.273.164a3.677,3.677,0,0,0,.406,1.855,1.561,1.561,0,0,0,2.605,0,3.653,3.653,0,0,0,.41-1.852V46.7a3.616,3.616,0,0,0-.414-1.836,1.4,1.4,0,0,0-1.3-.711,1.384,1.384,0,0,0-1.293.715,3.648,3.648,0,0,0-.41,1.832Zm2.164-7.922h2.539l.016.047-2.164,2.031H75.117ZM83.7,42.547l.1,1.211a3.092,3.092,0,0,1,1.039-1.008,2.7,2.7,0,0,1,1.383-.359,2.513,2.513,0,0,1,2,.824,3.908,3.908,0,0,1,.719,2.605V51H86.656V45.828a2.024,2.024,0,0,0-.316-1.285,1.166,1.166,0,0,0-.949-.379,1.992,1.992,0,0,0-.895.191,1.746,1.746,0,0,0-.637.527V51H81.578V42.547ZM93.18,51H90.9V49H93.18Z" transform="translate(-19868 102.266)" fill="#12263f"/>
      <path id="Trazado_715227" data-name="Trazado 715227" d="M46.333,23.167a23.065,23.065,0,0,1-4.719,14.015c-4.232,5.562-10.92.581-18.447.581-5.182,0-3.392,4.267-7.251,1.393-1.747-1.3-9.878-.241-11.2-1.974A23.167,23.167,0,1,1,46.333,23.167Z" transform="translate(-19935 102.267)" fill="#ffa686"/>
      <path id="Trazado_715228" data-name="Trazado 715228" d="M199.641,51.438H187.187v-5.06a3.806,3.806,0,0,1,3.806-3.806h4.841a3.806,3.806,0,0,1,3.806,3.806Z" transform="translate(-20105.248 63.548)" fill="#e9424a"/>
      <path id="Trazado_715229" data-name="Trazado 715229" d="M103.425,92.646c-4.232,5.562-8.063,7.665-15.59,7.665-5.182,0-7.707.107-11.565-2.768-1.747-1.3-3.849-2.456-5.167-4.189l.757-7.279.743-2.318.011-.033,4.342-13.547a11.425,11.425,0,0,1,21.759,0l4.342,13.547.011.033.69,2.151Z" transform="translate(-19999.668 45.659)" fill="#fff9f1"/>
      <g id="Grupo_1017006" data-name="Grupo 1017006" transform="translate(-19916.91 119.602)">
        <circle id="Elipse_7976" data-name="Elipse 7976" cx="2.225" cy="2.225" r="2.225" fill="#e9424a"/>
        <circle id="Elipse_7977" data-name="Elipse 7977" cx="2.225" cy="2.225" r="2.225" transform="translate(5.706)" fill="#fd5758"/>
      </g>
      <path id="Trazado_715230" data-name="Trazado 715230" d="M89.045,269.76a23.168,23.168,0,0,1-36.895,0l3.215-10.031a6.217,6.217,0,0,0,11.664,4.246L70.6,255.72l3.568,8.255a6.217,6.217,0,0,0,11.664-4.246Z" transform="translate(-19982.43 -130.312)" fill="#ffe5bf"/>
      <path id="Trazado_715231" data-name="Trazado 715231" d="M90.879,62.653a11.425,11.425,0,0,0-7.834,7.525L78.7,83.724l-.011.033-3.549,11.07L71.1,90.981l.982-5.606.519-1.618.011-.033,4.342-13.547a11.427,11.427,0,0,1,13.924-7.525Z" transform="translate(-19999.666 45.659)" fill="#f7eadc"/>
      <g id="Grupo_1017007" data-name="Grupo 1017007" transform="translate(-19922.543 125.433)">
        <path id="Trazado_715232" data-name="Trazado 715232" d="M143.079,256l-4.155,3.691a3.8,3.8,0,1,0,6.176,3.91l1.9-6.494L143.7,256" transform="translate(-137.646 -256)" fill="#e9424a"/>
        <path id="Trazado_715233" data-name="Trazado 715233" d="M274.926,256l4.155,3.691a3.8,3.8,0,1,1-6.176,3.91l-1.9-6.494L274.3,256" transform="translate(-258.938 -256)" fill="#fd5758"/>
      </g>
      <path id="Trazado_715234" data-name="Trazado 715234" d="M59.032,307.58l-2.259,7.048a23.3,23.3,0,0,1-4.623-4.576l3.215-10.031a6.211,6.211,0,0,0,3.667,7.56Z" transform="translate(-19982.432 -170.603)" fill="#ffe0a7"/>
      <g id="Grupo_1017008" data-name="Grupo 1017008" transform="translate(-19918.785 128.838)">
        <path id="Trazado_715235" data-name="Trazado 715235" d="M182.358,307.989a3.174,3.174,0,0,0,3.174-3.174v-9.167l-1.9-2.024-4.353,10.415A3.174,3.174,0,0,0,182.358,307.989Z" transform="translate(-179.182 -293.624)" fill="#fd5758"/>
        <path id="Trazado_715236" data-name="Trazado 715236" d="M265.834,307.989a3.174,3.174,0,0,1-3.174-3.174v-9.167l3.624-2.024,2.627,10.415A3.174,3.174,0,0,1,265.834,307.989Z" transform="translate(-255.106 -293.624)" fill="#fd5758"/>
      </g>
      <g id="Grupo_1017009" data-name="Grupo 1017009" transform="translate(-19918.785 128.838)">
        <path id="Trazado_715237" data-name="Trazado 715237" d="M183.555,307.755a3.176,3.176,0,0,1-4.278-3.715l2.628-10.416,2.1,1.176-2.33,9.24A3.174,3.174,0,0,0,183.555,307.755Z" transform="translate(-179.18 -293.624)" fill="#e9424a"/>
        <path id="Trazado_715238" data-name="Trazado 715238" d="M267.035,307.755a3.178,3.178,0,0,1-4.375-2.939v-9.167l3.623-2.024.3,1.176-1.518.848v9.167A3.174,3.174,0,0,0,267.035,307.755Z" transform="translate(-255.105 -293.624)" fill="#e9424a"/>
      </g>
      <g id="Grupo_1017010" data-name="Grupo 1017010" transform="translate(-19915.141 102.267)">
        <path id="Trazado_715239" data-name="Trazado 715239" d="M228.875,0c-1.986,0-2.663,1.881-2.421,3.852l-.278,4.6a2.719,2.719,0,0,0,5.4,0l.583-4.747a3.307,3.307,0,0,0-3.282-3.71Z" transform="translate(-225.568 -0.005)" fill="#fd5758"/>
        <path id="Trazado_715240" data-name="Trazado 715240" d="M224.038,10.526a2.72,2.72,0,0,1-3.976-2.069l-.583-4.747A3.309,3.309,0,0,1,224.038.255a3.308,3.308,0,0,0-2,3.455l.583,4.747A2.718,2.718,0,0,0,224.038,10.526Z" transform="translate(-219.453)" fill="#e9424a"/>
      </g>
      <g id="Grupo_1017011" data-name="Grupo 1017011" transform="translate(-19924.988 117.705)">
        <ellipse id="Elipse_7978" data-name="Elipse 7978" cx="2.213" cy="3.277" rx="2.213" ry="3.277" transform="translate(0 0)" fill="#516666"/>
        <path id="Trazado_715241" data-name="Trazado 715241" d="M113.959,176.71a1.693,1.693,0,0,1-1.106.439c-1.223,0-2.213-1.467-2.213-3.277s.99-3.277,2.213-3.277a1.694,1.694,0,0,1,1.106.439,4.194,4.194,0,0,0,0,5.676Z" transform="translate(-110.64 -170.595)" fill="#384948"/>
        <ellipse id="Elipse_7979" data-name="Elipse 7979" cx="2.213" cy="3.277" rx="2.213" ry="3.277" transform="translate(21.882 0)" fill="#516666"/>
        <path id="Trazado_715242" data-name="Trazado 715242" d="M355.762,176.71a1.693,1.693,0,0,1-1.106.439c-1.223,0-2.213-1.467-2.213-3.277s.99-3.277,2.213-3.277a1.694,1.694,0,0,1,1.106.439,4.194,4.194,0,0,0,0,5.676Z" transform="translate(-330.561 -170.595)" fill="#384948"/>
      </g>
      <path id="Trazado_715243" data-name="Trazado 715243" d="M206.229,256v2.816l-2.215,2.626a5.764,5.764,0,0,0-1.251,2.61,2.069,2.069,0,0,1-.717,1.2,1.984,1.984,0,0,1-.2.146,2.072,2.072,0,0,1-3.15-1.348,5.76,5.76,0,0,0-1.251-2.61l-2.215-2.626.565-2.816Z" transform="translate(-20112.563 -130.567)" fill="#f5cf33"/>
      <path id="Trazado_715244" data-name="Trazado 715244" d="M201.846,265.4a2.072,2.072,0,0,1-3.15-1.348,5.76,5.76,0,0,0-1.251-2.61l-2.215-2.626.565-2.816h.624l2.19,1.723,2.121,4.838v.866A2.3,2.3,0,0,0,201.846,265.4Z" transform="translate(-20112.563 -130.567)" fill="#f2b632"/>
      <path id="Trazado_715245" data-name="Trazado 715245" d="M198.288,175.739a.878.878,0,0,1-1.677.363.89.89,0,0,0-1.453-.245L193.5,177.59a2.2,2.2,0,0,1-3.187,0l-1.381-1.447-.36-.689a.8.8,0,0,0-.639-.2,1.082,1.082,0,0,0-.886.6,1.1,1.1,0,0,1-.346.432c-.139.089-.122.045-.294.045-.552,0-.967-.23-.861-.772l.267-1.356a3.37,3.37,0,0,1,1.748-2.337l.322-.167a3.166,3.166,0,0,0,1.7-2.807v-.961a2.322,2.322,0,0,1,2.813-2.267c.069.015.137.033.2.053a2.321,2.321,0,0,1,1.623,2.214v.961a3.166,3.166,0,0,0,1.7,2.807l.322.167A3.37,3.37,0,0,1,198,174.213l.267,1.356A.857.857,0,0,1,198.288,175.739Z" transform="translate(-20103.744 -48.366)" fill="#fde42f"/>
      <path id="Trazado_715246" data-name="Trazado 715246" d="M192.607,165.726a1.946,1.946,0,0,0-1.31,1.712l-.2,2.959a2.784,2.784,0,0,1-1.474,2.275,1.575,1.575,0,0,0-.838,1.392c0,.039,0,.078,0,.117l.145,1.962-.272-.286a.89.89,0,0,0-1.453.245.878.878,0,0,1-1.66-.534l.267-1.356a3.37,3.37,0,0,1,1.748-2.337l.322-.167a3.166,3.166,0,0,0,1.7-2.807v-.961a2.322,2.322,0,0,1,2.813-2.267c.069.015.137.033.2.053Z" transform="translate(-20103.744 -48.366)" fill="#f5cf33"/>
      <path id="Trazado_717328" data-name="Trazado 717328" d="M10,0H149a10,10,0,0,1,10,10V86.667a10,10,0,0,1-10,10H10a10,10,0,0,1-10-10V10A10,10,0,0,1,10,0Z" transform="translate(-19694 78.6)" fill="#f6f6f6"/>
      <path id="Trazado_717329" data-name="Trazado 717329" d="M3.328,13.25H8.422V15H1.047V3.625H3.328ZM12.164,15H9.883V6.547h2.281Zm0-10.477H9.883V2.813h2.281Zm9.5,6.484a4.945,4.945,0,0,1-.844,3.023,2.854,2.854,0,0,1-2.437,1.133,2.576,2.576,0,0,1-1.293-.312,2.672,2.672,0,0,1-.934-.914L15.969,15h-1.93V2.813h2.273V7.445a2.582,2.582,0,0,1,.879-.781,2.457,2.457,0,0,1,1.176-.273A2.8,2.8,0,0,1,20.82,7.605a5.577,5.577,0,0,1,.844,3.238Zm-2.273-.164a4.4,4.4,0,0,0-.363-1.957,1.275,1.275,0,0,0-1.238-.723,1.7,1.7,0,0,0-.9.223,1.543,1.543,0,0,0-.578.637V12.6a1.449,1.449,0,0,0,.582.586,1.874,1.874,0,0,0,.91.2,1.3,1.3,0,0,0,1.234-.621,3.618,3.618,0,0,0,.352-1.762Zm8.125-2.336-.836-.023a1.519,1.519,0,0,0-.836.211,1.337,1.337,0,0,0-.5.594V15H23.07V6.547h2.117l.1,1.25a2.667,2.667,0,0,1,.77-1.035,1.8,1.8,0,0,1,1.406-.344q.145.027.293.066Zm4.7,6.656A3.8,3.8,0,0,1,29.266,14,4.252,4.252,0,0,1,28.2,11.016V10.7a4.628,4.628,0,0,1,1.031-3.109,3.506,3.506,0,0,1,2.836-1.2,3.282,3.282,0,0,1,2.613,1.043,4.122,4.122,0,0,1,.91,2.809v1.18H30.555l-.023.047a2.284,2.284,0,0,0,.527,1.406,1.766,1.766,0,0,0,1.4.539,4.692,4.692,0,0,0,1.3-.156,5.307,5.307,0,0,0,1.105-.477l.617,1.406a4.234,4.234,0,0,1-1.375.7A6.1,6.1,0,0,1,32.219,15.164ZM32.07,8.148a1.267,1.267,0,0,0-1.059.473,2.371,2.371,0,0,0-.449,1.254l.016.039h2.781V9.742a1.974,1.974,0,0,0-.3-1.168A1.127,1.127,0,0,0,32.07,8.148Zm8.484,2.7a5.493,5.493,0,0,1,.863-3.227,2.8,2.8,0,0,1,2.434-1.227,2.367,2.367,0,0,1,1.141.273,2.744,2.744,0,0,1,.891.781V2.813h2.289V15H46.227l-.2-1.039a2.826,2.826,0,0,1-.945.895,2.5,2.5,0,0,1-1.25.309,2.858,2.858,0,0,1-2.418-1.141,4.871,4.871,0,0,1-.863-3.016Zm2.273.164a3.443,3.443,0,0,0,.375,1.746,1.306,1.306,0,0,0,1.219.637,1.775,1.775,0,0,0,.859-.2,1.589,1.589,0,0,0,.6-.582v-3.6a1.756,1.756,0,0,0-.6-.621,1.589,1.589,0,0,0-.848-.223,1.287,1.287,0,0,0-1.223.742,4.194,4.194,0,0,0-.387,1.938ZM53.6,15.164A3.8,3.8,0,0,1,50.648,14a4.252,4.252,0,0,1-1.062-2.988V10.7a4.628,4.628,0,0,1,1.031-3.109,3.506,3.506,0,0,1,2.836-1.2,3.282,3.282,0,0,1,2.613,1.043,4.122,4.122,0,0,1,.91,2.809v1.18H51.938l-.023.047a2.284,2.284,0,0,0,.527,1.406,1.766,1.766,0,0,0,1.4.539,4.692,4.692,0,0,0,1.3-.156,5.307,5.307,0,0,0,1.105-.477l.617,1.406a4.234,4.234,0,0,1-1.375.7A6.1,6.1,0,0,1,53.6,15.164Zm-.148-7.016a1.267,1.267,0,0,0-1.059.473,2.371,2.371,0,0,0-.449,1.254l.016.039h2.781V9.742a1.974,1.974,0,0,0-.3-1.168A1.127,1.127,0,0,0,53.453,8.148ZM2.992,24.547l.094,1.117a2.84,2.84,0,0,1,1.02-.941,2.932,2.932,0,0,1,1.418-.332,2.582,2.582,0,0,1,1.391.359,2.217,2.217,0,0,1,.875,1.086A2.93,2.93,0,0,1,8.8,24.773a2.756,2.756,0,0,1,1.469-.383,2.408,2.408,0,0,1,1.973.887,4.233,4.233,0,0,1,.723,2.707V33H10.688V27.977a2.369,2.369,0,0,0-.312-1.414,1.109,1.109,0,0,0-.93-.4,1.592,1.592,0,0,0-.84.215,1.565,1.565,0,0,0-.566.6q0,.148.008.254t.008.215V33H5.781V27.977a2.376,2.376,0,0,0-.312-1.4,1.1,1.1,0,0,0-.937-.41,1.769,1.769,0,0,0-.809.176,1.551,1.551,0,0,0-.574.5V33H.875V24.547ZM14.367,28.7a4.536,4.536,0,0,1,1.055-3.1,3.676,3.676,0,0,1,2.922-1.207,3.715,3.715,0,0,1,2.938,1.2,4.512,4.512,0,0,1,1.063,3.1v.164a4.519,4.519,0,0,1-1.059,3.105,3.7,3.7,0,0,1-2.926,1.2,3.709,3.709,0,0,1-2.934-1.2,4.519,4.519,0,0,1-1.059-3.105Zm2.273.164a3.677,3.677,0,0,0,.406,1.855,1.561,1.561,0,0,0,2.605,0,3.653,3.653,0,0,0,.41-1.852V28.7a3.616,3.616,0,0,0-.414-1.836,1.4,1.4,0,0,0-1.3-.711,1.384,1.384,0,0,0-1.293.715,3.648,3.648,0,0,0-.41,1.832ZM26.148,33H23.867V20.813h2.281Zm5.539.164A3.8,3.8,0,0,1,28.734,32a4.252,4.252,0,0,1-1.062-2.988V28.7A4.628,4.628,0,0,1,28.7,25.594a3.506,3.506,0,0,1,2.836-1.2,3.282,3.282,0,0,1,2.613,1.043,4.122,4.122,0,0,1,.91,2.809v1.18H30.023L30,29.469a2.284,2.284,0,0,0,.527,1.406,1.766,1.766,0,0,0,1.4.539,4.692,4.692,0,0,0,1.3-.156,5.307,5.307,0,0,0,1.105-.477l.617,1.406a4.234,4.234,0,0,1-1.375.7A6.1,6.1,0,0,1,31.688,33.164Zm-.148-7.016a1.267,1.267,0,0,0-1.059.473,2.371,2.371,0,0,0-.449,1.254l.016.039h2.781v-.172a1.974,1.974,0,0,0-.3-1.168A1.127,1.127,0,0,0,31.539,26.148Zm9.422,4.508a.787.787,0,0,0-.363-.645,3.69,3.69,0,0,0-1.348-.473,5.375,5.375,0,0,1-2.254-.9,1.962,1.962,0,0,1-.77-1.633,2.329,2.329,0,0,1,.922-1.852,3.717,3.717,0,0,1,2.453-.766,4.011,4.011,0,0,1,2.566.766,2.237,2.237,0,0,1,.926,1.906l-.016.047h-2.2a1.106,1.106,0,0,0-.328-.828,1.534,1.534,0,0,0-1.812-.047.85.85,0,0,0-.32.672.759.759,0,0,0,.332.637,3.7,3.7,0,0,0,1.348.441,5.484,5.484,0,0,1,2.316.918,2.014,2.014,0,0,1,.762,1.668,2.231,2.231,0,0,1-.977,1.867,4.215,4.215,0,0,1-2.578.727,3.918,3.918,0,0,1-2.668-.855,2.392,2.392,0,0,1-.934-1.949l.016-.047h2.086a1.186,1.186,0,0,0,.445.984,1.838,1.838,0,0,0,1.1.3,1.567,1.567,0,0,0,.965-.254A.824.824,0,0,0,40.961,30.656Zm6.414-8.18v2.07H48.8v1.6h-1.43v4.3a.982.982,0,0,0,.207.7.727.727,0,0,0,.543.211,2.178,2.178,0,0,0,.313-.02,2.632,2.632,0,0,0,.3-.066l.188,1.648a4.618,4.618,0,0,1-.668.176,3.982,3.982,0,0,1-.707.059,2.431,2.431,0,0,1-1.816-.648,2.843,2.843,0,0,1-.637-2.055V26.148H43.867v-1.6H45.1v-2.07ZM52.609,33H50.328V24.547h2.281Zm0-10.477H50.328V20.813h2.281ZM59.469,33a4.8,4.8,0,0,1-.215-.609,4.239,4.239,0,0,1-.129-.656,3.127,3.127,0,0,1-.93,1.023,2.33,2.33,0,0,1-1.375.406,2.855,2.855,0,0,1-2.047-.684,2.449,2.449,0,0,1-.719-1.863,2.229,2.229,0,0,1,.957-1.926,4.78,4.78,0,0,1,2.793-.684h1.281v-.672a1.315,1.315,0,0,0-.32-.945,1.257,1.257,0,0,0-.953-.336,1.239,1.239,0,0,0-.855.27.941.941,0,0,0-.3.738h-2.2l-.016-.047a2.144,2.144,0,0,1,.934-1.848,4.055,4.055,0,0,1,2.582-.777,3.784,3.784,0,0,1,2.465.766,2.667,2.667,0,0,1,.941,2.2v3.492a6.605,6.605,0,0,0,.09,1.117A5.606,5.606,0,0,0,61.742,33Zm-2.086-1.523a1.944,1.944,0,0,0,1.063-.3,1.6,1.6,0,0,0,.641-.687V29.3H57.8a1.519,1.519,0,0,0-1.1.359,1.181,1.181,0,0,0-.371.883.881.881,0,0,0,.277.684A1.1,1.1,0,0,0,57.383,31.477Zm10.266-.82a.787.787,0,0,0-.363-.645,3.69,3.69,0,0,0-1.348-.473,5.375,5.375,0,0,1-2.254-.9,1.962,1.962,0,0,1-.77-1.633,2.329,2.329,0,0,1,.922-1.852,3.717,3.717,0,0,1,2.453-.766,4.011,4.011,0,0,1,2.566.766,2.237,2.237,0,0,1,.926,1.906l-.016.047h-2.2a1.106,1.106,0,0,0-.328-.828,1.534,1.534,0,0,0-1.812-.047.85.85,0,0,0-.32.672.759.759,0,0,0,.332.637,3.7,3.7,0,0,0,1.348.441A5.484,5.484,0,0,1,69.1,28.9a2.014,2.014,0,0,1,.762,1.668,2.231,2.231,0,0,1-.977,1.867,4.215,4.215,0,0,1-2.578.727,3.918,3.918,0,0,1-2.668-.855,2.392,2.392,0,0,1-.934-1.949l.016-.047H64.8a1.186,1.186,0,0,0,.445.984,1.838,1.838,0,0,0,1.1.3,1.567,1.567,0,0,0,.965-.254A.824.824,0,0,0,67.648,30.656ZM75.906,33V26.148H74.648v-1.6h1.258v-.937a2.859,2.859,0,0,1,.82-2.191,3.239,3.239,0,0,1,2.3-.77,4.169,4.169,0,0,1,.59.043q.3.043.66.121l-.2,1.7q-.187-.031-.363-.055a3.144,3.144,0,0,0-.41-.023,1.1,1.1,0,0,0-.84.3,1.234,1.234,0,0,0-.285.875v.938h1.625v1.6H78.188V33Zm7.43,0H81.055V24.547h2.281Zm-.68-11.9H85.2l.016.047L83.047,23.18H81.1Zm7.2,9.555a.787.787,0,0,0-.363-.645,3.69,3.69,0,0,0-1.348-.473,5.375,5.375,0,0,1-2.254-.9,1.962,1.962,0,0,1-.77-1.633,2.329,2.329,0,0,1,.922-1.852,3.717,3.717,0,0,1,2.453-.766,4.011,4.011,0,0,1,2.566.766,2.237,2.237,0,0,1,.926,1.906l-.016.047h-2.2a1.106,1.106,0,0,0-.328-.828,1.534,1.534,0,0,0-1.812-.047.85.85,0,0,0-.32.672.759.759,0,0,0,.332.637,3.7,3.7,0,0,0,1.348.441A5.484,5.484,0,0,1,91.3,28.9a2.014,2.014,0,0,1,.762,1.668,2.231,2.231,0,0,1-.977,1.867,4.215,4.215,0,0,1-2.578.727,3.918,3.918,0,0,1-2.668-.855,2.392,2.392,0,0,1-.934-1.949l.016-.047h2.086a1.186,1.186,0,0,0,.445.984,1.838,1.838,0,0,0,1.1.3,1.567,1.567,0,0,0,.965-.254A.824.824,0,0,0,89.852,30.656ZM95.93,33H93.648V24.547H95.93Zm0-10.477H93.648V20.813H95.93Zm5.406,8.891a1.27,1.27,0,0,0,.945-.355,1.291,1.291,0,0,0,.352-.949h2.078l.016.047a2.645,2.645,0,0,1-.953,2.145,3.564,3.564,0,0,1-2.437.863,3.6,3.6,0,0,1-2.9-1.2A4.558,4.558,0,0,1,97.414,28.9v-.234a4.588,4.588,0,0,1,1.02-3.066,3.57,3.57,0,0,1,2.887-1.207,3.486,3.486,0,0,1,2.492.891,2.976,2.976,0,0,1,.914,2.344l-.016.047h-2.078a1.687,1.687,0,0,0-.348-1.09,1.168,1.168,0,0,0-.965-.434,1.3,1.3,0,0,0-1.254.707,3.878,3.878,0,0,0-.371,1.809V28.9a3.863,3.863,0,0,0,.371,1.82A1.32,1.32,0,0,0,101.336,31.414Zm9.7,1.586a4.8,4.8,0,0,1-.215-.609,4.238,4.238,0,0,1-.129-.656,3.127,3.127,0,0,1-.93,1.023,2.33,2.33,0,0,1-1.375.406,2.855,2.855,0,0,1-2.047-.684,2.449,2.449,0,0,1-.719-1.863,2.229,2.229,0,0,1,.957-1.926,4.78,4.78,0,0,1,2.793-.684h1.281v-.672a1.315,1.315,0,0,0-.32-.945,1.257,1.257,0,0,0-.953-.336,1.239,1.239,0,0,0-.855.27.941.941,0,0,0-.3.738h-2.2l-.016-.047a2.144,2.144,0,0,1,.934-1.848,4.055,4.055,0,0,1,2.582-.777,3.784,3.784,0,0,1,2.465.766,2.667,2.667,0,0,1,.941,2.2v3.492a6.6,6.6,0,0,0,.09,1.117A5.606,5.606,0,0,0,113.313,33Zm-2.086-1.523a1.944,1.944,0,0,0,1.063-.3,1.6,1.6,0,0,0,.641-.687V29.3h-1.281a1.519,1.519,0,0,0-1.1.359,1.181,1.181,0,0,0-.371.883.881.881,0,0,0,.277.684A1.1,1.1,0,0,0,108.953,31.477Zm10.266-.82a.787.787,0,0,0-.363-.645,3.69,3.69,0,0,0-1.348-.473,5.375,5.375,0,0,1-2.254-.9,1.962,1.962,0,0,1-.77-1.633,2.329,2.329,0,0,1,.922-1.852,3.717,3.717,0,0,1,2.453-.766,4.011,4.011,0,0,1,2.566.766,2.237,2.237,0,0,1,.926,1.906l-.016.047h-2.2a1.106,1.106,0,0,0-.328-.828,1.534,1.534,0,0,0-1.812-.047.85.85,0,0,0-.32.672.759.759,0,0,0,.332.637,3.7,3.7,0,0,0,1.348.441,5.484,5.484,0,0,1,2.316.918,2.014,2.014,0,0,1,.762,1.668,2.231,2.231,0,0,1-.977,1.867,4.215,4.215,0,0,1-2.578.727,3.918,3.918,0,0,1-2.668-.855,2.392,2.392,0,0,1-.934-1.949l.016-.047h2.086a1.186,1.186,0,0,0,.445.984,1.838,1.838,0,0,0,1.1.3,1.567,1.567,0,0,0,.965-.254A.824.824,0,0,0,119.219,30.656Zm-115.3,16.8.094.469h.047L5.68,42.547H8.133L4.7,52.266a4.474,4.474,0,0,1-.977,1.527,2.505,2.505,0,0,1-1.852.621,2.863,2.863,0,0,1-.535-.047q-.246-.047-.6-.133l.266-1.664.219.031a1.611,1.611,0,0,0,.211.016A1.243,1.243,0,0,0,2.3,52.34a1.83,1.83,0,0,0,.469-.691l.266-.656-3-8.445H2.492Zm11.844-6.977v2.07H17.2v1.6h-1.43v4.3a.982.982,0,0,0,.207.7.727.727,0,0,0,.543.211,2.178,2.178,0,0,0,.313-.02,2.632,2.632,0,0,0,.3-.066l.188,1.648a4.618,4.618,0,0,1-.668.176,3.982,3.982,0,0,1-.707.059,2.431,2.431,0,0,1-1.816-.648,2.843,2.843,0,0,1-.637-2.055V44.148H12.258v-1.6h1.234v-2.07Zm6.5,10.688A3.8,3.8,0,0,1,19.313,50a4.252,4.252,0,0,1-1.062-2.988V46.7a4.628,4.628,0,0,1,1.031-3.109,3.506,3.506,0,0,1,2.836-1.2,3.282,3.282,0,0,1,2.613,1.043,4.122,4.122,0,0,1,.91,2.809v1.18H20.6l-.023.047a2.284,2.284,0,0,0,.527,1.406,1.766,1.766,0,0,0,1.4.539,4.692,4.692,0,0,0,1.3-.156,5.307,5.307,0,0,0,1.105-.477l.617,1.406a4.234,4.234,0,0,1-1.375.7A6.1,6.1,0,0,1,22.266,51.164Zm-.148-7.016a1.267,1.267,0,0,0-1.059.473,2.371,2.371,0,0,0-.449,1.254l.016.039h2.781v-.172a1.974,1.974,0,0,0-.3-1.168A1.127,1.127,0,0,0,22.117,44.148Zm.273-5.219H24.93l.016.047-2.164,2.031H20.836Zm9.023,5.578-.836-.023a1.519,1.519,0,0,0-.836.211,1.337,1.337,0,0,0-.5.594V51H26.969V42.547h2.117l.1,1.25a2.667,2.667,0,0,1,.77-1.035,1.8,1.8,0,0,1,1.406-.344q.145.027.293.066Zm3.3-1.961.094,1.117a2.84,2.84,0,0,1,1.02-.941,2.932,2.932,0,0,1,1.418-.332,2.582,2.582,0,0,1,1.391.359,2.217,2.217,0,0,1,.875,1.086,2.93,2.93,0,0,1,1.016-1.062A2.756,2.756,0,0,1,42,42.391a2.408,2.408,0,0,1,1.973.887,4.233,4.233,0,0,1,.723,2.707V51H42.414V45.977a2.369,2.369,0,0,0-.312-1.414,1.109,1.109,0,0,0-.93-.4,1.592,1.592,0,0,0-.84.215,1.565,1.565,0,0,0-.566.6q0,.148.008.254t.008.215V51H37.508V45.977a2.376,2.376,0,0,0-.312-1.4,1.1,1.1,0,0,0-.937-.41,1.769,1.769,0,0,0-.809.176,1.551,1.551,0,0,0-.574.5V51H32.6V42.547ZM48.844,51H46.563V42.547h2.281Zm0-10.477H46.563V38.813h2.281Zm5.406,8.891a1.27,1.27,0,0,0,.945-.355,1.291,1.291,0,0,0,.352-.949h2.078l.016.047a2.645,2.645,0,0,1-.953,2.145,3.564,3.564,0,0,1-2.437.863,3.6,3.6,0,0,1-2.9-1.2A4.558,4.558,0,0,1,50.328,46.9v-.234a4.588,4.588,0,0,1,1.02-3.066,3.57,3.57,0,0,1,2.887-1.207,3.486,3.486,0,0,1,2.492.891,2.976,2.976,0,0,1,.914,2.344l-.016.047H55.547a1.687,1.687,0,0,0-.348-1.09,1.168,1.168,0,0,0-.965-.434,1.3,1.3,0,0,0-1.254.707,3.878,3.878,0,0,0-.371,1.809V46.9a3.863,3.863,0,0,0,.371,1.82A1.32,1.32,0,0,0,54.25,49.414ZM63.953,51a4.8,4.8,0,0,1-.215-.609,4.239,4.239,0,0,1-.129-.656,3.127,3.127,0,0,1-.93,1.023,2.33,2.33,0,0,1-1.375.406,2.855,2.855,0,0,1-2.047-.684,2.449,2.449,0,0,1-.719-1.863,2.229,2.229,0,0,1,.957-1.926,4.78,4.78,0,0,1,2.793-.684H63.57v-.672a1.315,1.315,0,0,0-.32-.945,1.257,1.257,0,0,0-.953-.336,1.239,1.239,0,0,0-.855.27.941.941,0,0,0-.3.738h-2.2l-.016-.047a2.144,2.144,0,0,1,.934-1.848,4.055,4.055,0,0,1,2.582-.777,3.784,3.784,0,0,1,2.465.766,2.667,2.667,0,0,1,.941,2.2v3.492a6.6,6.6,0,0,0,.09,1.117A5.606,5.606,0,0,0,66.227,51Zm-2.086-1.523a1.944,1.944,0,0,0,1.063-.3,1.6,1.6,0,0,0,.641-.687V47.3H62.289a1.519,1.519,0,0,0-1.1.359,1.181,1.181,0,0,0-.371.883.881.881,0,0,0,.277.684A1.1,1.1,0,0,0,61.867,49.477Zm10.266-.82a.787.787,0,0,0-.363-.645,3.69,3.69,0,0,0-1.348-.473,5.375,5.375,0,0,1-2.254-.9,1.962,1.962,0,0,1-.77-1.633,2.329,2.329,0,0,1,.922-1.852,3.717,3.717,0,0,1,2.453-.766,4.011,4.011,0,0,1,2.566.766,2.237,2.237,0,0,1,.926,1.906l-.016.047h-2.2a1.106,1.106,0,0,0-.328-.828,1.534,1.534,0,0,0-1.812-.047.85.85,0,0,0-.32.672.759.759,0,0,0,.332.637,3.7,3.7,0,0,0,1.348.441,5.484,5.484,0,0,1,2.316.918,2.014,2.014,0,0,1,.762,1.668,2.231,2.231,0,0,1-.977,1.867,4.215,4.215,0,0,1-2.578.727,3.918,3.918,0,0,1-2.668-.855,2.392,2.392,0,0,1-.934-1.949l.016-.047h2.086a1.186,1.186,0,0,0,.445.984,1.838,1.838,0,0,0,1.1.3,1.567,1.567,0,0,0,.965-.254A.824.824,0,0,0,72.133,48.656ZM78.344,51H76.063V49h2.281Z" transform="translate(-19667 99.433)" fill="#12263f"/>
      <path id="Trazado_715227-2" data-name="Trazado 715227" d="M46.333,23.167a23.065,23.065,0,0,1-4.719,14.015c-4.232,5.562-10.92.581-18.447.581-5.182,0-3.392,4.267-7.251,1.393-1.747-1.3-9.878-.241-11.2-1.974A23.167,23.167,0,1,1,46.333,23.167Z" transform="translate(-19725 102.267)" fill="#ffa686"/>
      <path id="Trazado_715228-2" data-name="Trazado 715228" d="M199.641,51.438H187.187v-5.06a3.806,3.806,0,0,1,3.806-3.806h4.841a3.806,3.806,0,0,1,3.806,3.806Z" transform="translate(-19895.248 63.548)" fill="#e9424a"/>
      <path id="Trazado_715229-2" data-name="Trazado 715229" d="M103.425,92.646c-4.232,5.562-8.063,7.665-15.59,7.665-5.182,0-7.707.107-11.565-2.768-1.747-1.3-3.849-2.456-5.167-4.189l.757-7.279.743-2.318.011-.033,4.342-13.547a11.425,11.425,0,0,1,21.759,0l4.342,13.547.011.033.69,2.151Z" transform="translate(-19789.668 45.659)" fill="#fff9f1"/>
      <g id="Grupo_1017006-2" data-name="Grupo 1017006" transform="translate(-19706.91 119.602)">
        <circle id="Elipse_7976-2" data-name="Elipse 7976" cx="2.225" cy="2.225" r="2.225" fill="#e9424a"/>
        <circle id="Elipse_7977-2" data-name="Elipse 7977" cx="2.225" cy="2.225" r="2.225" transform="translate(5.706)" fill="#fd5758"/>
      </g>
      <path id="Trazado_715230-2" data-name="Trazado 715230" d="M89.045,269.76a23.168,23.168,0,0,1-36.895,0l3.215-10.031a6.217,6.217,0,0,0,11.664,4.246L70.6,255.72l3.568,8.255a6.217,6.217,0,0,0,11.664-4.246Z" transform="translate(-19772.43 -130.312)" fill="#ffe5bf"/>
      <path id="Trazado_715231-2" data-name="Trazado 715231" d="M90.879,62.653a11.425,11.425,0,0,0-7.834,7.525L78.7,83.724l-.011.033-3.549,11.07L71.1,90.981l.982-5.606.519-1.618.011-.033,4.342-13.547a11.427,11.427,0,0,1,13.924-7.525Z" transform="translate(-19789.666 45.659)" fill="#f7eadc"/>
      <g id="Grupo_1017007-2" data-name="Grupo 1017007" transform="translate(-19712.543 125.433)">
        <path id="Trazado_715232-2" data-name="Trazado 715232" d="M143.079,256l-4.155,3.691a3.8,3.8,0,1,0,6.176,3.91l1.9-6.494L143.7,256" transform="translate(-137.646 -256)" fill="#e9424a"/>
        <path id="Trazado_715233-2" data-name="Trazado 715233" d="M274.926,256l4.155,3.691a3.8,3.8,0,1,1-6.176,3.91l-1.9-6.494L274.3,256" transform="translate(-258.938 -256)" fill="#fd5758"/>
      </g>
      <path id="Trazado_715234-2" data-name="Trazado 715234" d="M59.032,307.58l-2.259,7.048a23.3,23.3,0,0,1-4.623-4.576l3.215-10.031a6.211,6.211,0,0,0,3.667,7.56Z" transform="translate(-19772.432 -170.603)" fill="#ffe0a7"/>
      <g id="Grupo_1017008-2" data-name="Grupo 1017008" transform="translate(-19708.785 128.838)">
        <path id="Trazado_715235-2" data-name="Trazado 715235" d="M182.358,307.989a3.174,3.174,0,0,0,3.174-3.174v-9.167l-1.9-2.024-4.353,10.415A3.174,3.174,0,0,0,182.358,307.989Z" transform="translate(-179.182 -293.624)" fill="#fd5758"/>
        <path id="Trazado_715236-2" data-name="Trazado 715236" d="M265.834,307.989a3.174,3.174,0,0,1-3.174-3.174v-9.167l3.624-2.024,2.627,10.415A3.174,3.174,0,0,1,265.834,307.989Z" transform="translate(-255.106 -293.624)" fill="#fd5758"/>
      </g>
      <g id="Grupo_1017009-2" data-name="Grupo 1017009" transform="translate(-19708.785 128.838)">
        <path id="Trazado_715237-2" data-name="Trazado 715237" d="M183.555,307.755a3.176,3.176,0,0,1-4.278-3.715l2.628-10.416,2.1,1.176-2.33,9.24A3.174,3.174,0,0,0,183.555,307.755Z" transform="translate(-179.18 -293.624)" fill="#e9424a"/>
        <path id="Trazado_715238-2" data-name="Trazado 715238" d="M267.035,307.755a3.178,3.178,0,0,1-4.375-2.939v-9.167l3.623-2.024.3,1.176-1.518.848v9.167A3.174,3.174,0,0,0,267.035,307.755Z" transform="translate(-255.105 -293.624)" fill="#e9424a"/>
      </g>
      <g id="Grupo_1017010-2" data-name="Grupo 1017010" transform="translate(-19705.141 102.267)">
        <path id="Trazado_715239-2" data-name="Trazado 715239" d="M228.875,0c-1.986,0-2.663,1.881-2.421,3.852l-.278,4.6a2.719,2.719,0,0,0,5.4,0l.583-4.747a3.307,3.307,0,0,0-3.282-3.71Z" transform="translate(-225.568 -0.005)" fill="#fd5758"/>
        <path id="Trazado_715240-2" data-name="Trazado 715240" d="M224.038,10.526a2.72,2.72,0,0,1-3.976-2.069l-.583-4.747A3.309,3.309,0,0,1,224.038.255a3.308,3.308,0,0,0-2,3.455l.583,4.747A2.718,2.718,0,0,0,224.038,10.526Z" transform="translate(-219.453)" fill="#e9424a"/>
      </g>
      <g id="Grupo_1017011-2" data-name="Grupo 1017011" transform="translate(-19714.988 117.705)">
        <ellipse id="Elipse_7978-2" data-name="Elipse 7978" cx="2.213" cy="3.277" rx="2.213" ry="3.277" transform="translate(0 0)" fill="#516666"/>
        <path id="Trazado_715241-2" data-name="Trazado 715241" d="M113.959,176.71a1.693,1.693,0,0,1-1.106.439c-1.223,0-2.213-1.467-2.213-3.277s.99-3.277,2.213-3.277a1.694,1.694,0,0,1,1.106.439,4.194,4.194,0,0,0,0,5.676Z" transform="translate(-110.64 -170.595)" fill="#384948"/>
        <ellipse id="Elipse_7979-2" data-name="Elipse 7979" cx="2.213" cy="3.277" rx="2.213" ry="3.277" transform="translate(21.882 0)" fill="#516666"/>
        <path id="Trazado_715242-2" data-name="Trazado 715242" d="M355.762,176.71a1.693,1.693,0,0,1-1.106.439c-1.223,0-2.213-1.467-2.213-3.277s.99-3.277,2.213-3.277a1.694,1.694,0,0,1,1.106.439,4.194,4.194,0,0,0,0,5.676Z" transform="translate(-330.561 -170.595)" fill="#384948"/>
      </g>
      <path id="Trazado_715243-2" data-name="Trazado 715243" d="M206.229,256v2.816l-2.215,2.626a5.764,5.764,0,0,0-1.251,2.61,2.069,2.069,0,0,1-.717,1.2,1.984,1.984,0,0,1-.2.146,2.072,2.072,0,0,1-3.15-1.348,5.76,5.76,0,0,0-1.251-2.61l-2.215-2.626.565-2.816Z" transform="translate(-19902.563 -130.567)" fill="#f5cf33"/>
      <path id="Trazado_715244-2" data-name="Trazado 715244" d="M201.846,265.4a2.072,2.072,0,0,1-3.15-1.348,5.76,5.76,0,0,0-1.251-2.61l-2.215-2.626.565-2.816h.624l2.19,1.723,2.121,4.838v.866A2.3,2.3,0,0,0,201.846,265.4Z" transform="translate(-19902.563 -130.567)" fill="#f2b632"/>
      <path id="Trazado_715245-2" data-name="Trazado 715245" d="M198.288,175.739a.878.878,0,0,1-1.677.363.89.89,0,0,0-1.453-.245L193.5,177.59a2.2,2.2,0,0,1-3.187,0l-1.381-1.447-.36-.689a.8.8,0,0,0-.639-.2,1.082,1.082,0,0,0-.886.6,1.1,1.1,0,0,1-.346.432c-.139.089-.122.045-.294.045-.552,0-.967-.23-.861-.772l.267-1.356a3.37,3.37,0,0,1,1.748-2.337l.322-.167a3.166,3.166,0,0,0,1.7-2.807v-.961a2.322,2.322,0,0,1,2.813-2.267c.069.015.137.033.2.053a2.321,2.321,0,0,1,1.623,2.214v.961a3.166,3.166,0,0,0,1.7,2.807l.322.167A3.37,3.37,0,0,1,198,174.213l.267,1.356A.857.857,0,0,1,198.288,175.739Z" transform="translate(-19893.744 -48.366)" fill="#fde42f"/>
      <path id="Trazado_715246-2" data-name="Trazado 715246" d="M192.607,165.726a1.946,1.946,0,0,0-1.31,1.712l-.2,2.959a2.784,2.784,0,0,1-1.474,2.275,1.575,1.575,0,0,0-.838,1.392c0,.039,0,.078,0,.117l.145,1.962-.272-.286a.89.89,0,0,0-1.453.245.878.878,0,0,1-1.66-.534l.267-1.356a3.37,3.37,0,0,1,1.748-2.337l.322-.167a3.166,3.166,0,0,0,1.7-2.807v-.961a2.322,2.322,0,0,1,2.813-2.267c.069.015.137.033.2.053Z" transform="translate(-19893.744 -48.366)" fill="#f5cf33"/>
      <path id="Trazado_717332" data-name="Trazado 717332" d="M10,0H149a10,10,0,0,1,10,10V86.667a10,10,0,0,1-10,10H10a10,10,0,0,1-10-10V10A10,10,0,0,1,10,0Z" transform="translate(-19484 78.6)" fill="#f6f6f6"/>
      <path id="Trazado_717333" data-name="Trazado 717333" d="M3.328,13.25H8.422V15H1.047V3.625H3.328ZM12.164,15H9.883V6.547h2.281Zm0-10.477H9.883V2.813h2.281Zm9.5,6.484a4.945,4.945,0,0,1-.844,3.023,2.854,2.854,0,0,1-2.437,1.133,2.576,2.576,0,0,1-1.293-.312,2.672,2.672,0,0,1-.934-.914L15.969,15h-1.93V2.813h2.273V7.445a2.582,2.582,0,0,1,.879-.781,2.457,2.457,0,0,1,1.176-.273A2.8,2.8,0,0,1,20.82,7.605a5.577,5.577,0,0,1,.844,3.238Zm-2.273-.164a4.4,4.4,0,0,0-.363-1.957,1.275,1.275,0,0,0-1.238-.723,1.7,1.7,0,0,0-.9.223,1.543,1.543,0,0,0-.578.637V12.6a1.449,1.449,0,0,0,.582.586,1.874,1.874,0,0,0,.91.2,1.3,1.3,0,0,0,1.234-.621,3.618,3.618,0,0,0,.352-1.762Zm8.125-2.336-.836-.023a1.519,1.519,0,0,0-.836.211,1.337,1.337,0,0,0-.5.594V15H23.07V6.547h2.117l.1,1.25a2.667,2.667,0,0,1,.77-1.035,1.8,1.8,0,0,1,1.406-.344q.145.027.293.066Zm4.7,6.656A3.8,3.8,0,0,1,29.266,14,4.252,4.252,0,0,1,28.2,11.016V10.7a4.628,4.628,0,0,1,1.031-3.109,3.506,3.506,0,0,1,2.836-1.2,3.282,3.282,0,0,1,2.613,1.043,4.122,4.122,0,0,1,.91,2.809v1.18H30.555l-.023.047a2.284,2.284,0,0,0,.527,1.406,1.766,1.766,0,0,0,1.4.539,4.692,4.692,0,0,0,1.3-.156,5.307,5.307,0,0,0,1.105-.477l.617,1.406a4.234,4.234,0,0,1-1.375.7A6.1,6.1,0,0,1,32.219,15.164ZM32.07,8.148a1.267,1.267,0,0,0-1.059.473,2.371,2.371,0,0,0-.449,1.254l.016.039h2.781V9.742a1.974,1.974,0,0,0-.3-1.168A1.127,1.127,0,0,0,32.07,8.148Zm8.484,2.7a5.493,5.493,0,0,1,.863-3.227,2.8,2.8,0,0,1,2.434-1.227,2.367,2.367,0,0,1,1.141.273,2.744,2.744,0,0,1,.891.781V2.813h2.289V15H46.227l-.2-1.039a2.826,2.826,0,0,1-.945.895,2.5,2.5,0,0,1-1.25.309,2.858,2.858,0,0,1-2.418-1.141,4.871,4.871,0,0,1-.863-3.016Zm2.273.164a3.443,3.443,0,0,0,.375,1.746,1.306,1.306,0,0,0,1.219.637,1.775,1.775,0,0,0,.859-.2,1.589,1.589,0,0,0,.6-.582v-3.6a1.756,1.756,0,0,0-.6-.621,1.589,1.589,0,0,0-.848-.223,1.287,1.287,0,0,0-1.223.742,4.194,4.194,0,0,0-.387,1.938ZM53.6,15.164A3.8,3.8,0,0,1,50.648,14a4.252,4.252,0,0,1-1.062-2.988V10.7a4.628,4.628,0,0,1,1.031-3.109,3.506,3.506,0,0,1,2.836-1.2,3.282,3.282,0,0,1,2.613,1.043,4.122,4.122,0,0,1,.91,2.809v1.18H51.938l-.023.047a2.284,2.284,0,0,0,.527,1.406,1.766,1.766,0,0,0,1.4.539,4.692,4.692,0,0,0,1.3-.156,5.307,5.307,0,0,0,1.105-.477l.617,1.406a4.234,4.234,0,0,1-1.375.7A6.1,6.1,0,0,1,53.6,15.164Zm-.148-7.016a1.267,1.267,0,0,0-1.059.473,2.371,2.371,0,0,0-.449,1.254l.016.039h2.781V9.742a1.974,1.974,0,0,0-.3-1.168A1.127,1.127,0,0,0,53.453,8.148Zm8.484,2.7A5.493,5.493,0,0,1,62.8,7.617a2.8,2.8,0,0,1,2.434-1.227,2.367,2.367,0,0,1,1.141.273,2.744,2.744,0,0,1,.891.781V2.813h2.289V15H67.609l-.2-1.039a2.826,2.826,0,0,1-.945.895,2.5,2.5,0,0,1-1.25.309A2.858,2.858,0,0,1,62.8,14.023a4.871,4.871,0,0,1-.863-3.016Zm2.273.164a3.443,3.443,0,0,0,.375,1.746,1.306,1.306,0,0,0,1.219.637,1.775,1.775,0,0,0,.859-.2,1.589,1.589,0,0,0,.6-.582v-3.6a1.756,1.756,0,0,0-.6-.621,1.589,1.589,0,0,0-.848-.223,1.287,1.287,0,0,0-1.223.742,4.194,4.194,0,0,0-.387,1.938Zm6.758-.312a4.536,4.536,0,0,1,1.055-3.1,3.676,3.676,0,0,1,2.922-1.207,3.715,3.715,0,0,1,2.938,1.2,4.512,4.512,0,0,1,1.063,3.1v.164a4.519,4.519,0,0,1-1.059,3.105,4.178,4.178,0,0,1-5.859,0,4.519,4.519,0,0,1-1.059-3.105Zm2.273.164a3.677,3.677,0,0,0,.406,1.855,1.561,1.561,0,0,0,2.605,0,3.653,3.653,0,0,0,.41-1.852V10.7a3.616,3.616,0,0,0-.414-1.836,1.4,1.4,0,0,0-1.3-.711,1.384,1.384,0,0,0-1.293.715,3.648,3.648,0,0,0-.41,1.832ZM82.75,15H80.469V2.813H82.75Zm1.523-4.3a4.536,4.536,0,0,1,1.055-3.1A3.676,3.676,0,0,1,88.25,6.391a3.715,3.715,0,0,1,2.938,1.2,4.512,4.512,0,0,1,1.063,3.1v.164a4.519,4.519,0,0,1-1.059,3.105,4.178,4.178,0,0,1-5.859,0,4.519,4.519,0,0,1-1.059-3.105Zm2.273.164a3.677,3.677,0,0,0,.406,1.855,1.561,1.561,0,0,0,2.605,0,3.653,3.653,0,0,0,.41-1.852V10.7a3.616,3.616,0,0,0-.414-1.836,1.4,1.4,0,0,0-1.3-.711,1.384,1.384,0,0,0-1.293.715,3.648,3.648,0,0,0-.41,1.832ZM98.1,8.508l-.836-.023a1.519,1.519,0,0,0-.836.211,1.337,1.337,0,0,0-.5.594V15H93.656V6.547h2.117l.1,1.25a2.667,2.667,0,0,1,.77-1.035,1.8,1.8,0,0,1,1.406-.344q.145.027.293.066ZM100.32,14.9l-1.242,2.461H97.555l.547-2.531V13.047h2.219ZM3.273,33H.992V20.813H3.273Zm5.539.164A3.8,3.8,0,0,1,5.859,32,4.252,4.252,0,0,1,4.8,29.016V28.7a4.628,4.628,0,0,1,1.031-3.109,3.506,3.506,0,0,1,2.836-1.2,3.282,3.282,0,0,1,2.613,1.043,4.122,4.122,0,0,1,.91,2.809v1.18H7.148l-.023.047a2.284,2.284,0,0,0,.527,1.406,1.766,1.766,0,0,0,1.4.539,4.692,4.692,0,0,0,1.3-.156,5.307,5.307,0,0,0,1.105-.477l.617,1.406a4.234,4.234,0,0,1-1.375.7A6.1,6.1,0,0,1,8.813,33.164Zm-.148-7.016a1.267,1.267,0,0,0-1.059.473,2.371,2.371,0,0,0-.449,1.254l.016.039H9.953v-.172a1.974,1.974,0,0,0-.3-1.168A1.127,1.127,0,0,0,8.664,26.148Zm9.422,4.508a.787.787,0,0,0-.363-.645,3.69,3.69,0,0,0-1.348-.473,5.375,5.375,0,0,1-2.254-.9,1.962,1.962,0,0,1-.77-1.633,2.329,2.329,0,0,1,.922-1.852,3.717,3.717,0,0,1,2.453-.766,4.011,4.011,0,0,1,2.566.766,2.237,2.237,0,0,1,.926,1.906l-.016.047H18a1.106,1.106,0,0,0-.328-.828,1.534,1.534,0,0,0-1.812-.047.85.85,0,0,0-.32.672.759.759,0,0,0,.332.637,3.7,3.7,0,0,0,1.348.441,5.484,5.484,0,0,1,2.316.918A2.014,2.014,0,0,1,20.3,30.57a2.231,2.231,0,0,1-.977,1.867,4.215,4.215,0,0,1-2.578.727,3.918,3.918,0,0,1-2.668-.855,2.392,2.392,0,0,1-.934-1.949l.016-.047h2.086a1.186,1.186,0,0,0,.445.984,1.838,1.838,0,0,0,1.1.3,1.567,1.567,0,0,0,.965-.254A.824.824,0,0,0,18.086,30.656ZM24.164,33H21.883V24.547h2.281Zm0-10.477H21.883V20.813h2.281ZM25.688,28.7a4.536,4.536,0,0,1,1.055-3.1,3.676,3.676,0,0,1,2.922-1.207,3.715,3.715,0,0,1,2.938,1.2,4.512,4.512,0,0,1,1.063,3.1v.164a4.519,4.519,0,0,1-1.059,3.105,3.7,3.7,0,0,1-2.926,1.2,3.709,3.709,0,0,1-2.934-1.2,4.519,4.519,0,0,1-1.059-3.105Zm2.273.164a3.677,3.677,0,0,0,.406,1.855,1.561,1.561,0,0,0,2.605,0,3.653,3.653,0,0,0,.41-1.852V28.7a3.616,3.616,0,0,0-.414-1.836,1.4,1.4,0,0,0-1.3-.711,1.384,1.384,0,0,0-1.293.715,3.648,3.648,0,0,0-.41,1.832Zm2.164-7.922h2.539l.016.047-2.164,2.031H28.57Zm7.031,3.609.1,1.211A3.092,3.092,0,0,1,38.3,24.75a2.7,2.7,0,0,1,1.383-.359,2.513,2.513,0,0,1,2,.824A3.908,3.908,0,0,1,42.4,27.82V33H40.109V27.828a2.024,2.024,0,0,0-.316-1.285,1.166,1.166,0,0,0-.949-.379,1.992,1.992,0,0,0-.895.191,1.746,1.746,0,0,0-.637.527V33H35.031V24.547Zm13.977,4.906.094.469h.047l1.617-5.375h2.453l-3.43,9.719a4.474,4.474,0,0,1-.977,1.527,2.505,2.505,0,0,1-1.852.621,2.863,2.863,0,0,1-.535-.047q-.246-.047-.6-.133l.266-1.664.219.031a1.611,1.611,0,0,0,.211.016,1.243,1.243,0,0,0,.867-.277,1.83,1.83,0,0,0,.469-.691l.266-.656-3-8.445H49.7ZM4.539,51.164A3.8,3.8,0,0,1,1.586,50,4.252,4.252,0,0,1,.523,47.016V46.7a4.628,4.628,0,0,1,1.031-3.109,3.506,3.506,0,0,1,2.836-1.2A3.282,3.282,0,0,1,7,43.434a4.122,4.122,0,0,1,.91,2.809v1.18H2.875l-.023.047a2.284,2.284,0,0,0,.527,1.406,1.766,1.766,0,0,0,1.4.539,4.692,4.692,0,0,0,1.3-.156,5.307,5.307,0,0,0,1.105-.477L7.8,50.188a4.234,4.234,0,0,1-1.375.7A6.1,6.1,0,0,1,4.539,51.164Zm-.148-7.016a1.267,1.267,0,0,0-1.059.473,2.371,2.371,0,0,0-.449,1.254l.016.039H5.68v-.172a1.974,1.974,0,0,0-.3-1.168A1.127,1.127,0,0,0,4.391,44.148Zm6.938-1.6.1,1.211a3.092,3.092,0,0,1,1.039-1.008,2.7,2.7,0,0,1,1.383-.359,2.513,2.513,0,0,1,2,.824,3.908,3.908,0,0,1,.719,2.605V51H14.281V45.828a2.024,2.024,0,0,0-.316-1.285,1.166,1.166,0,0,0-.949-.379,1.992,1.992,0,0,0-.895.191,1.746,1.746,0,0,0-.637.527V51H9.2V42.547ZM18.867,51V44.148H17.609v-1.6h1.258v-.937a2.859,2.859,0,0,1,.82-2.191,3.239,3.239,0,0,1,2.3-.77,4.168,4.168,0,0,1,.59.043q.3.043.66.121l-.2,1.7q-.187-.031-.363-.055a3.144,3.144,0,0,0-.41-.023,1.1,1.1,0,0,0-.84.3,1.234,1.234,0,0,0-.285.875v.938h1.625v1.6H21.148V51Zm8.461.164A3.8,3.8,0,0,1,24.375,50a4.252,4.252,0,0,1-1.062-2.988V46.7a4.628,4.628,0,0,1,1.031-3.109,3.506,3.506,0,0,1,2.836-1.2,3.282,3.282,0,0,1,2.613,1.043,4.122,4.122,0,0,1,.91,2.809v1.18H25.664l-.023.047a2.284,2.284,0,0,0,.527,1.406,1.766,1.766,0,0,0,1.4.539,4.692,4.692,0,0,0,1.3-.156,5.307,5.307,0,0,0,1.105-.477l.617,1.406a4.234,4.234,0,0,1-1.375.7A6.1,6.1,0,0,1,27.328,51.164Zm-.148-7.016a1.267,1.267,0,0,0-1.059.473,2.371,2.371,0,0,0-.449,1.254l.016.039h2.781v-.172a1.974,1.974,0,0,0-.3-1.168A1.127,1.127,0,0,0,27.18,44.148Zm9.3.359-.836-.023a1.519,1.519,0,0,0-.836.211,1.337,1.337,0,0,0-.5.594V51H32.031V42.547h2.117l.1,1.25a2.667,2.667,0,0,1,.77-1.035,1.8,1.8,0,0,1,1.406-.344q.145.027.293.066Zm3.3-1.961.094,1.117a2.84,2.84,0,0,1,1.02-.941,2.932,2.932,0,0,1,1.418-.332,2.582,2.582,0,0,1,1.391.359,2.217,2.217,0,0,1,.875,1.086,2.93,2.93,0,0,1,1.016-1.062,2.756,2.756,0,0,1,1.469-.383,2.408,2.408,0,0,1,1.973.887,4.233,4.233,0,0,1,.723,2.707V51H47.477V45.977a2.369,2.369,0,0,0-.312-1.414,1.109,1.109,0,0,0-.93-.4,1.592,1.592,0,0,0-.84.215,1.565,1.565,0,0,0-.566.6q0,.148.008.254t.008.215V51H42.57V45.977a2.376,2.376,0,0,0-.312-1.4,1.1,1.1,0,0,0-.937-.41,1.769,1.769,0,0,0-.809.176,1.551,1.551,0,0,0-.574.5V51H37.664V42.547Zm15.391,8.617A3.8,3.8,0,0,1,52.219,50a4.252,4.252,0,0,1-1.062-2.988V46.7a4.628,4.628,0,0,1,1.031-3.109,3.506,3.506,0,0,1,2.836-1.2,3.282,3.282,0,0,1,2.613,1.043,4.122,4.122,0,0,1,.91,2.809v1.18H53.508l-.023.047a2.284,2.284,0,0,0,.527,1.406,1.766,1.766,0,0,0,1.4.539,4.692,4.692,0,0,0,1.3-.156,5.307,5.307,0,0,0,1.105-.477l.617,1.406a4.234,4.234,0,0,1-1.375.7A6.1,6.1,0,0,1,55.172,51.164Zm-.148-7.016a1.267,1.267,0,0,0-1.059.473,2.371,2.371,0,0,0-.449,1.254l.016.039h2.781v-.172a1.974,1.974,0,0,0-.3-1.168A1.127,1.127,0,0,0,55.023,44.148Zm4.5,2.7a5.493,5.493,0,0,1,.863-3.227,2.8,2.8,0,0,1,2.434-1.227,2.367,2.367,0,0,1,1.141.273,2.744,2.744,0,0,1,.891.781V38.813h2.289V51H65.2L65,49.961a2.826,2.826,0,0,1-.945.895,2.5,2.5,0,0,1-1.25.309,2.858,2.858,0,0,1-2.418-1.141,4.871,4.871,0,0,1-.863-3.016Zm2.273.164a3.443,3.443,0,0,0,.375,1.746,1.306,1.306,0,0,0,1.219.637,1.775,1.775,0,0,0,.859-.2,1.589,1.589,0,0,0,.6-.582v-3.6a1.756,1.756,0,0,0-.6-.621,1.589,1.589,0,0,0-.848-.223,1.287,1.287,0,0,0-1.223.742,4.194,4.194,0,0,0-.387,1.938ZM73.891,51a4.8,4.8,0,0,1-.215-.609,4.238,4.238,0,0,1-.129-.656,3.127,3.127,0,0,1-.93,1.023,2.33,2.33,0,0,1-1.375.406A2.855,2.855,0,0,1,69.2,50.48a2.449,2.449,0,0,1-.719-1.863,2.229,2.229,0,0,1,.957-1.926,4.78,4.78,0,0,1,2.793-.684h1.281v-.672a1.315,1.315,0,0,0-.32-.945,1.257,1.257,0,0,0-.953-.336,1.239,1.239,0,0,0-.855.27.941.941,0,0,0-.3.738h-2.2l-.016-.047a2.144,2.144,0,0,1,.934-1.848,4.055,4.055,0,0,1,2.582-.777,3.784,3.784,0,0,1,2.465.766,2.667,2.667,0,0,1,.941,2.2v3.492a6.6,6.6,0,0,0,.09,1.117A5.606,5.606,0,0,0,76.164,51ZM71.8,49.477a1.944,1.944,0,0,0,1.063-.3,1.6,1.6,0,0,0,.641-.687V47.3H72.227a1.519,1.519,0,0,0-1.1.359,1.181,1.181,0,0,0-.371.883.881.881,0,0,0,.277.684A1.1,1.1,0,0,0,71.8,49.477Zm5.344-2.633a5.493,5.493,0,0,1,.863-3.227,2.8,2.8,0,0,1,2.434-1.227,2.367,2.367,0,0,1,1.141.273,2.744,2.744,0,0,1,.891.781V38.813h2.289V51H82.82l-.2-1.039a2.826,2.826,0,0,1-.945.895,2.5,2.5,0,0,1-1.25.309,2.858,2.858,0,0,1-2.418-1.141,4.871,4.871,0,0,1-.863-3.016Zm2.273.164a3.443,3.443,0,0,0,.375,1.746,1.306,1.306,0,0,0,1.219.637,1.775,1.775,0,0,0,.859-.2,1.589,1.589,0,0,0,.6-.582v-3.6a1.756,1.756,0,0,0-.6-.621,1.589,1.589,0,0,0-.848-.223,1.287,1.287,0,0,0-1.223.742,4.194,4.194,0,0,0-.387,1.938ZM89.063,51H86.781V49h2.281Z" transform="translate(-19457 99.433)" fill="#12263f"/>
      <path id="Trazado_715227-3" data-name="Trazado 715227" d="M46.333,23.167a23.065,23.065,0,0,1-4.719,14.015c-4.232,5.562-10.92.581-18.447.581-5.182,0-3.392,4.267-7.251,1.393-1.747-1.3-9.878-.241-11.2-1.974A23.167,23.167,0,1,1,46.333,23.167Z" transform="translate(-19515 103.767)" fill="#ffa686"/>
      <path id="Trazado_715228-3" data-name="Trazado 715228" d="M199.641,51.438H187.187v-5.06a3.806,3.806,0,0,1,3.806-3.806h4.841a3.806,3.806,0,0,1,3.806,3.806Z" transform="translate(-19685.248 65.048)" fill="#e9424a"/>
      <path id="Trazado_715229-3" data-name="Trazado 715229" d="M103.425,92.646c-4.232,5.562-8.063,7.665-15.59,7.665-5.182,0-7.707.107-11.565-2.768-1.747-1.3-3.849-2.456-5.167-4.189l.757-7.279.743-2.318.011-.033,4.342-13.547a11.425,11.425,0,0,1,21.759,0l4.342,13.547.011.033.69,2.151Z" transform="translate(-19579.668 47.159)" fill="#fff9f1"/>
      <g id="Grupo_1017006-3" data-name="Grupo 1017006" transform="translate(-19496.91 121.102)">
        <circle id="Elipse_7976-3" data-name="Elipse 7976" cx="2.225" cy="2.225" r="2.225" fill="#e9424a"/>
        <circle id="Elipse_7977-3" data-name="Elipse 7977" cx="2.225" cy="2.225" r="2.225" transform="translate(5.706)" fill="#fd5758"/>
      </g>
      <path id="Trazado_715230-3" data-name="Trazado 715230" d="M89.045,269.76a23.168,23.168,0,0,1-36.895,0l3.215-10.031a6.217,6.217,0,0,0,11.664,4.246L70.6,255.72l3.568,8.255a6.217,6.217,0,0,0,11.664-4.246Z" transform="translate(-19562.43 -128.812)" fill="#ffe5bf"/>
      <path id="Trazado_715231-3" data-name="Trazado 715231" d="M90.879,62.653a11.425,11.425,0,0,0-7.834,7.525L78.7,83.724l-.011.033-3.549,11.07L71.1,90.981l.982-5.606.519-1.618.011-.033,4.342-13.547a11.427,11.427,0,0,1,13.924-7.525Z" transform="translate(-19579.666 47.159)" fill="#f7eadc"/>
      <g id="Grupo_1017007-3" data-name="Grupo 1017007" transform="translate(-19502.543 126.933)">
        <path id="Trazado_715232-3" data-name="Trazado 715232" d="M143.079,256l-4.155,3.691a3.8,3.8,0,1,0,6.176,3.91l1.9-6.494L143.7,256" transform="translate(-137.646 -256)" fill="#e9424a"/>
        <path id="Trazado_715233-3" data-name="Trazado 715233" d="M274.926,256l4.155,3.691a3.8,3.8,0,1,1-6.176,3.91l-1.9-6.494L274.3,256" transform="translate(-258.938 -256)" fill="#fd5758"/>
      </g>
      <path id="Trazado_715234-3" data-name="Trazado 715234" d="M59.032,307.58l-2.259,7.048a23.3,23.3,0,0,1-4.623-4.576l3.215-10.031a6.211,6.211,0,0,0,3.667,7.56Z" transform="translate(-19562.432 -169.103)" fill="#ffe0a7"/>
      <g id="Grupo_1017008-3" data-name="Grupo 1017008" transform="translate(-19498.785 130.338)">
        <path id="Trazado_715235-3" data-name="Trazado 715235" d="M182.358,307.989a3.174,3.174,0,0,0,3.174-3.174v-9.167l-1.9-2.024-4.353,10.415A3.174,3.174,0,0,0,182.358,307.989Z" transform="translate(-179.182 -293.624)" fill="#fd5758"/>
        <path id="Trazado_715236-3" data-name="Trazado 715236" d="M265.834,307.989a3.174,3.174,0,0,1-3.174-3.174v-9.167l3.624-2.024,2.627,10.415A3.174,3.174,0,0,1,265.834,307.989Z" transform="translate(-255.106 -293.624)" fill="#fd5758"/>
      </g>
      <g id="Grupo_1017009-3" data-name="Grupo 1017009" transform="translate(-19498.785 130.338)">
        <path id="Trazado_715237-3" data-name="Trazado 715237" d="M183.555,307.755a3.176,3.176,0,0,1-4.278-3.715l2.628-10.416,2.1,1.176-2.33,9.24A3.174,3.174,0,0,0,183.555,307.755Z" transform="translate(-179.18 -293.624)" fill="#e9424a"/>
        <path id="Trazado_715238-3" data-name="Trazado 715238" d="M267.035,307.755a3.178,3.178,0,0,1-4.375-2.939v-9.167l3.623-2.024.3,1.176-1.518.848v9.167A3.174,3.174,0,0,0,267.035,307.755Z" transform="translate(-255.105 -293.624)" fill="#e9424a"/>
      </g>
      <g id="Grupo_1017010-3" data-name="Grupo 1017010" transform="translate(-19495.141 103.767)">
        <path id="Trazado_715239-3" data-name="Trazado 715239" d="M228.875,0c-1.986,0-2.663,1.881-2.421,3.852l-.278,4.6a2.719,2.719,0,0,0,5.4,0l.583-4.747a3.307,3.307,0,0,0-3.282-3.71Z" transform="translate(-225.568 -0.005)" fill="#fd5758"/>
        <path id="Trazado_715240-3" data-name="Trazado 715240" d="M224.038,10.526a2.72,2.72,0,0,1-3.976-2.069l-.583-4.747A3.309,3.309,0,0,1,224.038.255a3.308,3.308,0,0,0-2,3.455l.583,4.747A2.718,2.718,0,0,0,224.038,10.526Z" transform="translate(-219.453)" fill="#e9424a"/>
      </g>
      <g id="Grupo_1017011-3" data-name="Grupo 1017011" transform="translate(-19504.988 119.205)">
        <ellipse id="Elipse_7978-3" data-name="Elipse 7978" cx="2.213" cy="3.277" rx="2.213" ry="3.277" transform="translate(0 0)" fill="#516666"/>
        <path id="Trazado_715241-3" data-name="Trazado 715241" d="M113.959,176.71a1.693,1.693,0,0,1-1.106.439c-1.223,0-2.213-1.467-2.213-3.277s.99-3.277,2.213-3.277a1.694,1.694,0,0,1,1.106.439,4.194,4.194,0,0,0,0,5.676Z" transform="translate(-110.64 -170.595)" fill="#384948"/>
        <ellipse id="Elipse_7979-3" data-name="Elipse 7979" cx="2.213" cy="3.277" rx="2.213" ry="3.277" transform="translate(21.882 0)" fill="#516666"/>
        <path id="Trazado_715242-3" data-name="Trazado 715242" d="M355.762,176.71a1.693,1.693,0,0,1-1.106.439c-1.223,0-2.213-1.467-2.213-3.277s.99-3.277,2.213-3.277a1.694,1.694,0,0,1,1.106.439,4.194,4.194,0,0,0,0,5.676Z" transform="translate(-330.561 -170.595)" fill="#384948"/>
      </g>
      <path id="Trazado_715243-3" data-name="Trazado 715243" d="M206.229,256v2.816l-2.215,2.626a5.764,5.764,0,0,0-1.251,2.61,2.069,2.069,0,0,1-.717,1.2,1.984,1.984,0,0,1-.2.146,2.072,2.072,0,0,1-3.15-1.348,5.76,5.76,0,0,0-1.251-2.61l-2.215-2.626.565-2.816Z" transform="translate(-19692.563 -129.067)" fill="#f5cf33"/>
      <path id="Trazado_715244-3" data-name="Trazado 715244" d="M201.846,265.4a2.072,2.072,0,0,1-3.15-1.348,5.76,5.76,0,0,0-1.251-2.61l-2.215-2.626.565-2.816h.624l2.19,1.723,2.121,4.838v.866A2.3,2.3,0,0,0,201.846,265.4Z" transform="translate(-19692.563 -129.067)" fill="#f2b632"/>
      <path id="Trazado_715245-3" data-name="Trazado 715245" d="M198.288,175.739a.878.878,0,0,1-1.677.363.89.89,0,0,0-1.453-.245L193.5,177.59a2.2,2.2,0,0,1-3.187,0l-1.381-1.447-.36-.689a.8.8,0,0,0-.639-.2,1.082,1.082,0,0,0-.886.6,1.1,1.1,0,0,1-.346.432c-.139.089-.122.045-.294.045-.552,0-.967-.23-.861-.772l.267-1.356a3.37,3.37,0,0,1,1.748-2.337l.322-.167a3.166,3.166,0,0,0,1.7-2.807v-.961a2.322,2.322,0,0,1,2.813-2.267c.069.015.137.033.2.053a2.321,2.321,0,0,1,1.623,2.214v.961a3.166,3.166,0,0,0,1.7,2.807l.322.167A3.37,3.37,0,0,1,198,174.213l.267,1.356A.857.857,0,0,1,198.288,175.739Z" transform="translate(-19683.744 -46.866)" fill="#fde42f"/>
      <path id="Trazado_715246-3" data-name="Trazado 715246" d="M192.607,165.726a1.946,1.946,0,0,0-1.31,1.712l-.2,2.959a2.784,2.784,0,0,1-1.474,2.275,1.575,1.575,0,0,0-.838,1.392c0,.039,0,.078,0,.117l.145,1.962-.272-.286a.89.89,0,0,0-1.453.245.878.878,0,0,1-1.66-.534l.267-1.356a3.37,3.37,0,0,1,1.748-2.337l.322-.167a3.166,3.166,0,0,0,1.7-2.807v-.961a2.322,2.322,0,0,1,2.813-2.267c.069.015.137.033.2.053Z" transform="translate(-19683.744 -46.866)" fill="#f5cf33"/>
      <path id="Trazado_717330" data-name="Trazado 717330" d="M10,0H359a10,10,0,0,1,10,10V80.25a10,10,0,0,1-10,10H10a10,10,0,0,1-10-10V10A10,10,0,0,1,10,0Z" transform="translate(-19694 -39.442)" fill="#f6f6f6"/>
      <path id="Trazado_717331" data-name="Trazado 717331" d="M3.328,13.25H8.422V15H1.047V3.625H3.328ZM12.164,15H9.883V6.547h2.281Zm0-10.477H9.883V2.813h2.281Zm9.5,6.484a4.945,4.945,0,0,1-.844,3.023,2.854,2.854,0,0,1-2.437,1.133,2.576,2.576,0,0,1-1.293-.312,2.672,2.672,0,0,1-.934-.914L15.969,15h-1.93V2.813h2.273V7.445a2.582,2.582,0,0,1,.879-.781,2.457,2.457,0,0,1,1.176-.273A2.8,2.8,0,0,1,20.82,7.605a5.577,5.577,0,0,1,.844,3.238Zm-2.273-.164a4.4,4.4,0,0,0-.363-1.957,1.275,1.275,0,0,0-1.238-.723,1.7,1.7,0,0,0-.9.223,1.543,1.543,0,0,0-.578.637V12.6a1.449,1.449,0,0,0,.582.586,1.874,1.874,0,0,0,.91.2,1.3,1.3,0,0,0,1.234-.621,3.618,3.618,0,0,0,.352-1.762Zm8.125-2.336-.836-.023a1.519,1.519,0,0,0-.836.211,1.337,1.337,0,0,0-.5.594V15H23.07V6.547h2.117l.1,1.25a2.667,2.667,0,0,1,.77-1.035,1.8,1.8,0,0,1,1.406-.344q.145.027.293.066Zm4.7,6.656A3.8,3.8,0,0,1,29.266,14,4.252,4.252,0,0,1,28.2,11.016V10.7a4.628,4.628,0,0,1,1.031-3.109,3.506,3.506,0,0,1,2.836-1.2,3.282,3.282,0,0,1,2.613,1.043,4.122,4.122,0,0,1,.91,2.809v1.18H30.555l-.023.047a2.284,2.284,0,0,0,.527,1.406,1.766,1.766,0,0,0,1.4.539,4.692,4.692,0,0,0,1.3-.156,5.307,5.307,0,0,0,1.105-.477l.617,1.406a4.234,4.234,0,0,1-1.375.7A6.1,6.1,0,0,1,32.219,15.164ZM32.07,8.148a1.267,1.267,0,0,0-1.059.473,2.371,2.371,0,0,0-.449,1.254l.016.039h2.781V9.742a1.974,1.974,0,0,0-.3-1.168A1.127,1.127,0,0,0,32.07,8.148Zm8.484,2.7a5.493,5.493,0,0,1,.863-3.227,2.8,2.8,0,0,1,2.434-1.227,2.367,2.367,0,0,1,1.141.273,2.744,2.744,0,0,1,.891.781V2.813h2.289V15H46.227l-.2-1.039a2.826,2.826,0,0,1-.945.895,2.5,2.5,0,0,1-1.25.309,2.858,2.858,0,0,1-2.418-1.141,4.871,4.871,0,0,1-.863-3.016Zm2.273.164a3.443,3.443,0,0,0,.375,1.746,1.306,1.306,0,0,0,1.219.637,1.775,1.775,0,0,0,.859-.2,1.589,1.589,0,0,0,.6-.582v-3.6a1.756,1.756,0,0,0-.6-.621,1.589,1.589,0,0,0-.848-.223,1.287,1.287,0,0,0-1.223.742,4.194,4.194,0,0,0-.387,1.938ZM53.6,15.164A3.8,3.8,0,0,1,50.648,14a4.252,4.252,0,0,1-1.062-2.988V10.7a4.628,4.628,0,0,1,1.031-3.109,3.506,3.506,0,0,1,2.836-1.2,3.282,3.282,0,0,1,2.613,1.043,4.122,4.122,0,0,1,.91,2.809v1.18H51.938l-.023.047a2.284,2.284,0,0,0,.527,1.406,1.766,1.766,0,0,0,1.4.539,4.692,4.692,0,0,0,1.3-.156,5.307,5.307,0,0,0,1.105-.477l.617,1.406a4.234,4.234,0,0,1-1.375.7A6.1,6.1,0,0,1,53.6,15.164Zm-.148-7.016a1.267,1.267,0,0,0-1.059.473,2.371,2.371,0,0,0-.449,1.254l.016.039h2.781V9.742a1.974,1.974,0,0,0-.3-1.168A1.127,1.127,0,0,0,53.453,8.148Zm10.953-1.6L64.5,7.664a2.84,2.84,0,0,1,1.02-.941,2.932,2.932,0,0,1,1.418-.332,2.582,2.582,0,0,1,1.391.359A2.217,2.217,0,0,1,69.2,7.836a2.93,2.93,0,0,1,1.016-1.062,2.756,2.756,0,0,1,1.469-.383,2.408,2.408,0,0,1,1.973.887,4.233,4.233,0,0,1,.723,2.707V15H72.1V9.977a2.369,2.369,0,0,0-.312-1.414,1.109,1.109,0,0,0-.93-.4,1.592,1.592,0,0,0-.84.215,1.565,1.565,0,0,0-.566.6q0,.148.008.254t.008.215V15H67.2V9.977a2.376,2.376,0,0,0-.312-1.4,1.1,1.1,0,0,0-.937-.41,1.769,1.769,0,0,0-.809.176,1.551,1.551,0,0,0-.574.5V15H62.289V6.547ZM81.117,15a4.8,4.8,0,0,1-.215-.609,4.238,4.238,0,0,1-.129-.656,3.127,3.127,0,0,1-.93,1.023,2.33,2.33,0,0,1-1.375.406,2.855,2.855,0,0,1-2.047-.684,2.449,2.449,0,0,1-.719-1.863,2.229,2.229,0,0,1,.957-1.926,4.78,4.78,0,0,1,2.793-.684h1.281V9.336a1.315,1.315,0,0,0-.32-.945,1.257,1.257,0,0,0-.953-.336,1.239,1.239,0,0,0-.855.27.941.941,0,0,0-.3.738h-2.2l-.016-.047a2.144,2.144,0,0,1,.934-1.848,4.055,4.055,0,0,1,2.582-.777,3.784,3.784,0,0,1,2.465.766,2.667,2.667,0,0,1,.941,2.2v3.492a6.6,6.6,0,0,0,.09,1.117A5.606,5.606,0,0,0,83.391,15Zm-2.086-1.523a1.944,1.944,0,0,0,1.063-.3,1.6,1.6,0,0,0,.641-.687V11.3H79.453a1.519,1.519,0,0,0-1.1.359,1.181,1.181,0,0,0-.371.883.881.881,0,0,0,.277.684A1.1,1.1,0,0,0,79.031,13.477Zm7.781-6.93.1,1.211A3.092,3.092,0,0,1,87.953,6.75a2.7,2.7,0,0,1,1.383-.359,2.513,2.513,0,0,1,2,.824,3.908,3.908,0,0,1,.719,2.605V15H89.766V9.828a2.024,2.024,0,0,0-.316-1.285,1.166,1.166,0,0,0-.949-.379,1.992,1.992,0,0,0-.895.191,1.746,1.746,0,0,0-.637.527V15H84.688V6.547ZM96.156,15H93.875V6.547h2.281Zm0-10.477H93.875V2.813h2.281ZM98.625,15V8.148H97.367v-1.6h1.258V5.609a2.859,2.859,0,0,1,.82-2.191,3.239,3.239,0,0,1,2.3-.77,4.168,4.168,0,0,1,.59.043q.3.043.66.121l-.2,1.7q-.187-.031-.363-.055a3.144,3.144,0,0,0-.41-.023,1.1,1.1,0,0,0-.84.3,1.234,1.234,0,0,0-.285.875v.938h1.625v1.6h-1.625V15Zm8.461.164A3.8,3.8,0,0,1,104.133,14a4.252,4.252,0,0,1-1.062-2.988V10.7A4.628,4.628,0,0,1,104.1,7.594a3.506,3.506,0,0,1,2.836-1.2,3.282,3.282,0,0,1,2.613,1.043,4.122,4.122,0,0,1,.91,2.809v1.18h-5.039l-.023.047a2.284,2.284,0,0,0,.527,1.406,1.766,1.766,0,0,0,1.4.539,4.692,4.692,0,0,0,1.3-.156,5.307,5.307,0,0,0,1.105-.477l.617,1.406a4.234,4.234,0,0,1-1.375.7A6.1,6.1,0,0,1,107.086,15.164Zm-.148-7.016a1.267,1.267,0,0,0-1.059.473,2.371,2.371,0,0,0-.449,1.254l.016.039h2.781V9.742a1.974,1.974,0,0,0-.3-1.168A1.127,1.127,0,0,0,106.938,8.148Zm9.422,4.508a.787.787,0,0,0-.363-.645,3.69,3.69,0,0,0-1.348-.473,5.375,5.375,0,0,1-2.254-.9,1.962,1.962,0,0,1-.77-1.633,2.329,2.329,0,0,1,.922-1.852A3.717,3.717,0,0,1,115,6.391a4.011,4.011,0,0,1,2.566.766,2.237,2.237,0,0,1,.926,1.906l-.016.047h-2.2a1.106,1.106,0,0,0-.328-.828,1.534,1.534,0,0,0-1.812-.047.85.85,0,0,0-.32.672.759.759,0,0,0,.332.637,3.7,3.7,0,0,0,1.348.441,5.484,5.484,0,0,1,2.316.918,2.014,2.014,0,0,1,.762,1.668,2.231,2.231,0,0,1-.977,1.867,4.215,4.215,0,0,1-2.578.727,3.918,3.918,0,0,1-2.668-.855,2.392,2.392,0,0,1-.934-1.949l.016-.047h2.086a1.186,1.186,0,0,0,.445.984,1.838,1.838,0,0,0,1.1.3,1.567,1.567,0,0,0,.965-.254A.824.824,0,0,0,116.359,12.656Zm6.414-8.18v2.07h1.43v1.6h-1.43v4.3a.982.982,0,0,0,.207.7.727.727,0,0,0,.543.211,2.178,2.178,0,0,0,.313-.02,2.632,2.632,0,0,0,.3-.066l.188,1.648a4.618,4.618,0,0,1-.668.176,3.982,3.982,0,0,1-.707.059,2.431,2.431,0,0,1-1.816-.648,2.843,2.843,0,0,1-.637-2.055V8.148h-1.234v-1.6H120.5V4.477ZM130.594,15a4.8,4.8,0,0,1-.215-.609,4.24,4.24,0,0,1-.129-.656,3.127,3.127,0,0,1-.93,1.023,2.33,2.33,0,0,1-1.375.406,2.855,2.855,0,0,1-2.047-.684,2.449,2.449,0,0,1-.719-1.863,2.229,2.229,0,0,1,.957-1.926,4.78,4.78,0,0,1,2.793-.684h1.281V9.336a1.315,1.315,0,0,0-.32-.945,1.257,1.257,0,0,0-.953-.336,1.239,1.239,0,0,0-.855.27.941.941,0,0,0-.3.738h-2.2l-.016-.047a2.144,2.144,0,0,1,.934-1.848,4.055,4.055,0,0,1,2.582-.777,3.784,3.784,0,0,1,2.465.766,2.667,2.667,0,0,1,.941,2.2v3.492a6.605,6.605,0,0,0,.09,1.117A5.606,5.606,0,0,0,132.867,15Zm-2.086-1.523a1.944,1.944,0,0,0,1.063-.3,1.6,1.6,0,0,0,.641-.687V11.3H128.93a1.519,1.519,0,0,0-1.1.359,1.181,1.181,0,0,0-.371.883.881.881,0,0,0,.277.684A1.1,1.1,0,0,0,128.508,13.477Zm10.141-4.969-.836-.023a1.519,1.519,0,0,0-.836.211,1.337,1.337,0,0,0-.5.594V15H134.2V6.547h2.117l.1,1.25a2.667,2.667,0,0,1,.77-1.035,1.8,1.8,0,0,1,1.406-.344q.145.027.293.066ZM149,13.75a2.87,2.87,0,0,1-.992,1.047,2.63,2.63,0,0,1-1.4.367,2.57,2.57,0,0,1-2.09-.906,4.347,4.347,0,0,1-.754-2.812v-4.9h2.273v4.914a2.729,2.729,0,0,0,.3,1.52,1.081,1.081,0,0,0,.934.41,2.273,2.273,0,0,0,.938-.176,1.58,1.58,0,0,0,.641-.52V6.547h2.281V15h-1.891Zm5.938-7.2.1,1.211a3.092,3.092,0,0,1,1.039-1.008,2.7,2.7,0,0,1,1.383-.359,2.513,2.513,0,0,1,2,.824,3.908,3.908,0,0,1,.719,2.605V15h-2.289V9.828a2.024,2.024,0,0,0-.316-1.285,1.166,1.166,0,0,0-.949-.379,1.992,1.992,0,0,0-.895.191,1.746,1.746,0,0,0-.637.527V15h-2.281V6.547ZM169.4,13.414a1.27,1.27,0,0,0,.945-.355,1.291,1.291,0,0,0,.352-.949h2.078l.016.047a2.645,2.645,0,0,1-.953,2.145,3.564,3.564,0,0,1-2.437.863,3.6,3.6,0,0,1-2.9-1.2,4.558,4.558,0,0,1-1.023-3.066v-.234A4.588,4.588,0,0,1,166.5,7.6a3.57,3.57,0,0,1,2.887-1.207,3.486,3.486,0,0,1,2.492.891,2.976,2.976,0,0,1,.914,2.344l-.016.047H170.7a1.687,1.687,0,0,0-.348-1.09,1.168,1.168,0,0,0-.965-.434,1.3,1.3,0,0,0-1.254.707,3.878,3.878,0,0,0-.371,1.809V10.9a3.863,3.863,0,0,0,.371,1.82A1.32,1.32,0,0,0,169.4,13.414Zm4.367-2.719a4.536,4.536,0,0,1,1.055-3.1,3.676,3.676,0,0,1,2.922-1.207,3.715,3.715,0,0,1,2.938,1.2,4.512,4.512,0,0,1,1.063,3.1v.164a4.519,4.519,0,0,1-1.059,3.105,4.178,4.178,0,0,1-5.859,0,4.519,4.519,0,0,1-1.059-3.105Zm2.273.164a3.677,3.677,0,0,0,.406,1.855,1.561,1.561,0,0,0,2.605,0,3.653,3.653,0,0,0,.41-1.852V10.7a3.616,3.616,0,0,0-.414-1.836,1.4,1.4,0,0,0-1.3-.711,1.384,1.384,0,0,0-1.293.715,3.648,3.648,0,0,0-.41,1.832Zm9.227-4.312.094,1.117a2.84,2.84,0,0,1,1.02-.941,2.932,2.932,0,0,1,1.418-.332,2.582,2.582,0,0,1,1.391.359,2.217,2.217,0,0,1,.875,1.086,2.93,2.93,0,0,1,1.016-1.062,2.756,2.756,0,0,1,1.469-.383,2.408,2.408,0,0,1,1.973.887,4.233,4.233,0,0,1,.723,2.707V15h-2.281V9.977a2.369,2.369,0,0,0-.312-1.414,1.109,1.109,0,0,0-.93-.4,1.592,1.592,0,0,0-.84.215,1.565,1.565,0,0,0-.566.6q0,.148.008.254t.008.215V15h-2.273V9.977a2.376,2.376,0,0,0-.312-1.4,1.1,1.1,0,0,0-.937-.41A1.769,1.769,0,0,0,186,8.34a1.551,1.551,0,0,0-.574.5V15h-2.273V6.547Zm19.352,4.461a4.855,4.855,0,0,1-.867,3.016,2.869,2.869,0,0,1-2.422,1.141,2.707,2.707,0,0,1-1.18-.246,2.423,2.423,0,0,1-.883-.723V18.25h-2.273V6.547h2.055l.133,1a2.709,2.709,0,0,1,.9-.855,2.441,2.441,0,0,1,1.23-.3,2.813,2.813,0,0,1,2.438,1.227,5.474,5.474,0,0,1,.867,3.227Zm-2.281-.164a4.09,4.09,0,0,0-.4-1.937,1.3,1.3,0,0,0-1.219-.742,1.722,1.722,0,0,0-.879.211,1.505,1.505,0,0,0-.574.6v3.7a1.4,1.4,0,0,0,.574.547,1.935,1.935,0,0,0,.895.188,1.312,1.312,0,0,0,1.215-.648,3.423,3.423,0,0,0,.387-1.758Zm3.336-.148a4.536,4.536,0,0,1,1.055-3.1,3.676,3.676,0,0,1,2.922-1.207,3.715,3.715,0,0,1,2.938,1.2,4.512,4.512,0,0,1,1.063,3.1v.164a4.519,4.519,0,0,1-1.059,3.105,4.178,4.178,0,0,1-5.859,0,4.519,4.519,0,0,1-1.059-3.105Zm2.273.164a3.677,3.677,0,0,0,.406,1.855,1.561,1.561,0,0,0,2.605,0,3.653,3.653,0,0,0,.41-1.852V10.7a3.616,3.616,0,0,0-.414-1.836,1.4,1.4,0,0,0-1.3-.711,1.384,1.384,0,0,0-1.293.715,3.648,3.648,0,0,0-.41,1.832ZM219.5,8.508l-.836-.023a1.519,1.519,0,0,0-.836.211,1.337,1.337,0,0,0-.5.594V15h-2.273V6.547h2.117l.1,1.25a2.667,2.667,0,0,1,.77-1.035,1.8,1.8,0,0,1,1.406-.344q.145.027.293.066Zm4.055-4.031v2.07h1.43v1.6h-1.43v4.3a.982.982,0,0,0,.207.7.727.727,0,0,0,.543.211,2.178,2.178,0,0,0,.313-.02,2.631,2.631,0,0,0,.3-.066l.188,1.648a4.619,4.619,0,0,1-.668.176,3.982,3.982,0,0,1-.707.059,2.431,2.431,0,0,1-1.816-.648,2.843,2.843,0,0,1-.637-2.055V8.148h-1.234v-1.6h1.234V4.477ZM231.375,15a4.8,4.8,0,0,1-.215-.609,4.24,4.24,0,0,1-.129-.656,3.127,3.127,0,0,1-.93,1.023,2.33,2.33,0,0,1-1.375.406,2.855,2.855,0,0,1-2.047-.684,2.449,2.449,0,0,1-.719-1.863,2.229,2.229,0,0,1,.957-1.926,4.78,4.78,0,0,1,2.793-.684h1.281V9.336a1.315,1.315,0,0,0-.32-.945,1.257,1.257,0,0,0-.953-.336,1.239,1.239,0,0,0-.855.27.941.941,0,0,0-.3.738h-2.2l-.016-.047a2.144,2.144,0,0,1,.934-1.848,4.055,4.055,0,0,1,2.582-.777,3.784,3.784,0,0,1,2.465.766,2.667,2.667,0,0,1,.941,2.2v3.492a6.605,6.605,0,0,0,.09,1.117A5.606,5.606,0,0,0,233.648,15Zm-2.086-1.523a1.944,1.944,0,0,0,1.063-.3,1.6,1.6,0,0,0,.641-.687V11.3h-1.281a1.519,1.519,0,0,0-1.1.359,1.181,1.181,0,0,0-.371.883.881.881,0,0,0,.277.684A1.1,1.1,0,0,0,229.289,13.477Zm7.813-6.93.094,1.117a2.84,2.84,0,0,1,1.02-.941,2.932,2.932,0,0,1,1.418-.332,2.582,2.582,0,0,1,1.391.359,2.217,2.217,0,0,1,.875,1.086,2.93,2.93,0,0,1,1.016-1.062,2.756,2.756,0,0,1,1.469-.383,2.408,2.408,0,0,1,1.973.887,4.233,4.233,0,0,1,.723,2.707V15H244.8V9.977a2.369,2.369,0,0,0-.312-1.414,1.109,1.109,0,0,0-.93-.4,1.592,1.592,0,0,0-.84.215,1.565,1.565,0,0,0-.566.6q0,.148.008.254t.008.215V15h-2.273V9.977a2.376,2.376,0,0,0-.312-1.4,1.1,1.1,0,0,0-.937-.41,1.769,1.769,0,0,0-.809.176,1.551,1.551,0,0,0-.574.5V15h-2.273V6.547ZM251.227,15h-2.281V6.547h2.281Zm0-10.477h-2.281V2.813h2.281Zm5.539,10.641A3.8,3.8,0,0,1,253.813,14a4.252,4.252,0,0,1-1.062-2.988V10.7a4.628,4.628,0,0,1,1.031-3.109,3.506,3.506,0,0,1,2.836-1.2,3.282,3.282,0,0,1,2.613,1.043,4.122,4.122,0,0,1,.91,2.809v1.18H255.1l-.023.047a2.284,2.284,0,0,0,.527,1.406,1.766,1.766,0,0,0,1.4.539,4.692,4.692,0,0,0,1.3-.156,5.307,5.307,0,0,0,1.105-.477l.617,1.406a4.234,4.234,0,0,1-1.375.7A6.1,6.1,0,0,1,256.766,15.164Zm-.148-7.016a1.267,1.267,0,0,0-1.059.473,2.371,2.371,0,0,0-.449,1.254l.016.039h2.781V9.742a1.974,1.974,0,0,0-.3-1.168A1.127,1.127,0,0,0,256.617,8.148Zm6.938-1.6.1,1.211A3.092,3.092,0,0,1,264.7,6.75a2.7,2.7,0,0,1,1.383-.359,2.513,2.513,0,0,1,2,.824A3.908,3.908,0,0,1,268.8,9.82V15h-2.289V9.828a2.024,2.024,0,0,0-.316-1.285,1.166,1.166,0,0,0-.949-.379,1.992,1.992,0,0,0-.895.191,1.746,1.746,0,0,0-.637.527V15H261.43V6.547Zm9.68-2.07v2.07h1.43v1.6h-1.43v4.3a.982.982,0,0,0,.207.7.727.727,0,0,0,.543.211,2.178,2.178,0,0,0,.313-.02,2.633,2.633,0,0,0,.3-.066l.188,1.648a4.617,4.617,0,0,1-.668.176,3.982,3.982,0,0,1-.707.059,2.431,2.431,0,0,1-1.816-.648,2.843,2.843,0,0,1-.637-2.055V8.148h-1.234v-1.6h1.234V4.477Zm2.484,6.219a4.536,4.536,0,0,1,1.055-3.1A3.676,3.676,0,0,1,279.7,6.391a3.715,3.715,0,0,1,2.938,1.2,4.512,4.512,0,0,1,1.063,3.1v.164a4.519,4.519,0,0,1-1.059,3.105,4.178,4.178,0,0,1-5.859,0,4.519,4.519,0,0,1-1.059-3.105Zm2.273.164a3.677,3.677,0,0,0,.406,1.855,1.561,1.561,0,0,0,2.605,0,3.653,3.653,0,0,0,.41-1.852V10.7A3.616,3.616,0,0,0,281,8.859a1.4,1.4,0,0,0-1.3-.711,1.384,1.384,0,0,0-1.293.715,3.648,3.648,0,0,0-.41,1.832ZM2.961,24.547l.1,1.211A3.092,3.092,0,0,1,4.1,24.75a2.7,2.7,0,0,1,1.383-.359,2.513,2.513,0,0,1,2,.824A3.908,3.908,0,0,1,8.2,27.82V33H5.914V27.828A2.024,2.024,0,0,0,5.6,26.543a1.166,1.166,0,0,0-.949-.379,1.992,1.992,0,0,0-.895.191,1.746,1.746,0,0,0-.637.527V33H.836V24.547ZM14.891,33a4.8,4.8,0,0,1-.215-.609,4.239,4.239,0,0,1-.129-.656,3.127,3.127,0,0,1-.93,1.023,2.33,2.33,0,0,1-1.375.406A2.855,2.855,0,0,1,10.2,32.48a2.449,2.449,0,0,1-.719-1.863,2.229,2.229,0,0,1,.957-1.926,4.78,4.78,0,0,1,2.793-.684h1.281v-.672a1.315,1.315,0,0,0-.32-.945,1.257,1.257,0,0,0-.953-.336,1.239,1.239,0,0,0-.855.27.941.941,0,0,0-.3.738h-2.2l-.016-.047a2.144,2.144,0,0,1,.934-1.848,4.055,4.055,0,0,1,2.582-.777,3.784,3.784,0,0,1,2.465.766,2.667,2.667,0,0,1,.941,2.2v3.492a6.6,6.6,0,0,0,.09,1.117A5.606,5.606,0,0,0,17.164,33ZM12.8,31.477a1.944,1.944,0,0,0,1.063-.3,1.6,1.6,0,0,0,.641-.687V29.3H13.227a1.519,1.519,0,0,0-1.1.359,1.181,1.181,0,0,0-.371.883.881.881,0,0,0,.277.684A1.1,1.1,0,0,0,12.8,31.477Zm8.43-9v2.07h1.43v1.6h-1.43v4.3a.982.982,0,0,0,.207.7.727.727,0,0,0,.543.211,2.178,2.178,0,0,0,.313-.02,2.632,2.632,0,0,0,.3-.066l.188,1.648a4.618,4.618,0,0,1-.668.176,3.982,3.982,0,0,1-.707.059,2.431,2.431,0,0,1-1.816-.648,2.843,2.843,0,0,1-.637-2.055V26.148H17.727v-1.6h1.234v-2.07ZM29.25,31.75a2.87,2.87,0,0,1-.992,1.047,2.63,2.63,0,0,1-1.4.367,2.57,2.57,0,0,1-2.09-.906,4.347,4.347,0,0,1-.754-2.812v-4.9h2.273v4.914a2.729,2.729,0,0,0,.3,1.52,1.081,1.081,0,0,0,.934.41,2.273,2.273,0,0,0,.938-.176,1.58,1.58,0,0,0,.641-.52V24.547h2.281V33H29.492Zm8.3-5.242-.836-.023a1.519,1.519,0,0,0-.836.211,1.337,1.337,0,0,0-.5.594V33H33.1V24.547h2.117l.1,1.25a2.667,2.667,0,0,1,.77-1.035,1.8,1.8,0,0,1,1.406-.344q.145.027.293.066ZM43.719,33a4.8,4.8,0,0,1-.215-.609,4.239,4.239,0,0,1-.129-.656,3.127,3.127,0,0,1-.93,1.023,2.33,2.33,0,0,1-1.375.406,2.855,2.855,0,0,1-2.047-.684,2.449,2.449,0,0,1-.719-1.863,2.229,2.229,0,0,1,.957-1.926,4.78,4.78,0,0,1,2.793-.684h1.281v-.672a1.315,1.315,0,0,0-.32-.945,1.257,1.257,0,0,0-.953-.336,1.239,1.239,0,0,0-.855.27.941.941,0,0,0-.3.738h-2.2l-.016-.047a2.144,2.144,0,0,1,.934-1.848,4.055,4.055,0,0,1,2.582-.777,3.784,3.784,0,0,1,2.465.766,2.667,2.667,0,0,1,.941,2.2v3.492a6.605,6.605,0,0,0,.09,1.117A5.606,5.606,0,0,0,45.992,33Zm-2.086-1.523a1.944,1.944,0,0,0,1.063-.3,1.6,1.6,0,0,0,.641-.687V29.3H42.055a1.519,1.519,0,0,0-1.1.359,1.181,1.181,0,0,0-.371.883.881.881,0,0,0,.277.684A1.1,1.1,0,0,0,41.633,31.477ZM49.727,33H47.445V20.813h2.281Zm4.406,0H51.852V31h2.281Z" transform="translate(-19656 -7.734)" fill="#12263f"/>
      <path id="Trazado_715227-4" data-name="Trazado 715227" d="M46.333,23.167a23.065,23.065,0,0,1-4.719,14.015c-4.232,5.562-10.92.581-18.447.581-5.182,0-3.392,4.267-7.251,1.393-1.747-1.3-9.878-.241-11.2-1.974A23.167,23.167,0,1,1,46.333,23.167Z" transform="translate(-19725 -13.733)" fill="#ffa686"/>
      <path id="Trazado_715228-4" data-name="Trazado 715228" d="M199.641,51.438H187.187v-5.06a3.806,3.806,0,0,1,3.806-3.806h4.841a3.806,3.806,0,0,1,3.806,3.806Z" transform="translate(-19895.248 -52.452)" fill="#e9424a"/>
      <path id="Trazado_715229-4" data-name="Trazado 715229" d="M103.425,92.646c-4.232,5.562-8.063,7.665-15.59,7.665-5.182,0-7.707.107-11.565-2.768-1.747-1.3-3.849-2.456-5.167-4.189l.757-7.279.743-2.318.011-.033,4.342-13.547a11.425,11.425,0,0,1,21.759,0l4.342,13.547.011.033.69,2.151Z" transform="translate(-19789.668 -70.341)" fill="#fff9f1"/>
      <g id="Grupo_1017006-4" data-name="Grupo 1017006" transform="translate(-19706.91 3.602)">
        <circle id="Elipse_7976-4" data-name="Elipse 7976" cx="2.225" cy="2.225" r="2.225" fill="#e9424a"/>
        <circle id="Elipse_7977-4" data-name="Elipse 7977" cx="2.225" cy="2.225" r="2.225" transform="translate(5.706)" fill="#fd5758"/>
      </g>
      <path id="Trazado_715230-4" data-name="Trazado 715230" d="M89.045,269.76a23.168,23.168,0,0,1-36.895,0l3.215-10.031a6.217,6.217,0,0,0,11.664,4.246L70.6,255.72l3.568,8.255a6.217,6.217,0,0,0,11.664-4.246Z" transform="translate(-19772.43 -246.312)" fill="#ffe5bf"/>
      <path id="Trazado_715231-4" data-name="Trazado 715231" d="M90.879,62.653a11.425,11.425,0,0,0-7.834,7.525L78.7,83.724l-.011.033-3.549,11.07L71.1,90.981l.982-5.606.519-1.618.011-.033,4.342-13.547a11.427,11.427,0,0,1,13.924-7.525Z" transform="translate(-19789.666 -70.341)" fill="#f7eadc"/>
      <g id="Grupo_1017007-4" data-name="Grupo 1017007" transform="translate(-19712.543 9.433)">
        <path id="Trazado_715232-4" data-name="Trazado 715232" d="M143.079,256l-4.155,3.691a3.8,3.8,0,1,0,6.176,3.91l1.9-6.494L143.7,256" transform="translate(-137.646 -256)" fill="#e9424a"/>
        <path id="Trazado_715233-4" data-name="Trazado 715233" d="M274.926,256l4.155,3.691a3.8,3.8,0,1,1-6.176,3.91l-1.9-6.494L274.3,256" transform="translate(-258.938 -256)" fill="#fd5758"/>
      </g>
      <path id="Trazado_715234-4" data-name="Trazado 715234" d="M59.032,307.58l-2.259,7.048a23.3,23.3,0,0,1-4.623-4.576l3.215-10.031a6.211,6.211,0,0,0,3.667,7.56Z" transform="translate(-19772.432 -286.603)" fill="#ffe0a7"/>
      <g id="Grupo_1017008-4" data-name="Grupo 1017008" transform="translate(-19708.785 12.838)">
        <path id="Trazado_715235-4" data-name="Trazado 715235" d="M182.358,307.989a3.174,3.174,0,0,0,3.174-3.174v-9.167l-1.9-2.024-4.353,10.415A3.174,3.174,0,0,0,182.358,307.989Z" transform="translate(-179.182 -293.624)" fill="#fd5758"/>
        <path id="Trazado_715236-4" data-name="Trazado 715236" d="M265.834,307.989a3.174,3.174,0,0,1-3.174-3.174v-9.167l3.624-2.024,2.627,10.415A3.174,3.174,0,0,1,265.834,307.989Z" transform="translate(-255.106 -293.624)" fill="#fd5758"/>
      </g>
      <g id="Grupo_1017009-4" data-name="Grupo 1017009" transform="translate(-19708.785 12.838)">
        <path id="Trazado_715237-4" data-name="Trazado 715237" d="M183.555,307.755a3.176,3.176,0,0,1-4.278-3.715l2.628-10.416,2.1,1.176-2.33,9.24A3.174,3.174,0,0,0,183.555,307.755Z" transform="translate(-179.18 -293.624)" fill="#e9424a"/>
        <path id="Trazado_715238-4" data-name="Trazado 715238" d="M267.035,307.755a3.178,3.178,0,0,1-4.375-2.939v-9.167l3.623-2.024.3,1.176-1.518.848v9.167A3.174,3.174,0,0,0,267.035,307.755Z" transform="translate(-255.105 -293.624)" fill="#e9424a"/>
      </g>
      <g id="Grupo_1017010-4" data-name="Grupo 1017010" transform="translate(-19705.141 -13.733)">
        <path id="Trazado_715239-4" data-name="Trazado 715239" d="M228.875,0c-1.986,0-2.663,1.881-2.421,3.852l-.278,4.6a2.719,2.719,0,0,0,5.4,0l.583-4.747a3.307,3.307,0,0,0-3.282-3.71Z" transform="translate(-225.568 -0.005)" fill="#fd5758"/>
        <path id="Trazado_715240-4" data-name="Trazado 715240" d="M224.038,10.526a2.72,2.72,0,0,1-3.976-2.069l-.583-4.747A3.309,3.309,0,0,1,224.038.255a3.308,3.308,0,0,0-2,3.455l.583,4.747A2.718,2.718,0,0,0,224.038,10.526Z" transform="translate(-219.453)" fill="#e9424a"/>
      </g>
      <g id="Grupo_1017011-4" data-name="Grupo 1017011" transform="translate(-19714.988 1.705)">
        <ellipse id="Elipse_7978-4" data-name="Elipse 7978" cx="2.213" cy="3.277" rx="2.213" ry="3.277" transform="translate(0 0)" fill="#516666"/>
        <path id="Trazado_715241-4" data-name="Trazado 715241" d="M113.959,176.71a1.693,1.693,0,0,1-1.106.439c-1.223,0-2.213-1.467-2.213-3.277s.99-3.277,2.213-3.277a1.694,1.694,0,0,1,1.106.439,4.194,4.194,0,0,0,0,5.676Z" transform="translate(-110.64 -170.595)" fill="#384948"/>
        <ellipse id="Elipse_7979-4" data-name="Elipse 7979" cx="2.213" cy="3.277" rx="2.213" ry="3.277" transform="translate(21.882 0)" fill="#516666"/>
        <path id="Trazado_715242-4" data-name="Trazado 715242" d="M355.762,176.71a1.693,1.693,0,0,1-1.106.439c-1.223,0-2.213-1.467-2.213-3.277s.99-3.277,2.213-3.277a1.694,1.694,0,0,1,1.106.439,4.194,4.194,0,0,0,0,5.676Z" transform="translate(-330.561 -170.595)" fill="#384948"/>
      </g>
      <path id="Trazado_715243-4" data-name="Trazado 715243" d="M206.229,256v2.816l-2.215,2.626a5.764,5.764,0,0,0-1.251,2.61,2.069,2.069,0,0,1-.717,1.2,1.984,1.984,0,0,1-.2.146,2.072,2.072,0,0,1-3.15-1.348,5.76,5.76,0,0,0-1.251-2.61l-2.215-2.626.565-2.816Z" transform="translate(-19902.563 -246.567)" fill="#f5cf33"/>
      <path id="Trazado_715244-4" data-name="Trazado 715244" d="M201.846,265.4a2.072,2.072,0,0,1-3.15-1.348,5.76,5.76,0,0,0-1.251-2.61l-2.215-2.626.565-2.816h.624l2.19,1.723,2.121,4.838v.866A2.3,2.3,0,0,0,201.846,265.4Z" transform="translate(-19902.563 -246.567)" fill="#f2b632"/>
      <path id="Trazado_715245-4" data-name="Trazado 715245" d="M198.288,175.739a.878.878,0,0,1-1.677.363.89.89,0,0,0-1.453-.245L193.5,177.59a2.2,2.2,0,0,1-3.187,0l-1.381-1.447-.36-.689a.8.8,0,0,0-.639-.2,1.082,1.082,0,0,0-.886.6,1.1,1.1,0,0,1-.346.432c-.139.089-.122.045-.294.045-.552,0-.967-.23-.861-.772l.267-1.356a3.37,3.37,0,0,1,1.748-2.337l.322-.167a3.166,3.166,0,0,0,1.7-2.807v-.961a2.322,2.322,0,0,1,2.813-2.267c.069.015.137.033.2.053a2.321,2.321,0,0,1,1.623,2.214v.961a3.166,3.166,0,0,0,1.7,2.807l.322.167A3.37,3.37,0,0,1,198,174.213l.267,1.356A.857.857,0,0,1,198.288,175.739Z" transform="translate(-19893.744 -164.366)" fill="#fde42f"/>
      <path id="Trazado_715246-4" data-name="Trazado 715246" d="M192.607,165.726a1.946,1.946,0,0,0-1.31,1.712l-.2,2.959a2.784,2.784,0,0,1-1.474,2.275,1.575,1.575,0,0,0-.838,1.392c0,.039,0,.078,0,.117l.145,1.962-.272-.286a.89.89,0,0,0-1.453.245.878.878,0,0,1-1.66-.534l.267-1.356a3.37,3.37,0,0,1,1.748-2.337l.322-.167a3.166,3.166,0,0,0,1.7-2.807v-.961a2.322,2.322,0,0,1,2.813-2.267c.069.015.137.033.2.053Z" transform="translate(-19893.744 -164.366)" fill="#f5cf33"/>
      <path id="Trazado_717324" data-name="Trazado 717324" d="M10,0H149a10,10,0,0,1,10,10V81.376a10,10,0,0,1-10,10H10a10,10,0,0,1-10-10V10A10,10,0,0,1,10,0Z" transform="translate(-19904 -39.442)" fill="#f6f6f6"/>
      <path id="Trazado_717325" data-name="Trazado 717325" d="M3.328,13.25H8.422V15H1.047V3.625H3.328ZM12.164,15H9.883V6.547h2.281Zm0-10.477H9.883V2.813h2.281Zm9.5,6.484a4.945,4.945,0,0,1-.844,3.023,2.854,2.854,0,0,1-2.437,1.133,2.576,2.576,0,0,1-1.293-.312,2.672,2.672,0,0,1-.934-.914L15.969,15h-1.93V2.813h2.273V7.445a2.582,2.582,0,0,1,.879-.781,2.457,2.457,0,0,1,1.176-.273A2.8,2.8,0,0,1,20.82,7.605a5.577,5.577,0,0,1,.844,3.238Zm-2.273-.164a4.4,4.4,0,0,0-.363-1.957,1.275,1.275,0,0,0-1.238-.723,1.7,1.7,0,0,0-.9.223,1.543,1.543,0,0,0-.578.637V12.6a1.449,1.449,0,0,0,.582.586,1.874,1.874,0,0,0,.91.2,1.3,1.3,0,0,0,1.234-.621,3.618,3.618,0,0,0,.352-1.762Zm8.125-2.336-.836-.023a1.519,1.519,0,0,0-.836.211,1.337,1.337,0,0,0-.5.594V15H23.07V6.547h2.117l.1,1.25a2.667,2.667,0,0,1,.77-1.035,1.8,1.8,0,0,1,1.406-.344q.145.027.293.066Zm4.7,6.656A3.8,3.8,0,0,1,29.266,14,4.252,4.252,0,0,1,28.2,11.016V10.7a4.628,4.628,0,0,1,1.031-3.109,3.506,3.506,0,0,1,2.836-1.2,3.282,3.282,0,0,1,2.613,1.043,4.122,4.122,0,0,1,.91,2.809v1.18H30.555l-.023.047a2.284,2.284,0,0,0,.527,1.406,1.766,1.766,0,0,0,1.4.539,4.692,4.692,0,0,0,1.3-.156,5.307,5.307,0,0,0,1.105-.477l.617,1.406a4.234,4.234,0,0,1-1.375.7A6.1,6.1,0,0,1,32.219,15.164ZM32.07,8.148a1.267,1.267,0,0,0-1.059.473,2.371,2.371,0,0,0-.449,1.254l.016.039h2.781V9.742a1.974,1.974,0,0,0-.3-1.168A1.127,1.127,0,0,0,32.07,8.148Zm8.484,2.7a5.493,5.493,0,0,1,.863-3.227,2.8,2.8,0,0,1,2.434-1.227,2.367,2.367,0,0,1,1.141.273,2.744,2.744,0,0,1,.891.781V2.813h2.289V15H46.227l-.2-1.039a2.826,2.826,0,0,1-.945.895,2.5,2.5,0,0,1-1.25.309,2.858,2.858,0,0,1-2.418-1.141,4.871,4.871,0,0,1-.863-3.016Zm2.273.164a3.443,3.443,0,0,0,.375,1.746,1.306,1.306,0,0,0,1.219.637,1.775,1.775,0,0,0,.859-.2,1.589,1.589,0,0,0,.6-.582v-3.6a1.756,1.756,0,0,0-.6-.621,1.589,1.589,0,0,0-.848-.223,1.287,1.287,0,0,0-1.223.742,4.194,4.194,0,0,0-.387,1.938ZM53.6,15.164A3.8,3.8,0,0,1,50.648,14a4.252,4.252,0,0,1-1.062-2.988V10.7a4.628,4.628,0,0,1,1.031-3.109,3.506,3.506,0,0,1,2.836-1.2,3.282,3.282,0,0,1,2.613,1.043,4.122,4.122,0,0,1,.91,2.809v1.18H51.938l-.023.047a2.284,2.284,0,0,0,.527,1.406,1.766,1.766,0,0,0,1.4.539,4.692,4.692,0,0,0,1.3-.156,5.307,5.307,0,0,0,1.105-.477l.617,1.406a4.234,4.234,0,0,1-1.375.7A6.1,6.1,0,0,1,53.6,15.164Zm-.148-7.016a1.267,1.267,0,0,0-1.059.473,2.371,2.371,0,0,0-.449,1.254l.016.039h2.781V9.742a1.974,1.974,0,0,0-.3-1.168A1.127,1.127,0,0,0,53.453,8.148Zm11.57-3.672v2.07h1.43v1.6h-1.43v4.3a.982.982,0,0,0,.207.7.727.727,0,0,0,.543.211,2.178,2.178,0,0,0,.313-.02,2.632,2.632,0,0,0,.3-.066l.188,1.648a4.618,4.618,0,0,1-.668.176,3.982,3.982,0,0,1-.707.059,2.431,2.431,0,0,1-1.816-.648,2.843,2.843,0,0,1-.637-2.055V8.148H61.516v-1.6H62.75V4.477Zm6.5,10.688A3.8,3.8,0,0,1,68.57,14a4.252,4.252,0,0,1-1.062-2.988V10.7a4.628,4.628,0,0,1,1.031-3.109,3.506,3.506,0,0,1,2.836-1.2,3.282,3.282,0,0,1,2.613,1.043,4.122,4.122,0,0,1,.91,2.809v1.18H69.859l-.023.047a2.284,2.284,0,0,0,.527,1.406,1.766,1.766,0,0,0,1.4.539,4.692,4.692,0,0,0,1.3-.156,5.307,5.307,0,0,0,1.105-.477l.617,1.406a4.234,4.234,0,0,1-1.375.7A6.1,6.1,0,0,1,71.523,15.164Zm-.148-7.016a1.267,1.267,0,0,0-1.059.473,2.371,2.371,0,0,0-.449,1.254l.016.039h2.781V9.742a1.974,1.974,0,0,0-.3-1.168A1.127,1.127,0,0,0,71.375,8.148Zm6.969-1.6.094,1.117a2.84,2.84,0,0,1,1.02-.941,2.932,2.932,0,0,1,1.418-.332,2.582,2.582,0,0,1,1.391.359,2.217,2.217,0,0,1,.875,1.086,2.93,2.93,0,0,1,1.016-1.062,2.756,2.756,0,0,1,1.469-.383,2.408,2.408,0,0,1,1.973.887,4.233,4.233,0,0,1,.723,2.707V15H86.039V9.977a2.369,2.369,0,0,0-.312-1.414,1.109,1.109,0,0,0-.93-.4,1.592,1.592,0,0,0-.84.215,1.565,1.565,0,0,0-.566.6q0,.148.008.254t.008.215V15H81.133V9.977a2.376,2.376,0,0,0-.312-1.4,1.1,1.1,0,0,0-.937-.41,1.769,1.769,0,0,0-.809.176,1.551,1.551,0,0,0-.574.5V15H76.227V6.547ZM89.719,10.7a4.536,4.536,0,0,1,1.055-3.1A3.676,3.676,0,0,1,93.7,6.391a3.715,3.715,0,0,1,2.938,1.2A4.512,4.512,0,0,1,97.7,10.7v.164a4.519,4.519,0,0,1-1.059,3.105,4.178,4.178,0,0,1-5.859,0,4.519,4.519,0,0,1-1.059-3.105Zm2.273.164a3.677,3.677,0,0,0,.406,1.855,1.561,1.561,0,0,0,2.605,0,3.653,3.653,0,0,0,.41-1.852V10.7A3.616,3.616,0,0,0,95,8.859a1.4,1.4,0,0,0-1.3-.711,1.384,1.384,0,0,0-1.293.715,3.648,3.648,0,0,0-.41,1.832Zm11.555-2.352-.836-.023a1.519,1.519,0,0,0-.836.211,1.337,1.337,0,0,0-.5.594V15H99.1V6.547h2.117l.1,1.25a2.667,2.667,0,0,1,.77-1.035,1.8,1.8,0,0,1,1.406-.344q.145.027.293.066ZM3.922,29.453l.094.469h.047L5.68,24.547H8.133L4.7,34.266a4.474,4.474,0,0,1-.977,1.527,2.505,2.505,0,0,1-1.852.621,2.863,2.863,0,0,1-.535-.047q-.246-.047-.6-.133l.266-1.664.219.031a1.611,1.611,0,0,0,.211.016A1.243,1.243,0,0,0,2.3,34.34a1.83,1.83,0,0,0,.469-.691l.266-.656-3-8.445H2.492ZM18.016,33a4.8,4.8,0,0,1-.215-.609,4.239,4.239,0,0,1-.129-.656,3.127,3.127,0,0,1-.93,1.023,2.33,2.33,0,0,1-1.375.406,2.855,2.855,0,0,1-2.047-.684,2.449,2.449,0,0,1-.719-1.863,2.229,2.229,0,0,1,.957-1.926,4.78,4.78,0,0,1,2.793-.684h1.281v-.672a1.315,1.315,0,0,0-.32-.945,1.257,1.257,0,0,0-.953-.336,1.239,1.239,0,0,0-.855.27.941.941,0,0,0-.3.738h-2.2l-.016-.047a2.144,2.144,0,0,1,.934-1.848,4.055,4.055,0,0,1,2.582-.777,3.784,3.784,0,0,1,2.465.766,2.667,2.667,0,0,1,.941,2.2v3.492A6.6,6.6,0,0,0,20,31.961,5.606,5.606,0,0,0,20.289,33ZM15.93,31.477a1.944,1.944,0,0,0,1.063-.3,1.6,1.6,0,0,0,.641-.687V29.3H16.352a1.519,1.519,0,0,0-1.1.359,1.181,1.181,0,0,0-.371.883.881.881,0,0,0,.277.684A1.1,1.1,0,0,0,15.93,31.477Zm7.781-6.93.1,1.211a3.092,3.092,0,0,1,1.039-1.008,2.7,2.7,0,0,1,1.383-.359,2.513,2.513,0,0,1,2,.824,3.908,3.908,0,0,1,.719,2.605V33H26.664V27.828a2.024,2.024,0,0,0-.316-1.285,1.166,1.166,0,0,0-.949-.379,1.992,1.992,0,0,0-.895.191,1.746,1.746,0,0,0-.637.527V33H21.586V24.547Zm6.609,4.3a5.474,5.474,0,0,1,.867-3.227,2.813,2.813,0,0,1,2.438-1.227,2.4,2.4,0,0,1,1.25.32,2.806,2.806,0,0,1,.922.914l.18-1.078h1.961v8.414a3.142,3.142,0,0,1-1.078,2.551,4.552,4.552,0,0,1-3.008.9,5.73,5.73,0,0,1-1.359-.176,6.313,6.313,0,0,1-1.328-.48l.383-1.7a5.235,5.235,0,0,0,1.082.379,5.362,5.362,0,0,0,1.207.129,2.042,2.042,0,0,0,1.379-.391,1.546,1.546,0,0,0,.441-1.219v-.766a2.552,2.552,0,0,1-.883.727,2.6,2.6,0,0,1-1.164.25,2.869,2.869,0,0,1-2.422-1.141,4.855,4.855,0,0,1-.867-3.016Zm2.281.164a3.473,3.473,0,0,0,.371,1.746,1.3,1.3,0,0,0,1.215.637,1.883,1.883,0,0,0,.887-.191,1.462,1.462,0,0,0,.582-.559V26.977a1.559,1.559,0,0,0-.582-.6,1.706,1.706,0,0,0-.871-.211,1.279,1.279,0,0,0-1.219.742,4.231,4.231,0,0,0-.383,1.938ZM44.867,31.75a2.87,2.87,0,0,1-.992,1.047,2.63,2.63,0,0,1-1.4.367,2.57,2.57,0,0,1-2.09-.906,4.347,4.347,0,0,1-.754-2.812v-4.9h2.273v4.914a2.729,2.729,0,0,0,.3,1.52,1.081,1.081,0,0,0,.934.41,2.273,2.273,0,0,0,.938-.176,1.58,1.58,0,0,0,.641-.52V24.547H47V33H45.109Zm8.422-1.094a.787.787,0,0,0-.363-.645,3.69,3.69,0,0,0-1.348-.473,5.375,5.375,0,0,1-2.254-.9,1.962,1.962,0,0,1-.77-1.633,2.329,2.329,0,0,1,.922-1.852,3.717,3.717,0,0,1,2.453-.766,4.011,4.011,0,0,1,2.566.766,2.237,2.237,0,0,1,.926,1.906l-.016.047H53.2a1.106,1.106,0,0,0-.328-.828,1.534,1.534,0,0,0-1.812-.047.85.85,0,0,0-.32.672.759.759,0,0,0,.332.637,3.7,3.7,0,0,0,1.348.441,5.484,5.484,0,0,1,2.316.918A2.014,2.014,0,0,1,55.5,30.57a2.231,2.231,0,0,1-.977,1.867,4.215,4.215,0,0,1-2.578.727,3.918,3.918,0,0,1-2.668-.855,2.392,2.392,0,0,1-.934-1.949l.016-.047h2.086a1.186,1.186,0,0,0,.445.984,1.838,1.838,0,0,0,1.1.3,1.567,1.567,0,0,0,.965-.254A.824.824,0,0,0,53.289,30.656Zm6.414-8.18v2.07h1.43v1.6H59.7v4.3a.982.982,0,0,0,.207.7.727.727,0,0,0,.543.211,2.178,2.178,0,0,0,.313-.02,2.632,2.632,0,0,0,.3-.066l.188,1.648a4.618,4.618,0,0,1-.668.176,3.982,3.982,0,0,1-.707.059,2.431,2.431,0,0,1-1.816-.648,2.843,2.843,0,0,1-.637-2.055V26.148H56.2v-1.6H57.43v-2.07ZM64.938,33H62.656V24.547h2.281Zm0-10.477H62.656V20.813h2.281ZM71.8,33a4.8,4.8,0,0,1-.215-.609,4.238,4.238,0,0,1-.129-.656,3.127,3.127,0,0,1-.93,1.023,2.33,2.33,0,0,1-1.375.406A2.855,2.855,0,0,1,67.1,32.48a2.449,2.449,0,0,1-.719-1.863,2.229,2.229,0,0,1,.957-1.926,4.78,4.78,0,0,1,2.793-.684h1.281v-.672a1.315,1.315,0,0,0-.32-.945,1.257,1.257,0,0,0-.953-.336,1.239,1.239,0,0,0-.855.27.941.941,0,0,0-.3.738h-2.2l-.016-.047a2.144,2.144,0,0,1,.934-1.848,4.055,4.055,0,0,1,2.582-.777,3.784,3.784,0,0,1,2.465.766,2.667,2.667,0,0,1,.941,2.2v3.492a6.6,6.6,0,0,0,.09,1.117A5.606,5.606,0,0,0,74.07,33Zm-2.086-1.523a1.944,1.944,0,0,0,1.063-.3,1.6,1.6,0,0,0,.641-.687V29.3H70.133a1.519,1.519,0,0,0-1.1.359,1.181,1.181,0,0,0-.371.883.881.881,0,0,0,.277.684A1.1,1.1,0,0,0,69.711,31.477ZM77.938,33H75.656V31h2.281Z" transform="translate(-19867 -10.937)" fill="#12263f"/>
      <path id="Trazado_715227-5" data-name="Trazado 715227" d="M46.333,23.167a23.065,23.065,0,0,1-4.719,14.015c-4.232,5.562-10.92.581-18.447.581-5.182,0-3.392,4.267-7.251,1.393-1.747-1.3-9.878-.241-11.2-1.974A23.167,23.167,0,1,1,46.333,23.167Z" transform="translate(-19935 -16.921)" fill="#ffa686"/>
      <path id="Trazado_715228-5" data-name="Trazado 715228" d="M199.641,51.438H187.187v-5.06a3.806,3.806,0,0,1,3.806-3.806h4.841a3.806,3.806,0,0,1,3.806,3.806Z" transform="translate(-20105.248 -55.639)" fill="#e9424a"/>
      <path id="Trazado_715229-5" data-name="Trazado 715229" d="M103.425,92.646c-4.232,5.562-8.063,7.665-15.59,7.665-5.182,0-7.707.107-11.565-2.768-1.747-1.3-3.849-2.456-5.167-4.189l.757-7.279.743-2.318.011-.033,4.342-13.547a11.425,11.425,0,0,1,21.759,0l4.342,13.547.011.033.69,2.151Z" transform="translate(-19999.668 -73.528)" fill="#fff9f1"/>
      <g id="Grupo_1017006-5" data-name="Grupo 1017006" transform="translate(-19916.91 0.414)">
        <circle id="Elipse_7976-5" data-name="Elipse 7976" cx="2.225" cy="2.225" r="2.225" fill="#e9424a"/>
        <circle id="Elipse_7977-5" data-name="Elipse 7977" cx="2.225" cy="2.225" r="2.225" transform="translate(5.706)" fill="#fd5758"/>
      </g>
      <path id="Trazado_715230-5" data-name="Trazado 715230" d="M89.045,269.76a23.168,23.168,0,0,1-36.895,0l3.215-10.031a6.217,6.217,0,0,0,11.664,4.246L70.6,255.72l3.568,8.255a6.217,6.217,0,0,0,11.664-4.246Z" transform="translate(-19982.43 -249.499)" fill="#ffe5bf"/>
      <path id="Trazado_715231-5" data-name="Trazado 715231" d="M90.879,62.653a11.425,11.425,0,0,0-7.834,7.525L78.7,83.724l-.011.033-3.549,11.07L71.1,90.981l.982-5.606.519-1.618.011-.033,4.342-13.547a11.427,11.427,0,0,1,13.924-7.525Z" transform="translate(-19999.666 -73.529)" fill="#f7eadc"/>
      <g id="Grupo_1017007-5" data-name="Grupo 1017007" transform="translate(-19922.543 6.246)">
        <path id="Trazado_715232-5" data-name="Trazado 715232" d="M143.079,256l-4.155,3.691a3.8,3.8,0,1,0,6.176,3.91l1.9-6.494L143.7,256" transform="translate(-137.646 -256)" fill="#e9424a"/>
        <path id="Trazado_715233-5" data-name="Trazado 715233" d="M274.926,256l4.155,3.691a3.8,3.8,0,1,1-6.176,3.91l-1.9-6.494L274.3,256" transform="translate(-258.938 -256)" fill="#fd5758"/>
      </g>
      <path id="Trazado_715234-5" data-name="Trazado 715234" d="M59.032,307.58l-2.259,7.048a23.3,23.3,0,0,1-4.623-4.576l3.215-10.031a6.211,6.211,0,0,0,3.667,7.56Z" transform="translate(-19982.432 -289.791)" fill="#ffe0a7"/>
      <g id="Grupo_1017008-5" data-name="Grupo 1017008" transform="translate(-19918.785 9.651)">
        <path id="Trazado_715235-5" data-name="Trazado 715235" d="M182.358,307.989a3.174,3.174,0,0,0,3.174-3.174v-9.167l-1.9-2.024-4.353,10.415A3.174,3.174,0,0,0,182.358,307.989Z" transform="translate(-179.182 -293.624)" fill="#fd5758"/>
        <path id="Trazado_715236-5" data-name="Trazado 715236" d="M265.834,307.989a3.174,3.174,0,0,1-3.174-3.174v-9.167l3.624-2.024,2.627,10.415A3.174,3.174,0,0,1,265.834,307.989Z" transform="translate(-255.106 -293.624)" fill="#fd5758"/>
      </g>
      <g id="Grupo_1017009-5" data-name="Grupo 1017009" transform="translate(-19918.785 9.651)">
        <path id="Trazado_715237-5" data-name="Trazado 715237" d="M183.555,307.755a3.176,3.176,0,0,1-4.278-3.715l2.628-10.416,2.1,1.176-2.33,9.24A3.174,3.174,0,0,0,183.555,307.755Z" transform="translate(-179.18 -293.624)" fill="#e9424a"/>
        <path id="Trazado_715238-5" data-name="Trazado 715238" d="M267.035,307.755a3.178,3.178,0,0,1-4.375-2.939v-9.167l3.623-2.024.3,1.176-1.518.848v9.167A3.174,3.174,0,0,0,267.035,307.755Z" transform="translate(-255.105 -293.624)" fill="#e9424a"/>
      </g>
      <g id="Grupo_1017010-5" data-name="Grupo 1017010" transform="translate(-19915.141 -16.921)">
        <path id="Trazado_715239-5" data-name="Trazado 715239" d="M228.875,0c-1.986,0-2.663,1.881-2.421,3.852l-.278,4.6a2.719,2.719,0,0,0,5.4,0l.583-4.747a3.307,3.307,0,0,0-3.282-3.71Z" transform="translate(-225.568 -0.005)" fill="#fd5758"/>
        <path id="Trazado_715240-5" data-name="Trazado 715240" d="M224.038,10.526a2.72,2.72,0,0,1-3.976-2.069l-.583-4.747A3.309,3.309,0,0,1,224.038.255a3.308,3.308,0,0,0-2,3.455l.583,4.747A2.718,2.718,0,0,0,224.038,10.526Z" transform="translate(-219.453)" fill="#e9424a"/>
      </g>
      <g id="Grupo_1017011-5" data-name="Grupo 1017011" transform="translate(-19924.988 -1.483)">
        <ellipse id="Elipse_7978-5" data-name="Elipse 7978" cx="2.213" cy="3.277" rx="2.213" ry="3.277" transform="translate(0 0)" fill="#516666"/>
        <path id="Trazado_715241-5" data-name="Trazado 715241" d="M113.959,176.71a1.693,1.693,0,0,1-1.106.439c-1.223,0-2.213-1.467-2.213-3.277s.99-3.277,2.213-3.277a1.694,1.694,0,0,1,1.106.439,4.194,4.194,0,0,0,0,5.676Z" transform="translate(-110.64 -170.595)" fill="#384948"/>
        <ellipse id="Elipse_7979-5" data-name="Elipse 7979" cx="2.213" cy="3.277" rx="2.213" ry="3.277" transform="translate(21.882 0)" fill="#516666"/>
        <path id="Trazado_715242-5" data-name="Trazado 715242" d="M355.762,176.71a1.693,1.693,0,0,1-1.106.439c-1.223,0-2.213-1.467-2.213-3.277s.99-3.277,2.213-3.277a1.694,1.694,0,0,1,1.106.439,4.194,4.194,0,0,0,0,5.676Z" transform="translate(-330.561 -170.595)" fill="#384948"/>
      </g>
      <path id="Trazado_715243-5" data-name="Trazado 715243" d="M206.229,256v2.816l-2.215,2.626a5.764,5.764,0,0,0-1.251,2.61,2.069,2.069,0,0,1-.717,1.2,1.984,1.984,0,0,1-.2.146,2.072,2.072,0,0,1-3.15-1.348,5.76,5.76,0,0,0-1.251-2.61l-2.215-2.626.565-2.816Z" transform="translate(-20112.563 -249.754)" fill="#f5cf33"/>
      <path id="Trazado_715244-5" data-name="Trazado 715244" d="M201.846,265.4a2.072,2.072,0,0,1-3.15-1.348,5.76,5.76,0,0,0-1.251-2.61l-2.215-2.626.565-2.816h.624l2.19,1.723,2.121,4.838v.866A2.3,2.3,0,0,0,201.846,265.4Z" transform="translate(-20112.563 -249.754)" fill="#f2b632"/>
      <path id="Trazado_715245-5" data-name="Trazado 715245" d="M198.288,175.739a.878.878,0,0,1-1.677.363.89.89,0,0,0-1.453-.245L193.5,177.59a2.2,2.2,0,0,1-3.187,0l-1.381-1.447-.36-.689a.8.8,0,0,0-.639-.2,1.082,1.082,0,0,0-.886.6,1.1,1.1,0,0,1-.346.432c-.139.089-.122.045-.294.045-.552,0-.967-.23-.861-.772l.267-1.356a3.37,3.37,0,0,1,1.748-2.337l.322-.167a3.166,3.166,0,0,0,1.7-2.807v-.961a2.322,2.322,0,0,1,2.813-2.267c.069.015.137.033.2.053a2.321,2.321,0,0,1,1.623,2.214v.961a3.166,3.166,0,0,0,1.7,2.807l.322.167A3.37,3.37,0,0,1,198,174.213l.267,1.356A.857.857,0,0,1,198.288,175.739Z" transform="translate(-20103.744 -167.553)" fill="#fde42f"/>
      <path id="Trazado_715246-5" data-name="Trazado 715246" d="M192.607,165.726a1.946,1.946,0,0,0-1.31,1.712l-.2,2.959a2.784,2.784,0,0,1-1.474,2.275,1.575,1.575,0,0,0-.838,1.392c0,.039,0,.078,0,.117l.145,1.962-.272-.286a.89.89,0,0,0-1.453.245.878.878,0,0,1-1.66-.534l.267-1.356a3.37,3.37,0,0,1,1.748-2.337l.322-.167a3.166,3.166,0,0,0,1.7-2.807v-.961a2.322,2.322,0,0,1,2.813-2.267c.069.015.137.033.2.053Z" transform="translate(-20103.744 -167.553)" fill="#f5cf33"/>
    </g>
  </g>
</svg>
