<svg xmlns="http://www.w3.org/2000/svg" xmlns:xlink="http://www.w3.org/1999/xlink" width="118.618" height="119.458" viewBox="0 0 118.618 119.458">
  <defs>
    <radialGradient id="radial-gradient" cx="0.076" cy="0.019" r="1.465" gradientTransform="translate(0.001)" gradientUnits="objectBoundingBox">
      <stop offset="0" stop-color="#f6f6f7"/>
      <stop offset="0.477" stop-color="#f9f9fa"/>
      <stop offset="0.715" stop-color="#fff"/>
    </radialGradient>
    <filter id="Trazado_40937" x="-0.001" y="0.963" width="118.618" height="118.496" filterUnits="userSpaceOnUse">
      <feOffset dy="7" input="SourceAlpha"/>
      <feGaussianBlur stdDeviation="2.5" result="blur"/>
      <feFlood flood-opacity="0.102"/>
      <feComposite operator="in" in2="blur"/>
      <feComposite in="SourceGraphic"/>
    </filter>
  </defs>
  <g id="Grupo_1018049" data-name="Grupo 1018049" transform="translate(9417.639 -12895.258)">
    <g id="Grupo_1017771" data-name="Grupo 1017771" transform="translate(10733.521 5674.992)">
      <g id="Grupo_980514" data-name="Grupo 980514" transform="translate(-20145 7220.267)">
        <g id="Grupo_1004059" data-name="Grupo 1004059">
          <g id="Grupo_18423" data-name="Grupo 18423">
            <g id="Grupo_18421" data-name="Grupo 18421">
              <g id="Grupo_18420" data-name="Grupo 18420">
                <g id="Grupo_18419" data-name="Grupo 18419">
                  <path id="Trazado_40936" data-name="Trazado 40936" d="M299.581,2198.2a52.479,52.479,0,1,1-52.478-52.478A52.479,52.479,0,0,1,299.581,2198.2Z" transform="translate(-194.623 -2145.721)" fill="#fff"/>
                </g>
              </g>
            </g>
            <g transform="matrix(1, 0, 0, 1, -6.16, 0)" filter="url(#Trazado_40937)">
              <path id="Trazado_40937-2" data-name="Trazado 40937" d="M299.095,2197.668a52.478,52.478,0,1,0-52.478,52.48A52.271,52.271,0,0,0,299.095,2197.668Z" transform="translate(-187.98 -2145.19)" fill="url(#radial-gradient)"/>
            </g>
            <g id="Grupo_18422" data-name="Grupo 18422" transform="translate(9.297 29.463)">
              <path id="Trazado_40939" data-name="Trazado 40939" d="M290.9,2164.488a52.485,52.485,0,0,1-90.355,52.261,52.319,52.319,0,0,0,90.355-52.261Z" transform="translate(-200.545 -2164.488)" fill="#eceef0"/>
            </g>
          </g>
        </g>
      </g>
      <g id="vaca_1_" data-name="vaca (1)" transform="translate(-20135.502 7228.795)">
        <path id="Trazado_715939" data-name="Trazado 715939" d="M77.572,11A42.69,42.69,0,0,0,42.2,29.751l50.478,63.97A42.741,42.741,0,0,0,77.572,11Z" transform="translate(-34.836 -10.998)" fill="#adce32"/>
        <path id="Trazado_715940" data-name="Trazado 715940" d="M52.308,199.817c-2.743,0-6.074-.219-7.494-1.922a4.1,4.1,0,0,1-.581-3.393l-.149-.094a7.157,7.157,0,0,1-3.667-5.273,3.972,3.972,0,0,1,1.4-3.455l0-.125a16.575,16.575,0,0,0-2.646-9.228c-5.349-9.806-3.84-16.519-3.862-16.747l-.1-.092a2.813,2.813,0,0,1-.32-3.725l.075-.1-.031-.121a53.1,53.1,0,0,1-1.147-10.66c-.183.041-4.98,6.3-10.252,5.285a13.445,13.445,0,0,1-7.576,9,9.491,9.491,0,0,1-8,.21c-2.984-1.345-5.139-4.209-6.447-6.439a42.759,42.759,0,0,0,56.32,51.314c.3-1.748.54-3.55.692-5.385-1.549.79-3.836.95-6.222.95Z" transform="translate(0 -121.529)" fill="#543e5b"/>
        <path id="Trazado_715941" data-name="Trazado 715941" d="M30.528,128.437c-2.7-.4-5.547-2.671-7.973-8.634a40.242,40.242,0,0,1-7.872-1.143l-.583-.152a42.536,42.536,0,0,0-5.936,13.01c2.587,4.308,7.36,9.324,14.643,6.114A13.845,13.845,0,0,0,30.528,128.437Z" transform="translate(-6.74 -99.755)" fill="#bec8f7"/>
        <path id="Trazado_715942" data-name="Trazado 715942" d="M452.31,96.989a8.379,8.379,0,0,0-6.726,2.531,17.078,17.078,0,0,1-3.656,2.865,6.845,6.845,0,0,0,1,.257,5.129,5.129,0,0,0,.588,3.959c.954,1.435,2.761,2.275,5.368,2.5a21.712,21.712,0,0,0,5.007-7.745A3.466,3.466,0,0,0,452.31,96.989Z" transform="translate(-364.843 -81.971)" fill="#f9a0b1"/>
        <path id="Trazado_715943" data-name="Trazado 715943" d="M402.178,127.239a7.183,7.183,0,0,1-1.03-.222,8.212,8.212,0,0,1-3.87,1.311,5.725,5.725,0,0,0-3.781,1.532,7.141,7.141,0,0,0-1.333,1.762c7.246,6.687,12.427,5.371,15.9,2.049C400.188,133.108,402.178,127.239,402.178,127.239Z" transform="translate(-323.759 -106.78)" fill="#ff7186"/>
        <path id="Trazado_715944" data-name="Trazado 715944" d="M439.083,90.608c-5.629-2.791-9.182-.285-12.844-.266a5.531,5.531,0,0,0,.23,3.86,4.345,4.345,0,0,0,3.313,2.1,18.265,18.265,0,0,0,2.985-2.459,8.449,8.449,0,0,1,7.331-2.472A3.434,3.434,0,0,0,439.083,90.608Z" transform="translate(-351.693 -75.634)" fill="#6c5475"/>
        <path id="Trazado_715945" data-name="Trazado 715945" d="M365.379,80.029c1.7,3.595,3.453,5.145,4.2,9.843a7.144,7.144,0,0,1,.96-1.148,5.725,5.725,0,0,1,3.781-1.532,8.793,8.793,0,0,0,4.559-1.754c-4.222-.611-4.094-3.8-3.59-5.755a6.722,6.722,0,0,1-3.564-.806,20.3,20.3,0,0,0-7.77-2.49,26.363,26.363,0,0,0,1.421,3.642Z" transform="translate(-300.473 -64.981)" fill="#45304c"/>
        <path id="Trazado_715946" data-name="Trazado 715946" d="M79.141,109.106c2.614-.226,4.425-1.067,5.38-2.5a5.129,5.129,0,0,0,.588-3.959,6.83,6.83,0,0,0,1-.254,17.076,17.076,0,0,1-3.661-2.867,8.38,8.38,0,0,0-6.726-2.531,3.466,3.466,0,0,0-1.585,4.369A21.715,21.715,0,0,0,79.141,109.106Z" transform="translate(-60.99 -81.972)" fill="#f9a0b1"/>
        <path id="Trazado_715947" data-name="Trazado 715947" d="M117.144,129.872a5.724,5.724,0,0,0-3.781-1.532,8.207,8.207,0,0,1-3.866-1.309,7.215,7.215,0,0,1-1.021.219s1.992,5.876-5.9,6.435c3.471,3.322,8.651,4.636,15.9-2.05a7.147,7.147,0,0,0-1.333-1.763Z" transform="translate(-84.687 -106.791)" fill="#ff7186"/>
        <path id="Trazado_715948" data-name="Trazado 715948" d="M89.393,96.312l0-.009a4.345,4.345,0,0,0,3.314-2.1,5.529,5.529,0,0,0,.23-3.86c-3.667-.013-7.222-2.528-12.857.266a3.432,3.432,0,0,0-1.014.766,8.45,8.45,0,0,1,7.331,2.472A18.23,18.23,0,0,0,89.393,96.312Z" transform="translate(-65.273 -75.633)" fill="#6c5475"/>
        <path id="Trazado_715949" data-name="Trazado 715949" d="M143.527,78.877a6.72,6.72,0,0,1-3.552.807c.505,1.96.632,5.149-3.6,5.756a8.789,8.789,0,0,0,4.556,1.752,5.725,5.725,0,0,1,3.781,1.532,7.139,7.139,0,0,1,.96,1.148c.75-4.7,2.511-6.264,4.2-9.843h0a26.361,26.361,0,0,0,1.421-3.642A20.3,20.3,0,0,0,143.527,78.877Z" transform="translate(-112.588 -64.98)" fill="#45304c"/>
        <path id="Trazado_715950" data-name="Trazado 715950" d="M302.207,53.347c-4.308,1.342-11.268,4.9-11.268,12.85V94.381a10.33,10.33,0,0,0,5.569,9.144,22.445,22.445,0,0,1,6.1,4.536,14.69,14.69,0,0,1,1.676-5.3c.317-.548.649-1.145.984-1.782-7.733-5.244-6.94-19.211-3.435-25.961,2.293-4.417,3.4-10.086,3.929-14.013a25.77,25.77,0,0,1-1.54-4.052,8.828,8.828,0,0,0-2.012-3.609Z" transform="translate(-240.191 -45.96)" fill="#deeeff"/>
        <path id="Trazado_715951" data-name="Trazado 715951" d="M235.81,92.949a22.808,22.808,0,0,0-5.793-4.214,10.33,10.33,0,0,1-5.569-9.144V51.408c0-7.782,6.673-11.358,11-12.764a8.763,8.763,0,0,0-5.367-2.837,42.567,42.567,0,0,0-11.259,0,8.794,8.794,0,0,0-7.3,6.36,25.763,25.763,0,0,1-1.54,4.052c.527,3.926,1.636,9.6,3.929,14.013,3.5,6.749,4.3,20.717-3.436,25.961.335.638.667,1.234.984,1.782a17.9,17.9,0,0,1,1.9,8.6c2.114-1.788,6.288-2.2,11.094-2.2s8.98.408,11.094,2.2A24.2,24.2,0,0,1,235.81,92.949Z" transform="translate(-173.352 -31.17)" fill="#bec8f7"/>
        <path id="Trazado_715952" data-name="Trazado 715952" d="M189.563,132.113c8.261-4.974,7.5-19.394,3.926-26.284-2.528-4.868-3.619-11.265-4.075-15.164a34.275,34.275,0,0,1-2.371,4.564c-3.682,6.013-2.628,12.594-1.775,15.748a9.263,9.263,0,0,1,.274,3.7C184.616,121.3,187.227,127.754,189.563,132.113Z" transform="translate(-152.271 -76.769)" fill="#6c5475"/>
        <path id="Trazado_715953" data-name="Trazado 715953" d="M341.395,132.113c-8.261-4.974-7.5-19.394-3.926-26.284,2.527-4.868,3.619-11.265,4.075-15.164a34.279,34.279,0,0,0,2.371,4.564c3.682,6.013,2.629,12.594,1.775,15.748a9.264,9.264,0,0,0-.274,3.7C346.342,121.3,343.731,127.754,341.395,132.113Z" transform="translate(-276.493 -76.769)" fill="#876d93"/>
        <path id="Trazado_715954" data-name="Trazado 715954" d="M251.594,434.81a16.416,16.416,0,0,1-8.506-2.214,5.76,5.76,0,0,0-.23,1.6c0,3.89,3.911,4.6,8.735,4.6s8.735-.713,8.735-4.6a5.762,5.762,0,0,0-.23-1.6,16.416,16.416,0,0,1-8.506,2.214Z" transform="translate(-200.497 -359.057)" fill="#ff4155"/>
        <path id="Trazado_715955" data-name="Trazado 715955" d="M240.163,380.512a2.246,2.246,0,0,1-.182-1.9l.077-.194-2.04-1.4-.052-.011c-2.046-.422-3.408-1.313-4.047-2.648a6.472,6.472,0,0,1,.1-4.771l-.558,0c-6.941,0-12.567.849-12.567,5.481s5.626,8.387,12.567,8.387a16.628,16.628,0,0,0,8.137-2,2.571,2.571,0,0,1-1.434-.942Z" transform="translate(-182.363 -307.036)" fill="#ff7186"/>
        <path id="Trazado_715956" data-name="Trazado 715956" d="M292.128,369.592c-.69,1.956-1.6,6.485,4.175,7.676l1.825,1.251a2.337,2.337,0,0,0,1.549,3.111c2.887-1.537,4.74-3.9,4.74-6.559,0-4.569-5.477-5.457-12.288-5.48Z" transform="translate(-240.752 -307.042)" fill="#f9a0b1"/>
        <path id="Trazado_715957" data-name="Trazado 715957" d="M318.119,397.1a.929.929,0,0,1-.9-1.547,5.417,5.417,0,0,0,1.133-1.631c.088-.22.165-.439.234-.655a2.137,2.137,0,0,1,4.059-.108l.022.066C323.144,394.764,320.609,396.424,318.119,397.1Z" transform="translate(-261.665 -325.33)" fill="#6c5475"/>
        <path id="Trazado_715958" data-name="Trazado 715958" d="M240.441,397.1a.929.929,0,0,0,.9-1.547,5.417,5.417,0,0,1-1.133-1.631c-.088-.22-.165-.439-.234-.655a2.137,2.137,0,0,0-4.059-.108l-.022.066C235.415,394.764,237.951,396.424,240.441,397.1Z" transform="translate(-194.701 -325.33)" fill="#6c5475"/>
        <g id="Grupo_1017143" data-name="Grupo 1017143" transform="translate(5.332 31.226)">
          <circle id="Elipse_7992" data-name="Elipse 7992" cx="3.179" cy="3.179" r="3.179" transform="translate(56.915 4.495) rotate(-45)" fill="#45304c"/>
          <ellipse id="Elipse_7993" data-name="Elipse 7993" cx="3.179" cy="3.179" rx="3.179" ry="3.179" transform="translate(26.284 6.872) rotate(-76.7)" fill="#45304c"/>
          <path id="Trazado_715959" data-name="Trazado 715959" d="M30.57,372.268A42.943,42.943,0,0,0,45.678,388.05a34.6,34.6,0,0,1-1.244-11.541,4.49,4.49,0,0,0-5.52-4.611A26.046,26.046,0,0,1,30.57,372.268Z" transform="translate(-30.57 -340.075)" fill="#45304c"/>
        </g>
        <path id="Trazado_715960" data-name="Trazado 715960" d="M131.183,11.368a42.494,42.494,0,0,0-21.21,7.008C115.793,21.133,125.589,23.371,131.183,11.368Z" transform="translate(-90.791 -11.303)" fill="#adce32"/>
        <path id="Trazado_715961" data-name="Trazado 715961" d="M400.474,220.149c0,8.088-2.129,12.748-3.27,14.664a11.315,11.315,0,0,0-1.547,4.448c-.331,2.8.093,6.69,4.063,9.151A42.778,42.778,0,0,0,411.3,210.451C406.76,211.024,400.474,213.092,400.474,220.149Z" transform="translate(-326.569 -175.66)" fill="#adce32"/>
      </g>
    </g>
  </g>
</svg>
