<svg xmlns="http://www.w3.org/2000/svg" xmlns:xlink="http://www.w3.org/1999/xlink" width="219" height="123" viewBox="0 0 219 123">
  <defs>
    <linearGradient id="linear-gradient" x1="0.5" x2="0.857" y2="0.904" gradientUnits="objectBoundingBox">
      <stop offset="0" stop-color="#accd32"/>
      <stop offset="1" stop-color="#3f7324"/>
    </linearGradient>
    <filter id="Trazado_717144" x="49" y="10.661" width="111.745" height="111.746" filterUnits="userSpaceOnUse">
      <feOffset dy="3" input="SourceAlpha"/>
      <feGaussianBlur stdDeviation="3" result="blur"/>
      <feFlood flood-opacity="0.161"/>
      <feComposite operator="in" in2="blur"/>
      <feComposite in="SourceGraphic"/>
    </filter>
  </defs>
  <g id="Grupo_1017612" data-name="Grupo 1017612" transform="translate(8906 7027)">
    <g id="Grupo_1017611" data-name="Grupo 1017611">
      <path id="Trazado_717143" data-name="Trazado 717143" d="M7.77-4.072a5.15,5.15,0,0,1-.445,2.209A3.354,3.354,0,0,1,6.05-.4a3.525,3.525,0,0,1-1.9.516,3.549,3.549,0,0,1-1.893-.51A3.387,3.387,0,0,1,.967-1.849,5,5,0,0,1,.5-4.025v-.422A5.123,5.123,0,0,1,.958-6.665,3.381,3.381,0,0,1,2.241-8.136a3.53,3.53,0,0,1,1.9-.513,3.53,3.53,0,0,1,1.9.513A3.381,3.381,0,0,1,7.315-6.665,5.109,5.109,0,0,1,7.77-4.453ZM5.988-4.459A3.59,3.59,0,0,0,5.508-6.5a1.566,1.566,0,0,0-1.371-.7,1.566,1.566,0,0,0-1.365.688,3.549,3.549,0,0,0-.486,2.019v.416a3.635,3.635,0,0,0,.48,2.027,1.562,1.562,0,0,0,1.383.721,1.548,1.548,0,0,0,1.359-.694,3.614,3.614,0,0,0,.48-2.024ZM12.07-2.115,14-8.531h1.957L12.99,0H11.156L8.2-8.531h1.951ZM18.633,0H16.875V-8.531h1.758ZM27.2,0H25.441L22.02-5.613V0H20.262V-8.531H22.02l3.428,5.625V-8.531H27.2Zm8.543-4.072A5.15,5.15,0,0,1,35.3-1.863,3.354,3.354,0,0,1,34.022-.4a3.525,3.525,0,0,1-1.9.516,3.549,3.549,0,0,1-1.893-.51,3.387,3.387,0,0,1-1.289-1.456,5,5,0,0,1-.463-2.177v-.422a5.123,5.123,0,0,1,.454-2.218,3.381,3.381,0,0,1,1.283-1.471,3.53,3.53,0,0,1,1.9-.513,3.53,3.53,0,0,1,1.9.513,3.381,3.381,0,0,1,1.283,1.471,5.109,5.109,0,0,1,.454,2.212Zm-1.781-.387A3.59,3.59,0,0,0,33.48-6.5a1.566,1.566,0,0,0-1.371-.7,1.566,1.566,0,0,0-1.365.688,3.549,3.549,0,0,0-.486,2.019v.416a3.635,3.635,0,0,0,.48,2.027,1.562,1.562,0,0,0,1.383.721,1.548,1.548,0,0,0,1.359-.694,3.614,3.614,0,0,0,.48-2.024Zm7.482,2.221A.9.9,0,0,0,41.092-3a4.611,4.611,0,0,0-1.266-.562,8.972,8.972,0,0,1-1.447-.583,2.365,2.365,0,0,1-1.453-2.115,2.06,2.06,0,0,1,.39-1.233,2.542,2.542,0,0,1,1.119-.847,4.212,4.212,0,0,1,1.638-.3,3.834,3.834,0,0,1,1.629.331,2.594,2.594,0,0,1,1.11.935,2.445,2.445,0,0,1,.4,1.371H41.449a1.15,1.15,0,0,0-.369-.911,1.517,1.517,0,0,0-1.037-.325,1.621,1.621,0,0,0-1,.272.859.859,0,0,0-.357.718.823.823,0,0,0,.419.7,4.733,4.733,0,0,0,1.233.527,5.329,5.329,0,0,1,2.186,1.119,2.229,2.229,0,0,1,.686,1.664,2.053,2.053,0,0,1-.838,1.737,3.668,3.668,0,0,1-2.256.63,4.356,4.356,0,0,1-1.793-.36,2.837,2.837,0,0,1-1.233-.987,2.528,2.528,0,0,1-.425-1.453h1.764q0,1.412,1.688,1.412a1.642,1.642,0,0,0,.979-.255A.829.829,0,0,0,41.443-2.238ZM4.693,18H3V11.473L.979,12.1V10.723L4.512,9.457h.182Zm6.135-2.971h-3.3V13.664h3.3Zm6.3-.24h.967v1.365h-.967V18H15.434V16.154h-3.5l-.076-1.066,3.557-5.619h1.711Zm-3.58,0h1.887V11.777l-.111.193Z" transform="translate(-8892 -7002)" fill="#12263f"/>
      <path id="Trazado_717150" data-name="Trazado 717150" d="M5.895-3.7H2.52v2.285H6.48V0H.762V-8.531H6.469v1.424H2.52v2.033H5.895Zm8.613-.375A5.14,5.14,0,0,1,14.121-2,3.566,3.566,0,0,1,13.049-.58L14.467.533l-1.119.99L11.531.064a3.845,3.845,0,0,1-.645.053,3.549,3.549,0,0,1-1.893-.51A3.387,3.387,0,0,1,7.705-1.849a5,5,0,0,1-.463-2.177v-.422A5.123,5.123,0,0,1,7.7-6.665,3.381,3.381,0,0,1,8.979-8.136a3.53,3.53,0,0,1,1.9-.513,3.53,3.53,0,0,1,1.9.513,3.381,3.381,0,0,1,1.283,1.471,5.109,5.109,0,0,1,.454,2.212Zm-1.781-.387a3.59,3.59,0,0,0-.48-2.039,1.566,1.566,0,0,0-1.371-.7,1.566,1.566,0,0,0-1.365.688,3.549,3.549,0,0,0-.486,2.019v.416A3.635,3.635,0,0,0,9.5-2.045a1.562,1.562,0,0,0,1.383.721,1.548,1.548,0,0,0,1.359-.694,3.614,3.614,0,0,0,.48-2.024Zm9.527-4.072v5.619A2.877,2.877,0,0,1,21.378-.7a3.377,3.377,0,0,1-2.394.814,3.415,3.415,0,0,1-2.373-.791,2.828,2.828,0,0,1-.9-2.174V-8.531h1.758V-2.9a1.626,1.626,0,0,0,.4,1.222,1.541,1.541,0,0,0,1.11.384q1.482,0,1.506-1.559V-8.531ZM25.564,0H23.807V-8.531h1.758Zm8.566,0H32.373L28.951-5.613V0H27.193V-8.531h1.758l3.428,5.625V-8.531h1.752Zm8.543-4.072a5.15,5.15,0,0,1-.445,2.209A3.354,3.354,0,0,1,40.954-.4a3.525,3.525,0,0,1-1.9.516,3.549,3.549,0,0,1-1.893-.51,3.387,3.387,0,0,1-1.289-1.456,5,5,0,0,1-.463-2.177v-.422a5.123,5.123,0,0,1,.454-2.218,3.381,3.381,0,0,1,1.283-1.471,3.53,3.53,0,0,1,1.9-.513,3.53,3.53,0,0,1,1.9.513A3.381,3.381,0,0,1,42.22-6.665a5.109,5.109,0,0,1,.454,2.212Zm-1.781-.387a3.59,3.59,0,0,0-.48-2.039,1.566,1.566,0,0,0-1.371-.7,1.566,1.566,0,0,0-1.365.688,3.549,3.549,0,0,0-.486,2.019v.416a3.635,3.635,0,0,0,.48,2.027,1.562,1.562,0,0,0,1.383.721,1.548,1.548,0,0,0,1.359-.694,3.614,3.614,0,0,0,.48-2.024Zm7.482,2.221A.9.9,0,0,0,48.023-3a4.611,4.611,0,0,0-1.266-.562,8.972,8.972,0,0,1-1.447-.583,2.365,2.365,0,0,1-1.453-2.115,2.06,2.06,0,0,1,.39-1.233,2.542,2.542,0,0,1,1.119-.847A4.212,4.212,0,0,1,47-8.648a3.834,3.834,0,0,1,1.629.331,2.594,2.594,0,0,1,1.11.935,2.445,2.445,0,0,1,.4,1.371H48.381a1.15,1.15,0,0,0-.369-.911,1.517,1.517,0,0,0-1.037-.325,1.621,1.621,0,0,0-1,.272.859.859,0,0,0-.357.718.823.823,0,0,0,.419.7,4.733,4.733,0,0,0,1.233.527,5.329,5.329,0,0,1,2.186,1.119,2.229,2.229,0,0,1,.686,1.664A2.053,2.053,0,0,1,49.3-.513a3.668,3.668,0,0,1-2.256.63,4.356,4.356,0,0,1-1.793-.36,2.837,2.837,0,0,1-1.233-.987,2.528,2.528,0,0,1-.425-1.453h1.764q0,1.412,1.688,1.412a1.642,1.642,0,0,0,.979-.255A.829.829,0,0,0,48.375-2.238ZM4.693,18H3V11.473L.979,12.1V10.723L4.512,9.457h.182Zm6.135-2.971h-3.3V13.664h3.3ZM17.965,18H12.117V16.84l2.76-2.941a6.808,6.808,0,0,0,.841-1.084,1.742,1.742,0,0,0,.272-.879,1.3,1.3,0,0,0-.287-.894,1.036,1.036,0,0,0-.82-.325,1.118,1.118,0,0,0-.905.4,1.567,1.567,0,0,0-.331,1.04h-1.7a2.8,2.8,0,0,1,.372-1.424,2.622,2.622,0,0,1,1.052-1.011,3.2,3.2,0,0,1,1.541-.366,3.027,3.027,0,0,1,2.048.633,2.239,2.239,0,0,1,.729,1.787,2.868,2.868,0,0,1-.328,1.289,7.164,7.164,0,0,1-1.125,1.529L14.3,16.635h3.668Z" transform="translate(-8892 -6937)" fill="#12263f"/>
      <path id="Trazado_717151" data-name="Trazado 717151" d="M-56.648-3.006V0h-1.758V-8.531h3.328a3.85,3.85,0,0,1,1.69.352,2.591,2.591,0,0,1,1.122,1,2.786,2.786,0,0,1,.393,1.474,2.45,2.45,0,0,1-.858,1.978,3.575,3.575,0,0,1-2.376.724Zm0-1.424h1.57a1.544,1.544,0,0,0,1.063-.328,1.193,1.193,0,0,0,.366-.937,1.407,1.407,0,0,0-.369-1.014,1.379,1.379,0,0,0-1.02-.4h-1.611Zm12.99.357A5.15,5.15,0,0,1-44.1-1.863,3.354,3.354,0,0,1-45.378-.4a3.525,3.525,0,0,1-1.9.516,3.549,3.549,0,0,1-1.893-.51,3.387,3.387,0,0,1-1.289-1.456,5,5,0,0,1-.463-2.177v-.422a5.123,5.123,0,0,1,.454-2.218,3.381,3.381,0,0,1,1.283-1.471,3.53,3.53,0,0,1,1.9-.513,3.53,3.53,0,0,1,1.9.513,3.381,3.381,0,0,1,1.283,1.471,5.109,5.109,0,0,1,.454,2.212Zm-1.781-.387A3.59,3.59,0,0,0-45.92-6.5a1.566,1.566,0,0,0-1.371-.7,1.566,1.566,0,0,0-1.365.688,3.549,3.549,0,0,0-.486,2.019v.416a3.635,3.635,0,0,0,.48,2.027,1.562,1.562,0,0,0,1.383.721,1.548,1.548,0,0,0,1.359-.694,3.614,3.614,0,0,0,.48-2.024Zm6.217,1.336h-1.4V0h-1.758V-8.531h3.17a3.583,3.583,0,0,1,2.332.674,2.326,2.326,0,0,1,.82,1.9A2.625,2.625,0,0,1-36.437-4.5a2.578,2.578,0,0,1-1.146.929l1.846,3.486V0h-1.887Zm-1.4-1.424h1.418a1.452,1.452,0,0,0,1.025-.337,1.2,1.2,0,0,0,.363-.929,1.289,1.289,0,0,0-.343-.949,1.424,1.424,0,0,0-1.052-.346h-1.412Zm12.6,1.705A3.019,3.019,0,0,1-29.042-.674a3.57,3.57,0,0,1-2.417.791,3.21,3.21,0,0,1-2.581-1.1,4.529,4.529,0,0,1-.94-3.032v-.521a5.114,5.114,0,0,1,.434-2.168,3.249,3.249,0,0,1,1.239-1.438,3.471,3.471,0,0,1,1.872-.5,3.478,3.478,0,0,1,2.379.791,3.244,3.244,0,0,1,1.043,2.221h-1.758a1.782,1.782,0,0,0-.46-1.2,1.7,1.7,0,0,0-1.2-.372,1.494,1.494,0,0,0-1.315.63A3.53,3.53,0,0,0-33.2-4.623v.645a3.778,3.778,0,0,0,.419,2.021,1.466,1.466,0,0,0,1.321.639,1.735,1.735,0,0,0,1.216-.372,1.681,1.681,0,0,0,.46-1.151ZM-25,0H-26.76V-8.531H-25Zm8.566,0h-1.758l-3.422-5.613V0h-1.758V-8.531h1.758l3.428,5.625V-8.531h1.752Zm8.543-4.072a5.15,5.15,0,0,1-.445,2.209A3.354,3.354,0,0,1-9.612-.4a3.525,3.525,0,0,1-1.9.516,3.549,3.549,0,0,1-1.893-.51A3.387,3.387,0,0,1-14.7-1.849a5,5,0,0,1-.463-2.177v-.422A5.123,5.123,0,0,1-14.7-6.665a3.381,3.381,0,0,1,1.283-1.471,3.53,3.53,0,0,1,1.9-.513,3.53,3.53,0,0,1,1.9.513A3.381,3.381,0,0,1-8.347-6.665a5.109,5.109,0,0,1,.454,2.212Zm-1.781-.387a3.59,3.59,0,0,0-.48-2.039,1.566,1.566,0,0,0-1.371-.7,1.566,1.566,0,0,0-1.365.688,3.549,3.549,0,0,0-.486,2.019v.416a3.635,3.635,0,0,0,.48,2.027,1.562,1.562,0,0,0,1.383.721,1.548,1.548,0,0,0,1.359-.694,3.614,3.614,0,0,0,.48-2.024Zm7.482,2.221A.9.9,0,0,0-2.543-3a4.611,4.611,0,0,0-1.266-.562,8.972,8.972,0,0,1-1.447-.583A2.365,2.365,0,0,1-6.709-6.264,2.06,2.06,0,0,1-6.319-7.5,2.542,2.542,0,0,1-5.2-8.344a4.212,4.212,0,0,1,1.638-.3,3.834,3.834,0,0,1,1.629.331,2.594,2.594,0,0,1,1.11.935,2.445,2.445,0,0,1,.4,1.371H-2.186a1.15,1.15,0,0,0-.369-.911,1.517,1.517,0,0,0-1.037-.325,1.621,1.621,0,0,0-1,.272.859.859,0,0,0-.357.718.823.823,0,0,0,.419.7A4.733,4.733,0,0,0-3.3-5.033,5.329,5.329,0,0,1-1.113-3.914,2.229,2.229,0,0,1-.428-2.25,2.053,2.053,0,0,1-1.266-.513a3.668,3.668,0,0,1-2.256.63,4.356,4.356,0,0,1-1.793-.36A2.837,2.837,0,0,1-6.548-1.23a2.528,2.528,0,0,1-.425-1.453h1.764q0,1.412,1.688,1.412a1.642,1.642,0,0,0,.979-.255A.829.829,0,0,0-2.191-2.238ZM-27.5,18h-1.693V11.473l-2.021.627V10.723l3.533-1.266h.182Zm8.514-3.527a4.322,4.322,0,0,1-.732,2.707,2.557,2.557,0,0,1-2.145.938,2.574,2.574,0,0,1-2.133-.92,4.2,4.2,0,0,1-.756-2.637V12.99a4.265,4.265,0,0,1,.741-2.713,2.576,2.576,0,0,1,2.136-.926,2.578,2.578,0,0,1,2.133.917,4.182,4.182,0,0,1,.756,2.634Zm-1.693-1.727a3.124,3.124,0,0,0-.29-1.546.98.98,0,0,0-.905-.484.963.963,0,0,0-.882.46,2.924,2.924,0,0,0-.3,1.44v2.076a3.279,3.279,0,0,0,.284,1.551.967.967,0,0,0,.911.507.951.951,0,0,0,.9-.487,3.2,3.2,0,0,0,.287-1.49Zm6.2,2.283h-3.3V13.664h3.3ZM-7.342,18h-5.848V16.84l2.76-2.941a6.808,6.808,0,0,0,.841-1.084,1.742,1.742,0,0,0,.272-.879,1.3,1.3,0,0,0-.287-.894,1.036,1.036,0,0,0-.82-.325,1.118,1.118,0,0,0-.905.4,1.567,1.567,0,0,0-.331,1.04h-1.7a2.8,2.8,0,0,1,.372-1.424,2.622,2.622,0,0,1,1.052-1.011,3.2,3.2,0,0,1,1.541-.366,3.027,3.027,0,0,1,2.048.633,2.239,2.239,0,0,1,.729,1.787,2.868,2.868,0,0,1-.328,1.289A7.164,7.164,0,0,1-9.07,14.59l-1.939,2.045h3.668Zm1.289-4.2.492-4.336H-.779v1.412H-4.172l-.211,1.834A2.685,2.685,0,0,1-3.1,12.393a2.459,2.459,0,0,1,1.91.756A3.019,3.019,0,0,1-.5,15.264a3.093,3.093,0,0,1-.349,1.479,2.461,2.461,0,0,1-1,1.014,3.119,3.119,0,0,1-1.535.36A3.312,3.312,0,0,1-4.816,17.8a2.546,2.546,0,0,1-1.046-.882,2.4,2.4,0,0,1-.407-1.295h1.676a1.252,1.252,0,0,0,.372.829,1.18,1.18,0,0,0,.835.3,1.041,1.041,0,0,0,.885-.413,1.914,1.914,0,0,0,.311-1.169,1.582,1.582,0,0,0-.357-1.113,1.312,1.312,0,0,0-1.014-.387,1.466,1.466,0,0,0-.979.316l-.164.152Z" transform="translate(-8700 -7000)" fill="#12263f"/>
      <path id="Trazado_717152" data-name="Trazado 717152" d="M-50.531,0V-8.531h2.988a3.924,3.924,0,0,1,2.355.595,2.034,2.034,0,0,1,.8,1.743,1.927,1.927,0,0,1-.322,1.1,1.861,1.861,0,0,1-.9.7,1.8,1.8,0,0,1,1.034.662,1.957,1.957,0,0,1,.378,1.219,2.251,2.251,0,0,1-.785,1.863A3.535,3.535,0,0,1-47.215,0Zm1.758-3.715v2.3h1.506a1.453,1.453,0,0,0,.97-.3,1.015,1.015,0,0,0,.349-.817,1.071,1.071,0,0,0-1.213-1.189Zm0-1.242h1.3q1.33-.023,1.33-1.061a.98.98,0,0,0-.337-.835,1.772,1.772,0,0,0-1.063-.255h-1.23Zm12.908.885a5.15,5.15,0,0,1-.445,2.209A3.354,3.354,0,0,1-37.585-.4a3.525,3.525,0,0,1-1.9.516,3.549,3.549,0,0,1-1.893-.51,3.387,3.387,0,0,1-1.289-1.456,5,5,0,0,1-.463-2.177v-.422a5.123,5.123,0,0,1,.454-2.218,3.381,3.381,0,0,1,1.283-1.471,3.53,3.53,0,0,1,1.9-.513,3.53,3.53,0,0,1,1.9.513,3.381,3.381,0,0,1,1.283,1.471,5.109,5.109,0,0,1,.454,2.212Zm-1.781-.387a3.59,3.59,0,0,0-.48-2.039A1.566,1.566,0,0,0-39.5-7.2a1.566,1.566,0,0,0-1.365.688,3.549,3.549,0,0,0-.486,2.019v.416a3.635,3.635,0,0,0,.48,2.027,1.562,1.562,0,0,0,1.383.721,1.548,1.548,0,0,0,1.359-.694,3.614,3.614,0,0,0,.48-2.024Zm6.082,2.344,1.934-6.416h1.957L-30.645,0h-1.834l-2.959-8.531h1.951ZM-25,0H-26.76V-8.531H-25Zm8.566,0h-1.758l-3.422-5.613V0h-1.758V-8.531h1.758l3.428,5.625V-8.531h1.752Zm8.543-4.072a5.15,5.15,0,0,1-.445,2.209A3.354,3.354,0,0,1-9.612-.4a3.525,3.525,0,0,1-1.9.516,3.549,3.549,0,0,1-1.893-.51A3.387,3.387,0,0,1-14.7-1.849a5,5,0,0,1-.463-2.177v-.422A5.123,5.123,0,0,1-14.7-6.665a3.381,3.381,0,0,1,1.283-1.471,3.53,3.53,0,0,1,1.9-.513,3.53,3.53,0,0,1,1.9.513A3.381,3.381,0,0,1-8.347-6.665a5.109,5.109,0,0,1,.454,2.212Zm-1.781-.387a3.59,3.59,0,0,0-.48-2.039,1.566,1.566,0,0,0-1.371-.7,1.566,1.566,0,0,0-1.365.688,3.549,3.549,0,0,0-.486,2.019v.416a3.635,3.635,0,0,0,.48,2.027,1.562,1.562,0,0,0,1.383.721,1.548,1.548,0,0,0,1.359-.694,3.614,3.614,0,0,0,.48-2.024Zm7.482,2.221A.9.9,0,0,0-2.543-3a4.611,4.611,0,0,0-1.266-.562,8.972,8.972,0,0,1-1.447-.583A2.365,2.365,0,0,1-6.709-6.264,2.06,2.06,0,0,1-6.319-7.5,2.542,2.542,0,0,1-5.2-8.344a4.212,4.212,0,0,1,1.638-.3,3.834,3.834,0,0,1,1.629.331,2.594,2.594,0,0,1,1.11.935,2.445,2.445,0,0,1,.4,1.371H-2.186a1.15,1.15,0,0,0-.369-.911,1.517,1.517,0,0,0-1.037-.325,1.621,1.621,0,0,0-1,.272.859.859,0,0,0-.357.718.823.823,0,0,0,.419.7A4.733,4.733,0,0,0-3.3-5.033,5.329,5.329,0,0,1-1.113-3.914,2.229,2.229,0,0,1-.428-2.25,2.053,2.053,0,0,1-1.266-.513a3.668,3.668,0,0,1-2.256.63,4.356,4.356,0,0,1-1.793-.36A2.837,2.837,0,0,1-6.548-1.23a2.528,2.528,0,0,1-.425-1.453h1.764q0,1.412,1.688,1.412a1.642,1.642,0,0,0,.979-.255A.829.829,0,0,0-2.191-2.238ZM-13.729,18h-1.693V11.473l-2.021.627V10.723l3.533-1.266h.182Zm6.135-2.971h-3.3V13.664h3.3ZM-.457,18H-6.3V16.84l2.76-2.941A6.808,6.808,0,0,0-2.7,12.814a1.742,1.742,0,0,0,.272-.879,1.3,1.3,0,0,0-.287-.894,1.036,1.036,0,0,0-.82-.325,1.118,1.118,0,0,0-.905.4,1.567,1.567,0,0,0-.331,1.04h-1.7A2.8,2.8,0,0,1-6.1,10.729,2.622,2.622,0,0,1-5.051,9.718,3.2,3.2,0,0,1-3.51,9.352a3.027,3.027,0,0,1,2.048.633,2.239,2.239,0,0,1,.729,1.787,2.868,2.868,0,0,1-.328,1.289A7.164,7.164,0,0,1-2.186,14.59l-1.939,2.045H-.457Z" transform="translate(-8699 -6938)" fill="#12263f"/>
      <g id="Trazado_717147" data-name="Trazado 717147" transform="translate(-8906 -6964)" fill="none">
        <path d="M20,0H88a20,20,0,0,1,20,20V40A20,20,0,0,1,88,60H20A20,20,0,0,1,0,40V20A20,20,0,0,1,20,0Z" stroke="none"/>
        <path d="M 20 1 C 17.4345703125 1 14.9464111328125 1.502212524414062 12.60464477539062 2.492698669433594 C 10.34225463867188 3.449615478515625 8.310211181640625 4.819713592529297 6.564971923828125 6.564971923828125 C 4.819717407226562 8.310214996337891 3.449615478515625 10.34225845336914 2.492698669433594 12.60464096069336 C 1.502212524414062 14.94641494750977 1 17.4345703125 1 20 L 1 40 C 1 42.5654296875 1.502212524414062 45.05358505249023 2.492698669433594 47.39535522460938 C 3.449615478515625 49.65774154663086 4.819717407226562 51.68978500366211 6.564971923828125 53.43502807617188 C 8.310211181640625 55.1802864074707 10.34225463867188 56.55038452148438 12.60464477539062 57.50730133056641 C 14.9464111328125 58.49778747558594 17.4345703125 59 20 59 L 88 59 C 90.5654296875 59 93.05357360839844 58.49778747558594 95.39533996582031 57.50730133056641 C 97.65773010253906 56.55038452148438 99.68977355957031 55.1802864074707 101.4350280761719 53.43502807617188 C 103.1802749633789 51.68978500366211 104.5503845214844 49.65774154663086 105.5073013305664 47.39535522460938 C 106.4977874755859 45.05358505249023 107 42.5654296875 107 40 L 107 20 C 107 17.4345703125 106.4977874755859 14.94641494750977 105.5073013305664 12.60464096069336 C 104.5503845214844 10.34225845336914 103.1802749633789 8.310214996337891 101.4350280761719 6.564971923828125 C 99.68977355957031 4.819713592529297 97.65773010253906 3.449615478515625 95.39533996582031 2.492698669433594 C 93.05357360839844 1.502212524414062 90.5654296875 1 88 1 L 20 1 M 20 0 L 88 0 C 99.04568481445312 0 108 8.954299926757812 108 20 L 108 40 C 108 51.04570007324219 99.04568481445312 60 88 60 L 20 60 C 8.954299926757812 60 0 51.04570007324219 0 40 L 0 20 C 0 8.954299926757812 8.954299926757812 0 20 0 Z" stroke="none" fill="#0b481e"/>
      </g>
      <g id="Trazado_717148" data-name="Trazado 717148" transform="translate(-8795 -6964)" fill="none">
        <path d="M20,0H88a20,20,0,0,1,20,20V40A20,20,0,0,1,88,60H20A20,20,0,0,1,0,40V20A20,20,0,0,1,20,0Z" stroke="none"/>
        <path d="M 20 1 C 17.4345703125 1 14.9464111328125 1.502212524414062 12.60464477539062 2.492698669433594 C 10.34225463867188 3.449615478515625 8.310211181640625 4.819713592529297 6.564971923828125 6.564971923828125 C 4.819717407226562 8.310214996337891 3.449615478515625 10.34225845336914 2.492698669433594 12.60464096069336 C 1.502212524414062 14.94641494750977 1 17.4345703125 1 20 L 1 40 C 1 42.5654296875 1.502212524414062 45.05358505249023 2.492698669433594 47.39535522460938 C 3.449615478515625 49.65774154663086 4.819717407226562 51.68978500366211 6.564971923828125 53.43502807617188 C 8.310211181640625 55.1802864074707 10.34225463867188 56.55038452148438 12.60464477539062 57.50730133056641 C 14.9464111328125 58.49778747558594 17.4345703125 59 20 59 L 88 59 C 90.5654296875 59 93.05357360839844 58.49778747558594 95.39533996582031 57.50730133056641 C 97.65773010253906 56.55038452148438 99.68977355957031 55.1802864074707 101.4350280761719 53.43502807617188 C 103.1802749633789 51.68978500366211 104.5503845214844 49.65774154663086 105.5073013305664 47.39535522460938 C 106.4977874755859 45.05358505249023 107 42.5654296875 107 40 L 107 20 C 107 17.4345703125 106.4977874755859 14.94641494750977 105.5073013305664 12.60464096069336 C 104.5503845214844 10.34225845336914 103.1802749633789 8.310214996337891 101.4350280761719 6.564971923828125 C 99.68977355957031 4.819713592529297 97.65773010253906 3.449615478515625 95.39533996582031 2.492698669433594 C 93.05357360839844 1.502212524414062 90.5654296875 1 88 1 L 20 1 M 20 0 L 88 0 C 99.04568481445312 0 108 8.954299926757812 108 20 L 108 40 C 108 51.04570007324219 99.04568481445312 60 88 60 L 20 60 C 8.954299926757812 60 0 51.04570007324219 0 40 L 0 20 C 0 8.954299926757812 8.954299926757812 0 20 0 Z" stroke="none" fill="#0b481e"/>
      </g>
      <g id="Trazado_717142" data-name="Trazado 717142" transform="translate(-8906 -7027)" fill="none">
        <path d="M20,0H88a20,20,0,0,1,20,20V40A20,20,0,0,1,88,60H20A20,20,0,0,1,0,40V20A20,20,0,0,1,20,0Z" stroke="none"/>
        <path d="M 20 1 C 17.4345703125 1 14.9464111328125 1.502212524414062 12.60464477539062 2.492698669433594 C 10.34225463867188 3.449615478515625 8.310211181640625 4.819713592529297 6.564971923828125 6.564971923828125 C 4.819717407226562 8.310214996337891 3.449615478515625 10.34225845336914 2.492698669433594 12.60464096069336 C 1.502212524414062 14.94641494750977 1 17.4345703125 1 20 L 1 40 C 1 42.5654296875 1.502212524414062 45.05358505249023 2.492698669433594 47.39535522460938 C 3.449615478515625 49.65774154663086 4.819717407226562 51.68978500366211 6.564971923828125 53.43502807617188 C 8.310211181640625 55.1802864074707 10.34225463867188 56.55038452148438 12.60464477539062 57.50730133056641 C 14.9464111328125 58.49778747558594 17.4345703125 59 20 59 L 88 59 C 90.5654296875 59 93.05357360839844 58.49778747558594 95.39533996582031 57.50730133056641 C 97.65773010253906 56.55038452148438 99.68977355957031 55.1802864074707 101.4350280761719 53.43502807617188 C 103.1802749633789 51.68978500366211 104.5503845214844 49.65774154663086 105.5073013305664 47.39535522460938 C 106.4977874755859 45.05358505249023 107 42.5654296875 107 40 L 107 20 C 107 17.4345703125 106.4977874755859 14.94641494750977 105.5073013305664 12.60464096069336 C 104.5503845214844 10.34225845336914 103.1802749633789 8.310214996337891 101.4350280761719 6.564971923828125 C 99.68977355957031 4.819713592529297 97.65773010253906 3.449615478515625 95.39533996582031 2.492698669433594 C 93.05357360839844 1.502212524414062 90.5654296875 1 88 1 L 20 1 M 20 0 L 88 0 C 99.04568481445312 0 108 8.954299926757812 108 20 L 108 40 C 108 51.04570007324219 99.04568481445312 60 88 60 L 20 60 C 8.954299926757812 60 0 51.04570007324219 0 40 L 0 20 C 0 8.954299926757812 8.954299926757812 0 20 0 Z" stroke="none" fill="#0b481e"/>
      </g>
      <g id="Trazado_717149" data-name="Trazado 717149" transform="translate(-8795 -7027)" fill="none">
        <path d="M20,0H88a20,20,0,0,1,20,20V40A20,20,0,0,1,88,60H20A20,20,0,0,1,0,40V20A20,20,0,0,1,20,0Z" stroke="none"/>
        <path d="M 20 1 C 17.4345703125 1 14.9464111328125 1.502212524414062 12.60464477539062 2.492698669433594 C 10.34225463867188 3.449615478515625 8.310211181640625 4.819713592529297 6.564971923828125 6.564971923828125 C 4.819717407226562 8.310214996337891 3.449615478515625 10.34225845336914 2.492698669433594 12.60464096069336 C 1.502212524414062 14.94641494750977 1 17.4345703125 1 20 L 1 40 C 1 42.5654296875 1.502212524414062 45.05358505249023 2.492698669433594 47.39535522460938 C 3.449615478515625 49.65774154663086 4.819717407226562 51.68978500366211 6.564971923828125 53.43502807617188 C 8.310211181640625 55.1802864074707 10.34225463867188 56.55038452148438 12.60464477539062 57.50730133056641 C 14.9464111328125 58.49778747558594 17.4345703125 59 20 59 L 88 59 C 90.5654296875 59 93.05357360839844 58.49778747558594 95.39533996582031 57.50730133056641 C 97.65773010253906 56.55038452148438 99.68977355957031 55.1802864074707 101.4350280761719 53.43502807617188 C 103.1802749633789 51.68978500366211 104.5503845214844 49.65774154663086 105.5073013305664 47.39535522460938 C 106.4977874755859 45.05358505249023 107 42.5654296875 107 40 L 107 20 C 107 17.4345703125 106.4977874755859 14.94641494750977 105.5073013305664 12.60464096069336 C 104.5503845214844 10.34225845336914 103.1802749633789 8.310214996337891 101.4350280761719 6.564971923828125 C 99.68977355957031 4.819713592529297 97.65773010253906 3.449615478515625 95.39533996582031 2.492698669433594 C 93.05357360839844 1.502212524414062 90.5654296875 1 88 1 L 20 1 M 20 0 L 88 0 C 99.04568481445312 0 108 8.954299926757812 108 20 L 108 40 C 108 51.04570007324219 99.04568481445312 60 88 60 L 20 60 C 8.954299926757812 60 0 51.04570007324219 0 40 L 0 20 C 0 8.954299926757812 8.954299926757812 0 20 0 Z" stroke="none" fill="#0b481e"/>
      </g>
      <g transform="matrix(1, 0, 0, 1, -8906, -7027)" filter="url(#Trazado_717144)">
        <path id="Trazado_717144-2" data-name="Trazado 717144" d="M42.648,0A42.648,42.648,0,1,1,0,42.648,42.648,42.648,0,0,1,42.648,0Z" transform="translate(151.75 101.49) rotate(174)" fill="url(#linear-gradient)"/>
      </g>
      <path id="Trazado_717145" data-name="Trazado 717145" d="M39,0A39,39,0,1,1,0,39,39,39,0,0,1,39,0Z" transform="matrix(1, -0.017, 0.017, 1, -8840.802, -7001.78)" fill="#fff"/>
      <path id="Trazado_717146" data-name="Trazado 717146" d="M17.236,10h-.942L12.714,4.521V10h-.942V2.891h.942l3.589,5.5v-5.5h.933Zm4.785-.522a1.919,1.919,0,0,1-1.548.62,1.642,1.642,0,0,1-1.287-.491,2.124,2.124,0,0,1-.447-1.453V4.717h.9V8.13q0,1.2.977,1.2A1.352,1.352,0,0,0,22,8.56V4.717h.9V10h-.859ZM21.289,2.5h1.094L21.074,3.936l-.728,0Zm3.833,2.217.024.586a1.951,1.951,0,0,1,1.567-.684,1.51,1.51,0,0,1,1.509.85,2,2,0,0,1,.686-.615,2.026,2.026,0,0,1,1-.234q1.738,0,1.768,1.841V10h-.9V6.514a1.213,1.213,0,0,0-.259-.847,1.14,1.14,0,0,0-.869-.281,1.2,1.2,0,0,0-.835.3,1.218,1.218,0,0,0-.386.808V10h-.908V6.538a1.008,1.008,0,0,0-1.128-1.152,1.209,1.209,0,0,0-1.216.757V10h-.9V4.717ZM35.229,10.1a2.308,2.308,0,0,1-1.748-.706A2.619,2.619,0,0,1,32.807,7.5V7.339a3.17,3.17,0,0,1,.3-1.4,2.343,2.343,0,0,1,.84-.967,2.112,2.112,0,0,1,1.169-.349,1.979,1.979,0,0,1,1.6.679,2.939,2.939,0,0,1,.571,1.943v.376H33.71a1.878,1.878,0,0,0,.457,1.262,1.435,1.435,0,0,0,1.111.481,1.573,1.573,0,0,0,.811-.2,2.037,2.037,0,0,0,.581-.518l.552.43A2.219,2.219,0,0,1,35.229,10.1Zm-.112-4.736a1.2,1.2,0,0,0-.918.4,1.934,1.934,0,0,0-.459,1.116h2.646V6.807a1.721,1.721,0,0,0-.371-1.067A1.134,1.134,0,0,0,35.117,5.361Zm5.771.166a2.707,2.707,0,0,0-.444-.034,1.19,1.19,0,0,0-1.206.757V10h-.9V4.717h.879l.015.61a1.407,1.407,0,0,1,1.26-.708.923.923,0,0,1,.4.068Zm.493,1.782a3.121,3.121,0,0,1,.305-1.4,2.277,2.277,0,0,1,.85-.957,2.313,2.313,0,0,1,1.243-.337,2.228,2.228,0,0,1,1.746.747,2.874,2.874,0,0,1,.667,1.987v.063A3.148,3.148,0,0,1,45.9,8.8a2.243,2.243,0,0,1-.845.955,2.339,2.339,0,0,1-1.262.342,2.222,2.222,0,0,1-1.741-.747,2.86,2.86,0,0,1-.667-1.978Zm.908.107A2.26,2.26,0,0,0,42.7,8.828a1.382,1.382,0,0,0,2.185-.007,2.472,2.472,0,0,0,.405-1.511A2.256,2.256,0,0,0,44.875,5.9a1.312,1.312,0,0,0-1.1-.54,1.3,1.3,0,0,0-1.079.532A2.453,2.453,0,0,0,42.29,7.417Zm7.29-.1a3.1,3.1,0,0,1,.576-1.956,1.96,1.96,0,0,1,2.979-.1V2.5h.9V10h-.83l-.044-.566a1.84,1.84,0,0,1-1.509.664,1.8,1.8,0,0,1-1.5-.752,3.13,3.13,0,0,1-.579-1.963Zm.9.1a2.343,2.343,0,0,0,.371,1.406,1.2,1.2,0,0,0,1.025.508,1.318,1.318,0,0,0,1.255-.771V6.133a1.328,1.328,0,0,0-1.245-.747,1.205,1.205,0,0,0-1.035.513A2.58,2.58,0,0,0,50.483,7.417ZM57.631,10.1a2.308,2.308,0,0,1-1.748-.706A2.619,2.619,0,0,1,55.209,7.5V7.339a3.17,3.17,0,0,1,.3-1.4,2.343,2.343,0,0,1,.84-.967,2.112,2.112,0,0,1,1.169-.349,1.979,1.979,0,0,1,1.6.679,2.939,2.939,0,0,1,.571,1.943v.376H56.113a1.878,1.878,0,0,0,.457,1.262,1.435,1.435,0,0,0,1.111.481,1.573,1.573,0,0,0,.811-.2,2.037,2.037,0,0,0,.581-.518l.552.43A2.219,2.219,0,0,1,57.631,10.1Zm-.112-4.736a1.2,1.2,0,0,0-.918.4,1.934,1.934,0,0,0-.459,1.116h2.646V6.807a1.721,1.721,0,0,0-.371-1.067A1.134,1.134,0,0,0,57.519,5.361ZM17.575,24V19.415H16.74v-.7h.835v-.542a1.8,1.8,0,0,1,.454-1.313,1.715,1.715,0,0,1,1.284-.464,2.385,2.385,0,0,1,.62.082l-.049.728a2.594,2.594,0,0,0-.488-.044.881.881,0,0,0-.679.257,1.043,1.043,0,0,0-.239.737v.558h1.128v.7H18.479V24Zm2.788-2.69a3.121,3.121,0,0,1,.305-1.4,2.277,2.277,0,0,1,.85-.957,2.313,2.313,0,0,1,1.243-.337,2.228,2.228,0,0,1,1.746.747,2.874,2.874,0,0,1,.667,1.987v.063a3.148,3.148,0,0,1-.3,1.384,2.243,2.243,0,0,1-.845.955,2.339,2.339,0,0,1-1.262.342,2.222,2.222,0,0,1-1.741-.747,2.86,2.86,0,0,1-.667-1.978Zm.908.107a2.26,2.26,0,0,0,.408,1.411,1.382,1.382,0,0,0,2.185-.007,2.472,2.472,0,0,0,.405-1.511,2.256,2.256,0,0,0-.413-1.409,1.312,1.312,0,0,0-1.1-.54,1.3,1.3,0,0,0-1.079.532A2.453,2.453,0,0,0,21.271,21.417ZM27.287,24h-.9V16.5h.9Zm2.427,0h-.908V18.717h.908Zm.01-7.5h1.094L29.509,17.94l-.728,0Zm3.6,6.855a1.3,1.3,0,0,0,.845-.293,1.031,1.031,0,0,0,.4-.732h.854a1.638,1.638,0,0,1-.312.864,2.058,2.058,0,0,1-.769.654,2.219,2.219,0,0,1-1.018.244,2.176,2.176,0,0,1-1.716-.72,2.869,2.869,0,0,1-.637-1.97v-.151a3.181,3.181,0,0,1,.283-1.372,2.157,2.157,0,0,1,.813-.933,2.309,2.309,0,0,1,1.252-.332,2.119,2.119,0,0,1,1.477.532,1.9,1.9,0,0,1,.627,1.382h-.854a1.245,1.245,0,0,0-.388-.842,1.208,1.208,0,0,0-.862-.33,1.264,1.264,0,0,0-1.067.5,2.328,2.328,0,0,0-.378,1.433v.171a2.281,2.281,0,0,0,.376,1.406A1.27,1.27,0,0,0,33.322,23.36Zm6.377.117a1.919,1.919,0,0,1-1.548.62,1.642,1.642,0,0,1-1.287-.491,2.124,2.124,0,0,1-.447-1.453V18.717h.9V22.13q0,1.2.977,1.2a1.352,1.352,0,0,0,1.377-.771V18.717h.9V24h-.859ZM42.932,24h-.9V16.5h.9Zm1.206-2.69a3.121,3.121,0,0,1,.305-1.4,2.277,2.277,0,0,1,.85-.957,2.313,2.313,0,0,1,1.243-.337,2.228,2.228,0,0,1,1.746.747,2.874,2.874,0,0,1,.667,1.987v.063a3.148,3.148,0,0,1-.3,1.384,2.243,2.243,0,0,1-.845.955,2.339,2.339,0,0,1-1.262.342,2.222,2.222,0,0,1-1.741-.747,2.86,2.86,0,0,1-.667-1.978Zm.908.107a2.26,2.26,0,0,0,.408,1.411,1.382,1.382,0,0,0,2.185-.007,2.472,2.472,0,0,0,.405-1.511,2.256,2.256,0,0,0-.413-1.409,1.312,1.312,0,0,0-1.1-.54,1.3,1.3,0,0,0-1.079.532A2.453,2.453,0,0,0,45.046,21.417Zm8.11,1.182a.665.665,0,0,0-.276-.569,2.655,2.655,0,0,0-.962-.349,4.548,4.548,0,0,1-1.089-.352,1.549,1.549,0,0,1-.6-.488,1.168,1.168,0,0,1-.193-.674,1.37,1.37,0,0,1,.549-1.1,2.145,2.145,0,0,1,1.4-.449,2.208,2.208,0,0,1,1.458.464,1.473,1.473,0,0,1,.559,1.187H53.1a.815.815,0,0,0-.315-.64,1.18,1.18,0,0,0-.793-.269,1.235,1.235,0,0,0-.771.215.676.676,0,0,0-.278.562.548.548,0,0,0,.259.493,3.184,3.184,0,0,0,.935.317,4.872,4.872,0,0,1,1.1.361,1.6,1.6,0,0,1,.623.505,1.243,1.243,0,0,1,.2.72,1.352,1.352,0,0,1-.566,1.135,2.376,2.376,0,0,1-1.47.427,2.66,2.66,0,0,1-1.123-.225,1.827,1.827,0,0,1-.764-.627,1.512,1.512,0,0,1-.276-.872h.9a.935.935,0,0,0,.364.72,1.411,1.411,0,0,0,.9.266,1.457,1.457,0,0,0,.823-.208A.638.638,0,0,0,53.156,22.6ZM17.282,32.717l.024.586a1.951,1.951,0,0,1,1.567-.684,1.51,1.51,0,0,1,1.509.85,2,2,0,0,1,.686-.615,2.026,2.026,0,0,1,1-.234q1.738,0,1.768,1.841V38h-.9V34.514a1.213,1.213,0,0,0-.259-.847,1.14,1.14,0,0,0-.869-.281,1.2,1.2,0,0,0-.835.3,1.218,1.218,0,0,0-.386.808V38h-.908V34.538a1.008,1.008,0,0,0-1.128-1.152,1.209,1.209,0,0,0-1.216.757V38h-.9V32.717ZM28.459,38a1.9,1.9,0,0,1-.127-.557,2.015,2.015,0,0,1-1.5.654,1.865,1.865,0,0,1-1.282-.442,1.43,1.43,0,0,1-.5-1.121,1.494,1.494,0,0,1,.627-1.282,2.958,2.958,0,0,1,1.765-.457h.879v-.415a1.015,1.015,0,0,0-.283-.754,1.138,1.138,0,0,0-.835-.281,1.317,1.317,0,0,0-.811.244.719.719,0,0,0-.327.591h-.908a1.247,1.247,0,0,1,.281-.764,1.916,1.916,0,0,1,.762-.583,2.563,2.563,0,0,1,1.057-.215,2.089,2.089,0,0,1,1.431.457,1.647,1.647,0,0,1,.537,1.257v2.432a2.973,2.973,0,0,0,.186,1.157V38Zm-1.5-.688a1.588,1.588,0,0,0,.806-.22,1.329,1.329,0,0,0,.552-.571V35.437h-.708q-1.66,0-1.66.972a.822.822,0,0,0,.283.664A1.089,1.089,0,0,0,26.96,37.312Zm3.457-2a3.1,3.1,0,0,1,.576-1.956,1.96,1.96,0,0,1,2.979-.1V30.5h.9V38h-.83L34,37.434a1.84,1.84,0,0,1-1.509.664,1.8,1.8,0,0,1-1.5-.752,3.13,3.13,0,0,1-.579-1.963Zm.9.1a2.343,2.343,0,0,0,.371,1.406,1.2,1.2,0,0,0,1.025.508,1.318,1.318,0,0,0,1.255-.771V34.133a1.328,1.328,0,0,0-1.245-.747,1.205,1.205,0,0,0-1.035.513A2.58,2.58,0,0,0,31.32,35.417Zm8.218,2.061a1.919,1.919,0,0,1-1.548.62,1.642,1.642,0,0,1-1.287-.491,2.124,2.124,0,0,1-.447-1.453V32.717h.9V36.13q0,1.2.977,1.2a1.352,1.352,0,0,0,1.377-.771V32.717h.9V38h-.859Zm4.8-3.95a2.707,2.707,0,0,0-.444-.034,1.19,1.19,0,0,0-1.206.757V38h-.9V32.717h.879l.015.61a1.407,1.407,0,0,1,1.26-.708.923.923,0,0,1,.4.068Zm.493,1.782a3.121,3.121,0,0,1,.305-1.4,2.277,2.277,0,0,1,.85-.957,2.313,2.313,0,0,1,1.243-.337,2.228,2.228,0,0,1,1.746.747,2.874,2.874,0,0,1,.667,1.987v.063a3.148,3.148,0,0,1-.3,1.384,2.243,2.243,0,0,1-.845.955,2.339,2.339,0,0,1-1.262.342,2.222,2.222,0,0,1-1.741-.747,2.86,2.86,0,0,1-.667-1.978Zm.908.107a2.26,2.26,0,0,0,.408,1.411,1.382,1.382,0,0,0,2.185-.007,2.472,2.472,0,0,0,.405-1.511A2.256,2.256,0,0,0,48.33,33.9a1.312,1.312,0,0,0-1.1-.54,1.3,1.3,0,0,0-1.079.532A2.453,2.453,0,0,0,45.744,35.417Zm8.11,1.182a.665.665,0,0,0-.276-.569,2.655,2.655,0,0,0-.962-.349,4.548,4.548,0,0,1-1.089-.352,1.549,1.549,0,0,1-.6-.488,1.168,1.168,0,0,1-.193-.674,1.37,1.37,0,0,1,.549-1.1,2.145,2.145,0,0,1,1.4-.449,2.208,2.208,0,0,1,1.458.464,1.473,1.473,0,0,1,.559,1.187H53.8a.815.815,0,0,0-.315-.64,1.18,1.18,0,0,0-.793-.269,1.235,1.235,0,0,0-.771.215.676.676,0,0,0-.278.562.548.548,0,0,0,.259.493,3.184,3.184,0,0,0,.935.317,4.872,4.872,0,0,1,1.1.361,1.6,1.6,0,0,1,.623.505,1.243,1.243,0,0,1,.2.72,1.352,1.352,0,0,1-.566,1.135,2.376,2.376,0,0,1-1.47.427,2.66,2.66,0,0,1-1.123-.225,1.827,1.827,0,0,1-.764-.627,1.512,1.512,0,0,1-.276-.872h.9a.935.935,0,0,0,.364.72,1.411,1.411,0,0,0,.9.266,1.457,1.457,0,0,0,.823-.208A.638.638,0,0,0,53.854,36.6Z" transform="translate(-8837 -6984)" fill="#12263f"/>
    </g>
  </g>
</svg>
