<svg xmlns="http://www.w3.org/2000/svg" xmlns:xlink="http://www.w3.org/1999/xlink" width="1245.835" height="262.396" viewBox="0 0 1245.835 262.396">
  <defs>
    <linearGradient id="linear-gradient" x1="0.015" y1="0.131" x2="1.105" y2="0.939" gradientUnits="objectBoundingBox">
      <stop offset="0" stop-color="#adce32"/>
      <stop offset="1" stop-color="#0b481e"/>
    </linearGradient>
  </defs>
  <g id="Grupo_1018098" data-name="Grupo 1018098" transform="translate(-3047.583 -16813.898)">
    <g id="Grupo_1017957" data-name="Grupo 1017957" transform="translate(-206.417 -1953.708)">
      <path id="Trazado_717482" data-name="Trazado 717482" d="M20,0H1175a20,20,0,0,1,20,20V242.4a20,20,0,0,1-20,20H20a20,20,0,0,1-20-20V20A20,20,0,0,1,20,0Z" transform="translate(3272.5 18767.605)" fill="#f6f6f6"/>
      <path id="Trazado_717483" data-name="Trazado 717483" d="M39.7,0h99.6a39.7,39.7,0,0,1,0,79.4H39.7A39.7,39.7,0,0,1,39.7,0Z" transform="translate(3339 18818.438)" fill="url(#linear-gradient)"/>
      <path id="Trazado_717484" data-name="Trazado 717484" d="M29.2,0H149.8a29.2,29.2,0,0,1,0,58.4H29.2A29.2,29.2,0,0,1,29.2,0Z" transform="translate(3549 18828.438)" fill="url(#linear-gradient)"/>
      <path id="Trazado_717485" data-name="Trazado 717485" d="M29.2,0H149.8a29.2,29.2,0,0,1,0,58.4H29.2A29.2,29.2,0,0,1,29.2,0Z" transform="translate(3464 18928.041)" fill="url(#linear-gradient)"/>
      <path id="Trazado_717486" data-name="Trazado 717486" d="M29.2,0H149.8a29.2,29.2,0,0,1,0,58.4H29.2A29.2,29.2,0,0,1,29.2,0Z" transform="translate(3759 18828.438)" fill="url(#linear-gradient)"/>
      <path id="Trazado_717487" data-name="Trazado 717487" d="M29.2,0H149.8a29.2,29.2,0,0,1,0,58.4H29.2A29.2,29.2,0,0,1,29.2,0Z" transform="translate(3674 18928.041)" fill="url(#linear-gradient)"/>
      <path id="Trazado_717488" data-name="Trazado 717488" d="M29.2,0H180.8a29.2,29.2,0,0,1,0,58.4H29.2A29.2,29.2,0,0,1,29.2,0Z" transform="translate(3969 18828.438)" fill="url(#linear-gradient)"/>
      <path id="Trazado_717489" data-name="Trazado 717489" d="M29.2,0h77.6a29.2,29.2,0,0,1,0,58.4H29.2A29.2,29.2,0,0,1,29.2,0Z" transform="translate(4199 18828.438)" fill="url(#linear-gradient)"/>
      <path id="Trazado_717490" data-name="Trazado 717490" d="M29.2,0H180.8a29.2,29.2,0,0,1,0,58.4H29.2A29.2,29.2,0,0,1,29.2,0Z" transform="translate(3884 18928.041)" fill="url(#linear-gradient)"/>
      <path id="Trazado_717491" data-name="Trazado 717491" d="M29.2,0h97.6a29.2,29.2,0,0,1,0,58.4H29.2A29.2,29.2,0,0,1,29.2,0Z" transform="translate(4114 18928.041)" fill="url(#linear-gradient)"/>
      <path id="Trazado_717492" data-name="Trazado 717492" d="M33.92,0h99.457a33.92,33.92,0,0,1,0,67.84H33.92A33.92,33.92,0,0,1,33.92,0Z" transform="translate(3344.365 18823.438)" fill="#fff"/>
      <path id="Trazado_717493" data-name="Trazado 717493" d="M23.42,0H143.877a23.42,23.42,0,0,1,0,46.84H23.42A23.42,23.42,0,0,1,23.42,0Z" transform="translate(3554.365 18834.438)" fill="#fff"/>
      <path id="Trazado_717494" data-name="Trazado 717494" d="M23.42,0H143.877a23.42,23.42,0,0,1,0,46.84H23.42A23.42,23.42,0,0,1,23.42,0Z" transform="translate(3469.365 18934.041)" fill="#fff"/>
      <path id="Trazado_717495" data-name="Trazado 717495" d="M23.42,0H143.877a23.42,23.42,0,0,1,0,46.84H23.42A23.42,23.42,0,0,1,23.42,0Z" transform="translate(3764.365 18834.438)" fill="#fff"/>
      <path id="Trazado_717496" data-name="Trazado 717496" d="M23.42,0H143.877a23.42,23.42,0,0,1,0,46.84H23.42A23.42,23.42,0,0,1,23.42,0Z" transform="translate(3679.365 18934.041)" fill="#fff"/>
      <path id="Trazado_717497" data-name="Trazado 717497" d="M23.42,0H174.877a23.42,23.42,0,0,1,0,46.84H23.42A23.42,23.42,0,0,1,23.42,0Z" transform="translate(3974.365 18834.438)" fill="#fff"/>
      <path id="Trazado_717498" data-name="Trazado 717498" d="M23.42,0h77.457a23.42,23.42,0,1,1,0,46.84H23.42A23.42,23.42,0,0,1,23.42,0Z" transform="translate(4204.365 18834.438)" fill="#fff"/>
      <path id="Trazado_717499" data-name="Trazado 717499" d="M23.42,0H174.877a23.42,23.42,0,0,1,0,46.84H23.42A23.42,23.42,0,0,1,23.42,0Z" transform="translate(3889.365 18934.041)" fill="#fff"/>
      <path id="Trazado_717500" data-name="Trazado 717500" d="M23.42,0h97.457a23.42,23.42,0,1,1,0,46.84H23.42A23.42,23.42,0,0,1,23.42,0Z" transform="translate(4119.365 18934.041)" fill="#fff"/>
      <path id="Trazado_717501" data-name="Trazado 717501" d="M29.905,19H27.054V13.092H21.263V19H18.411V4.781h2.852v6.113h5.791V4.781h2.852Zm1.963-5.381a5.67,5.67,0,0,1,1.318-3.872,4.6,4.6,0,0,1,3.652-1.509,4.644,4.644,0,0,1,3.672,1.5,5.64,5.64,0,0,1,1.328,3.877v.205a5.649,5.649,0,0,1-1.323,3.882,4.625,4.625,0,0,1-3.657,1.5,4.637,4.637,0,0,1-3.667-1.5,5.649,5.649,0,0,1-1.323-3.882Zm2.842.205a4.6,4.6,0,0,0,.508,2.319,1.951,1.951,0,0,0,3.257,0,4.566,4.566,0,0,0,.513-2.314v-.205a4.52,4.52,0,0,0-.518-2.295,1.751,1.751,0,0,0-1.631-.889,1.73,1.73,0,0,0-1.616.894,4.561,4.561,0,0,0-.513,2.29Zm14.443-2.939-1.045-.029a1.9,1.9,0,0,0-1.045.264,1.671,1.671,0,0,0-.625.742V19H43.6V8.434h2.646L46.37,10A3.333,3.333,0,0,1,47.332,8.7a2.247,2.247,0,0,1,1.758-.43q.181.034.366.083Zm4.131-2.451.117,1.4a3.55,3.55,0,0,1,1.274-1.177,3.665,3.665,0,0,1,1.772-.415,3.228,3.228,0,0,1,1.738.449,2.771,2.771,0,0,1,1.094,1.357,3.662,3.662,0,0,1,1.27-1.328,3.445,3.445,0,0,1,1.836-.479,3.011,3.011,0,0,1,2.466,1.108,5.291,5.291,0,0,1,.9,3.384V19H62.9V12.721a2.962,2.962,0,0,0-.391-1.768,1.387,1.387,0,0,0-1.162-.5,1.991,1.991,0,0,0-1.05.269,1.956,1.956,0,0,0-.708.747q0,.186.01.317t.01.269V19H56.771V12.721a2.97,2.97,0,0,0-.391-1.753,1.38,1.38,0,0,0-1.172-.513,2.212,2.212,0,0,0-1.011.22,1.938,1.938,0,0,0-.718.62V19H50.638V8.434ZM67.5,13.619a5.67,5.67,0,0,1,1.318-3.872,4.6,4.6,0,0,1,3.652-1.509,4.644,4.644,0,0,1,3.672,1.5,5.64,5.64,0,0,1,1.328,3.877v.205a5.649,5.649,0,0,1-1.323,3.882,5.223,5.223,0,0,1-7.324,0A5.649,5.649,0,0,1,67.5,13.824Zm2.842.205a4.6,4.6,0,0,0,.508,2.319,1.951,1.951,0,0,0,3.257,0,4.566,4.566,0,0,0,.513-2.314v-.205a4.52,4.52,0,0,0-.518-2.295,1.751,1.751,0,0,0-1.631-.889,1.73,1.73,0,0,0-1.616.894,4.561,4.561,0,0,0-.513,2.29ZM81.839,8.434l.127,1.514a3.865,3.865,0,0,1,1.3-1.26,3.372,3.372,0,0,1,1.729-.449,3.142,3.142,0,0,1,2.5,1.03,4.884,4.884,0,0,1,.9,3.257V19H85.53V12.535a2.529,2.529,0,0,0-.4-1.606,1.458,1.458,0,0,0-1.187-.474,2.49,2.49,0,0,0-1.118.239,2.183,2.183,0,0,0-.8.659V19H79.183V8.434ZM96.751,19a6,6,0,0,1-.269-.762,5.3,5.3,0,0,1-.161-.82A3.908,3.908,0,0,1,95.159,18.7a2.913,2.913,0,0,1-1.719.508,3.568,3.568,0,0,1-2.559-.854,3.061,3.061,0,0,1-.9-2.329,2.786,2.786,0,0,1,1.2-2.407,5.974,5.974,0,0,1,3.491-.854h1.6v-.84a1.644,1.644,0,0,0-.4-1.182,1.572,1.572,0,0,0-1.191-.42,1.549,1.549,0,0,0-1.069.337,1.176,1.176,0,0,0-.376.923H90.491l-.02-.059a2.68,2.68,0,0,1,1.167-2.31,5.069,5.069,0,0,1,3.228-.972,4.73,4.73,0,0,1,3.081.957,3.333,3.333,0,0,1,1.177,2.744V16.3a8.256,8.256,0,0,0,.112,1.4,7.008,7.008,0,0,0,.356,1.3Zm-2.607-1.9a2.429,2.429,0,0,0,1.328-.371,2,2,0,0,0,.8-.859V14.371h-1.6a1.9,1.9,0,0,0-1.372.449,1.476,1.476,0,0,0-.464,1.1,1.1,1.1,0,0,0,.347.854A1.371,1.371,0,0,0,94.144,17.1ZM105.8,13.8a6.866,6.866,0,0,1,1.079-4.033,3.5,3.5,0,0,1,3.042-1.533,2.959,2.959,0,0,1,1.426.342,3.43,3.43,0,0,1,1.113.977V3.766h2.861V19h-2.432l-.244-1.3a3.532,3.532,0,0,1-1.182,1.118,3.124,3.124,0,0,1-1.562.386,3.573,3.573,0,0,1-3.022-1.426,6.088,6.088,0,0,1-1.079-3.77Zm2.842.205a4.3,4.3,0,0,0,.469,2.183,1.632,1.632,0,0,0,1.523.8,2.219,2.219,0,0,0,1.074-.249,1.987,1.987,0,0,0,.752-.728v-4.5a2.195,2.195,0,0,0-.747-.776,1.987,1.987,0,0,0-1.06-.278,1.609,1.609,0,0,0-1.528.928,5.243,5.243,0,0,0-.483,2.422Zm13.467,5.2a4.754,4.754,0,0,1-3.691-1.45,5.315,5.315,0,0,1-1.328-3.735v-.391a5.785,5.785,0,0,1,1.289-3.887,4.382,4.382,0,0,1,3.545-1.5,4.1,4.1,0,0,1,3.267,1.3,5.152,5.152,0,0,1,1.138,3.511v1.475h-6.3l-.029.059a2.855,2.855,0,0,0,.659,1.758,2.207,2.207,0,0,0,1.753.674,5.865,5.865,0,0,0,1.626-.2,6.634,6.634,0,0,0,1.382-.6l.771,1.758a5.293,5.293,0,0,1-1.719.869A7.622,7.622,0,0,1,122.112,19.205Zm-.186-8.77a1.584,1.584,0,0,0-1.323.591,2.964,2.964,0,0,0-.562,1.567l.02.049h3.477v-.215a2.468,2.468,0,0,0-.381-1.46A1.409,1.409,0,0,0,121.927,10.436ZM24.544,41.018a1.587,1.587,0,0,0,1.182-.444,1.614,1.614,0,0,0,.439-1.187h2.6l.02.059a3.307,3.307,0,0,1-1.191,2.681,4.455,4.455,0,0,1-3.047,1.079,4.5,4.5,0,0,1-3.623-1.5,5.7,5.7,0,0,1-1.279-3.833V37.58a5.735,5.735,0,0,1,1.274-3.833,4.463,4.463,0,0,1,3.608-1.509,4.358,4.358,0,0,1,3.115,1.113,3.72,3.72,0,0,1,1.143,2.93l-.02.059h-2.6a2.109,2.109,0,0,0-.435-1.362,1.46,1.46,0,0,0-1.206-.542,1.627,1.627,0,0,0-1.567.884,4.847,4.847,0,0,0-.464,2.261v.293a4.829,4.829,0,0,0,.464,2.275A1.649,1.649,0,0,0,24.544,41.018ZM36,34.885l-1.045-.029a1.9,1.9,0,0,0-1.045.264,1.671,1.671,0,0,0-.625.742V43H30.442V32.434h2.646L33.216,34a3.333,3.333,0,0,1,.962-1.294,2.247,2.247,0,0,1,1.758-.43q.181.034.366.083Zm5.879,8.32a4.754,4.754,0,0,1-3.691-1.45,5.315,5.315,0,0,1-1.328-3.735v-.391a5.785,5.785,0,0,1,1.289-3.887,4.382,4.382,0,0,1,3.545-1.5,4.1,4.1,0,0,1,3.267,1.3A5.152,5.152,0,0,1,46.1,37.053v1.475H39.8l-.029.059a2.855,2.855,0,0,0,.659,1.758,2.207,2.207,0,0,0,1.753.674,5.866,5.866,0,0,0,1.626-.2,6.634,6.634,0,0,0,1.382-.6l.771,1.758a5.293,5.293,0,0,1-1.719.869A7.622,7.622,0,0,1,41.878,43.205Zm-.186-8.77a1.584,1.584,0,0,0-1.323.591,2.964,2.964,0,0,0-.562,1.567l.02.049H43.3v-.215a2.468,2.468,0,0,0-.381-1.46A1.409,1.409,0,0,0,41.692,34.436Zm10.479,6.582a1.587,1.587,0,0,0,1.182-.444,1.614,1.614,0,0,0,.439-1.187h2.6l.02.059a3.307,3.307,0,0,1-1.191,2.681,4.455,4.455,0,0,1-3.047,1.079,4.5,4.5,0,0,1-3.623-1.5,5.7,5.7,0,0,1-1.279-3.833V37.58a5.735,5.735,0,0,1,1.274-3.833,4.463,4.463,0,0,1,3.608-1.509,4.358,4.358,0,0,1,3.115,1.113,3.72,3.72,0,0,1,1.143,2.93l-.02.059h-2.6a2.109,2.109,0,0,0-.435-1.362,1.46,1.46,0,0,0-1.206-.542,1.627,1.627,0,0,0-1.567.884,4.847,4.847,0,0,0-.464,2.261v.293a4.829,4.829,0,0,0,.464,2.275A1.649,1.649,0,0,0,52.171,41.018ZM61.067,43H58.216V32.434h2.852Zm0-13.1H58.216V27.766h2.852Zm4.99,2.529.117,1.4a3.55,3.55,0,0,1,1.274-1.177,3.665,3.665,0,0,1,1.772-.415,3.228,3.228,0,0,1,1.738.449,2.771,2.771,0,0,1,1.094,1.357,3.662,3.662,0,0,1,1.27-1.328,3.445,3.445,0,0,1,1.836-.479,3.011,3.011,0,0,1,2.466,1.108,5.291,5.291,0,0,1,.9,3.384V43H75.677V36.721a2.962,2.962,0,0,0-.391-1.768,1.387,1.387,0,0,0-1.162-.5,1.991,1.991,0,0,0-1.05.269,1.956,1.956,0,0,0-.708.747q0,.186.01.317t.01.269V43H69.544V36.721a2.97,2.97,0,0,0-.391-1.753,1.38,1.38,0,0,0-1.172-.513,2.212,2.212,0,0,0-1.011.22,1.938,1.938,0,0,0-.718.62V43H63.411V32.434ZM83.714,43H80.862V32.434h2.852Zm0-13.1H80.862V27.766h2.852Zm6.924,13.3a4.754,4.754,0,0,1-3.691-1.45,5.315,5.315,0,0,1-1.328-3.735v-.391a5.785,5.785,0,0,1,1.289-3.887,4.382,4.382,0,0,1,3.545-1.5,4.1,4.1,0,0,1,3.267,1.3,5.152,5.152,0,0,1,1.138,3.511v1.475h-6.3l-.029.059a2.855,2.855,0,0,0,.659,1.758,2.207,2.207,0,0,0,1.753.674,5.865,5.865,0,0,0,1.626-.2,6.634,6.634,0,0,0,1.382-.6l.771,1.758A5.293,5.293,0,0,1,93,42.854,7.622,7.622,0,0,1,90.638,43.205Zm-.186-8.77a1.584,1.584,0,0,0-1.323.591,2.964,2.964,0,0,0-.562,1.567l.02.049h3.477v-.215a2.468,2.468,0,0,0-.381-1.46A1.409,1.409,0,0,0,90.452,34.436Zm8.672-2,.127,1.514a3.865,3.865,0,0,1,1.3-1.26,3.372,3.372,0,0,1,1.729-.449,3.142,3.142,0,0,1,2.5,1.03,4.884,4.884,0,0,1,.9,3.257V43h-2.861V36.535a2.529,2.529,0,0,0-.4-1.606,1.458,1.458,0,0,0-1.187-.474,2.49,2.49,0,0,0-1.118.239,2.183,2.183,0,0,0-.8.659V43H96.468V32.434Zm12.1-2.588v2.588h1.787v2h-1.787v5.381a1.228,1.228,0,0,0,.259.879.909.909,0,0,0,.679.264,2.722,2.722,0,0,0,.391-.024,3.29,3.29,0,0,0,.381-.083l.234,2.061a5.773,5.773,0,0,1-.835.22,4.978,4.978,0,0,1-.884.073,3.039,3.039,0,0,1-2.271-.811,3.554,3.554,0,0,1-.8-2.568V34.436h-1.543v-2h1.543V29.846Zm3.105,7.773a5.67,5.67,0,0,1,1.318-3.872,4.6,4.6,0,0,1,3.652-1.509,4.644,4.644,0,0,1,3.672,1.5,5.64,5.64,0,0,1,1.328,3.877v.205a5.649,5.649,0,0,1-1.323,3.882,5.223,5.223,0,0,1-7.324,0,5.649,5.649,0,0,1-1.323-3.882Zm2.842.205a4.6,4.6,0,0,0,.508,2.319,1.951,1.951,0,0,0,3.257,0,4.566,4.566,0,0,0,.513-2.314v-.205a4.52,4.52,0,0,0-.518-2.295,1.751,1.751,0,0,0-1.631-.889,1.73,1.73,0,0,0-1.616.894,4.561,4.561,0,0,0-.513,2.29Z" transform="translate(3359 18833.438)" fill="#12263f"/>
      <path id="Trazado_717502" data-name="Trazado 717502" d="M30.354,13.844V19H27.5V4.781h5.439A5.6,5.6,0,0,1,36.8,6.031a4.191,4.191,0,0,1,1.406,3.291A4.161,4.161,0,0,1,36.8,12.6a5.629,5.629,0,0,1-3.857,1.24Zm0-2.2h2.588A2.372,2.372,0,0,0,34.749,11a2.31,2.31,0,0,0,.615-1.655,2.417,2.417,0,0,0-.61-1.694,2.33,2.33,0,0,0-1.812-.669H30.354Zm15.234-.762-1.045-.029a1.9,1.9,0,0,0-1.045.264,1.671,1.671,0,0,0-.625.742V19H40.032V8.434h2.646L42.806,10A3.333,3.333,0,0,1,43.768,8.7a2.247,2.247,0,0,1,1.758-.43q.181.034.366.083Zm.85,2.734a5.67,5.67,0,0,1,1.318-3.872,4.6,4.6,0,0,1,3.652-1.509,4.644,4.644,0,0,1,3.672,1.5,5.64,5.64,0,0,1,1.328,3.877v.205a5.649,5.649,0,0,1-1.323,3.882,5.223,5.223,0,0,1-7.324,0,5.649,5.649,0,0,1-1.323-3.882Zm2.842.205a4.6,4.6,0,0,0,.508,2.319,1.951,1.951,0,0,0,3.257,0,4.566,4.566,0,0,0,.513-2.314v-.205a4.52,4.52,0,0,0-.518-2.295,1.751,1.751,0,0,0-1.631-.889,1.73,1.73,0,0,0-1.616.894,4.561,4.561,0,0,0-.513,2.29ZM61.165,19H58.313V3.766h2.852Zm8.574,0a6,6,0,0,1-.269-.762,5.3,5.3,0,0,1-.161-.82A3.908,3.908,0,0,1,68.147,18.7a2.913,2.913,0,0,1-1.719.508,3.568,3.568,0,0,1-2.559-.854,3.061,3.061,0,0,1-.9-2.329,2.786,2.786,0,0,1,1.2-2.407,5.974,5.974,0,0,1,3.491-.854h1.6v-.84a1.644,1.644,0,0,0-.4-1.182,1.572,1.572,0,0,0-1.191-.42,1.549,1.549,0,0,0-1.069.337,1.176,1.176,0,0,0-.376.923H63.479l-.02-.059a2.68,2.68,0,0,1,1.167-2.31,5.069,5.069,0,0,1,3.228-.972,4.73,4.73,0,0,1,3.081.957,3.333,3.333,0,0,1,1.177,2.744V16.3a8.256,8.256,0,0,0,.112,1.4,7.008,7.008,0,0,0,.356,1.3Zm-2.607-1.9a2.429,2.429,0,0,0,1.328-.371,2,2,0,0,0,.8-.859V14.371h-1.6a1.9,1.9,0,0,0-1.372.449,1.476,1.476,0,0,0-.464,1.1,1.1,1.1,0,0,0,.347.854A1.371,1.371,0,0,0,67.132,17.1Zm11.533-.078a1.587,1.587,0,0,0,1.182-.444,1.614,1.614,0,0,0,.439-1.187h2.6l.02.059a3.307,3.307,0,0,1-1.191,2.681,4.455,4.455,0,0,1-3.047,1.079,4.5,4.5,0,0,1-3.623-1.5,5.7,5.7,0,0,1-1.279-3.833V13.58a5.735,5.735,0,0,1,1.274-3.833,4.463,4.463,0,0,1,3.608-1.509,4.358,4.358,0,0,1,3.115,1.113,3.72,3.72,0,0,1,1.143,2.93l-.02.059h-2.6a2.109,2.109,0,0,0-.435-1.362,1.46,1.46,0,0,0-1.206-.542,1.627,1.627,0,0,0-1.567.884,4.847,4.847,0,0,0-.464,2.261v.293a4.829,4.829,0,0,0,.464,2.275A1.649,1.649,0,0,0,78.665,17.018ZM87.981,5.846V8.434h1.787v2H87.981v5.381a1.228,1.228,0,0,0,.259.879.909.909,0,0,0,.679.264,2.722,2.722,0,0,0,.391-.024,3.29,3.29,0,0,0,.381-.083l.234,2.061a5.773,5.773,0,0,1-.835.22,4.978,4.978,0,0,1-.884.073,3.039,3.039,0,0,1-2.271-.811,3.554,3.554,0,0,1-.8-2.568V10.436H83.6v-2H85.14V5.846ZM94.524,19H91.673V8.434h2.852Zm0-13.1H91.673V3.766h2.852Zm4.951,2.529L99.6,9.947a3.865,3.865,0,0,1,1.3-1.26,3.372,3.372,0,0,1,1.729-.449,3.142,3.142,0,0,1,2.5,1.03,4.884,4.884,0,0,1,.9,3.257V19h-2.861V12.535a2.529,2.529,0,0,0-.4-1.606,1.458,1.458,0,0,0-1.187-.474,2.49,2.49,0,0,0-1.118.239,2.183,2.183,0,0,0-.8.659V19H96.819V8.434ZM114.388,19a6,6,0,0,1-.269-.762,5.3,5.3,0,0,1-.161-.82A3.908,3.908,0,0,1,112.8,18.7a2.913,2.913,0,0,1-1.719.508,3.568,3.568,0,0,1-2.559-.854,3.061,3.061,0,0,1-.9-2.329,2.786,2.786,0,0,1,1.2-2.407,5.974,5.974,0,0,1,3.491-.854h1.6v-.84a1.644,1.644,0,0,0-.4-1.182,1.572,1.572,0,0,0-1.191-.42,1.549,1.549,0,0,0-1.069.337,1.176,1.176,0,0,0-.376.923h-2.744l-.02-.059a2.68,2.68,0,0,1,1.167-2.31,5.069,5.069,0,0,1,3.228-.972,4.73,4.73,0,0,1,3.081.957,3.333,3.333,0,0,1,1.177,2.744V16.3a8.256,8.256,0,0,0,.112,1.4,7.008,7.008,0,0,0,.356,1.3Zm-2.607-1.9a2.429,2.429,0,0,0,1.328-.371,2,2,0,0,0,.8-.859V14.371h-1.6a1.9,1.9,0,0,0-1.372.449,1.476,1.476,0,0,0-.464,1.1,1.1,1.1,0,0,0,.347.854A1.371,1.371,0,0,0,111.78,17.1Z" transform="translate(3569 18845.438)" fill="#12263f"/>
      <path id="Trazado_717503" data-name="Trazado 717503" d="M36,12.75H30.73v4.063H37V19H27.879V4.781h9.1v2.2H30.73v3.574H36Zm8.5,3.32a.984.984,0,0,0-.454-.806,4.612,4.612,0,0,0-1.685-.591,6.719,6.719,0,0,1-2.817-1.123,2.453,2.453,0,0,1-.962-2.041A2.911,2.911,0,0,1,39.734,9.2,4.646,4.646,0,0,1,42.8,8.238a5.014,5.014,0,0,1,3.208.957,2.8,2.8,0,0,1,1.157,2.383l-.02.059H44.393a1.383,1.383,0,0,0-.41-1.035,1.918,1.918,0,0,0-2.266-.059,1.063,1.063,0,0,0-.4.84.948.948,0,0,0,.415.8,4.62,4.62,0,0,0,1.685.552,6.855,6.855,0,0,1,2.9,1.147,2.517,2.517,0,0,1,.952,2.085A2.789,2.789,0,0,1,46.043,18.3a5.269,5.269,0,0,1-3.223.908,4.9,4.9,0,0,1-3.335-1.069A2.99,2.99,0,0,1,38.318,15.7l.02-.059h2.607a1.482,1.482,0,0,0,.557,1.23,2.3,2.3,0,0,0,1.377.381,1.958,1.958,0,0,0,1.206-.317A1.03,1.03,0,0,0,44.5,16.07ZM52.518,5.846V8.434H54.3v2H52.518v5.381a1.228,1.228,0,0,0,.259.879.909.909,0,0,0,.679.264,2.722,2.722,0,0,0,.391-.024,3.29,3.29,0,0,0,.381-.083l.234,2.061a5.773,5.773,0,0,1-.835.22,4.978,4.978,0,0,1-.884.073,3.039,3.039,0,0,1-2.271-.811,3.554,3.554,0,0,1-.8-2.568V10.436H48.133v-2h1.543V5.846Zm9.1,5.039-1.045-.029a1.9,1.9,0,0,0-1.045.264,1.671,1.671,0,0,0-.625.742V19H56.063V8.434h2.646L58.836,10A3.333,3.333,0,0,1,59.8,8.7a2.247,2.247,0,0,1,1.758-.43q.181.034.366.083Zm.85,2.734a5.67,5.67,0,0,1,1.318-3.872,4.6,4.6,0,0,1,3.652-1.509,4.644,4.644,0,0,1,3.672,1.5,5.64,5.64,0,0,1,1.328,3.877v.205a5.649,5.649,0,0,1-1.323,3.882,5.223,5.223,0,0,1-7.324,0,5.649,5.649,0,0,1-1.323-3.882Zm2.842.205a4.6,4.6,0,0,0,.508,2.319,1.951,1.951,0,0,0,3.257,0,4.566,4.566,0,0,0,.513-2.314v-.205a4.52,4.52,0,0,0-.518-2.295,1.751,1.751,0,0,0-1.631-.889,1.73,1.73,0,0,0-1.616.894,4.561,4.561,0,0,0-.513,2.29Zm2.705-9.9h3.174l.02.059L68.5,6.52H66.072ZM73.777,13.8a6.843,6.843,0,0,1,1.084-4.033,3.516,3.516,0,0,1,3.047-1.533,3,3,0,0,1,1.563.4,3.507,3.507,0,0,1,1.152,1.143l.225-1.348H83.3V18.951a3.927,3.927,0,0,1-1.348,3.188,5.69,5.69,0,0,1-3.76,1.128,7.163,7.163,0,0,1-1.7-.22,7.891,7.891,0,0,1-1.66-.6l.479-2.129a6.544,6.544,0,0,0,1.353.474,6.7,6.7,0,0,0,1.509.161,2.552,2.552,0,0,0,1.724-.488,1.933,1.933,0,0,0,.552-1.523v-.957a3.19,3.19,0,0,1-1.1.908,3.253,3.253,0,0,1-1.455.313,3.586,3.586,0,0,1-3.027-1.426,6.069,6.069,0,0,1-1.084-3.77Zm2.852.205a4.341,4.341,0,0,0,.464,2.183,1.621,1.621,0,0,0,1.519.8,2.354,2.354,0,0,0,1.108-.239,1.828,1.828,0,0,0,.728-.7v-4.58a1.949,1.949,0,0,0-.728-.752,2.133,2.133,0,0,0-1.089-.264,1.6,1.6,0,0,0-1.523.928,5.288,5.288,0,0,0-.479,2.422Zm13.438,5.2a4.754,4.754,0,0,1-3.691-1.45,5.315,5.315,0,0,1-1.328-3.735v-.391a5.785,5.785,0,0,1,1.289-3.887,4.382,4.382,0,0,1,3.545-1.5,4.1,4.1,0,0,1,3.267,1.3,5.152,5.152,0,0,1,1.138,3.511v1.475h-6.3l-.029.059a2.855,2.855,0,0,0,.659,1.758,2.207,2.207,0,0,0,1.753.674,5.865,5.865,0,0,0,1.626-.2,6.634,6.634,0,0,0,1.382-.6l.771,1.758a5.293,5.293,0,0,1-1.719.869A7.622,7.622,0,0,1,90.066,19.205Zm-.186-8.77a1.584,1.584,0,0,0-1.323.591A2.964,2.964,0,0,0,88,12.594l.02.049h3.477v-.215a2.468,2.468,0,0,0-.381-1.46A1.409,1.409,0,0,0,89.881,10.436Zm8.672-2,.127,1.514a3.865,3.865,0,0,1,1.3-1.26,3.372,3.372,0,0,1,1.729-.449,3.142,3.142,0,0,1,2.5,1.03,4.884,4.884,0,0,1,.9,3.257V19h-2.861V12.535a2.529,2.529,0,0,0-.4-1.606,1.458,1.458,0,0,0-1.187-.474,2.49,2.49,0,0,0-1.118.239,2.183,2.183,0,0,0-.8.659V19H95.9V8.434Zm8.242,5.186a5.67,5.67,0,0,1,1.318-3.872,4.6,4.6,0,0,1,3.652-1.509,4.644,4.644,0,0,1,3.672,1.5,5.64,5.64,0,0,1,1.328,3.877v.205a5.649,5.649,0,0,1-1.323,3.882,5.223,5.223,0,0,1-7.324,0,5.649,5.649,0,0,1-1.323-3.882Zm2.842.205a4.6,4.6,0,0,0,.508,2.319,1.951,1.951,0,0,0,3.257,0,4.566,4.566,0,0,0,.513-2.314v-.205a4.52,4.52,0,0,0-.518-2.295,1.751,1.751,0,0,0-1.631-.889,1.73,1.73,0,0,0-1.616.894,4.561,4.561,0,0,0-.513,2.29Z" transform="translate(3484 18945.041)" fill="#12263f"/>
      <path id="Trazado_717504" data-name="Trazado 717504" d="M34.236,12.75H28.963v4.063h6.27V19H26.111V4.781h9.1v2.2h-6.25v3.574h5.273Zm8.5,3.32a.984.984,0,0,0-.454-.806,4.612,4.612,0,0,0-1.685-.591,6.719,6.719,0,0,1-2.817-1.123,2.453,2.453,0,0,1-.962-2.041A2.911,2.911,0,0,1,37.967,9.2a4.646,4.646,0,0,1,3.066-.957,5.014,5.014,0,0,1,3.208.957A2.8,2.8,0,0,1,45.4,11.578l-.02.059H42.625a1.383,1.383,0,0,0-.41-1.035,1.918,1.918,0,0,0-2.266-.059,1.063,1.063,0,0,0-.4.84.948.948,0,0,0,.415.8,4.62,4.62,0,0,0,1.685.552,6.855,6.855,0,0,1,2.9,1.147,2.517,2.517,0,0,1,.952,2.085A2.789,2.789,0,0,1,44.275,18.3a5.269,5.269,0,0,1-3.223.908,4.9,4.9,0,0,1-3.335-1.069A2.99,2.99,0,0,1,36.551,15.7l.02-.059h2.607a1.482,1.482,0,0,0,.557,1.23,2.3,2.3,0,0,0,1.377.381,1.958,1.958,0,0,0,1.206-.317A1.03,1.03,0,0,0,42.732,16.07ZM50.75,5.846V8.434h1.787v2H50.75v5.381a1.228,1.228,0,0,0,.259.879.909.909,0,0,0,.679.264,2.722,2.722,0,0,0,.391-.024,3.29,3.29,0,0,0,.381-.083l.234,2.061a5.773,5.773,0,0,1-.835.22,4.978,4.978,0,0,1-.884.073,3.039,3.039,0,0,1-2.271-.811,3.554,3.554,0,0,1-.8-2.568V10.436H46.365v-2h1.543V5.846Zm8.125,13.359a4.754,4.754,0,0,1-3.691-1.45,5.315,5.315,0,0,1-1.328-3.735v-.391a5.785,5.785,0,0,1,1.289-3.887,4.382,4.382,0,0,1,3.545-1.5,4.1,4.1,0,0,1,3.267,1.3,5.152,5.152,0,0,1,1.138,3.511v1.475h-6.3l-.029.059a2.855,2.855,0,0,0,.659,1.758,2.207,2.207,0,0,0,1.753.674,5.865,5.865,0,0,0,1.626-.2,6.634,6.634,0,0,0,1.382-.6l.771,1.758a5.293,5.293,0,0,1-1.719.869A7.622,7.622,0,0,1,58.875,19.205Zm-.186-8.77a1.584,1.584,0,0,0-1.323.591,2.964,2.964,0,0,0-.562,1.567l.02.049H60.3v-.215a2.468,2.468,0,0,0-.381-1.46A1.409,1.409,0,0,0,58.689,10.436Zm11.621.449-1.045-.029a1.9,1.9,0,0,0-1.045.264,1.671,1.671,0,0,0-.625.742V19H64.754V8.434H67.4L67.527,10A3.333,3.333,0,0,1,68.489,8.7a2.247,2.247,0,0,1,1.758-.43q.181.034.366.083Zm.85,2.734a5.67,5.67,0,0,1,1.318-3.872,4.6,4.6,0,0,1,3.652-1.509,4.644,4.644,0,0,1,3.672,1.5,5.64,5.64,0,0,1,1.328,3.877v.205a5.649,5.649,0,0,1-1.323,3.882,5.223,5.223,0,0,1-7.324,0,5.649,5.649,0,0,1-1.323-3.882ZM74,13.824a4.6,4.6,0,0,0,.508,2.319,1.951,1.951,0,0,0,3.257,0,4.566,4.566,0,0,0,.513-2.314v-.205a4.52,4.52,0,0,0-.518-2.295,1.751,1.751,0,0,0-1.631-.889,1.73,1.73,0,0,0-1.616.894A4.561,4.561,0,0,0,74,13.619ZM85.887,19H83.035V8.434h2.852Zm0-13.1H83.035V3.766h2.852Zm1.9,7.9A6.866,6.866,0,0,1,88.87,9.771a3.5,3.5,0,0,1,3.042-1.533,2.959,2.959,0,0,1,1.426.342,3.43,3.43,0,0,1,1.113.977V3.766h2.861V19H94.881l-.244-1.3a3.532,3.532,0,0,1-1.182,1.118,3.124,3.124,0,0,1-1.562.386,3.573,3.573,0,0,1-3.022-1.426,6.088,6.088,0,0,1-1.079-3.77Zm2.842.205a4.3,4.3,0,0,0,.469,2.183,1.632,1.632,0,0,0,1.523.8,2.219,2.219,0,0,0,1.074-.249,1.987,1.987,0,0,0,.752-.728v-4.5a2.195,2.195,0,0,0-.747-.776,1.987,1.987,0,0,0-1.06-.278,1.609,1.609,0,0,0-1.528.928,5.243,5.243,0,0,0-.483,2.422Zm13.467,5.2a4.754,4.754,0,0,1-3.691-1.45A5.315,5.315,0,0,1,99.08,14.02v-.391a5.785,5.785,0,0,1,1.289-3.887,4.382,4.382,0,0,1,3.545-1.5,4.1,4.1,0,0,1,3.267,1.3,5.152,5.152,0,0,1,1.138,3.511v1.475h-6.3l-.029.059a2.855,2.855,0,0,0,.659,1.758,2.207,2.207,0,0,0,1.753.674,5.865,5.865,0,0,0,1.626-.2,6.634,6.634,0,0,0,1.382-.6l.771,1.758a5.293,5.293,0,0,1-1.719.869A7.622,7.622,0,0,1,104.1,19.205Zm-.186-8.77a1.584,1.584,0,0,0-1.323.591,2.964,2.964,0,0,0-.562,1.567l.02.049h3.477v-.215a2.468,2.468,0,0,0-.381-1.46A1.409,1.409,0,0,0,103.914,10.436Zm11.777,5.635a.984.984,0,0,0-.454-.806,4.612,4.612,0,0,0-1.685-.591,6.719,6.719,0,0,1-2.817-1.123,2.453,2.453,0,0,1-.962-2.041A2.911,2.911,0,0,1,110.926,9.2a4.646,4.646,0,0,1,3.066-.957A5.014,5.014,0,0,1,117.2,9.2a2.8,2.8,0,0,1,1.157,2.383l-.02.059h-2.754a1.383,1.383,0,0,0-.41-1.035,1.918,1.918,0,0,0-2.266-.059,1.063,1.063,0,0,0-.4.84.948.948,0,0,0,.415.8,4.62,4.62,0,0,0,1.685.552,6.855,6.855,0,0,1,2.9,1.147,2.517,2.517,0,0,1,.952,2.085,2.789,2.789,0,0,1-1.221,2.334,5.269,5.269,0,0,1-3.223.908,4.9,4.9,0,0,1-3.335-1.069A2.99,2.99,0,0,1,109.51,15.7l.02-.059h2.607a1.482,1.482,0,0,0,.557,1.23,2.3,2.3,0,0,0,1.377.381,1.958,1.958,0,0,0,1.206-.317A1.03,1.03,0,0,0,115.691,16.07Z" transform="translate(3779 18845.438)" fill="#12263f"/>
      <path id="Trazado_717505" data-name="Trazado 717505" d="M15.9,13.844V19H13.045V4.781h5.439a5.6,5.6,0,0,1,3.857,1.25,4.191,4.191,0,0,1,1.406,3.291A4.161,4.161,0,0,1,22.342,12.6a5.629,5.629,0,0,1-3.857,1.24Zm0-2.2h2.588A2.372,2.372,0,0,0,20.291,11a2.31,2.31,0,0,0,.615-1.655,2.417,2.417,0,0,0-.61-1.694,2.33,2.33,0,0,0-1.812-.669H15.9Zm15.234-.762-1.045-.029a1.9,1.9,0,0,0-1.045.264,1.671,1.671,0,0,0-.625.742V19H25.574V8.434h2.646L28.348,10A3.333,3.333,0,0,1,29.31,8.7a2.247,2.247,0,0,1,1.758-.43q.181.034.366.083Zm.85,2.734A5.67,5.67,0,0,1,33.3,9.747a4.6,4.6,0,0,1,3.652-1.509,4.644,4.644,0,0,1,3.672,1.5,5.64,5.64,0,0,1,1.328,3.877v.205a5.649,5.649,0,0,1-1.323,3.882,4.625,4.625,0,0,1-3.657,1.5,4.637,4.637,0,0,1-3.667-1.5,5.649,5.649,0,0,1-1.323-3.882Zm2.842.205a4.6,4.6,0,0,0,.508,2.319,1.951,1.951,0,0,0,3.257,0,4.566,4.566,0,0,0,.513-2.314v-.205a4.52,4.52,0,0,0-.518-2.295,1.751,1.751,0,0,0-1.631-.889,1.73,1.73,0,0,0-1.616.894,4.561,4.561,0,0,0-.513,2.29Zm8.467-.02a6.843,6.843,0,0,1,1.084-4.033A3.516,3.516,0,0,1,47.42,8.238a3,3,0,0,1,1.563.4,3.507,3.507,0,0,1,1.152,1.143l.225-1.348h2.451V18.951a3.927,3.927,0,0,1-1.348,3.188,5.69,5.69,0,0,1-3.76,1.128,7.163,7.163,0,0,1-1.7-.22,7.891,7.891,0,0,1-1.66-.6l.479-2.129a6.544,6.544,0,0,0,1.353.474,6.7,6.7,0,0,0,1.509.161,2.552,2.552,0,0,0,1.724-.488,1.933,1.933,0,0,0,.552-1.523v-.957a3.19,3.19,0,0,1-1.1.908,3.253,3.253,0,0,1-1.455.313,3.586,3.586,0,0,1-3.027-1.426,6.069,6.069,0,0,1-1.084-3.77Zm2.852.205a4.341,4.341,0,0,0,.464,2.183,1.621,1.621,0,0,0,1.519.8,2.354,2.354,0,0,0,1.108-.239,1.828,1.828,0,0,0,.728-.7v-4.58a1.949,1.949,0,0,0-.728-.752,2.133,2.133,0,0,0-1.089-.264,1.6,1.6,0,0,0-1.523.928,5.288,5.288,0,0,0-.479,2.422Zm13.438,5.2a4.754,4.754,0,0,1-3.691-1.45,5.315,5.315,0,0,1-1.328-3.735v-.391a5.785,5.785,0,0,1,1.289-3.887,4.382,4.382,0,0,1,3.545-1.5,4.1,4.1,0,0,1,3.267,1.3A5.152,5.152,0,0,1,63.8,13.053v1.475H57.5l-.029.059a2.855,2.855,0,0,0,.659,1.758,2.207,2.207,0,0,0,1.753.674,5.865,5.865,0,0,0,1.626-.2,6.634,6.634,0,0,0,1.382-.6l.771,1.758a5.293,5.293,0,0,1-1.719.869A7.622,7.622,0,0,1,59.578,19.205Zm-.186-8.77a1.584,1.584,0,0,0-1.323.591,2.964,2.964,0,0,0-.562,1.567l.02.049H61v-.215a2.468,2.468,0,0,0-.381-1.46A1.409,1.409,0,0,0,59.393,10.436ZM71.17,16.07a.984.984,0,0,0-.454-.806,4.612,4.612,0,0,0-1.685-.591,6.719,6.719,0,0,1-2.817-1.123,2.453,2.453,0,0,1-.962-2.041A2.911,2.911,0,0,1,66.4,9.2a4.646,4.646,0,0,1,3.066-.957,5.014,5.014,0,0,1,3.208.957,2.8,2.8,0,0,1,1.157,2.383l-.02.059H71.063a1.383,1.383,0,0,0-.41-1.035,1.918,1.918,0,0,0-2.266-.059,1.063,1.063,0,0,0-.4.84.948.948,0,0,0,.415.8,4.62,4.62,0,0,0,1.685.552,6.855,6.855,0,0,1,2.9,1.147,2.517,2.517,0,0,1,.952,2.085A2.789,2.789,0,0,1,72.713,18.3a5.269,5.269,0,0,1-3.223.908,4.9,4.9,0,0,1-3.335-1.069A2.99,2.99,0,0,1,64.988,15.7l.02-.059h2.607a1.482,1.482,0,0,0,.557,1.23,2.3,2.3,0,0,0,1.377.381,1.958,1.958,0,0,0,1.206-.317A1.03,1.03,0,0,0,71.17,16.07ZM79.188,5.846V8.434h1.787v2H79.188v5.381a1.228,1.228,0,0,0,.259.879.909.909,0,0,0,.679.264,2.722,2.722,0,0,0,.391-.024,3.29,3.29,0,0,0,.381-.083l.234,2.061a5.773,5.773,0,0,1-.835.22,4.978,4.978,0,0,1-.884.073,3.039,3.039,0,0,1-2.271-.811,3.554,3.554,0,0,1-.8-2.568V10.436H74.8v-2h1.543V5.846Zm8.125,13.359a4.754,4.754,0,0,1-3.691-1.45,5.315,5.315,0,0,1-1.328-3.735v-.391a5.785,5.785,0,0,1,1.289-3.887,4.382,4.382,0,0,1,3.545-1.5,4.1,4.1,0,0,1,3.267,1.3,5.152,5.152,0,0,1,1.138,3.511v1.475h-6.3l-.029.059a2.855,2.855,0,0,0,.659,1.758,2.207,2.207,0,0,0,1.753.674,5.865,5.865,0,0,0,1.626-.2,6.634,6.634,0,0,0,1.382-.6l.771,1.758a5.293,5.293,0,0,1-1.719.869A7.622,7.622,0,0,1,87.313,19.205Zm-.186-8.77a1.584,1.584,0,0,0-1.323.591,2.964,2.964,0,0,0-.562,1.567l.02.049h3.477v-.215a2.468,2.468,0,0,0-.381-1.46A1.409,1.409,0,0,0,87.127,10.436Zm11.621.449L97.7,10.855a1.9,1.9,0,0,0-1.045.264,1.671,1.671,0,0,0-.625.742V19H93.191V8.434h2.646L95.965,10A3.333,3.333,0,0,1,96.927,8.7a2.247,2.247,0,0,1,1.758-.43q.181.034.366.083Zm.85,2.734a5.67,5.67,0,0,1,1.318-3.872,4.6,4.6,0,0,1,3.652-1.509,4.644,4.644,0,0,1,3.672,1.5,5.64,5.64,0,0,1,1.328,3.877v.205a5.649,5.649,0,0,1-1.323,3.882,5.223,5.223,0,0,1-7.324,0A5.649,5.649,0,0,1,99.6,13.824Zm2.842.205a4.6,4.6,0,0,0,.508,2.319,1.951,1.951,0,0,0,3.257,0,4.566,4.566,0,0,0,.513-2.314v-.205a4.52,4.52,0,0,0-.518-2.295,1.751,1.751,0,0,0-1.631-.889,1.73,1.73,0,0,0-1.616.894,4.561,4.561,0,0,0-.513,2.29Zm11.494-5.391.127,1.514a3.865,3.865,0,0,1,1.3-1.26,3.372,3.372,0,0,1,1.729-.449,3.142,3.142,0,0,1,2.5,1.03,4.884,4.884,0,0,1,.9,3.257V19h-2.861V12.535a2.529,2.529,0,0,0-.4-1.606,1.458,1.458,0,0,0-1.187-.474,2.49,2.49,0,0,0-1.118.239,2.183,2.183,0,0,0-.8.659V19h-2.852V8.434ZM128.846,19a6,6,0,0,1-.269-.762,5.3,5.3,0,0,1-.161-.82,3.908,3.908,0,0,1-1.162,1.279,2.913,2.913,0,0,1-1.719.508,3.568,3.568,0,0,1-2.559-.854,3.061,3.061,0,0,1-.9-2.329,2.786,2.786,0,0,1,1.2-2.407,5.974,5.974,0,0,1,3.491-.854h1.6v-.84a1.644,1.644,0,0,0-.4-1.182,1.572,1.572,0,0,0-1.191-.42,1.549,1.549,0,0,0-1.069.337,1.176,1.176,0,0,0-.376.923h-2.744l-.02-.059a2.68,2.68,0,0,1,1.167-2.31,5.069,5.069,0,0,1,3.228-.972,4.73,4.73,0,0,1,3.081.957,3.333,3.333,0,0,1,1.177,2.744V16.3a8.256,8.256,0,0,0,.112,1.4,7.008,7.008,0,0,0,.356,1.3Zm-2.607-1.9a2.429,2.429,0,0,0,1.328-.371,2,2,0,0,0,.8-.859V14.371h-1.6a1.9,1.9,0,0,0-1.372.449,1.476,1.476,0,0,0-.464,1.1,1.1,1.1,0,0,0,.347.854A1.371,1.371,0,0,0,126.238,17.1Z" transform="translate(3694 18945.041)" fill="#12263f"/>
      <path id="Trazado_717506" data-name="Trazado 717506" d="M20.127,15.934H15.518L14.561,19H11.582L16.377,4.781H19.3L24.072,19H21.094ZM16.221,13.7h3.213l-1.572-5.01H17.8Zm8.564.107a6.866,6.866,0,0,1,1.079-4.033,3.5,3.5,0,0,1,3.042-1.533,2.959,2.959,0,0,1,1.426.342,3.43,3.43,0,0,1,1.113.977V3.766h2.861V19H31.875l-.244-1.3a3.532,3.532,0,0,1-1.182,1.118,3.124,3.124,0,0,1-1.562.386,3.573,3.573,0,0,1-3.022-1.426,6.088,6.088,0,0,1-1.079-3.77Zm2.842.205a4.3,4.3,0,0,0,.469,2.183,1.632,1.632,0,0,0,1.523.8,2.219,2.219,0,0,0,1.074-.249,1.987,1.987,0,0,0,.752-.728v-4.5a2.195,2.195,0,0,0-.747-.776,1.987,1.987,0,0,0-1.06-.278,1.609,1.609,0,0,0-1.528.928,5.243,5.243,0,0,0-.483,2.422ZM42.07,10.885l-1.045-.029a1.9,1.9,0,0,0-1.045.264,1.671,1.671,0,0,0-.625.742V19H36.514V8.434H39.16L39.287,10A3.333,3.333,0,0,1,40.249,8.7a2.247,2.247,0,0,1,1.758-.43q.181.034.366.083Zm5.879,8.32a4.754,4.754,0,0,1-3.691-1.45A5.315,5.315,0,0,1,42.93,14.02v-.391a5.785,5.785,0,0,1,1.289-3.887,4.382,4.382,0,0,1,3.545-1.5,4.1,4.1,0,0,1,3.267,1.3,5.152,5.152,0,0,1,1.138,3.511v1.475h-6.3l-.029.059a2.855,2.855,0,0,0,.659,1.758,2.207,2.207,0,0,0,1.753.674,5.865,5.865,0,0,0,1.626-.2,6.634,6.634,0,0,0,1.382-.6l.771,1.758a5.293,5.293,0,0,1-1.719.869A7.622,7.622,0,0,1,47.949,19.205Zm-.186-8.77a1.584,1.584,0,0,0-1.323.591,2.964,2.964,0,0,0-.562,1.567l.02.049h3.477v-.215a2.468,2.468,0,0,0-.381-1.46A1.409,1.409,0,0,0,47.764,10.436Zm8.672-2,.127,1.514a3.865,3.865,0,0,1,1.3-1.26,3.372,3.372,0,0,1,1.729-.449,3.142,3.142,0,0,1,2.5,1.03,4.884,4.884,0,0,1,.9,3.257V19H60.127V12.535a2.529,2.529,0,0,0-.4-1.606,1.458,1.458,0,0,0-1.187-.474,2.49,2.49,0,0,0-1.118.239,2.183,2.183,0,0,0-.8.659V19H53.779V8.434Zm8.242,5.186A5.67,5.67,0,0,1,66,9.747a4.6,4.6,0,0,1,3.652-1.509,4.644,4.644,0,0,1,3.672,1.5,5.64,5.64,0,0,1,1.328,3.877v.205a5.649,5.649,0,0,1-1.323,3.882,5.223,5.223,0,0,1-7.324,0,5.649,5.649,0,0,1-1.323-3.882Zm2.842.205a4.6,4.6,0,0,0,.508,2.319,1.951,1.951,0,0,0,3.257,0,4.566,4.566,0,0,0,.513-2.314v-.205a4.52,4.52,0,0,0-.518-2.295,1.751,1.751,0,0,0-1.631-.889,1.73,1.73,0,0,0-1.616.894,4.561,4.561,0,0,0-.513,2.29Zm13.3,3.193A1.587,1.587,0,0,0,82,16.573a1.614,1.614,0,0,0,.439-1.187h2.6l.02.059a3.307,3.307,0,0,1-1.191,2.681,4.455,4.455,0,0,1-3.047,1.079,4.5,4.5,0,0,1-3.623-1.5,5.7,5.7,0,0,1-1.279-3.833V13.58a5.735,5.735,0,0,1,1.274-3.833A4.463,4.463,0,0,1,80.8,8.238a4.358,4.358,0,0,1,3.115,1.113,3.72,3.72,0,0,1,1.143,2.93l-.02.059h-2.6a2.109,2.109,0,0,0-.435-1.362,1.46,1.46,0,0,0-1.206-.542,1.627,1.627,0,0,0-1.567.884,4.847,4.847,0,0,0-.464,2.261v.293a4.829,4.829,0,0,0,.464,2.275A1.649,1.649,0,0,0,80.82,17.018Zm5.459-3.4A5.67,5.67,0,0,1,87.6,9.747,4.6,4.6,0,0,1,91.25,8.238a4.644,4.644,0,0,1,3.672,1.5,5.64,5.64,0,0,1,1.328,3.877v.205a5.649,5.649,0,0,1-1.323,3.882,5.223,5.223,0,0,1-7.324,0,5.649,5.649,0,0,1-1.323-3.882Zm2.842.205a4.6,4.6,0,0,0,.508,2.319,1.951,1.951,0,0,0,3.257,0,4.566,4.566,0,0,0,.513-2.314v-.205a4.52,4.52,0,0,0-.518-2.295,1.751,1.751,0,0,0-1.631-.889,1.73,1.73,0,0,0-1.616.894,4.561,4.561,0,0,0-.513,2.29Zm14.443-2.939-1.045-.029a1.9,1.9,0,0,0-1.045.264,1.671,1.671,0,0,0-.625.742V19H98.008V8.434h2.646L100.781,10a3.333,3.333,0,0,1,.962-1.294,2.247,2.247,0,0,1,1.758-.43q.181.034.366.083Zm5.068-5.039V8.434h1.787v2h-1.787v5.381a1.228,1.228,0,0,0,.259.879.909.909,0,0,0,.679.264,2.722,2.722,0,0,0,.391-.024,3.29,3.29,0,0,0,.381-.083l.234,2.061a5.773,5.773,0,0,1-.835.22,4.978,4.978,0,0,1-.884.073,3.039,3.039,0,0,1-2.271-.811,3.554,3.554,0,0,1-.8-2.568V10.436h-1.543v-2h1.543V5.846ZM115.176,19h-2.852V8.434h2.852Zm0-13.1h-2.852V3.766h2.852Zm6.758,11.113a1.587,1.587,0,0,0,1.182-.444,1.614,1.614,0,0,0,.439-1.187h2.6l.02.059a3.307,3.307,0,0,1-1.191,2.681,4.455,4.455,0,0,1-3.047,1.079,4.5,4.5,0,0,1-3.623-1.5,5.7,5.7,0,0,1-1.279-3.833V13.58a5.735,5.735,0,0,1,1.274-3.833,4.463,4.463,0,0,1,3.608-1.509,4.358,4.358,0,0,1,3.115,1.113,3.72,3.72,0,0,1,1.143,2.93l-.02.059h-2.6a2.109,2.109,0,0,0-.435-1.362,1.46,1.46,0,0,0-1.206-.542,1.627,1.627,0,0,0-1.567.884,4.847,4.847,0,0,0-.464,2.261v.293a4.829,4.829,0,0,0,.464,2.275A1.649,1.649,0,0,0,121.934,17.018ZM134.063,19a6,6,0,0,1-.269-.762,5.3,5.3,0,0,1-.161-.82,3.909,3.909,0,0,1-1.162,1.279,2.913,2.913,0,0,1-1.719.508,3.568,3.568,0,0,1-2.559-.854,3.061,3.061,0,0,1-.9-2.329,2.786,2.786,0,0,1,1.2-2.407,5.974,5.974,0,0,1,3.491-.854h1.6v-.84a1.644,1.644,0,0,0-.4-1.182,1.572,1.572,0,0,0-1.191-.42,1.549,1.549,0,0,0-1.069.337,1.176,1.176,0,0,0-.376.923H127.8l-.02-.059a2.68,2.68,0,0,1,1.167-2.31,5.069,5.069,0,0,1,3.228-.972,4.73,4.73,0,0,1,3.081.957,3.333,3.333,0,0,1,1.177,2.744V16.3a8.256,8.256,0,0,0,.112,1.4A7.008,7.008,0,0,0,136.9,19Zm-2.607-1.9a2.429,2.429,0,0,0,1.328-.371,2,2,0,0,0,.8-.859V14.371h-1.6a1.9,1.9,0,0,0-1.372.449,1.476,1.476,0,0,0-.464,1.1,1.1,1.1,0,0,0,.347.854A1.371,1.371,0,0,0,131.455,17.1ZM141.572,19h-2.852V3.766h2.852Zm6.924.205a4.754,4.754,0,0,1-3.691-1.45,5.315,5.315,0,0,1-1.328-3.735v-.391a5.785,5.785,0,0,1,1.289-3.887,4.382,4.382,0,0,1,3.545-1.5,4.1,4.1,0,0,1,3.267,1.3,5.152,5.152,0,0,1,1.138,3.511v1.475h-6.3l-.029.059a2.855,2.855,0,0,0,.659,1.758,2.207,2.207,0,0,0,1.753.674,5.865,5.865,0,0,0,1.626-.2,6.634,6.634,0,0,0,1.382-.6l.771,1.758a5.293,5.293,0,0,1-1.719.869A7.622,7.622,0,0,1,148.5,19.205Zm-.186-8.77a1.584,1.584,0,0,0-1.323.591,2.964,2.964,0,0,0-.562,1.567l.02.049h3.477v-.215a2.468,2.468,0,0,0-.381-1.46A1.409,1.409,0,0,0,148.311,10.436Zm11.777,5.635a.984.984,0,0,0-.454-.806,4.612,4.612,0,0,0-1.685-.591,6.719,6.719,0,0,1-2.817-1.123,2.453,2.453,0,0,1-.962-2.041A2.911,2.911,0,0,1,155.322,9.2a4.646,4.646,0,0,1,3.066-.957A5.014,5.014,0,0,1,161.6,9.2a2.8,2.8,0,0,1,1.157,2.383l-.02.059H159.98a1.383,1.383,0,0,0-.41-1.035,1.918,1.918,0,0,0-2.266-.059,1.063,1.063,0,0,0-.4.84.948.948,0,0,0,.415.8A4.619,4.619,0,0,0,159,12.73a6.855,6.855,0,0,1,2.9,1.147,2.517,2.517,0,0,1,.952,2.085,2.789,2.789,0,0,1-1.221,2.334,5.269,5.269,0,0,1-3.223.908,4.9,4.9,0,0,1-3.335-1.069,2.99,2.99,0,0,1-1.167-2.437l.02-.059h2.607a1.482,1.482,0,0,0,.557,1.23,2.3,2.3,0,0,0,1.377.381,1.958,1.958,0,0,0,1.206-.317A1.03,1.03,0,0,0,160.088,16.07Z" transform="translate(3989 18845.438)" fill="#12263f"/>
      <path id="Trazado_717507" data-name="Trazado 717507" d="M24.831,17.057a5.4,5.4,0,0,1-1.982,1.509,7.8,7.8,0,0,1-3.4.64,5.748,5.748,0,0,1-4.219-1.621,5.658,5.658,0,0,1-1.641-4.209V10.406a5.756,5.756,0,0,1,1.592-4.2,5.477,5.477,0,0,1,4.092-1.626,5.816,5.816,0,0,1,3.994,1.235,4.058,4.058,0,0,1,1.338,3.3l-.02.059H21.9A2.332,2.332,0,0,0,21.247,7.4a2.64,2.64,0,0,0-1.9-.63,2.56,2.56,0,0,0-2.109,1.011,4.064,4.064,0,0,0-.8,2.6v2.988A4.049,4.049,0,0,0,17.253,16a2.679,2.679,0,0,0,2.2,1.016,5.055,5.055,0,0,0,1.606-.205,2.449,2.449,0,0,0,.913-.518V13.541H19.235V11.568h5.6ZM33.269,19A6,6,0,0,1,33,18.238a5.3,5.3,0,0,1-.161-.82A3.909,3.909,0,0,1,31.677,18.7a2.913,2.913,0,0,1-1.719.508,3.568,3.568,0,0,1-2.559-.854,3.061,3.061,0,0,1-.9-2.329,2.786,2.786,0,0,1,1.2-2.407,5.974,5.974,0,0,1,3.491-.854h1.6v-.84a1.644,1.644,0,0,0-.4-1.182,1.572,1.572,0,0,0-1.191-.42,1.549,1.549,0,0,0-1.069.337,1.176,1.176,0,0,0-.376.923H27.009l-.02-.059a2.68,2.68,0,0,1,1.167-2.31,5.069,5.069,0,0,1,3.228-.972,4.73,4.73,0,0,1,3.081.957,3.333,3.333,0,0,1,1.177,2.744V16.3a8.256,8.256,0,0,0,.112,1.4A7.008,7.008,0,0,0,36.11,19Zm-2.607-1.9a2.429,2.429,0,0,0,1.328-.371,2,2,0,0,0,.8-.859V14.371h-1.6a1.9,1.9,0,0,0-1.372.449,1.476,1.476,0,0,0-.464,1.1,1.1,1.1,0,0,0,.347.854A1.371,1.371,0,0,0,30.661,17.1ZM43.493,16.07a.984.984,0,0,0-.454-.806,4.612,4.612,0,0,0-1.685-.591,6.719,6.719,0,0,1-2.817-1.123,2.453,2.453,0,0,1-.962-2.041A2.911,2.911,0,0,1,38.728,9.2a4.646,4.646,0,0,1,3.066-.957A5.014,5.014,0,0,1,45,9.2a2.8,2.8,0,0,1,1.157,2.383l-.02.059H43.386a1.383,1.383,0,0,0-.41-1.035,1.918,1.918,0,0,0-2.266-.059,1.063,1.063,0,0,0-.4.84.948.948,0,0,0,.415.8,4.62,4.62,0,0,0,1.685.552,6.855,6.855,0,0,1,2.9,1.147,2.517,2.517,0,0,1,.952,2.085A2.789,2.789,0,0,1,45.036,18.3a5.269,5.269,0,0,1-3.223.908,4.9,4.9,0,0,1-3.335-1.069A2.99,2.99,0,0,1,37.312,15.7l.02-.059h2.607a1.482,1.482,0,0,0,.557,1.23,2.3,2.3,0,0,0,1.377.381,1.958,1.958,0,0,0,1.206-.317A1.03,1.03,0,0,0,43.493,16.07ZM51.511,5.846V8.434H53.3v2H51.511v5.381a1.228,1.228,0,0,0,.259.879.909.909,0,0,0,.679.264,2.722,2.722,0,0,0,.391-.024,3.29,3.29,0,0,0,.381-.083l.234,2.061a5.773,5.773,0,0,1-.835.22,4.978,4.978,0,0,1-.884.073,3.039,3.039,0,0,1-2.271-.811,3.554,3.554,0,0,1-.8-2.568V10.436H47.126v-2h1.543V5.846Zm9.1,5.039-1.045-.029a1.9,1.9,0,0,0-1.045.264,1.671,1.671,0,0,0-.625.742V19H55.056V8.434H57.7L57.829,10A3.333,3.333,0,0,1,58.791,8.7a2.247,2.247,0,0,1,1.758-.43q.181.034.366.083ZM65.095,19H62.243V8.434h2.852Zm0-13.1H62.243V3.766h2.852Zm4.951,2.529.127,1.514a3.865,3.865,0,0,1,1.3-1.26A3.372,3.372,0,0,1,73.2,8.238a3.142,3.142,0,0,1,2.5,1.03,4.884,4.884,0,0,1,.9,3.257V19H73.737V12.535a2.529,2.529,0,0,0-.4-1.606,1.458,1.458,0,0,0-1.187-.474,2.49,2.49,0,0,0-1.118.239,2.183,2.183,0,0,0-.8.659V19H67.39V8.434ZM84.958,19a6,6,0,0,1-.269-.762,5.3,5.3,0,0,1-.161-.82A3.908,3.908,0,0,1,83.366,18.7a2.913,2.913,0,0,1-1.719.508,3.568,3.568,0,0,1-2.559-.854,3.061,3.061,0,0,1-.9-2.329,2.786,2.786,0,0,1,1.2-2.407,5.974,5.974,0,0,1,3.491-.854h1.6v-.84a1.644,1.644,0,0,0-.4-1.182,1.572,1.572,0,0,0-1.191-.42,1.549,1.549,0,0,0-1.069.337,1.176,1.176,0,0,0-.376.923H78.7l-.02-.059a2.68,2.68,0,0,1,1.167-2.31,5.069,5.069,0,0,1,3.228-.972,4.73,4.73,0,0,1,3.081.957,3.333,3.333,0,0,1,1.177,2.744V16.3a8.256,8.256,0,0,0,.112,1.4A7.008,7.008,0,0,0,87.8,19Zm-2.607-1.9a2.429,2.429,0,0,0,1.328-.371,2,2,0,0,0,.8-.859V14.371h-1.6a1.9,1.9,0,0,0-1.372.449,1.476,1.476,0,0,0-.464,1.1,1.1,1.1,0,0,0,.347.854A1.371,1.371,0,0,0,82.351,17.1Z" transform="translate(4219 18845.438)" fill="#12263f"/>
      <path id="Trazado_717508" data-name="Trazado 717508" d="M57.686,13.17a5.97,5.97,0,0,1-1.65,4.331,6.238,6.238,0,0,1-8.574,0A5.994,5.994,0,0,1,45.82,13.17V10.611A6.009,6.009,0,0,1,47.456,6.29a5.625,5.625,0,0,1,4.263-1.714A5.729,5.729,0,0,1,56.025,6.29a5.96,5.96,0,0,1,1.66,4.321Zm-2.842-2.578a4.3,4.3,0,0,0-.83-2.725A2.748,2.748,0,0,0,51.719,6.8a2.662,2.662,0,0,0-2.251,1.064,4.39,4.39,0,0,0-.806,2.725V13.17a4.421,4.421,0,0,0,.811,2.754,2.685,2.685,0,0,0,2.266,1.064,2.722,2.722,0,0,0,2.285-1.064,4.384,4.384,0,0,0,.82-2.754Zm8.857,1.2h.059l1.621-3.359H68.6L65.42,13.658,68.711,19H65.5L63.77,15.494,62.041,19H58.818l3.291-5.342L58.916,8.434h3.2ZM72.939,19H70.088V8.434h2.852Zm0-13.1H70.088V3.766h2.852ZM78.7,5.846V8.434h1.787v2H78.7v5.381a1.228,1.228,0,0,0,.259.879.909.909,0,0,0,.679.264,2.722,2.722,0,0,0,.391-.024,3.29,3.29,0,0,0,.381-.083l.234,2.061a5.773,5.773,0,0,1-.835.22,4.978,4.978,0,0,1-.884.073,3.039,3.039,0,0,1-2.271-.811,3.554,3.554,0,0,1-.8-2.568V10.436H74.316v-2h1.543V5.846Zm3.105,7.773a5.67,5.67,0,0,1,1.318-3.872,4.6,4.6,0,0,1,3.652-1.509,4.644,4.644,0,0,1,3.672,1.5,5.64,5.64,0,0,1,1.328,3.877v.205a5.649,5.649,0,0,1-1.323,3.882,5.223,5.223,0,0,1-7.324,0,5.649,5.649,0,0,1-1.323-3.882Zm2.842.205a4.6,4.6,0,0,0,.508,2.319,1.951,1.951,0,0,0,3.257,0,4.566,4.566,0,0,0,.513-2.314v-.205a4.52,4.52,0,0,0-.518-2.295,1.751,1.751,0,0,0-1.631-.889,1.73,1.73,0,0,0-1.616.894,4.561,4.561,0,0,0-.513,2.29Zm13.3,3.193a1.587,1.587,0,0,0,1.182-.444,1.614,1.614,0,0,0,.439-1.187h2.6l.02.059A3.307,3.307,0,0,1,101,18.126a4.455,4.455,0,0,1-3.047,1.079,4.5,4.5,0,0,1-3.623-1.5,5.7,5.7,0,0,1-1.279-3.833V13.58a5.735,5.735,0,0,1,1.274-3.833A4.463,4.463,0,0,1,97.93,8.238a4.358,4.358,0,0,1,3.115,1.113,3.72,3.72,0,0,1,1.143,2.93l-.02.059h-2.6a2.109,2.109,0,0,0-.435-1.362,1.46,1.46,0,0,0-1.206-.542,1.627,1.627,0,0,0-1.567.884A4.847,4.847,0,0,0,95.9,13.58v.293a4.829,4.829,0,0,0,.464,2.275A1.649,1.649,0,0,0,97.949,17.018Zm8.9,1.982h-2.852V8.434h2.852Zm0-13.1h-2.852V3.766h2.852ZM111.8,8.434l.127,1.514a3.865,3.865,0,0,1,1.3-1.26,3.372,3.372,0,0,1,1.729-.449,3.142,3.142,0,0,1,2.5,1.03,4.884,4.884,0,0,1,.9,3.257V19h-2.861V12.535a2.529,2.529,0,0,0-.4-1.606,1.458,1.458,0,0,0-1.187-.474,2.49,2.49,0,0,0-1.118.239,2.183,2.183,0,0,0-.8.659V19h-2.852V8.434ZM126.709,19a6,6,0,0,1-.269-.762,5.3,5.3,0,0,1-.161-.82,3.908,3.908,0,0,1-1.162,1.279,2.913,2.913,0,0,1-1.719.508,3.568,3.568,0,0,1-2.559-.854,3.061,3.061,0,0,1-.9-2.329,2.786,2.786,0,0,1,1.2-2.407,5.974,5.974,0,0,1,3.491-.854h1.6v-.84a1.644,1.644,0,0,0-.4-1.182,1.572,1.572,0,0,0-1.191-.42,1.549,1.549,0,0,0-1.069.337,1.176,1.176,0,0,0-.376.923h-2.744l-.02-.059A2.68,2.68,0,0,1,121.6,9.21a5.069,5.069,0,0,1,3.228-.972,4.73,4.73,0,0,1,3.081.957,3.333,3.333,0,0,1,1.177,2.744V16.3a8.256,8.256,0,0,0,.112,1.4,7.008,7.008,0,0,0,.356,1.3ZM124.1,17.1a2.429,2.429,0,0,0,1.328-.371,2,2,0,0,0,.8-.859V14.371h-1.6a1.9,1.9,0,0,0-1.372.449,1.476,1.476,0,0,0-.464,1.1,1.1,1.1,0,0,0,.347.854A1.371,1.371,0,0,0,124.1,17.1Z" transform="translate(3904 18945.041)" fill="#12263f"/>
      <path id="Trazado_717509" data-name="Trazado 717509" d="M26.828,15.289a1.663,1.663,0,0,0-.571-1.318,5.74,5.74,0,0,0-2.007-.937,11.4,11.4,0,0,1-3.735-1.748A3.308,3.308,0,0,1,19.24,8.541a3.451,3.451,0,0,1,1.436-2.856,5.818,5.818,0,0,1,3.662-1.108,5.777,5.777,0,0,1,3.8,1.191,3.727,3.727,0,0,1,1.392,3.125l-.02.059H26.75a2.071,2.071,0,0,0-.645-1.636A2.632,2.632,0,0,0,24.3,6.744a2.387,2.387,0,0,0-1.631.508,1.654,1.654,0,0,0-.576,1.3,1.419,1.419,0,0,0,.625,1.187,8.361,8.361,0,0,0,2.158.981,9.286,9.286,0,0,1,3.574,1.733,3.551,3.551,0,0,1,1.23,2.817,3.391,3.391,0,0,1-1.426,2.881,6.19,6.19,0,0,1-3.77,1.055,6.735,6.735,0,0,1-3.94-1.143,3.769,3.769,0,0,1-1.6-3.408l.02-.059H21.73a2.237,2.237,0,0,0,.742,1.855,3.125,3.125,0,0,0,2.012.6,2.746,2.746,0,0,0,1.743-.479A1.552,1.552,0,0,0,26.828,15.289Zm9.316,3.916a4.754,4.754,0,0,1-3.691-1.45,5.315,5.315,0,0,1-1.328-3.735v-.391a5.785,5.785,0,0,1,1.289-3.887,4.382,4.382,0,0,1,3.545-1.5,4.1,4.1,0,0,1,3.267,1.3,5.152,5.152,0,0,1,1.138,3.511v1.475h-6.3l-.029.059a2.855,2.855,0,0,0,.659,1.758,2.207,2.207,0,0,0,1.753.674,5.865,5.865,0,0,0,1.626-.2,6.634,6.634,0,0,0,1.382-.6l.771,1.758a5.293,5.293,0,0,1-1.719.869A7.622,7.622,0,0,1,36.145,19.205Zm-.186-8.77a1.584,1.584,0,0,0-1.323.591,2.964,2.964,0,0,0-.562,1.567l.02.049H37.57v-.215a2.468,2.468,0,0,0-.381-1.46A1.409,1.409,0,0,0,35.959,10.436Zm10.479,6.582a1.587,1.587,0,0,0,1.182-.444,1.614,1.614,0,0,0,.439-1.187h2.6l.02.059a3.307,3.307,0,0,1-1.191,2.681,4.455,4.455,0,0,1-3.047,1.079,4.5,4.5,0,0,1-3.623-1.5,5.7,5.7,0,0,1-1.279-3.833V13.58A5.735,5.735,0,0,1,42.81,9.747a4.463,4.463,0,0,1,3.608-1.509,4.358,4.358,0,0,1,3.115,1.113,3.72,3.72,0,0,1,1.143,2.93l-.02.059h-2.6a2.109,2.109,0,0,0-.435-1.362,1.46,1.46,0,0,0-1.206-.542,1.627,1.627,0,0,0-1.567.884,4.847,4.847,0,0,0-.464,2.261v.293a4.829,4.829,0,0,0,.464,2.275A1.649,1.649,0,0,0,46.438,17.018Zm11.455-6.133-1.045-.029a1.9,1.9,0,0,0-1.045.264,1.671,1.671,0,0,0-.625.742V19H52.336V8.434h2.646L55.109,10A3.333,3.333,0,0,1,56.071,8.7a2.247,2.247,0,0,1,1.758-.43q.181.034.366.083Zm5.879,8.32a4.754,4.754,0,0,1-3.691-1.45,5.315,5.315,0,0,1-1.328-3.735v-.391a5.785,5.785,0,0,1,1.289-3.887,4.382,4.382,0,0,1,3.545-1.5,4.1,4.1,0,0,1,3.267,1.3,5.152,5.152,0,0,1,1.138,3.511v1.475h-6.3l-.029.059a2.855,2.855,0,0,0,.659,1.758,2.207,2.207,0,0,0,1.753.674,5.865,5.865,0,0,0,1.626-.2,6.634,6.634,0,0,0,1.382-.6l.771,1.758a5.293,5.293,0,0,1-1.719.869A7.622,7.622,0,0,1,63.771,19.205Zm-.186-8.77a1.584,1.584,0,0,0-1.323.591,2.964,2.964,0,0,0-.562,1.567l.02.049H65.2v-.215a2.468,2.468,0,0,0-.381-1.46A1.409,1.409,0,0,0,63.586,10.436Zm9.482-4.59V8.434h1.787v2H73.068v5.381a1.228,1.228,0,0,0,.259.879.909.909,0,0,0,.679.264,2.722,2.722,0,0,0,.391-.024,3.29,3.29,0,0,0,.381-.083l.234,2.061a5.773,5.773,0,0,1-.835.22,4.978,4.978,0,0,1-.884.073,3.039,3.039,0,0,1-2.271-.811,3.554,3.554,0,0,1-.8-2.568V10.436H68.684v-2h1.543V5.846ZM79.611,19H76.76V8.434h2.852Zm0-13.1H76.76V3.766h2.852Zm4.951,2.529.127,1.514a3.865,3.865,0,0,1,1.3-1.26,3.372,3.372,0,0,1,1.729-.449,3.142,3.142,0,0,1,2.5,1.03,4.884,4.884,0,0,1,.9,3.257V19H88.254V12.535a2.529,2.529,0,0,0-.4-1.606,1.458,1.458,0,0,0-1.187-.474,2.49,2.49,0,0,0-1.118.239,2.183,2.183,0,0,0-.8.659V19H81.906V8.434ZM99.475,19a6,6,0,0,1-.269-.762,5.3,5.3,0,0,1-.161-.82A3.908,3.908,0,0,1,97.883,18.7a2.913,2.913,0,0,1-1.719.508,3.568,3.568,0,0,1-2.559-.854,3.061,3.061,0,0,1-.9-2.329,2.786,2.786,0,0,1,1.2-2.407,5.974,5.974,0,0,1,3.491-.854H99v-.84a1.644,1.644,0,0,0-.4-1.182,1.572,1.572,0,0,0-1.191-.42,1.549,1.549,0,0,0-1.069.337,1.176,1.176,0,0,0-.376.923H93.215l-.02-.059a2.68,2.68,0,0,1,1.167-2.31,5.069,5.069,0,0,1,3.228-.972,4.73,4.73,0,0,1,3.081.957,3.333,3.333,0,0,1,1.177,2.744V16.3a8.256,8.256,0,0,0,.112,1.4,7.008,7.008,0,0,0,.356,1.3Zm-2.607-1.9a2.429,2.429,0,0,0,1.328-.371,2,2,0,0,0,.8-.859V14.371h-1.6a1.9,1.9,0,0,0-1.372.449,1.476,1.476,0,0,0-.464,1.1,1.1,1.1,0,0,0,.347.854A1.371,1.371,0,0,0,96.867,17.1Z" transform="translate(4134 18945.041)" fill="#12263f"/>
      <path id="Trazado_122906" data-name="Trazado 122906" d="M32.586,39.621A87.177,87.177,0,0,1,20.5,35.242,114.763,114.763,0,0,1,8.822,29.215a18.945,18.945,0,0,1-4.444-3.478A26.011,26.011,0,0,0,.433,21.624c-.87-.6-.326-2.216.72-1.869.133.043.248.111.376.164,3.653-1.712,7.176-3.836,10.684-5.875,3.282-1.908,6.623-3.679,9.792-5.809,5.281-3.55,11.5-8.719,18.065-8.2,2.9.231,5.564,1.882,7.821,3.8,2.607,2.214,4.58,5.738,7.977,6.533,5.749,1.345,11.472-1.92,17.211-1.931,3.589-.005,9.237.454,10.435,5.051C84.9,18.8,80.577,23.758,76.585,25.81a41.942,41.942,0,0,1-7.564,2.736,21.6,21.6,0,0,0-8.283,3.927c-2.5,2.055-4.7,4.519-7.271,6.489a14.5,14.5,0,0,1-9.291,3C40.289,41.91,36.321,40.69,32.586,39.621Z" transform="translate(4409.588 18944.025) rotate(-11)" fill="#add031"/>
      <path id="Trazado_122907" data-name="Trazado 122907" d="M82.434.739c-4.985,1.28-9.814,3.115-14.854,4.2A142.005,142.005,0,0,1,51.818,7.27c-5.486.544-11,.525-16.5.872a102.772,102.772,0,0,1-16.593-.164C12.628,7.386,6.575,6.914.557,5.757c-.724-.138-.76-1.39,0-1.5,2.364-.336,4.784.64,7.129.913,2.824.327,5.639.507,8.471.743a117.842,117.842,0,0,0,16.2.613C43.282,5.95,54.363,6.066,65.191,4.3,70.982,3.363,76.5,1.232,82.233.01c.473-.1.676.607.2.729Z" transform="translate(4411.962 18959.379) rotate(-11)" fill="#36753c"/>
      <path id="Trazado_122908" data-name="Trazado 122908" d="M23.474.671A75.84,75.84,0,0,0,5.5,13.311c-.834.8-1.642,1.621-2.448,2.448a9.828,9.828,0,0,1-2.6,2.276c-.211.1-.525-.068-.432-.332a6.943,6.943,0,0,1,1.745-2.383c.887-.929,1.835-1.806,2.787-2.669,1.829-1.659,3.71-3.261,5.666-4.768A64.548,64.548,0,0,1,23.1.036c.424-.19.8.424.371.635Z" transform="translate(4429.814 18942.893) rotate(-11)" fill="#36753c"/>
      <path id="Trazado_122909" data-name="Trazado 122909" d="M.541.067A82.866,82.866,0,0,0,11.023,7.023,42.822,42.822,0,0,0,16.91,9.614c2.031.714,4.15,1.171,6.138,1.991a.285.285,0,0,1-.075.557,17.4,17.4,0,0,1-6.231-1.224,45.1,45.1,0,0,1-6.052-2.6A40.8,40.8,0,0,1,.1.644C-.181.357.194-.19.541.067Z" transform="translate(4443.081 18962.857) rotate(-11)" fill="#36753c"/>
      <path id="Trazado_122910" data-name="Trazado 122910" d="M12.6.625A31.584,31.584,0,0,0,6.045,4.256c-1.032.715-2.012,1.486-2.967,2.3-.482.41-.956.828-1.428,1.249a3.712,3.712,0,0,1-1.291.958c-.272.083-.424-.213-.332-.431a3.938,3.938,0,0,1,1.2-1.244q.721-.621,1.457-1.224c.992-.811,2-1.609,3.038-2.365A23.185,23.185,0,0,1,12.433.017c.393-.124.539.466.168.608Z" transform="translate(4472.581 18943.229) rotate(-11)" fill="#36753c"/>
      <path id="Trazado_122911" data-name="Trazado 122911" d="M19.153,2.884c-3.38.048-6.756.324-10.131.052A26.731,26.731,0,0,1,4.31,2.2,21.212,21.212,0,0,1,1.886,1.4,4.645,4.645,0,0,1,.065.432C-.068.281.009-.015.243,0a8.707,8.707,0,0,1,2,.671A21.255,21.255,0,0,0,4.559,1.3a40.306,40.306,0,0,0,4.932.727c3.219.277,6.435.379,9.662.421a.221.221,0,0,1,0,.441Z" transform="translate(4463.274 18956.363) rotate(-11)" fill="#36753c"/>
      <path id="Trazado_643915" data-name="Trazado 643915" d="M28.76,150.812c1.2-12.166,3.578-24.271,2.2-36.547a75.584,75.584,0,0,0-3.878-17c-1.784-4.989-4.053-10.239-7.368-14.419-2.655-3.352-6.686-7.573-11.422-6.82-3.972.632-6.562,4.312-7.663,7.916-3.353,10.944,7.455,18.923,13.743,26.182,7.636,8.821,11.363,19.656,12.461,30.976-.586,3.387-.946,6.811.161,9.871a.923.923,0,0,0,1.764-.157" transform="translate(3254 18836.434)" fill="#add031"/>
      <path id="Trazado_643916" data-name="Trazado 643916" d="M36.127,64.823q.064,8.637.547,17.255a158.02,158.02,0,0,0,1.962,16.215c.513,3.258.89,6.518,1.489,9.762.253,1.37.53,2.739.838,4.1.107.482.161,1.46.623,1.787a.765.765,0,0,0,.747.091.629.629,0,0,0,.162.012L42.7,114a.829.829,0,0,0,.343-.237l-.131.117c.116-.1.253-.2.36-.314.064-.068.119-.144.18-.215a4.665,4.665,0,0,1,.385-.4l.1-.084c.717.317,1.724-.038,1.536-1.016-3.642-19.021-.163-38.351,3.877-57a139.482,139.482,0,0,1,4.3-15.71c1.7-4.993,4.213-9.6,6.155-14.5,2.117-5.348,4.872-10.791,5.056-16.662.147-4.7-2.951-8.956-8.095-7.777-5,1.144-8.768,6.371-11.018,10.647C41.776,18.4,39.67,27.309,38.29,35.67a171.539,171.539,0,0,0-2.163,29.153" transform="translate(3254 18836.434)" fill="#add031"/>
      <path id="Trazado_643917" data-name="Trazado 643917" d="M9.809,83.394c8.392,9.742,15.925,21.247,17.773,34.216A92.3,92.3,0,0,1,28,136.084c-.179,3.034-.583,6.034-.95,9.046-.354,2.869-.84,5.842-.151,8.686.1.4.7.294.762-.067.576-3.262.7-6.61,1.165-9.892.455-3.208.725-6.409.864-9.646a86.5,86.5,0,0,0-.754-18.557C26.766,103.218,19.149,91.7,10.266,82.98c-.248-.243-.688.144-.457.414" transform="translate(3254 18836.434)" fill="#4f9638"/>
      <path id="Trazado_643918" data-name="Trazado 643918" d="M58.764,3.375c-2.381,1.849-3.618,4.591-4.869,7.258-1.6,3.421-3.5,6.677-5.047,10.127-3.233,7.2-5.124,14.885-6.745,22.583a192.609,192.609,0,0,0-4.115,46.293c.256,7.825.8,16.48,4.452,23.534.285.553,1.023.048.9-.465-1.719-6.932-3.259-13.671-3.436-20.844-.183-7.378-.238-14.732.279-22.1.508-7.255,1.6-14.387,2.824-21.549,1.289-7.564,2.607-15.2,5.112-22.477A67.58,67.58,0,0,1,53.479,14.2c1.883-3.294,2.851-7.5,5.88-9.972.516-.422-.06-1.275-.593-.857Z" transform="translate(3254 18836.434)" fill="#4f9638"/>
      <path id="Trazado_717510" data-name="Trazado 717510" d="M0,0H64.872V154.072H0Z" transform="translate(3254 18836.434)" fill="none"/>
    </g>
  </g>
</svg>
