<svg xmlns="http://www.w3.org/2000/svg" width="252" height="196" viewBox="0 0 252 196">
  <g id="Grupo_1017946" data-name="Grupo 1017946" transform="translate(-4137 -17320.438)">
    <path id="Trazado_717451" data-name="Trazado 717451" d="M21.1,10H16.879v3.25h5.016V15H14.6V3.625h7.281V5.383h-5V8.242H21.1Zm4.68.875V15H23.5V3.625h4.352a4.48,4.48,0,0,1,3.086,1,3.353,3.353,0,0,1,1.125,2.633,3.329,3.329,0,0,1-1.125,2.625,4.5,4.5,0,0,1-3.086.992Zm0-1.758h2.07a1.9,1.9,0,0,0,1.445-.52,1.848,1.848,0,0,0,.492-1.324A1.934,1.934,0,0,0,29.3,5.918a1.864,1.864,0,0,0-1.449-.535h-2.07ZM32.895,15H30.613V13h2.281Zm0-6.844H30.613v-2h2.281Zm6.156,2.227a10.458,10.458,0,0,1,1.242-5.258A7.19,7.19,0,0,1,42.9,2.219l.047.008.3.906a6.665,6.665,0,0,0-1.863,2.68,11.54,11.54,0,0,0-.793,4.555v.1a11.591,11.591,0,0,0,.789,4.555,7.25,7.25,0,0,0,1.867,2.75l-.3.844H42.9a7.193,7.193,0,0,1-2.609-2.9,10.452,10.452,0,0,1-1.242-5.262ZM44.871,15V7.688H43.543V6.547h1.328V5.477a2.911,2.911,0,0,1,.7-2.09,2.589,2.589,0,0,1,1.969-.738,3.4,3.4,0,0,1,.535.043q.27.043.6.121l-.187,1.172q-.141-.031-.34-.055a3.509,3.509,0,0,0-.41-.023,1.213,1.213,0,0,0-1,.4,1.825,1.825,0,0,0-.324,1.168v1.07h1.531V7.688H46.41V15Zm8.109.164A3.8,3.8,0,0,1,50.023,14a4.36,4.36,0,0,1-1.066-3.059v-.344a4.386,4.386,0,0,1,1.051-3.012,3.3,3.3,0,0,1,2.566-1.191,3.067,3.067,0,0,1,2.543,1.055,4.345,4.345,0,0,1,.848,2.8v.813H50.559l-.016.039a3.281,3.281,0,0,0,.6,2.063,2.164,2.164,0,0,0,1.84.8A3.76,3.76,0,0,0,54.2,13.8a8.108,8.108,0,0,0,1.07-.488l.383,1.086a4.459,4.459,0,0,1-1.027.535A4.749,4.749,0,0,1,52.98,15.164ZM52.574,7.6a1.673,1.673,0,0,0-1.332.621,2.938,2.938,0,0,0-.645,1.59l.016.039h3.813V9.727A2.462,2.462,0,0,0,53.973,8.2,1.638,1.638,0,0,0,52.574,7.6Zm8.477,6.359a1.81,1.81,0,0,0,1.242-.473,1.494,1.494,0,0,0,.531-1.16h1.391l.023.047a2.428,2.428,0,0,1-.937,1.941,3.582,3.582,0,0,1-5-.363,4.674,4.674,0,0,1-.969-3.016v-.328a4.654,4.654,0,0,1,.973-3,3.317,3.317,0,0,1,2.746-1.215,3.189,3.189,0,0,1,2.316.875,2.775,2.775,0,0,1,.871,2.148l-.016.047h-1.4a1.865,1.865,0,0,0-.5-1.316,1.658,1.658,0,0,0-1.27-.543A1.777,1.777,0,0,0,59.4,8.48a4.114,4.114,0,0,0-.52,2.129v.328a4.192,4.192,0,0,0,.512,2.148A1.776,1.776,0,0,0,61.051,13.961ZM67.605,7.68A3.119,3.119,0,0,1,68.68,6.73a2.947,2.947,0,0,1,1.41-.34A2.73,2.73,0,0,1,72.2,7.2a3.575,3.575,0,0,1,.754,2.5V15H71.41V9.688a2.263,2.263,0,0,0-.449-1.547,1.709,1.709,0,0,0-1.34-.5,2.514,2.514,0,0,0-1.2.27,2.174,2.174,0,0,0-.82.754V15H66.066V2.813h1.539ZM80.355,15q-.078-.383-.121-.676a4.96,4.96,0,0,1-.051-.59,3.589,3.589,0,0,1-1.121,1.02,2.867,2.867,0,0,1-1.488.41,2.763,2.763,0,0,1-2.012-.676,2.486,2.486,0,0,1-.691-1.863,2.183,2.183,0,0,1,.98-1.895,4.579,4.579,0,0,1,2.66-.684h1.672V9.211a1.551,1.551,0,0,0-.453-1.176A1.779,1.779,0,0,0,78.449,7.6a1.859,1.859,0,0,0-1.211.375,1.125,1.125,0,0,0-.461.9l-1.461.016L75.3,8.844a2.023,2.023,0,0,1,.863-1.687,3.578,3.578,0,0,1,2.371-.766,3.49,3.49,0,0,1,2.313.73,2.588,2.588,0,0,1,.875,2.105V13.3a7.923,7.923,0,0,0,.047.875,4.5,4.5,0,0,0,.172.828ZM77.8,13.875a2.739,2.739,0,0,0,1.508-.43,2.042,2.042,0,0,0,.875-.984V11.086H78.457a2.24,2.24,0,0,0-1.488.469,1.4,1.4,0,0,0-.559,1.1,1.159,1.159,0,0,0,.352.891A1.472,1.472,0,0,0,77.8,13.875Zm9.781-2.945a5.641,5.641,0,0,1,.871-3.289,2.807,2.807,0,0,1,2.441-1.25,3.027,3.027,0,0,1,1.316.273,2.7,2.7,0,0,1,.98.8V2.813H94.73V15h-1.18l-.234-1.07a2.743,2.743,0,0,1-1.023.922,3.058,3.058,0,0,1-1.414.313,2.9,2.9,0,0,1-2.422-1.121,4.659,4.659,0,0,1-.875-2.949Zm1.539.164a3.588,3.588,0,0,0,.523,2.051,1.828,1.828,0,0,0,1.625.77,2.039,2.039,0,0,0,1.156-.312,2.334,2.334,0,0,0,.766-.875V8.781a2.37,2.37,0,0,0-.77-.832,2.033,2.033,0,0,0-1.137-.309,1.759,1.759,0,0,0-1.637.914,4.718,4.718,0,0,0-.527,2.375Zm11.57,4.07A3.8,3.8,0,0,1,97.734,14a4.36,4.36,0,0,1-1.066-3.059v-.344a4.386,4.386,0,0,1,1.051-3.012,3.3,3.3,0,0,1,2.566-1.191,3.067,3.067,0,0,1,2.543,1.055,4.345,4.345,0,0,1,.848,2.8v.813H98.27l-.016.039a3.281,3.281,0,0,0,.6,2.063,2.164,2.164,0,0,0,1.84.8,3.76,3.76,0,0,0,1.219-.16,8.108,8.108,0,0,0,1.07-.488l.383,1.086a4.459,4.459,0,0,1-1.027.535A4.749,4.749,0,0,1,100.691,15.164ZM100.285,7.6a1.673,1.673,0,0,0-1.332.621,2.938,2.938,0,0,0-.645,1.59l.016.039h3.813V9.727a2.462,2.462,0,0,0-.453-1.523A1.638,1.638,0,0,0,100.285,7.6Zm10.469-1.055.109,1.258a3.069,3.069,0,0,1,1.059-1.043,2.824,2.824,0,0,1,1.449-.371,2.759,2.759,0,0,1,2.117.8,3.515,3.515,0,0,1,.75,2.473V15H114.7V9.7a2.287,2.287,0,0,0-.441-1.586,1.768,1.768,0,0,0-1.348-.469,2.386,2.386,0,0,0-1.207.285,2.072,2.072,0,0,0-.785.8V15h-1.539V6.547ZM123.668,15q-.078-.383-.121-.676a4.96,4.96,0,0,1-.051-.59,3.589,3.589,0,0,1-1.121,1.02,2.867,2.867,0,0,1-1.488.41,2.763,2.763,0,0,1-2.012-.676,2.486,2.486,0,0,1-.691-1.863,2.183,2.183,0,0,1,.98-1.895,4.579,4.579,0,0,1,2.66-.684H123.5V9.211a1.551,1.551,0,0,0-.453-1.176,1.779,1.779,0,0,0-1.281-.434,1.859,1.859,0,0,0-1.211.375,1.125,1.125,0,0,0-.461.9l-1.461.016-.016-.047a2.023,2.023,0,0,1,.863-1.687,3.578,3.578,0,0,1,2.371-.766,3.49,3.49,0,0,1,2.313.73,2.588,2.588,0,0,1,.875,2.105V13.3a7.923,7.923,0,0,0,.047.875,4.5,4.5,0,0,0,.172.828Zm-2.555-1.125a2.739,2.739,0,0,0,1.508-.43,2.042,2.042,0,0,0,.875-.984V11.086H121.77a2.24,2.24,0,0,0-1.488.469,1.4,1.4,0,0,0-.559,1.1,1.159,1.159,0,0,0,.352.891A1.472,1.472,0,0,0,121.113,13.875Zm9.516.086a1.81,1.81,0,0,0,1.242-.473,1.493,1.493,0,0,0,.531-1.16h1.391l.023.047a2.428,2.428,0,0,1-.937,1.941,3.582,3.582,0,0,1-5-.363,4.674,4.674,0,0,1-.969-3.016v-.328a4.654,4.654,0,0,1,.973-3,3.317,3.317,0,0,1,2.746-1.215,3.189,3.189,0,0,1,2.316.875,2.775,2.775,0,0,1,.871,2.148l-.016.047h-1.4a1.865,1.865,0,0,0-.5-1.316,1.658,1.658,0,0,0-1.27-.543,1.777,1.777,0,0,0-1.652.879,4.114,4.114,0,0,0-.52,2.129v.328a4.192,4.192,0,0,0,.512,2.148A1.776,1.776,0,0,0,130.629,13.961ZM137.309,15H135.77V6.547h1.539Zm0-10.617H135.77V2.813h1.539Zm3.742,2.164.109,1.109a2.871,2.871,0,0,1,1.051-.934,3.158,3.158,0,0,1,1.48-.332,2.615,2.615,0,0,1,1.449.391,2.363,2.363,0,0,1,.91,1.172,3.162,3.162,0,0,1,1.059-1.145,2.769,2.769,0,0,1,1.527-.418,2.531,2.531,0,0,1,2.039.887,4.051,4.051,0,0,1,.75,2.668V15h-1.539V9.93a2.81,2.81,0,0,0-.43-1.77,1.567,1.567,0,0,0-1.281-.52,1.631,1.631,0,0,0-1.277.547,2.381,2.381,0,0,0-.574,1.383V15h-1.547V9.93a2.772,2.772,0,0,0-.441-1.738,1.532,1.532,0,0,0-1.27-.551,2.115,2.115,0,0,0-1.156.289,1.867,1.867,0,0,0-.7.813V15h-1.539V6.547ZM155.324,15h-1.539V6.547h1.539Zm0-10.617h-1.539V2.813h1.539Zm6.031,10.781A3.8,3.8,0,0,1,158.4,14a4.36,4.36,0,0,1-1.066-3.059v-.344a4.386,4.386,0,0,1,1.051-3.012,3.3,3.3,0,0,1,2.566-1.191,3.067,3.067,0,0,1,2.543,1.055,4.345,4.345,0,0,1,.848,2.8v.813h-5.406l-.016.039a3.281,3.281,0,0,0,.6,2.063,2.164,2.164,0,0,0,1.84.8,3.76,3.76,0,0,0,1.219-.16,8.108,8.108,0,0,0,1.07-.488l.383,1.086a4.459,4.459,0,0,1-1.027.535A4.749,4.749,0,0,1,161.355,15.164ZM160.949,7.6a1.673,1.673,0,0,0-1.332.621,2.938,2.938,0,0,0-.645,1.59l.016.039H162.8V9.727a2.462,2.462,0,0,0-.453-1.523A1.638,1.638,0,0,0,160.949,7.6Zm6.492-1.055.109,1.258a3.069,3.069,0,0,1,1.059-1.043,2.824,2.824,0,0,1,1.449-.371,2.759,2.759,0,0,1,2.117.8,3.515,3.515,0,0,1,.75,2.473V15h-1.539V9.7a2.287,2.287,0,0,0-.441-1.586,1.768,1.768,0,0,0-1.348-.469,2.386,2.386,0,0,0-1.207.285,2.072,2.072,0,0,0-.785.8V15h-1.539V6.547Zm9.68-2.039V6.547h1.6V7.688h-1.6V12.82a1.149,1.149,0,0,0,.246.836.89.89,0,0,0,.652.242,1.54,1.54,0,0,0,.293-.031,1.793,1.793,0,0,0,.285-.078l.211,1.055a1.446,1.446,0,0,1-.516.23,2.562,2.562,0,0,1-.664.09,2,2,0,0,1-1.488-.566,2.449,2.449,0,0,1-.559-1.777V7.688h-1.336V6.547h1.336V4.508ZM179.9,10.7a4.654,4.654,0,0,1,1.016-3.09,3.764,3.764,0,0,1,5.535,0,4.639,4.639,0,0,1,1.02,3.094v.172a4.631,4.631,0,0,1-1.016,3.094,3.781,3.781,0,0,1-5.535,0,4.623,4.623,0,0,1-1.02-3.09Zm1.539.172a4.009,4.009,0,0,0,.566,2.219,2.046,2.046,0,0,0,3.355,0,3.988,3.988,0,0,0,.57-2.219V10.7a3.976,3.976,0,0,0-.574-2.211,1.882,1.882,0,0,0-1.684-.883,1.856,1.856,0,0,0-1.668.883,4.018,4.018,0,0,0-.566,2.211Zm12.711-.07h-4.609v-1.2h4.609ZM38.637,39V31.688H37.309V30.547h1.328v-1.07a2.911,2.911,0,0,1,.7-2.09,2.589,2.589,0,0,1,1.969-.738,3.4,3.4,0,0,1,.535.043q.27.043.6.121l-.187,1.172q-.141-.031-.34-.055a3.509,3.509,0,0,0-.41-.023,1.213,1.213,0,0,0-1,.4,1.825,1.825,0,0,0-.324,1.168v1.07h1.531v1.141H40.176V39Zm8.109.164A3.8,3.8,0,0,1,43.789,38a4.36,4.36,0,0,1-1.066-3.059v-.344a4.386,4.386,0,0,1,1.051-3.012,3.3,3.3,0,0,1,2.566-1.191,3.067,3.067,0,0,1,2.543,1.055,4.345,4.345,0,0,1,.848,2.8v.813H44.324l-.016.039a3.281,3.281,0,0,0,.6,2.063,2.164,2.164,0,0,0,1.84.8,3.76,3.76,0,0,0,1.219-.16,8.108,8.108,0,0,0,1.07-.488l.383,1.086a4.459,4.459,0,0,1-1.027.535A4.749,4.749,0,0,1,46.746,39.164ZM46.34,31.6a1.673,1.673,0,0,0-1.332.621,2.938,2.938,0,0,0-.645,1.59l.016.039h3.813v-.125a2.462,2.462,0,0,0-.453-1.523A1.638,1.638,0,0,0,46.34,31.6Zm8.477,6.359a1.81,1.81,0,0,0,1.242-.473,1.494,1.494,0,0,0,.531-1.16H57.98l.023.047a2.428,2.428,0,0,1-.937,1.941,3.582,3.582,0,0,1-5-.363,4.674,4.674,0,0,1-.969-3.016v-.328a4.654,4.654,0,0,1,.973-3,3.317,3.317,0,0,1,2.746-1.215,3.189,3.189,0,0,1,2.316.875A2.775,2.775,0,0,1,58,33.414l-.016.047h-1.4a1.865,1.865,0,0,0-.5-1.316,1.658,1.658,0,0,0-1.27-.543,1.777,1.777,0,0,0-1.652.879,4.114,4.114,0,0,0-.52,2.129v.328a4.192,4.192,0,0,0,.512,2.148A1.776,1.776,0,0,0,54.816,37.961Zm6.555-6.281a3.119,3.119,0,0,1,1.074-.949,2.947,2.947,0,0,1,1.41-.34,2.73,2.73,0,0,1,2.105.813,3.575,3.575,0,0,1,.754,2.5V39H65.176V33.688a2.263,2.263,0,0,0-.449-1.547,1.709,1.709,0,0,0-1.34-.5,2.514,2.514,0,0,0-1.2.27,2.174,2.174,0,0,0-.82.754V39H59.832V26.813h1.539ZM74.121,39q-.078-.383-.121-.676a4.96,4.96,0,0,1-.051-.59,3.589,3.589,0,0,1-1.121,1.02,2.867,2.867,0,0,1-1.488.41,2.763,2.763,0,0,1-2.012-.676,2.486,2.486,0,0,1-.691-1.863,2.183,2.183,0,0,1,.98-1.895,4.579,4.579,0,0,1,2.66-.684h1.672v-.836a1.551,1.551,0,0,0-.453-1.176,1.779,1.779,0,0,0-1.281-.434A1.859,1.859,0,0,0,71,31.977a1.125,1.125,0,0,0-.461.9l-1.461.016-.016-.047a2.023,2.023,0,0,1,.863-1.687,3.578,3.578,0,0,1,2.371-.766,3.49,3.49,0,0,1,2.313.73,2.588,2.588,0,0,1,.875,2.105V37.3a7.923,7.923,0,0,0,.047.875,4.5,4.5,0,0,0,.172.828Zm-2.555-1.125a2.739,2.739,0,0,0,1.508-.43,2.042,2.042,0,0,0,.875-.984V35.086H72.223a2.24,2.24,0,0,0-1.488.469,1.4,1.4,0,0,0-.559,1.1,1.159,1.159,0,0,0,.352.891A1.472,1.472,0,0,0,71.566,37.875Zm9.781-2.945a5.641,5.641,0,0,1,.871-3.289,2.807,2.807,0,0,1,2.441-1.25,3.027,3.027,0,0,1,1.316.273,2.7,2.7,0,0,1,.98.8V26.813H88.5V39h-1.18l-.234-1.07a2.743,2.743,0,0,1-1.023.922,3.058,3.058,0,0,1-1.414.313,2.9,2.9,0,0,1-2.422-1.121,4.659,4.659,0,0,1-.875-2.949Zm1.539.164a3.588,3.588,0,0,0,.523,2.051,1.828,1.828,0,0,0,1.625.77,2.039,2.039,0,0,0,1.156-.312,2.334,2.334,0,0,0,.766-.875V32.781a2.37,2.37,0,0,0-.77-.832,2.033,2.033,0,0,0-1.137-.309,1.759,1.759,0,0,0-1.637.914,4.718,4.718,0,0,0-.527,2.375Zm11.57,4.07A3.8,3.8,0,0,1,91.5,38a4.36,4.36,0,0,1-1.066-3.059v-.344a4.386,4.386,0,0,1,1.051-3.012,3.3,3.3,0,0,1,2.566-1.191,3.067,3.067,0,0,1,2.543,1.055,4.345,4.345,0,0,1,.848,2.8v.813H92.035l-.016.039a3.281,3.281,0,0,0,.6,2.063,2.164,2.164,0,0,0,1.84.8,3.76,3.76,0,0,0,1.219-.16,8.108,8.108,0,0,0,1.07-.488l.383,1.086a4.459,4.459,0,0,1-1.027.535A4.749,4.749,0,0,1,94.457,39.164ZM94.051,31.6a1.673,1.673,0,0,0-1.332.621,2.938,2.938,0,0,0-.645,1.59l.016.039H95.9v-.125a2.462,2.462,0,0,0-.453-1.523A1.638,1.638,0,0,0,94.051,31.6Zm16.3,3.492a4.659,4.659,0,0,1-.875,2.949,2.893,2.893,0,0,1-2.414,1.121,3.354,3.354,0,0,1-1.371-.262,2.622,2.622,0,0,1-1-.785V42.25h-1.539v-11.7h1.18l.242,1.094a2.792,2.792,0,0,1,1.031-.93,3.078,3.078,0,0,1,1.438-.32,2.809,2.809,0,0,1,2.441,1.246,5.638,5.638,0,0,1,.871,3.293Zm-1.539-.164a4.467,4.467,0,0,0-.566-2.363,1.835,1.835,0,0,0-1.668-.926,2.053,2.053,0,0,0-1.133.3,2.25,2.25,0,0,0-.758.824v4.086a2.186,2.186,0,0,0,.758.816,2.126,2.126,0,0,0,1.148.293,1.894,1.894,0,0,0,1.656-.8,3.516,3.516,0,0,0,.563-2.066Zm8.8,2.813a2.884,2.884,0,0,1-1.027,1.051,2.783,2.783,0,0,1-1.441.371,2.716,2.716,0,0,1-2.156-.883,4.1,4.1,0,0,1-.773-2.75V30.547h1.539v5a3.147,3.147,0,0,0,.4,1.859,1.481,1.481,0,0,0,1.242.508,2.508,2.508,0,0,0,1.355-.336,2.094,2.094,0,0,0,.809-.953V30.547h1.539V39h-1.383Zm10.945-2.648a4.645,4.645,0,0,1-.879,2.949,2.9,2.9,0,0,1-2.418,1.121,3.064,3.064,0,0,1-1.465-.332,2.719,2.719,0,0,1-1.027-.98L122.512,39h-1.18V26.813h1.539v4.734a2.671,2.671,0,0,1,.988-.859,3.03,3.03,0,0,1,1.379-.3,2.809,2.809,0,0,1,2.438,1.25,5.622,5.622,0,0,1,.875,3.289Zm-1.539-.164a4.666,4.666,0,0,0-.535-2.371,1.762,1.762,0,0,0-1.629-.918,2.014,2.014,0,0,0-1.2.348,2.452,2.452,0,0,0-.777.934v3.664a2.517,2.517,0,0,0,.777.977,2,2,0,0,0,1.215.352,1.829,1.829,0,0,0,1.617-.773,3.552,3.552,0,0,0,.531-2.047Zm7.078,4.234A3.8,3.8,0,0,1,131.133,38a4.36,4.36,0,0,1-1.066-3.059v-.344a4.386,4.386,0,0,1,1.051-3.012,3.3,3.3,0,0,1,2.566-1.191,3.067,3.067,0,0,1,2.543,1.055,4.345,4.345,0,0,1,.848,2.8v.813h-5.406l-.016.039a3.281,3.281,0,0,0,.6,2.063,2.164,2.164,0,0,0,1.84.8,3.76,3.76,0,0,0,1.219-.16,8.108,8.108,0,0,0,1.07-.488l.383,1.086a4.459,4.459,0,0,1-1.027.535A4.749,4.749,0,0,1,134.09,39.164Zm-.406-7.562a1.673,1.673,0,0,0-1.332.621,2.938,2.938,0,0,0-.645,1.59l.016.039h3.813v-.125a2.462,2.462,0,0,0-.453-1.523A1.638,1.638,0,0,0,133.684,31.6Zm9.117.3-.789-.047a1.762,1.762,0,0,0-1.027.289,1.855,1.855,0,0,0-.645.813V39H138.8V30.547h1.375l.109,1.313a2.968,2.968,0,0,1,.891-1.078,2.074,2.074,0,0,1,1.25-.391,1.9,1.9,0,0,1,.328.027,2.174,2.174,0,0,1,.258.059Zm3.828-3.4v2.039h1.6v1.141h-1.6V36.82a1.149,1.149,0,0,0,.246.836.89.89,0,0,0,.652.242,1.54,1.54,0,0,0,.293-.031,1.793,1.793,0,0,0,.285-.078l.211,1.055a1.446,1.446,0,0,1-.516.23,2.562,2.562,0,0,1-.664.09,2,2,0,0,1-1.488-.566,2.449,2.449,0,0,1-.559-1.777V31.688h-1.336V30.547h1.336V28.508ZM154.965,39q-.078-.383-.121-.676a4.96,4.96,0,0,1-.051-.59,3.588,3.588,0,0,1-1.121,1.02,2.867,2.867,0,0,1-1.488.41,2.763,2.763,0,0,1-2.012-.676,2.486,2.486,0,0,1-.691-1.863,2.183,2.183,0,0,1,.98-1.895,4.579,4.579,0,0,1,2.66-.684h1.672v-.836a1.551,1.551,0,0,0-.453-1.176,1.779,1.779,0,0,0-1.281-.434,1.859,1.859,0,0,0-1.211.375,1.125,1.125,0,0,0-.461.9l-1.461.016-.016-.047a2.023,2.023,0,0,1,.863-1.687,3.578,3.578,0,0,1,2.371-.766,3.49,3.49,0,0,1,2.313.73,2.588,2.588,0,0,1,.875,2.105V37.3a7.923,7.923,0,0,0,.047.875,4.5,4.5,0,0,0,.172.828Zm-2.555-1.125a2.739,2.739,0,0,0,1.508-.43,2.042,2.042,0,0,0,.875-.984V35.086h-1.727a2.24,2.24,0,0,0-1.488.469,1.4,1.4,0,0,0-.559,1.1,1.159,1.159,0,0,0,.352.891A1.472,1.472,0,0,0,152.41,37.875Zm5.8-2.945a5.641,5.641,0,0,1,.871-3.289,2.807,2.807,0,0,1,2.441-1.25,3.027,3.027,0,0,1,1.316.273,2.7,2.7,0,0,1,.98.8V26.813h1.539V39h-1.18l-.234-1.07a2.743,2.743,0,0,1-1.023.922,3.058,3.058,0,0,1-1.414.313,2.9,2.9,0,0,1-2.422-1.121,4.659,4.659,0,0,1-.875-2.949Zm1.539.164a3.588,3.588,0,0,0,.523,2.051,1.828,1.828,0,0,0,1.625.77,2.039,2.039,0,0,0,1.156-.312,2.334,2.334,0,0,0,.766-.875V32.781a2.37,2.37,0,0,0-.77-.832,2.033,2.033,0,0,0-1.137-.309,1.759,1.759,0,0,0-1.637.914,4.718,4.718,0,0,0-.527,2.375Zm11.031-.641a10.426,10.426,0,0,1-1.246,5.262,7.244,7.244,0,0,1-2.605,2.9h-.047l-.3-.844a6.653,6.653,0,0,0,1.855-2.7,11.749,11.749,0,0,0,.8-4.605v-.1a11.354,11.354,0,0,0-.824-4.559,7.532,7.532,0,0,0-1.832-2.746l.3-.844h.047a7.241,7.241,0,0,1,2.605,2.906,10.431,10.431,0,0,1,1.246,5.258ZM75.16,111H73.621l-5.477-8.687-.047.016V111H66.559V99.625H68.1l5.477,8.68.047-.016V99.625H75.16Zm7.8-1.258a2.884,2.884,0,0,1-1.027,1.051,2.782,2.782,0,0,1-1.441.371,2.716,2.716,0,0,1-2.156-.883,4.1,4.1,0,0,1-.773-2.75v-4.984h1.539v5a3.147,3.147,0,0,0,.4,1.859,1.481,1.481,0,0,0,1.242.508,2.508,2.508,0,0,0,1.355-.336,2.094,2.094,0,0,0,.809-.953v-6.078h1.539V111H83.066Zm5.1-7.2.109,1.109a2.871,2.871,0,0,1,1.051-.934,3.158,3.158,0,0,1,1.48-.332,2.615,2.615,0,0,1,1.449.391,2.363,2.363,0,0,1,.91,1.172,3.162,3.162,0,0,1,1.059-1.145,2.769,2.769,0,0,1,1.527-.418,2.531,2.531,0,0,1,2.039.887,4.051,4.051,0,0,1,.75,2.668V111H96.9v-5.07a2.81,2.81,0,0,0-.43-1.77,1.567,1.567,0,0,0-1.281-.52,1.631,1.631,0,0,0-1.277.547,2.381,2.381,0,0,0-.574,1.383V111H91.793v-5.07a2.772,2.772,0,0,0-.441-1.738,1.532,1.532,0,0,0-1.27-.551,2.115,2.115,0,0,0-1.156.289,1.867,1.867,0,0,0-.7.813V111H86.691v-8.453Zm16.273,8.617A3.8,3.8,0,0,1,101.383,110a4.36,4.36,0,0,1-1.066-3.059v-.344a4.386,4.386,0,0,1,1.051-3.012,3.3,3.3,0,0,1,2.566-1.191,3.067,3.067,0,0,1,2.543,1.055,4.345,4.345,0,0,1,.848,2.8v.813h-5.406l-.016.039a3.281,3.281,0,0,0,.6,2.063,2.164,2.164,0,0,0,1.84.8,3.76,3.76,0,0,0,1.219-.16,8.108,8.108,0,0,0,1.07-.488l.383,1.086a4.459,4.459,0,0,1-1.027.535A4.749,4.749,0,0,1,104.34,111.164Zm-.406-7.562a1.673,1.673,0,0,0-1.332.621,2.938,2.938,0,0,0-.645,1.59l.016.039h3.813v-.125a2.462,2.462,0,0,0-.453-1.523A1.638,1.638,0,0,0,103.934,103.6Zm9.117.3-.789-.047a1.762,1.762,0,0,0-1.027.289,1.854,1.854,0,0,0-.645.813V111h-1.539v-8.453h1.375l.109,1.313a2.968,2.968,0,0,1,.891-1.078,2.074,2.074,0,0,1,1.25-.391,1.9,1.9,0,0,1,.328.027,2.174,2.174,0,0,1,.258.059Zm.93,2.789a4.654,4.654,0,0,1,1.016-3.09,3.764,3.764,0,0,1,5.535,0,4.639,4.639,0,0,1,1.02,3.094v.172a4.631,4.631,0,0,1-1.016,3.094,3.781,3.781,0,0,1-5.535,0,4.623,4.623,0,0,1-1.02-3.09Zm1.539.172a4.009,4.009,0,0,0,.566,2.219,2.046,2.046,0,0,0,3.355,0,3.988,3.988,0,0,0,.57-2.219V106.7a3.976,3.976,0,0,0-.574-2.211,1.882,1.882,0,0,0-1.684-.883,1.856,1.856,0,0,0-1.668.883,4.018,4.018,0,0,0-.566,2.211Zm11.539.063a5.641,5.641,0,0,1,.871-3.289,2.807,2.807,0,0,1,2.441-1.25,3.027,3.027,0,0,1,1.316.273,2.7,2.7,0,0,1,.98.8V98.813h1.539V111h-1.18l-.234-1.07a2.743,2.743,0,0,1-1.023.922,3.058,3.058,0,0,1-1.414.313,2.9,2.9,0,0,1-2.422-1.121,4.659,4.659,0,0,1-.875-2.949Zm1.539.164a3.588,3.588,0,0,0,.523,2.051,1.828,1.828,0,0,0,1.625.77,2.039,2.039,0,0,0,1.156-.312,2.334,2.334,0,0,0,.766-.875v-3.945a2.37,2.37,0,0,0-.77-.832,2.033,2.033,0,0,0-1.137-.309,1.759,1.759,0,0,0-1.637.914,4.718,4.718,0,0,0-.527,2.375Zm11.57,4.07A3.8,3.8,0,0,1,137.211,110a4.36,4.36,0,0,1-1.066-3.059v-.344a4.386,4.386,0,0,1,1.051-3.012,3.3,3.3,0,0,1,2.566-1.191,3.067,3.067,0,0,1,2.543,1.055,4.345,4.345,0,0,1,.848,2.8v.813h-5.406l-.016.039a3.281,3.281,0,0,0,.6,2.063,2.164,2.164,0,0,0,1.84.8,3.76,3.76,0,0,0,1.219-.16,8.108,8.108,0,0,0,1.07-.488l.383,1.086a4.459,4.459,0,0,1-1.027.535A4.749,4.749,0,0,1,140.168,111.164Zm-.406-7.562a1.673,1.673,0,0,0-1.332.621,2.938,2.938,0,0,0-.645,1.59l.016.039h3.813v-.125a2.462,2.462,0,0,0-.453-1.523A1.638,1.638,0,0,0,139.762,103.6ZM45.02,127.68a3.119,3.119,0,0,1,1.074-.949,2.947,2.947,0,0,1,1.41-.34,2.73,2.73,0,0,1,2.105.813,3.574,3.574,0,0,1,.754,2.5V135H48.824v-5.312a2.263,2.263,0,0,0-.449-1.547,1.709,1.709,0,0,0-1.34-.5,2.514,2.514,0,0,0-1.2.27,2.174,2.174,0,0,0-.82.754V135H43.48V122.813H45.02Zm11.219,7.484A3.8,3.8,0,0,1,53.281,134a4.36,4.36,0,0,1-1.066-3.059v-.344a4.386,4.386,0,0,1,1.051-3.012,3.3,3.3,0,0,1,2.566-1.191,3.067,3.067,0,0,1,2.543,1.055,4.345,4.345,0,0,1,.848,2.8v.813H53.816l-.016.039a3.281,3.281,0,0,0,.6,2.063,2.164,2.164,0,0,0,1.84.8,3.76,3.76,0,0,0,1.219-.16,8.107,8.107,0,0,0,1.07-.488l.383,1.086a4.459,4.459,0,0,1-1.027.535A4.749,4.749,0,0,1,56.238,135.164Zm-.406-7.562a1.673,1.673,0,0,0-1.332.621,2.938,2.938,0,0,0-.645,1.59l.016.039h3.813v-.125a2.462,2.462,0,0,0-.453-1.523A1.638,1.638,0,0,0,55.832,127.6Zm6.492-1.055.109,1.109a2.871,2.871,0,0,1,1.051-.934,3.158,3.158,0,0,1,1.48-.332,2.615,2.615,0,0,1,1.449.391,2.363,2.363,0,0,1,.91,1.172,3.162,3.162,0,0,1,1.059-1.145,2.769,2.769,0,0,1,1.527-.418,2.531,2.531,0,0,1,2.039.887,4.051,4.051,0,0,1,.75,2.668V135H71.16v-5.07a2.81,2.81,0,0,0-.43-1.77,1.567,1.567,0,0,0-1.281-.52,1.631,1.631,0,0,0-1.277.547,2.381,2.381,0,0,0-.574,1.383V135H66.051v-5.07a2.772,2.772,0,0,0-.441-1.738,1.532,1.532,0,0,0-1.27-.551,2.115,2.115,0,0,0-1.156.289,1.867,1.867,0,0,0-.7.813V135H60.949v-8.453Zm19.828,4.547a4.645,4.645,0,0,1-.879,2.949,2.9,2.9,0,0,1-2.418,1.121,3.064,3.064,0,0,1-1.465-.332,2.719,2.719,0,0,1-1.027-.98L76.113,135h-1.18V122.813h1.539v4.734a2.671,2.671,0,0,1,.988-.859,3.03,3.03,0,0,1,1.379-.3,2.809,2.809,0,0,1,2.438,1.25,5.622,5.622,0,0,1,.875,3.289Zm-1.539-.164a4.666,4.666,0,0,0-.535-2.371,1.762,1.762,0,0,0-1.629-.918,2.014,2.014,0,0,0-1.2.348,2.452,2.452,0,0,0-.777.934v3.664a2.517,2.517,0,0,0,.777.977,2,2,0,0,0,1.215.352,1.829,1.829,0,0,0,1.617-.773,3.552,3.552,0,0,0,.531-2.047Zm7.414-3.023-.789-.047a1.762,1.762,0,0,0-1.027.289,1.854,1.854,0,0,0-.645.813V135H84.027v-8.453H85.4l.109,1.313a2.968,2.968,0,0,1,.891-1.078,2.074,2.074,0,0,1,1.25-.391,1.9,1.9,0,0,1,.328.027,2.174,2.174,0,0,1,.258.059Zm6.8,7.094q-.078-.383-.121-.676a4.96,4.96,0,0,1-.051-.59,3.589,3.589,0,0,1-1.121,1.02,2.867,2.867,0,0,1-1.488.41,2.763,2.763,0,0,1-2.012-.676,2.486,2.486,0,0,1-.691-1.863,2.183,2.183,0,0,1,.98-1.895,4.579,4.579,0,0,1,2.66-.684h1.672v-.836a1.551,1.551,0,0,0-.453-1.176,1.779,1.779,0,0,0-1.281-.434,1.859,1.859,0,0,0-1.211.375,1.125,1.125,0,0,0-.461.9l-1.461.016-.016-.047a2.023,2.023,0,0,1,.863-1.687A3.578,3.578,0,0,1,93,126.391a3.49,3.49,0,0,1,2.313.73,2.588,2.588,0,0,1,.875,2.105v4.07a7.923,7.923,0,0,0,.047.875,4.5,4.5,0,0,0,.172.828Zm-2.555-1.125a2.739,2.739,0,0,0,1.508-.43,2.042,2.042,0,0,0,.875-.984v-1.375H92.926a2.24,2.24,0,0,0-1.488.469,1.4,1.4,0,0,0-.559,1.1,1.159,1.159,0,0,0,.352.891A1.472,1.472,0,0,0,92.27,133.875Zm11.07-1.148a1.026,1.026,0,0,0-.387-.828,3.732,3.732,0,0,0-1.465-.562,6.146,6.146,0,0,1-2.293-.9,1.814,1.814,0,0,1-.8-1.547,2.229,2.229,0,0,1,.879-1.766,3.879,3.879,0,0,1,4.605.047,2.239,2.239,0,0,1,.852,1.82l-.016.047h-1.469a1.331,1.331,0,0,0-.48-.992,1.717,1.717,0,0,0-1.215-.445,1.751,1.751,0,0,0-1.215.367,1.146,1.146,0,0,0-.4.875.927.927,0,0,0,.348.773,3.848,3.848,0,0,0,1.434.5,6.058,6.058,0,0,1,2.359.93,1.872,1.872,0,0,1,.8,1.57,2.226,2.226,0,0,1-.91,1.836,3.754,3.754,0,0,1-2.379.711,3.715,3.715,0,0,1-2.547-.82,2.341,2.341,0,0,1-.883-1.914l.016-.047h1.469a1.424,1.424,0,0,0,.609,1.2,2.358,2.358,0,0,0,1.336.379,2.1,2.1,0,0,0,1.285-.348A1.063,1.063,0,0,0,103.34,132.727Zm12.344,0a1.026,1.026,0,0,0-.387-.828,3.732,3.732,0,0,0-1.465-.562,6.146,6.146,0,0,1-2.293-.9,1.814,1.814,0,0,1-.8-1.547,2.229,2.229,0,0,1,.879-1.766,3.879,3.879,0,0,1,4.605.047,2.239,2.239,0,0,1,.852,1.82l-.016.047H115.59a1.331,1.331,0,0,0-.48-.992,1.717,1.717,0,0,0-1.215-.445,1.751,1.751,0,0,0-1.215.367,1.146,1.146,0,0,0-.4.875.927.927,0,0,0,.348.773,3.848,3.848,0,0,0,1.434.5,6.058,6.058,0,0,1,2.359.93,1.872,1.872,0,0,1,.8,1.57,2.226,2.226,0,0,1-.91,1.836,3.754,3.754,0,0,1-2.379.711,3.715,3.715,0,0,1-2.547-.82,2.341,2.341,0,0,1-.883-1.914l.016-.047h1.469a1.424,1.424,0,0,0,.609,1.2,2.358,2.358,0,0,0,1.336.379,2.1,2.1,0,0,0,1.285-.348A1.063,1.063,0,0,0,115.684,132.727Zm7.117,2.438A3.8,3.8,0,0,1,119.844,134a4.36,4.36,0,0,1-1.066-3.059v-.344a4.386,4.386,0,0,1,1.051-3.012,3.3,3.3,0,0,1,2.566-1.191,3.067,3.067,0,0,1,2.543,1.055,4.345,4.345,0,0,1,.848,2.8v.813h-5.406l-.016.039a3.281,3.281,0,0,0,.6,2.063,2.164,2.164,0,0,0,1.84.8,3.76,3.76,0,0,0,1.219-.16,8.107,8.107,0,0,0,1.07-.488l.383,1.086a4.459,4.459,0,0,1-1.027.535A4.749,4.749,0,0,1,122.8,135.164Zm-.406-7.562a1.673,1.673,0,0,0-1.332.621,2.938,2.938,0,0,0-.645,1.59l.016.039h3.813v-.125a2.462,2.462,0,0,0-.453-1.523A1.638,1.638,0,0,0,122.395,127.6Zm9.117.3-.789-.047a1.762,1.762,0,0,0-1.027.289,1.855,1.855,0,0,0-.645.813V135h-1.539v-8.453h1.375l.109,1.313a2.968,2.968,0,0,1,.891-1.078,2.074,2.074,0,0,1,1.25-.391,1.9,1.9,0,0,1,.328.027,2.173,2.173,0,0,1,.258.059Zm4.7,4.6.133.594h.047l.148-.594,1.945-5.961h1.57L136.949,135h-1.164l-3.148-8.453h1.578ZM143.105,135h-1.539v-8.453h1.539Zm0-10.617h-1.539v-1.57h1.539Zm2.016,6.547a5.641,5.641,0,0,1,.871-3.289,2.807,2.807,0,0,1,2.441-1.25,3.027,3.027,0,0,1,1.316.273,2.7,2.7,0,0,1,.98.8v-4.648h1.539V135h-1.18l-.234-1.07a2.743,2.743,0,0,1-1.023.922,3.058,3.058,0,0,1-1.414.313A2.9,2.9,0,0,1,146,134.043a4.659,4.659,0,0,1-.875-2.949Zm1.539.164a3.588,3.588,0,0,0,.523,2.051,1.828,1.828,0,0,0,1.625.77,2.039,2.039,0,0,0,1.156-.312,2.334,2.334,0,0,0,.766-.875v-3.945a2.37,2.37,0,0,0-.77-.832,2.033,2.033,0,0,0-1.137-.309,1.759,1.759,0,0,0-1.637.914,4.718,4.718,0,0,0-.527,2.375Zm13.1,3.906q-.078-.383-.121-.676a4.96,4.96,0,0,1-.051-.59,3.588,3.588,0,0,1-1.121,1.02,2.867,2.867,0,0,1-1.488.41,2.763,2.763,0,0,1-2.012-.676,2.486,2.486,0,0,1-.691-1.863,2.183,2.183,0,0,1,.98-1.895,4.579,4.579,0,0,1,2.66-.684h1.672v-.836a1.551,1.551,0,0,0-.453-1.176,1.779,1.779,0,0,0-1.281-.434,1.859,1.859,0,0,0-1.211.375,1.125,1.125,0,0,0-.461.9l-1.461.016-.016-.047a2.023,2.023,0,0,1,.863-1.687,3.578,3.578,0,0,1,2.371-.766,3.49,3.49,0,0,1,2.313.73,2.588,2.588,0,0,1,.875,2.105v4.07a7.923,7.923,0,0,0,.047.875,4.5,4.5,0,0,0,.172.828Zm-2.555-1.125a2.739,2.739,0,0,0,1.508-.43,2.042,2.042,0,0,0,.875-.984v-1.375h-1.727a2.24,2.24,0,0,0-1.488.469,1.4,1.4,0,0,0-.559,1.1,1.159,1.159,0,0,0,.352.891A1.472,1.472,0,0,0,157.207,133.875Zm11.07-1.148a1.026,1.026,0,0,0-.387-.828,3.732,3.732,0,0,0-1.465-.562,6.146,6.146,0,0,1-2.293-.9,1.814,1.814,0,0,1-.8-1.547,2.229,2.229,0,0,1,.879-1.766,3.879,3.879,0,0,1,4.605.047,2.239,2.239,0,0,1,.852,1.82l-.016.047h-1.469a1.331,1.331,0,0,0-.48-.992,1.717,1.717,0,0,0-1.215-.445,1.751,1.751,0,0,0-1.215.367,1.146,1.146,0,0,0-.4.875.927.927,0,0,0,.348.773,3.848,3.848,0,0,0,1.434.5,6.058,6.058,0,0,1,2.359.93,1.872,1.872,0,0,1,.8,1.57,2.226,2.226,0,0,1-.91,1.836,3.754,3.754,0,0,1-2.379.711,3.715,3.715,0,0,1-2.547-.82,2.341,2.341,0,0,1-.883-1.914l.016-.047h1.469a1.424,1.424,0,0,0,.609,1.2,2.358,2.358,0,0,0,1.336.379,2.1,2.1,0,0,0,1.285-.348A1.063,1.063,0,0,0,168.277,132.727Z" transform="translate(4159 17353.438)" fill="#12263f"/>
    <path id="Trazado_717452" data-name="Trazado 717452" d="M0,0H209" transform="translate(4159 17426.438)" fill="none" stroke="#adce32" stroke-width="3"/>
    <g id="Trazado_717453" data-name="Trazado 717453" transform="translate(4137 17320.438)" fill="none">
      <path d="M30,0H222a30,30,0,0,1,30,30V166a30,30,0,0,1-30,30H30A30,30,0,0,1,0,166V30A30,30,0,0,1,30,0Z" stroke="none"/>
      <path d="M 30 1 C 26.0845947265625 1 22.28683471679688 1.7666015625 18.71220397949219 3.278564453125 C 15.259033203125 4.7391357421875 12.15753173828125 6.83026123046875 9.493896484375 9.493896484375 C 6.83026123046875 12.15753173828125 4.7391357421875 15.259033203125 3.278564453125 18.71220397949219 C 1.7666015625 22.28683471679688 1 26.0845947265625 1 30 L 1 166 C 1 169.9154052734375 1.7666015625 173.7131652832031 3.278564453125 177.2877960205078 C 4.7391357421875 180.740966796875 6.83026123046875 183.8424682617188 9.493896484375 186.506103515625 C 12.15753173828125 189.1697387695312 15.259033203125 191.2608642578125 18.71220397949219 192.721435546875 C 22.28683471679688 194.2333984375 26.0845947265625 195 30 195 L 222 195 C 225.9154052734375 195 229.7131652832031 194.2333984375 233.2877960205078 192.721435546875 C 236.740966796875 191.2608642578125 239.8424682617188 189.1697387695312 242.506103515625 186.506103515625 C 245.1697387695312 183.8424682617188 247.2608642578125 180.740966796875 248.721435546875 177.2877960205078 C 250.2333984375 173.7131652832031 251 169.9154052734375 251 166 L 251 30 C 251 26.0845947265625 250.2333984375 22.28683471679688 248.721435546875 18.71220397949219 C 247.2608642578125 15.259033203125 245.1697387695312 12.15753173828125 242.506103515625 9.493896484375 C 239.8424682617188 6.83026123046875 236.740966796875 4.7391357421875 233.2877960205078 3.278564453125 C 229.7131652832031 1.7666015625 225.9154052734375 1 222 1 L 30 1 M 30 0 L 222 0 C 238.5685272216797 0 252 13.43147277832031 252 30 L 252 166 C 252 182.5685272216797 238.5685272216797 196 222 196 L 30 196 C 13.43147277832031 196 0 182.5685272216797 0 166 L 0 30 C 0 13.43147277832031 13.43147277832031 0 30 0 Z" stroke="none" fill="#adce32"/>
    </g>
  </g>
</svg>
