<svg xmlns="http://www.w3.org/2000/svg" width="304" height="141" viewBox="0 0 304 141">
  <g id="Grupo_1018101" data-name="Grupo 1018101" transform="translate(-2875.583 -18121.73)">
    <g id="Grupo_1017960" data-name="Grupo 1017960" transform="translate(-206.417 -1847.708)">
      <g id="Grupo_1017351" data-name="Grupo 1017351" transform="translate(3139 19990.068)">
        <text id="_fecha_de_nacimiento-fecha_de_pubertad_Número_de_novillas_" data-name="(fecha de nacimiento-fecha de pubertad)

(Número de novillas)" transform="translate(0 0.37)" fill="#12263f" font-size="16" font-family="Roboto-Regular, Roboto"><tspan x="6.027" y="15">(fecha de nacimiento-fecha </tspan><tspan x="58.836" y="39">de pubertad)</tspan><tspan x="104.5" y="63"></tspan><tspan x="30.285" y="87">(Número de novillas)</tspan></text>
        <line id="Línea_190" data-name="Línea 190" x2="209" transform="translate(0 57.369)" fill="none" stroke="#ffa686" stroke-width="3"/>
      </g>
      <g id="Trazado_717511" data-name="Trazado 717511" transform="translate(3082 19969.438)" fill="none">
        <path d="M30,0H274a30,30,0,0,1,30,30v81a30,30,0,0,1-30,30H30A30,30,0,0,1,0,111V30A30,30,0,0,1,30,0Z" stroke="none"/>
        <path d="M 30 1 C 26.08456420898438 1 22.28680419921875 1.766616821289062 18.71218872070312 3.278533935546875 C 15.259033203125 4.739120483398438 12.15753173828125 6.830276489257812 9.493927001953125 9.493927001953125 C 6.83026123046875 12.15753173828125 4.739105224609375 15.25904083251953 3.278533935546875 18.71218872070312 C 1.7666015625 22.28680419921875 1 26.08457946777344 1 30 L 1 111 C 1 114.9154205322266 1.7666015625 118.7131958007812 3.278533935546875 122.2878112792969 C 4.739105224609375 125.7409591674805 6.83026123046875 128.8424682617188 9.493927001953125 131.5060729980469 C 12.15753173828125 134.1697235107422 15.259033203125 136.2608795166016 18.71218872070312 137.7214660644531 C 22.28680419921875 139.2333831787109 26.08456420898438 140 30 140 L 274 140 C 277.9154357910156 140 281.7131958007812 139.2333831787109 285.2878112792969 137.7214660644531 C 288.740966796875 136.2608795166016 291.8424682617188 134.1697235107422 294.5060729980469 131.5060729980469 C 297.1697387695312 128.8424682617188 299.2608947753906 125.7409591674805 300.7214660644531 122.2878112792969 C 302.2333984375 118.7131958007812 303 114.9154205322266 303 111 L 303 30 C 303 26.08457946777344 302.2333984375 22.28680419921875 300.7214660644531 18.71218872070312 C 299.2608947753906 15.25904083251953 297.1697387695312 12.15753173828125 294.5060729980469 9.493927001953125 C 291.8424682617188 6.830276489257812 288.740966796875 4.739120483398438 285.2878112792969 3.278533935546875 C 281.7131958007812 1.766616821289062 277.9154357910156 1 274 1 L 30 1 M 30 0 L 274 0 C 290.5685424804688 0 304 13.43146514892578 304 30 L 304 111 C 304 127.5685424804688 290.5685424804688 141 274 141 L 30 141 C 13.43145751953125 141 0 127.5685424804688 0 111 L 0 30 C 0 13.43146514892578 13.43145751953125 0 30 0 Z" stroke="none" fill="#ffa686"/>
      </g>
      <path id="Trazado_717512" data-name="Trazado 717512" d="M22.887,10H18.668v3.25h5.016V15h-7.3V3.625h7.281V5.383h-5V8.242h4.219Zm4.68.875V15H25.285V3.625h4.352a4.48,4.48,0,0,1,3.086,1,3.353,3.353,0,0,1,1.125,2.633,3.329,3.329,0,0,1-1.125,2.625,4.5,4.5,0,0,1-3.086.992Zm0-1.758h2.07a1.9,1.9,0,0,0,1.445-.52,1.848,1.848,0,0,0,.492-1.324,1.934,1.934,0,0,0-.488-1.355,1.864,1.864,0,0,0-1.449-.535h-2.07ZM42.5,9.039h-7V7.25h7Zm0,3.367h-7V10.617h7Z" transform="translate(3088 20036.438)" fill="#12263f"/>
    </g>
  </g>
</svg>
