<svg xmlns="http://www.w3.org/2000/svg" xmlns:xlink="http://www.w3.org/1999/xlink" width="297.331" height="353.127" viewBox="0 0 297.331 353.127">
  <defs>
    <clipPath id="clip-path">
      <rect id="Rectángulo_352767" data-name="Rectángulo 352767" width="297.331" height="353.127" fill="none"/>
    </clipPath>
    <clipPath id="clip-path-3">
      <rect id="Rectángulo_352742" data-name="Rectángulo 352742" width="94.56" height="20.39" fill="none"/>
    </clipPath>
    <clipPath id="clip-path-4">
      <rect id="Rectángulo_352743" data-name="Rectángulo 352743" width="17.325" height="12.957" fill="none"/>
    </clipPath>
    <clipPath id="clip-path-5">
      <rect id="Rectángulo_352744" data-name="Rectángulo 352744" width="39.853" height="17.967" fill="none"/>
    </clipPath>
    <clipPath id="clip-path-6">
      <rect id="Rectángulo_352745" data-name="Rectángulo 352745" width="4.314" height="2.608" fill="none"/>
    </clipPath>
    <clipPath id="clip-path-7">
      <rect id="Rectángulo_352746" data-name="Rectángulo 352746" width="4.321" height="1.891" fill="none"/>
    </clipPath>
    <clipPath id="clip-path-8">
      <rect id="Rectángulo_352747" data-name="Rectángulo 352747" width="116.213" height="146.672" fill="none"/>
    </clipPath>
    <clipPath id="clip-path-9">
      <rect id="Rectángulo_352750" data-name="Rectángulo 352750" width="13.669" height="10.222" fill="none"/>
    </clipPath>
    <clipPath id="clip-path-10">
      <rect id="Rectángulo_352751" data-name="Rectángulo 352751" width="31.441" height="14.175" fill="none"/>
    </clipPath>
    <clipPath id="clip-path-11">
      <rect id="Rectángulo_352752" data-name="Rectángulo 352752" width="3.404" height="2.058" fill="none"/>
    </clipPath>
    <clipPath id="clip-path-12">
      <rect id="Rectángulo_352753" data-name="Rectángulo 352753" width="3.409" height="1.492" fill="none"/>
    </clipPath>
    <clipPath id="clip-path-13">
      <rect id="Rectángulo_352754" data-name="Rectángulo 352754" width="0.332" height="1.029" fill="none"/>
    </clipPath>
    <clipPath id="clip-path-14">
      <rect id="Rectángulo_352755" data-name="Rectángulo 352755" width="92.35" height="113.895" fill="none"/>
    </clipPath>
    <clipPath id="clip-path-15">
      <rect id="Rectángulo_352756" data-name="Rectángulo 352756" width="68.279" height="32.125" fill="none"/>
    </clipPath>
    <clipPath id="clip-path-16">
      <rect id="Rectángulo_352757" data-name="Rectángulo 352757" width="11.46" height="9.763" fill="none"/>
    </clipPath>
    <clipPath id="clip-path-17">
      <rect id="Rectángulo_352758" data-name="Rectángulo 352758" width="26.984" height="37.462" fill="none"/>
    </clipPath>
    <clipPath id="clip-path-18">
      <rect id="Rectángulo_352759" data-name="Rectángulo 352759" width="83.636" height="8.469" fill="none"/>
    </clipPath>
    <clipPath id="clip-path-19">
      <rect id="Rectángulo_352760" data-name="Rectángulo 352760" width="70.179" height="7.106" fill="none"/>
    </clipPath>
    <clipPath id="clip-path-20">
      <rect id="Rectángulo_352761" data-name="Rectángulo 352761" width="50.762" height="5.14" fill="none"/>
    </clipPath>
    <clipPath id="clip-path-21">
      <rect id="Rectángulo_352762" data-name="Rectángulo 352762" width="21.981" height="30.516" fill="none"/>
    </clipPath>
    <clipPath id="clip-path-22">
      <rect id="Rectángulo_352763" data-name="Rectángulo 352763" width="60.112" height="32.064" fill="none"/>
    </clipPath>
    <clipPath id="clip-path-23">
      <rect id="Rectángulo_352764" data-name="Rectángulo 352764" width="50.44" height="26.905" fill="none"/>
    </clipPath>
    <clipPath id="clip-path-24">
      <rect id="Rectángulo_352765" data-name="Rectángulo 352765" width="36.484" height="19.461" fill="none"/>
    </clipPath>
  </defs>
  <g id="Grupo_1018118" data-name="Grupo 1018118" transform="translate(-13213 -8053.195)">
    <g id="Grupo_1018007" data-name="Grupo 1018007" transform="translate(13213 8053.195)">
      <g id="Grupo_1017510" data-name="Grupo 1017510" clip-path="url(#clip-path)">
        <rect id="Rectángulo_352740" data-name="Rectángulo 352740" width="4.314" height="49.799" transform="translate(237.831 268.063)" fill="#ff9817"/>
        <rect id="Rectángulo_352741" data-name="Rectángulo 352741" width="4.321" height="49.799" transform="translate(206.531 251.072)" fill="#ff9817"/>
        <g id="Grupo_1017509" data-name="Grupo 1017509">
          <g id="Grupo_1017508" data-name="Grupo 1017508" clip-path="url(#clip-path)">
            <path id="Trazado_716888" data-name="Trazado 716888" d="M441.707,498.787c0,6.724-6.69,13.878-16.458,17.1-.192.068-.382.13-.58.191a32.939,32.939,0,0,1-4.246,1.017c-6.027,1.024-11.673.205-15.632-2.082l-.014-.007a10.923,10.923,0,0,1-5.215-6.164,9.259,9.259,0,0,1-.4-2.184c-.5-7.052,6.587-14.759,17.012-17.988,11.516-3.57,22.759-.335,25.107,7.236a9.57,9.57,0,0,1,.273,1.14,9.875,9.875,0,0,1,.157,1.741" transform="translate(-182.592 -222.888)" fill="#f5e8d8"/>
            <path id="Trazado_716889" data-name="Trazado 716889" d="M507.411,406.5c-18.889-7.618-23.107-27.558-23.23-28.18v-.007l-.007-.006a38.15,38.15,0,0,0,4.205-.375c5.68-.8,15.4-3.284,17.981-11.052,2.431-7.3,26.125,14.24,1.051,39.621" transform="translate(-221.495 -167.178)" fill="#f5e8d8"/>
            <path id="Trazado_716890" data-name="Trazado 716890" d="M301.067,355.162c-4.157,17.162-13.988,17.688-20.09,16.117a20.949,20.949,0,0,1-5.188-2.089l-.007-.007a.02.02,0,0,1,.007-.014c.007-.082.02-.164.034-.246.054-.287.143-.813.259-1.543-.007-.007,0-.014,0-.021,1.761-11.086,10.028-69.869-7.387-97.939a35.357,35.357,0,0,0-5.939-7.345c9.113-6.5,9.373-7.25,9.373-7.25,17.838,24.828,29.292,45.812,29.893,79a179.892,179.892,0,0,1-.955,21.339" transform="translate(-120.203 -116.576)" fill="#f5e8d8"/>
            <path id="Trazado_716891" data-name="Trazado 716891" d="M254.749,253.7v.008a17.106,17.106,0,0,1-3.259,6.147c-.193.241-.394.483-.6.708a19.442,19.442,0,0,1-2.518,2.342,21.488,21.488,0,0,1-2.849,1.875,38.8,38.8,0,0,1-9.543,3.991c-.3.072-.588.129-.869.177h-.016c-3.838.644-7.017-.322-9.069-4.072a16.042,16.042,0,0,1-1.319-9.109.1.1,0,0,1,.008-.048c.7-6.638,4.176-13.985,9.616-16.962,8.312-4.546,15.779-1.336,19.5,5.463a12.5,12.5,0,0,1,.917,9.479" transform="translate(-102.736 -108.257)" fill="#f5e8d8"/>
            <path id="Trazado_716892" data-name="Trazado 716892" d="M224.194,285.063s-1.521.724-3.782,1.77c-6.309,2.9-18.394,8.232-19.569,7.017l-.008-.008c-1.223-1.319,6.389-10.276,9.406-15.353.828-1.384,1.311-2.479,1.191-3.058a3.248,3.248,0,0,1,1.778-3.34,1.326,1.326,0,0,1,1.907.515c.305.611.7,1.392,1.07,2.132a4.528,4.528,0,0,0,2.462,2.2,7.958,7.958,0,0,1,4.611,4.651,12.681,12.681,0,0,1,.933,3.468" transform="translate(-91.816 -124.376)" fill="#ff9817"/>
            <path id="Trazado_716893" data-name="Trazado 716893" d="M246.735,264.625a1.372,1.372,0,1,1-.044-2.171,1.562,1.562,0,0,1,.044,2.171" transform="translate(-111.709 -119.969)" fill="#4d4d4d"/>
            <path id="Trazado_716894" data-name="Trazado 716894" d="M395.276,442.249v.007q-2.581,1.884-5.406,3.665h-.007A114.22,114.22,0,0,1,359.9,459c-3.365.942-6.669,1.754-9.891,2.423-31.825,6.649-56.2.068-62.5-22.438a35.811,35.811,0,0,1-1.017-14.609v-.021c.007-.082.021-.164.034-.246.075-.519.157-1.031.259-1.543-.006-.007,0-.014,0-.02a41.916,41.916,0,0,1,6.888-16.043,63.2,63.2,0,0,1,19.053-17.5,95.993,95.993,0,0,1,24.616-10.547,82.914,82.914,0,0,1,48.741,1.4c10.663,3.659,19.428,9.27,24.821,15.612h.007a25.094,25.094,0,0,1,5.236,9.339c3.29,11.762-5.168,25.941-20.875,37.436" transform="translate(-130.911 -171.763)" fill="#f5e8d8"/>
            <path id="Trazado_716895" data-name="Trazado 716895" d="M426.806,601.206c-.417-.068-.484-.908-.355-2.1a67.473,67.473,0,0,1,2.1-9.038,115.327,115.327,0,0,1-9.025,7.789c-2.812,2.1-5.331,3.509-5.9,2.369-.546-1.086.71-2.847,2.478-4.6v-.006a57.827,57.827,0,0,1,7.038-5.68,55.247,55.247,0,0,1-8.813,1.741c-1.208.075-2.144-.028-2.457-.437-1.209-1.549,14.349-5.345,14.349-5.345h4.321c4.1,6.949-2.178,15.564-3.727,15.312" transform="translate(-188.385 -268.029)" fill="#ff9817"/>
            <path id="Trazado_716896" data-name="Trazado 716896" d="M418.219,599.023a5.291,5.291,0,0,0-1.782-3.932.006.006,0,0,1,.007-.006,55.242,55.242,0,0,0,8.813-1.741,57.827,57.827,0,0,0-7.038,5.68" transform="translate(-190.507 -271.437)" fill="#ed6c1b"/>
            <path id="Trazado_716897" data-name="Trazado 716897" d="M435.062,593.582a67.473,67.473,0,0,0-2.1,9.038c-1.242-2.751-6.929-1.249-6.929-1.249a115.527,115.527,0,0,0,9.024-7.789" transform="translate(-194.9 -271.546)" fill="#ed6c1b"/>
            <path id="Trazado_716898" data-name="Trazado 716898" d="M368.562,569.883c-.417-.068-.485-.908-.355-2.1a67.493,67.493,0,0,1,2.1-9.039,115.24,115.24,0,0,1-9.024,7.789c-2.812,2.1-5.331,3.509-5.9,2.369-.546-1.086.71-2.847,2.478-4.6v-.007a57.881,57.881,0,0,1,7.038-5.68,55.228,55.228,0,0,1-8.813,1.741c-1.208.075-2.144-.028-2.457-.437-1.209-1.549,14.653-5.347,14.653-5.347s.511,0,4.32,0c4.1,6.949-2.48,15.565-4.03,15.312" transform="translate(-161.74 -253.699)" fill="#ff9817"/>
            <path id="Trazado_716899" data-name="Trazado 716899" d="M359.973,567.7a5.291,5.291,0,0,0-1.782-3.932.006.006,0,0,1,.006-.006,55.241,55.241,0,0,0,8.813-1.741,57.819,57.819,0,0,0-7.038,5.68" transform="translate(-163.862 -257.108)" fill="#ed6c1b"/>
            <path id="Trazado_716900" data-name="Trazado 716900" d="M376.815,562.261a67.473,67.473,0,0,0-2.1,9.038c-1.242-2.751-6.929-1.249-6.929-1.249a115.5,115.5,0,0,0,9.024-7.789" transform="translate(-168.253 -257.217)" fill="#ed6c1b"/>
            <path id="Trazado_716901" data-name="Trazado 716901" d="M444.437,442.533l-3.584,2.423,2.382,1.324a44.462,44.462,0,0,1-11.318,7.058l-.021.014c-15.271,8.246-45.15,13.319-56.325,13.319-13.039,0-23.974-8.342-26.9-19.571-.007,0-.007-.007-.007-.014a23.874,23.874,0,0,1-.764-5.994c0-14.131,12.39-25.585,27.667-25.585,11.38,0,42.16,7.434,57.151,17.059h.007l13.332,7.318-4.437,1.208Z" transform="translate(-159.156 -190.082)" fill="#eddec9"/>
            <g id="Grupo_1017444" data-name="Grupo 1017444" transform="translate(189.52 256.198)" opacity="0.5">
              <g id="Grupo_1017443" data-name="Grupo 1017443">
                <g id="Grupo_1017442" data-name="Grupo 1017442" clip-path="url(#clip-path-3)">
                  <path id="Trazado_716902" data-name="Trazado 716902" d="M443.886,472.229a44.458,44.458,0,0,1-11.318,7.058l-.021.014c-15.271,8.246-45.15,13.318-56.325,13.318-13.038,0-23.974-8.342-26.9-19.571,11.736,23.9,50.467,20.854,94.56-.819" transform="translate(-349.326 -472.229)" fill="#a09078"/>
                </g>
              </g>
            </g>
            <g id="Grupo_1017447" data-name="Grupo 1017447" transform="translate(262.679 210.755)" opacity="0.5">
              <g id="Grupo_1017446" data-name="Grupo 1017446">
                <g id="Grupo_1017445" data-name="Grupo 1017445" clip-path="url(#clip-path-4)">
                  <path id="Trazado_716903" data-name="Trazado 716903" d="M501.5,401.424h-.007c-4.062-4.779-10.049-9.148-17.312-12.568v-.007l-.007-.007a37.971,37.971,0,0,0,4.205-.375v.007s12.7,8.655,13.121,12.95" transform="translate(-484.174 -388.467)" fill="#a09078"/>
                </g>
              </g>
            </g>
            <g id="Grupo_1017450" data-name="Grupo 1017450" transform="translate(219.099 274.159)" opacity="0.75">
              <g id="Grupo_1017449" data-name="Grupo 1017449">
                <g id="Grupo_1017448" data-name="Grupo 1017448" clip-path="url(#clip-path-5)">
                  <path id="Trazado_716904" data-name="Trazado 716904" d="M443.7,505.334c-9.031,8.615-36.754,17.967-36.754,17.967l-.014-.007a12.69,12.69,0,0,1-3.085-2.458c3.222-.669,6.526-1.481,9.891-2.424A114.22,114.22,0,0,0,443.7,505.334" transform="translate(-403.847 -505.334)" fill="#a09078"/>
                </g>
              </g>
            </g>
            <g id="Grupo_1017453" data-name="Grupo 1017453" transform="translate(237.831 293.171)" opacity="0.5">
              <g id="Grupo_1017452" data-name="Grupo 1017452">
                <g id="Grupo_1017451" data-name="Grupo 1017451" clip-path="url(#clip-path-6)">
                  <path id="Trazado_716905" data-name="Trazado 716905" d="M442.687,540.377v.71c-2.144,2.314-4.314,1.864-4.314,1.864v-1.536a32.942,32.942,0,0,0,4.246-1.017l.068-.021" transform="translate(-438.373 -540.377)" fill="#ed6c1b"/>
                </g>
              </g>
            </g>
            <g id="Grupo_1017456" data-name="Grupo 1017456" transform="translate(206.531 291.109)" opacity="0.5">
              <g id="Grupo_1017455" data-name="Grupo 1017455">
                <g id="Grupo_1017454" data-name="Grupo 1017454" clip-path="url(#clip-path-7)">
                  <path id="Trazado_716906" data-name="Trazado 716906" d="M385,536.577V537c-1.181,1.331-4.321,1.468-4.321,1.468V537.1q2.13-.215,4.321-.526" transform="translate(-380.682 -536.577)" fill="#ed6c1b"/>
                </g>
              </g>
            </g>
            <path id="Trazado_716907" data-name="Trazado 716907" d="M227.873,283.691c.155.247-.3.811-1.015,1.261s-1.421.614-1.577.367.3-.811,1.015-1.261,1.421-.614,1.576-.367" transform="translate(-103.046 -129.728)" fill="#ed6c1b"/>
            <path id="Trazado_716908" data-name="Trazado 716908" d="M224.305,293.256s-21.756,10.431-23.347,8.786l-.007-.007s17.913-6.949,22.425-12.254a12.72,12.72,0,0,1,.928,3.475" transform="translate(-91.929 -132.566)" fill="#ed6c1b"/>
            <g id="Grupo_1017459" data-name="Grupo 1017459" transform="translate(148.152 145.453)" opacity="0.5">
              <g id="Grupo_1017458" data-name="Grupo 1017458">
                <g id="Grupo_1017457" data-name="Grupo 1017457" clip-path="url(#clip-path-8)">
                  <path id="Trazado_716909" data-name="Trazado 716909" d="M291.132,393.429a19.064,19.064,0,0,1-5.441-16c0-.027.007-.048.007-.075.915-7.093,1.564-13.735,1.993-19.961,3.884-55.833-9.987-77.855-13.311-82.272a16.433,16.433,0,0,0,2.56-7.018,17.114,17.114,0,0,1-3.263,6.151c-.191.239-.4.478-.6.71.218.355.437.717.648,1.085,16.568,28.48,8.82,86.444,7.079,97.386,0,.007-.006.014,0,.02-.1.512-.184,1.024-.259,1.543-.014.082-.027.164-.034.246a.022.022,0,0,0-.007.014l.007.007a35.811,35.811,0,0,0,1.017,14.609c5.434,19.442,24.363,27,49.929,24.411q2.274-.225,4.615-.566,3.891-.553,7.953-1.407c3.222-.669,6.526-1.481,9.891-2.423a114.222,114.222,0,0,0,29.961-13.08h.007q2.826-1.781,5.406-3.665v-.007c-58.277,27.585-86.675,11.673-98.157.293" transform="translate(-273.076 -268.102)" fill="#a09078"/>
                </g>
              </g>
            </g>
            <rect id="Rectángulo_352748" data-name="Rectángulo 352748" width="3.404" height="39.289" transform="translate(45.312 301.751)" fill="#ff9817"/>
            <rect id="Rectángulo_352749" data-name="Rectángulo 352749" width="3.409" height="39.289" transform="translate(70 288.346)" fill="#ff9817"/>
            <path id="Trazado_716910" data-name="Trazado 716910" d="M58.841,559.891c0,5.3,5.278,10.949,12.985,13.491.151.054.3.1.458.151a25.989,25.989,0,0,0,3.35.8c4.756.808,9.21.162,12.333-1.642l.011-.005a8.617,8.617,0,0,0,4.115-4.863,7.314,7.314,0,0,0,.318-1.724c.393-5.564-5.2-11.644-13.421-14.192-9.086-2.817-17.956-.264-19.809,5.709a7.576,7.576,0,0,0-.215.9,7.792,7.792,0,0,0-.124,1.373" transform="translate(-26.918 -251.958)" fill="#f5e8d8"/>
            <path id="Trazado_716911" data-name="Trazado 716911" d="M12.274,487.083c14.9-6.011,18.231-21.742,18.327-22.232v-.005l.005-.005a29.962,29.962,0,0,1-3.318-.3c-4.481-.63-12.15-2.591-14.186-8.72-1.917-5.757-20.611,11.234-.83,31.258" transform="translate(-1.495 -208.006)" fill="#f5e8d8"/>
            <path id="Trazado_716912" data-name="Trazado 716912" d="M202.2,373.136a26.885,26.885,0,0,0-3.752,4.375c-.324.462-.632.932-.932,1.418-13.743,22.146-7.219,68.528-5.826,77.27v.016c.09.575.162.989.2,1.215a1.589,1.589,0,0,1,.024.195.025.025,0,0,1,.008.016h-.008a16.433,16.433,0,0,1-4.092,1.653c-4.813,1.232-12.568.818-15.849-12.722a142.037,142.037,0,0,1-.754-16.83c.478-26.181,9.513-42.735,23.588-62.329,0,0,.2.592,7.39,5.721" transform="translate(-78.322 -168.081)" fill="#f5e8d8"/>
            <path id="Trazado_716913" data-name="Trazado 716913" d="M36.851,515.286v.005q2.035,1.487,4.265,2.892h.005A90.122,90.122,0,0,0,64.76,528.5c2.655.743,5.262,1.384,7.8,1.912,25.108,5.246,44.34.054,49.306-17.7a28.248,28.248,0,0,0,.8-11.526v-.016c-.005-.065-.016-.129-.027-.194-.059-.409-.124-.813-.2-1.217.005-.005,0-.011,0-.016a33.076,33.076,0,0,0-5.434-12.657,49.858,49.858,0,0,0-15.031-13.8,75.736,75.736,0,0,0-19.421-8.321,65.418,65.418,0,0,0-38.454,1.1c-8.412,2.887-15.328,7.314-19.583,12.317h-.005a19.794,19.794,0,0,0-4.131,7.368c-2.6,9.28,4.077,20.466,16.47,29.535" transform="translate(-9.07 -211.623)" fill="#f5e8d8"/>
            <path id="Trazado_716914" data-name="Trazado 716914" d="M85.546,640.7c.329-.054.382-.716.28-1.659a53.224,53.224,0,0,0-1.653-7.131,91.065,91.065,0,0,0,7.12,6.145c2.219,1.653,4.206,2.768,4.659,1.868.431-.856-.56-2.245-1.955-3.63v-.005a45.571,45.571,0,0,0-5.552-4.481,43.6,43.6,0,0,0,6.953,1.373c.954.059,1.692-.022,1.939-.344.953-1.223-11.32-4.217-11.32-4.217H82.605c-3.231,5.482,1.718,12.279,2.941,12.08" transform="translate(-37.297 -287.572)" fill="#ff9817"/>
            <path id="Trazado_716915" data-name="Trazado 716915" d="M99.827,638.973a4.174,4.174,0,0,1,1.406-3.1.005.005,0,0,0-.005-.005,43.633,43.633,0,0,1-6.953-1.373,45.616,45.616,0,0,1,5.553,4.481" transform="translate(-43.128 -290.261)" fill="#ed6c1b"/>
            <path id="Trazado_716916" data-name="Trazado 716916" d="M86.4,634.68a53.292,53.292,0,0,1,1.654,7.13c.98-2.17,5.466-.985,5.466-.985a91.069,91.069,0,0,1-7.12-6.145" transform="translate(-39.526 -290.347)" fill="#ed6c1b"/>
            <path id="Trazado_716917" data-name="Trazado 716917" d="M131.326,615.984c.329-.054.382-.716.28-1.659a53.234,53.234,0,0,0-1.653-7.13,91.071,91.071,0,0,0,7.12,6.145c2.219,1.653,4.206,2.768,4.659,1.868.431-.856-.56-2.246-1.955-3.63v-.005a45.68,45.68,0,0,0-5.553-4.481,43.534,43.534,0,0,0,6.953,1.374c.953.059,1.691-.022,1.938-.345.953-1.222-11.56-4.218-11.56-4.218s-.4,0-3.408,0c-3.232,5.482,1.957,12.279,3.179,12.08" transform="translate(-58.145 -276.267)" fill="#ff9817"/>
            <path id="Trazado_716918" data-name="Trazado 716918" d="M145.781,614.262a4.173,4.173,0,0,1,1.406-3.1.005.005,0,0,0-.005-.005,43.626,43.626,0,0,1-6.953-1.373,45.606,45.606,0,0,1,5.553,4.481" transform="translate(-64.15 -278.956)" fill="#ed6c1b"/>
            <path id="Trazado_716919" data-name="Trazado 716919" d="M132.356,609.97a53.291,53.291,0,0,1,1.654,7.13c.98-2.17,5.466-.985,5.466-.985a91.053,91.053,0,0,1-7.12-6.145" transform="translate(-60.549 -279.043)" fill="#ed6c1b"/>
            <g id="Grupo_1017462" data-name="Grupo 1017462" transform="translate(15.443 256.538)" opacity="0.5">
              <g id="Grupo_1017461" data-name="Grupo 1017461">
                <g id="Grupo_1017460" data-name="Grupo 1017460" clip-path="url(#clip-path-9)">
                  <path id="Trazado_716920" data-name="Trazado 716920" d="M28.465,483.077h.005a40.672,40.672,0,0,1,13.658-9.915v-.005l.005-.005a29.955,29.955,0,0,1-3.318-.3v0S28.8,479.689,28.465,483.077" transform="translate(-28.465 -472.855)" fill="#a09078"/>
                </g>
              </g>
            </g>
            <g id="Grupo_1017465" data-name="Grupo 1017465" transform="translate(32.052 306.56)" opacity="0.75">
              <g id="Grupo_1017464" data-name="Grupo 1017464">
                <g id="Grupo_1017463" data-name="Grupo 1017463" clip-path="url(#clip-path-10)">
                  <path id="Trazado_716921" data-name="Trazado 716921" d="M59.08,565.057c7.125,6.8,29,14.175,29,14.175l.011-.005a10.015,10.015,0,0,0,2.434-1.939q-3.813-.792-7.8-1.912A90.105,90.105,0,0,1,59.08,565.057" transform="translate(-59.08 -565.057)" fill="#a09078"/>
                </g>
              </g>
            </g>
            <g id="Grupo_1017468" data-name="Grupo 1017468" transform="translate(45.312 321.56)" opacity="0.5">
              <g id="Grupo_1017467" data-name="Grupo 1017467">
                <g id="Grupo_1017466" data-name="Grupo 1017466" clip-path="url(#clip-path-11)">
                  <path id="Trazado_716922" data-name="Trazado 716922" d="M83.52,592.7v.56a3.873,3.873,0,0,0,3.4,1.47v-1.211a26.109,26.109,0,0,1-3.35-.8l-.054-.016" transform="translate(-83.52 -592.704)" fill="#ed6c1b"/>
                </g>
              </g>
            </g>
            <g id="Grupo_1017471" data-name="Grupo 1017471" transform="translate(70 319.933)" opacity="0.5">
              <g id="Grupo_1017470" data-name="Grupo 1017470">
                <g id="Grupo_1017469" data-name="Grupo 1017469" clip-path="url(#clip-path-12)">
                  <path id="Trazado_716923" data-name="Trazado 716923" d="M129.025,589.706v.334c.932,1.05,3.409,1.158,3.409,1.158V590.12q-1.68-.169-3.409-.414" transform="translate(-129.025 -589.706)" fill="#ed6c1b"/>
                </g>
              </g>
            </g>
            <path id="Trazado_716924" data-name="Trazado 716924" d="M249.588,365.727s16.782-8.984,16.476-10.764v-.008s-12.774,8.161-18.253,8.561a10.033,10.033,0,0,0,1.779,2.211" transform="translate(-113.365 -162.382)" fill="#ed6c1b"/>
            <g id="Grupo_1017474" data-name="Grupo 1017474" transform="translate(116.42 205.022)" opacity="0.5">
              <g id="Grupo_1017473" data-name="Grupo 1017473">
                <g id="Grupo_1017472" data-name="Grupo 1017472" clip-path="url(#clip-path-13)">
                  <path id="Trazado_716925" data-name="Trazado 716925" d="M214.749,378.929c-.073-.332-.122-.681-.162-1.029.1.34.2.673.333,1l-.17.024" transform="translate(-214.587 -377.9)" fill="#a09078"/>
                </g>
              </g>
            </g>
            <path id="Trazado_716926" data-name="Trazado 716926" d="M221.938,366.32a17.3,17.3,0,0,1-2.52.94,15.591,15.591,0,0,1-2.666.51c-.243.024-.486.041-.729.057-.454.024-.9.024-1.345.008a12.809,12.809,0,0,1-4.092-.8,10.782,10.782,0,0,1-3.241-1.9,9.229,9.229,0,0,1-2.366-3.1c-2.593-5.543-1.151-11.79,5.615-14.958s17.9,1.345,20.492,6.887-2.382,9.2-9.148,12.365" transform="translate(-93.218 -158.292)" fill="#f5e8d8"/>
            <path id="Trazado_716927" data-name="Trazado 716927" d="M247.87,363.587s16.782-8.984,16.476-10.764v-.008c-.343-1.774-15.2-.207-16.657-1.84a2.554,2.554,0,0,0-2.955-.422A1.041,1.041,0,0,0,244.17,352c.248.482.562,1.093.856,1.675a3.533,3.533,0,0,1,.258,2.592,6.277,6.277,0,0,0,.807,5.1,10.036,10.036,0,0,0,1.779,2.211" transform="translate(-111.648 -160.241)" fill="#ff9817"/>
            <path id="Trazado_716928" data-name="Trazado 716928" d="M228.853,362.374a1.083,1.083,0,1,0-1.361-1.041,1.232,1.232,0,0,0,1.361,1.041" transform="translate(-104.071 -164.817)" fill="#4d4d4d"/>
            <path id="Trazado_716929" data-name="Trazado 716929" d="M249.674,359.3c.085.214.656.188,1.275-.058s1.054-.618.969-.832-.656-.188-1.276.058-1.053.618-.968.832" transform="translate(-114.214 -163.896)" fill="#ed6c1b"/>
            <g id="Grupo_1017477" data-name="Grupo 1017477" transform="translate(27.781 206.837)" opacity="0.5">
              <g id="Grupo_1017476" data-name="Grupo 1017476">
                <g id="Grupo_1017475" data-name="Grupo 1017475" clip-path="url(#clip-path-14)">
                  <path id="Trazado_716930" data-name="Trazado 716930" d="M142.85,384.916c.231-.364.461-.726.707-1.077a12.333,12.333,0,0,1-2.763-.688,10.8,10.8,0,0,1-3.241-1.9h-.008s1.931,3.216,4.226,3.884c-.259.34-.48.647-.621.856-.113.17-.186.276-.194.292-3.6,5.567-12.382,23.564-9.594,63.593.34,4.91.851,10.153,1.572,15.752,0,.016.008.033.008.056a15.022,15.022,0,0,1-4.295,12.625c-9.059,8.978-31.464,21.53-77.44-.235v.008q2.042,1.483,4.262,2.893h.008a90.261,90.261,0,0,0,23.636,10.315c2.658.745,5.267,1.386,7.8,1.912q3.209.668,6.28,1.11c1.232.178,2.439.332,3.638.445,20.169,2.042,35.1-3.914,39.389-19.253a28.19,28.19,0,0,0,.8-11.53h.008a.025.025,0,0,0-.008-.016,1.584,1.584,0,0,0-.024-.194c-.056-.405-.122-.811-.2-1.216v-.016c-1.377-8.629-7.487-54.363,5.583-76.833.156-.267.311-.526.467-.779" transform="translate(-51.207 -381.246)" fill="#a09078"/>
                </g>
              </g>
            </g>
            <path id="Trazado_716931" data-name="Trazado 716931" d="M37.843,531.576l3.369.548-1.267,1.737a35.086,35.086,0,0,0,10.443,1.3l.019,0c13.666.846,36.741-5.422,44.742-9.124,9.336-4.319,14.4-13.915,12.775-22.923,0,0,0-.008,0-.012a18.844,18.844,0,0,0-1.438-4.545C101.8,488.447,89.138,484.35,78.2,489.411c-8.148,3.77-27.725,19.29-35.27,31.148l0,0L35.8,530.218l3.577-.6Z" transform="translate(-16.378 -222.898)" fill="#eddec9"/>
            <g id="Grupo_1017480" data-name="Grupo 1017480" transform="translate(23.567 280.223)" opacity="0.5">
              <g id="Grupo_1017479" data-name="Grupo 1017479">
                <g id="Grupo_1017478" data-name="Grupo 1017478" clip-path="url(#clip-path-15)">
                  <path id="Trazado_716932" data-name="Trazado 716932" d="M43.438,547.252a35.074,35.074,0,0,0,10.443,1.3l.019,0c13.666.845,36.741-5.421,44.742-9.124,9.336-4.32,14.4-13.915,12.774-22.924-.484,21-29.227,31.651-67.978,30.74" transform="translate(-43.438 -516.512)" fill="#a09078"/>
                </g>
              </g>
            </g>
            <path id="Trazado_716933" data-name="Trazado 716933" d="M411.219,265.633l11.127-47.672-3.385-.821-11.146,47.747a2.593,2.593,0,0,1-2.478,2.024c-4.247.056-12.369.216-12.767.622-.452.461,10.305.742,13.848.822a.276.276,0,0,1,.113.523c-3.284,1.649-13.513,6.854-13.059,7.471.435.591,10.07-3.924,13.831-5.717a.706.706,0,0,1,.961.872c-1,3.1-3.048,9.664-2.36,9.8s3.155-7.446,4.226-10.869a4.02,4.02,0,0,1,2.017-2.395c3.169-1.6,10.171-5.227,9.612-5.654-.484-.371-6.59,1.788-10.539,3.243" transform="translate(-179.583 -99.335)" fill="#ec9f29"/>
            <path id="Trazado_716934" data-name="Trazado 716934" d="M364.135,250.563l11.128-47.672-3.385-.821-11.146,47.748a2.593,2.593,0,0,1-2.478,2.024c-4.247.056-12.369.216-12.767.622-.452.461,10.305.742,13.848.822a.276.276,0,0,1,.113.523c-3.284,1.649-13.513,6.854-13.059,7.471.435.591,10.07-3.924,13.831-5.717a.706.706,0,0,1,.961.872c-1,3.1-3.049,9.664-2.361,9.8s3.156-7.446,4.227-10.869a4.022,4.022,0,0,1,2.017-2.395c3.169-1.6,10.171-5.227,9.612-5.654-.484-.371-6.59,1.788-10.54,3.243" transform="translate(-158.043 -92.441)" fill="#ec9f29"/>
            <path id="Trazado_716935" data-name="Trazado 716935" d="M496.125,97.482c.179-.009.367-.015.555-.021,2.363-.07,4.861.252,5.475,1.39.847,1.56-4.013,4.289-6.611,6.524a.763.763,0,0,0,.608,1.335c1.668-.277,2.9-.243,3.267.216.988,1.235-4.4,13.441-15.625,21,0,0,0,0,0,0a35.779,35.779,0,0,1-6.435,3.465c-2.19-4.045-4.7-8.809-7.185-13.608-6.749-12.994-13.4-26.251-13.4-26.251s2.9-.3,7.244-1.068c8.112-1.436,21.258-4.51,29.967-10.329,3.727-2.458,8.375,2.78,4.422,5.675-1.322.967,0,3.212,1.623,3.1,1.972-.137,3.739-.894,4.428.4.627,1.171-3.8,4.149-7.253,6.25-.493.3-.964.581-1.393.833a.587.587,0,0,0,.313,1.092" transform="translate(-208.96 -36.365)" fill="#cc6601"/>
            <path id="Trazado_716936" data-name="Trazado 716936" d="M357.423,88.746s40.358-14.491,48.952,2.591a114.386,114.386,0,0,1-42.751,12.728Z" transform="translate(-163.51 -37.975)" fill="#cc6601"/>
            <path id="Trazado_716937" data-name="Trazado 716937" d="M372.927,230.256s19.323,11.883,36.46,6.587c21.1-6.52,20.247-29.194,20.247-29.194l-28.353,1.387s-20.522,1.377-22.413,3.855-5.941,17.365-5.941,17.365" transform="translate(-170.603 -94.993)" fill="#d16b06"/>
            <path id="Trazado_716938" data-name="Trazado 716938" d="M405.163,132.721h0a24.114,24.114,0,0,1-1.871,7.452c-4.472,10.417-16.994,28.046-51.813,39.193a50.755,50.755,0,0,1-24.083,1.791c-.352-.061-.7-.128-1.056-.195-30.03-5.815-40.75-34.022-41.013-34.746a.046.046,0,0,1,0-.012c-2.619-22.169,6.839-42.4,26.984-50.878q1.857-.785,3.831-1.43a54.307,54.307,0,0,1,8.107-1.959c11.917-1.949,35.243-4.641,54.284,4.346q1.651.776,3.255,1.673c10.7,6,19.635,14.085,22.869,27.343v.006c.021.088.045.189.069.3a23.682,23.682,0,0,1,.444,7.111" transform="translate(-130.33 -41.166)" fill="#e3832f"/>
            <path id="Trazado_716939" data-name="Trazado 716939" d="M390.332,187.649c-6.779,7.308-16.809,12.413-33.235,11.037-23.072-1.93-50.566-8.8-56.967-27.247l0-.007a26.335,26.335,0,0,1-1.286-10.794c1.418-18.2,24.638-31.108,51.756-28.838a72.278,72.278,0,0,1,12.352,2.111l0-.007a.193.193,0,0,0,.038.012c.009,0,.019.008.033.011h0c1.513.516,25.709,8.882,25.094,17.11-.413,4.607,4.626,3.781,6.439,5.34a1.778,1.778,0,0,1,.638,1.4v0a1.618,1.618,0,0,0,.46,1.164c1.775,1.839,8.1.519,8.422,4.646a6.2,6.2,0,0,1-.113,1.564l0,.006c-1.037,5.6-8.25,16.695-13.622,22.485" transform="translate(-136.667 -60.176)" fill="#ff9d4a"/>
            <path id="Trazado_716940" data-name="Trazado 716940" d="M391.5,216c-6.779,7.308-16.809,12.413-33.235,11.037-23.072-1.93-50.566-8.8-56.967-27.247,12.372,19.587,82.243,45.428,103.825-6.274-1.037,5.6-8.25,16.695-13.622,22.485" transform="translate(-137.833 -88.528)" fill="#ca6400"/>
            <path id="Trazado_716941" data-name="Trazado 716941" d="M316.193,74.029c.149,3.4-2.843.11-4.341.007s-2.545.712-2.545,2.984-3,2.919-4.642,2.293-5.54,2.153-4.642,3.984-1.5,5.341-2.4,5.648-3.745-.307-4.792,1.372-1.8,5.343-4.78,5.8-2.557-.456-3.906.612.278,5.437-3.538,6.219a60.535,60.535,0,0,0,.355,10.037c-.078-.246-1.3-4.075-2.584-10.232-1.436-.839-1.032-3.123-1.032-3.123s.078-.435.206-1.174c-2.288-12.935-4-32.684,1.418-51.635q.371-1.3.787-2.591a23.482,23.482,0,0,0,.925-4.161c.078-.56.137-1.123.185-1.682.018-.238.036-.471.051-.705.027-.411.048-.818.06-1.216.036-.913.036-1.795.018-2.622-.021-.924,10.332-16.47,10.332-16.47l0,0s.024.018.066.058a4.1,4.1,0,0,1,.313.267c.123.106.266.24.427.4a48.8,48.8,0,0,1,12.949,26.653c1.17,8.814,3.89,11.822,6.128,15.082q.286.42.564.849c7.119,1.192,6.06,6.287,3.217,5.827s1.047,4.122,1.2,7.525" transform="translate(-125.975 -7.946)" fill="#f79b4e"/>
            <path id="Trazado_716942" data-name="Trazado 716942" d="M288.469,26.86s0,0,0,.006a15.839,15.839,0,0,1-4.685,5.122,15.538,15.538,0,0,1-6.205,2.646,12.282,12.282,0,0,1-2.581.189.133.133,0,0,1-.036,0,9.156,9.156,0,0,1-4.628-1.356,7.122,7.122,0,0,1-2.113-2.038c-2.93-4.313-.713-11.05,4.953-15.049,4.846-3.425,10.646-3.738,14.056-1.053a.434.434,0,0,1,.081.064c.125.1.251.207.37.319a7.013,7.013,0,0,1,1.056,1.226c1.879,2.768,1.644,6.527-.266,9.928" transform="translate(-122.111 -6.189)" fill="#f79b4e"/>
            <path id="Trazado_716943" data-name="Trazado 716943" d="M267.361,21.744a3.993,3.993,0,0,1-5.117.023c-1.158-.958-2.107-2.105-1.462-2.965,1.34-1.785,2.782-1.365,2.782-1.365s-3.795-4.621-1.589-6.407a2.669,2.669,0,0,1,3.906.419S264.492,4.2,268.3,3.363s3.915,1.995,3.915,1.995S272.735-.1,277.268,0c4.269.1,2.273,11.61-9.907,21.742" transform="translate(-119.205 0)" fill="#eb4f50"/>
            <path id="Trazado_716944" data-name="Trazado 716944" d="M273.234,58.666c-1.625.233-3.732.29-4.566-.791-1.439-1.868,2.588-7.8,2.588-7.8.125-.029.252-.052.374-.071a7.669,7.669,0,0,0,3.614,2.895c-.567,1.811-1.238,3.776-2.01,5.767" transform="translate(-122.765 -22.875)" fill="#ea2d2d"/>
            <path id="Trazado_716945" data-name="Trazado 716945" d="M270.376,46.393a1.427,1.427,0,0,1-.883.785c-.183.058-.371.126-.554.2-.11.043-.222.09-.332.141a17.226,17.226,0,0,0-5.114,4c-1.042-2.927.6-5.6,1.731-6.993a2.743,2.743,0,0,1,2.134-1.012h.371a2.929,2.929,0,0,1,2.593,1.588.2.2,0,0,0,.024.047,1.422,1.422,0,0,1,.032,1.242" transform="translate(-120.388 -19.907)" fill="#efb525"/>
            <path id="Trazado_716946" data-name="Trazado 716946" d="M275.552,61.648c-5.376-.447-2.423-11.842-2.423-11.842.183-.075.371-.144.555-.2a1.428,1.428,0,0,0,.883-.785c6.693,2.88,6.357,13.275.985,12.829" transform="translate(-124.578 -22.333)" fill="#eb4f50"/>
            <path id="Trazado_716947" data-name="Trazado 716947" d="M284.083,35.45a.968.968,0,1,1-.967-.986.977.977,0,0,1,.967.986" transform="translate(-129.074 -15.766)" fill="#4d4d4d"/>
            <g id="Grupo_1017483" data-name="Grupo 1017483" transform="translate(154.895 20.676)" opacity="0.5">
              <g id="Grupo_1017482" data-name="Grupo 1017482">
                <g id="Grupo_1017481" data-name="Grupo 1017481" clip-path="url(#clip-path-16)">
                  <path id="Trazado_716948" data-name="Trazado 716948" d="M296.966,38.111c-2.981,8.379-11.46,9.763-11.46,9.763.018-.237.036-.471.05-.706.027-.411.048-.818.06-1.216.152-.022.308-.046.46-.073a15.548,15.548,0,0,0,6.206-2.646,15.837,15.837,0,0,0,4.684-5.122" transform="translate(-285.505 -38.111)" fill="#aa6225"/>
                </g>
              </g>
            </g>
            <g id="Grupo_1017486" data-name="Grupo 1017486" transform="translate(248.196 54.094)" opacity="0.25">
              <g id="Grupo_1017485" data-name="Grupo 1017485">
                <g id="Grupo_1017484" data-name="Grupo 1017484" clip-path="url(#clip-path-17)">
                  <path id="Trazado_716949" data-name="Trazado 716949" d="M484.116,137.168a23.681,23.681,0,0,0-.444-7.111c-.024-.116-.048-.216-.069-.3v-.006c-3.234-13.258-12.173-21.342-22.869-27.343q-1.6-.9-3.255-1.673c.922-.106,3.446-.419,6.862-1.025,0,0,23.209,5.122,19.775,37.462" transform="translate(-457.478 -99.706)" fill="#7f460d"/>
                </g>
              </g>
            </g>
            <g id="Grupo_1017489" data-name="Grupo 1017489" transform="translate(172.928 108.421)" opacity="0.5">
              <g id="Grupo_1017488" data-name="Grupo 1017488">
                <g id="Grupo_1017487" data-name="Grupo 1017487" clip-path="url(#clip-path-18)">
                  <path id="Trazado_716950" data-name="Trazado 716950" d="M318.743,199.844s48.548,19.055,83.636,0c-13.007,3.146-42.045,9.188-83.636,0" transform="translate(-318.743 -199.844)" fill="#cc6601"/>
                </g>
              </g>
            </g>
            <g id="Grupo_1017492" data-name="Grupo 1017492" transform="translate(175.923 94.759)" opacity="0.5">
              <g id="Grupo_1017491" data-name="Grupo 1017491">
                <g id="Grupo_1017490" data-name="Grupo 1017490" clip-path="url(#clip-path-19)">
                  <path id="Trazado_716951" data-name="Trazado 716951" d="M324.264,174.661s40.737,15.989,70.179,0c-10.914,2.64-35.28,7.71-70.179,0" transform="translate(-324.264 -174.661)" fill="#cc6601"/>
                </g>
              </g>
            </g>
            <g id="Grupo_1017495" data-name="Grupo 1017495" transform="translate(195.34 84.875)" opacity="0.5">
              <g id="Grupo_1017494" data-name="Grupo 1017494">
                <g id="Grupo_1017493" data-name="Grupo 1017493" clip-path="url(#clip-path-20)">
                  <path id="Trazado_716952" data-name="Trazado 716952" d="M360.054,156.443s29.466,11.565,50.762,0c-7.894,1.91-25.518,5.577-50.762,0" transform="translate(-360.054 -156.443)" fill="#cc6601"/>
                </g>
              </g>
            </g>
            <path id="Trazado_716953" data-name="Trazado 716953" d="M149.05,200.955v-.007a21.451,21.451,0,0,0-3.214-8.251c-8-12.538-29.634-12.913-48.253-.886a58.9,58.9,0,0,0-8.069,6.253v-.007a.169.169,0,0,1-.023.024s-.01.012-.019.021l0,0c-.89.951-15.073,16.24-11.477,21.917,2.063,3.153-1.875,4.491-2.581,6.307a1.449,1.449,0,0,0,.079,1.253l0,0a1.316,1.316,0,0,1,.116,1.013c-.571,2-5.619,3.477-4.272,6.567a5.063,5.063,0,0,0,.681,1.081l0,0c2.893,3.628,12.33,8.836,18.41,10.938,7.674,2.654,16.839,2.478,28.118-4.808,15.842-10.232,32.968-25.712,30.5-41.422" transform="translate(-32.531 -83.734)" fill="#cc6601"/>
            <path id="Trazado_716954" data-name="Trazado 716954" d="M88.331,292.993l-9.065-38.832,2.758-.669L91.1,292.386a2.113,2.113,0,0,0,2.019,1.648c3.46.046,10.075.176,10.4.507.368.375-8.395.6-11.28.67a.226.226,0,0,0-.092.426c2.676,1.343,11.008,5.583,10.638,6.086-.354.481-8.2-3.2-11.266-4.657a.575.575,0,0,0-.783.71c.818,2.522,2.483,7.872,1.923,7.986s-2.571-6.065-3.443-8.853a3.28,3.28,0,0,0-1.643-1.952c-2.581-1.306-8.285-4.257-7.83-4.606.395-.3,5.368,1.457,8.586,2.642" transform="translate(-36.262 -115.965)" fill="#ec9f29"/>
            <path id="Trazado_716955" data-name="Trazado 716955" d="M126.684,280.718l-9.064-38.832,2.757-.669,9.079,38.894a2.112,2.112,0,0,0,2.018,1.648c3.46.046,10.075.176,10.4.507.368.375-8.395.6-11.28.67a.225.225,0,0,0-.092.426c2.676,1.343,11.008,5.583,10.638,6.086-.354.481-8.2-3.2-11.266-4.657a.575.575,0,0,0-.783.71c.818,2.522,2.483,7.872,1.923,7.986s-2.57-6.065-3.443-8.853a3.277,3.277,0,0,0-1.643-1.951c-2.581-1.306-8.285-4.258-7.829-4.606.394-.3,5.367,1.457,8.585,2.642" transform="translate(-53.808 -110.349)" fill="#ec9f29"/>
            <path id="Trazado_716956" data-name="Trazado 716956" d="M6.837,156.022c-.146-.008-.3-.012-.452-.017-1.925-.057-3.959.206-4.46,1.132-.691,1.271,3.269,3.493,5.386,5.314a.622.622,0,0,1-.5,1.088c-1.358-.226-2.363-.2-2.662.176-.8,1.006,3.587,10.948,12.728,17.1,0,0,0,0,0,0a29.147,29.147,0,0,0,5.242,2.822c1.784-3.295,3.825-7.175,5.852-11.084,5.5-10.584,10.912-21.383,10.912-21.383s-2.362-.243-5.9-.87c-6.608-1.17-17.316-3.675-24.411-8.414-3.035-2-6.822,2.265-3.6,4.623,1.076.788,0,2.616-1.322,2.524-1.606-.111-3.045-.728-3.607.327-.511.954,3.1,3.379,5.908,5.091.4.243.785.474,1.135.679a.478.478,0,0,1-.255.889" transform="translate(0 -64.672)" fill="#cc6601"/>
            <path id="Trazado_716957" data-name="Trazado 716957" d="M101.031,264.177s-15.74,9.679-29.7,5.366c-17.187-5.311-16.493-23.781-16.493-23.781l23.1,1.13s16.717,1.121,18.257,3.14,4.839,14.145,4.839,14.145" transform="translate(-25.085 -112.429)" fill="#d16b06"/>
            <path id="Trazado_716958" data-name="Trazado 716958" d="M31.052,184.727h0a19.621,19.621,0,0,0,1.523,6.07c3.643,8.486,13.844,22.845,42.206,31.926A41.343,41.343,0,0,0,94.4,224.182c.286-.05.573-.1.86-.159,24.462-4.737,33.194-27.714,33.408-28.3l0-.01c2.134-18.059-5.57-34.539-21.98-41.444q-1.513-.639-3.121-1.164a44.317,44.317,0,0,0-6.6-1.6c-9.707-1.588-28.707-3.78-44.218,3.541q-1.345.632-2.652,1.363C41.386,161.3,34.1,167.883,31.47,178.682v.005c-.017.072-.036.154-.056.247a19.28,19.28,0,0,0-.362,5.793" transform="translate(-14.171 -68.582)" fill="#e3832f"/>
            <path id="Trazado_716959" data-name="Trazado 716959" d="M157.489,136.917c-.122,2.77,2.316.089,3.536,0s2.073.58,2.073,2.431,2.44,2.378,3.782,1.868,4.513,1.754,3.781,3.245,1.22,4.351,1.951,4.6,3.05-.25,3.9,1.117,1.463,4.353,3.893,4.725,2.083-.372,3.181.5-.226,4.43,2.882,5.066a49.339,49.339,0,0,1-.289,8.176c.063-.2,1.06-3.32,2.1-8.334,1.169-.684.841-2.544.841-2.544s-.063-.354-.168-.956c1.864-10.536,3.259-26.623-1.154-42.061q-.3-1.059-.641-2.111a19.128,19.128,0,0,1-.754-3.389c-.063-.456-.112-.914-.151-1.37-.015-.193-.029-.384-.041-.575-.022-.334-.039-.666-.048-.991-.029-.743-.029-1.462-.015-2.136.017-.753-8.417-13.416-8.417-13.416l0,0s-.02.015-.054.047c-.087.067-.173.142-.255.218-.1.087-.216.2-.348.324a39.749,39.749,0,0,0-10.547,21.711c-.953,7.18-3.169,9.63-4.992,12.286q-.233.342-.459.691c-5.8.972-4.936,5.121-2.62,4.747s-.853,3.357-.974,6.13" transform="translate(-71.683 -41.521)" fill="#f79b4e"/>
            <path id="Trazado_716960" data-name="Trazado 716960" d="M194.913,101.784s0,0,0,0a12.891,12.891,0,0,0,5.6.768,12.664,12.664,0,0,0,5.265-1.574,10.02,10.02,0,0,0,1.714-1.226.107.107,0,0,0,.021-.021,7.459,7.459,0,0,0,2.192-3.26,5.8,5.8,0,0,0,.262-2.377c-.411-4.227-5.308-7.292-10.94-6.846-4.818.379-8.614,3.2-9.352,6.661a.388.388,0,0,0-.017.082c-.028.126-.049.26-.066.393a5.715,5.715,0,0,0-.023,1.318c.264,2.713,2.37,4.945,5.337,6.08" transform="translate(-86.713 -39.895)" fill="#f79b4e"/>
            <path id="Trazado_716961" data-name="Trazado 716961" d="M207.507,87.227a3.253,3.253,0,0,0,3.216-2.65c.227-1.2.224-2.416-.628-2.619a2.22,2.22,0,0,0-2.454.594s1.076-4.4-1.236-4.372a4,4,0,0,0-3.333,1.829s-1.816-6.62-4.642-5.161a4.883,4.883,0,0,0-2.5,4.646s-1.583-2.259-4.368.169c-2.622,2.285,3.039,7.562,15.945,7.565" transform="translate(-87.347 -34.144)" fill="#eb4f50"/>
            <path id="Trazado_716962" data-name="Trazado 716962" d="M224.183,111.2c1.336.054,3.048-.075,3.634-1.02,1.011-1.634-2.745-6.106-2.745-6.106-.1-.012-.208-.021-.309-.026a6.251,6.251,0,0,1-2.688,2.646c.61,1.42,1.317,2.957,2.108,4.506" transform="translate(-101.593 -47.597)" fill="#ea2d2d"/>
            <path id="Trazado_716963" data-name="Trazado 716963" d="M222.611,113.733c4.319-.808.98-9.8.98-9.8-.155-.046-.312-.086-.466-.117a1.163,1.163,0,0,1-.781-.563c-5.184,2.89-4.049,11.285.267,10.477" transform="translate(-100.138 -47.237)" fill="#eb4f50"/>
            <path id="Trazado_716964" data-name="Trazado 716964" d="M211.433,100.944a.788.788,0,1,0,.092-1.121.8.8,0,0,0-.092,1.121" transform="translate(-96.638 -45.584)" fill="#4d4d4d"/>
            <g id="Grupo_1017498" data-name="Grupo 1017498" transform="translate(16.599 85.63)" opacity="0.25">
              <g id="Grupo_1017497" data-name="Grupo 1017497">
                <g id="Grupo_1017496" data-name="Grupo 1017496" clip-path="url(#clip-path-21)">
                  <path id="Trazado_716965" data-name="Trazado 716965" d="M30.878,188.35a19.281,19.281,0,0,1,.362-5.793c.02-.094.039-.176.056-.247V182.3c2.635-10.8,9.916-17.384,18.629-22.272q1.305-.732,2.652-1.363c-.751-.087-2.807-.342-5.59-.835,0,0-18.906,4.172-16.108,30.516" transform="translate(-30.596 -157.834)" fill="#7f460d"/>
                </g>
              </g>
            </g>
            <path id="Trazado_716966" data-name="Trazado 716966" d="M59.494,249.346c7.674,2.654,16.839,2.478,28.118-4.808,15.843-10.232,32.969-25.711,30.5-41.422v-.007a21.442,21.442,0,0,0-3.214-8.251c-8-12.538-29.633-12.913-48.253-.886a58.81,58.81,0,0,0-8.068,6.252v-.007a.185.185,0,0,1-.022.024c-.005,0-.011.012-.02.021l0,0c-.889.951-15.073,16.24-11.476,21.918,2.063,3.152-1.876,4.491-2.581,6.306a1.447,1.447,0,0,0,.079,1.253l0,0a1.319,1.319,0,0,1,.116,1.013c-.571,2-5.62,3.477-4.272,6.568a5.031,5.031,0,0,0,.681,1.08l0,0c2.893,3.628,12.33,8.836,18.41,10.939" transform="translate(-18.378 -84.722)" fill="#ff9d4a"/>
            <path id="Trazado_716967" data-name="Trazado 716967" d="M60.262,264.455c7.674,2.654,16.839,2.478,28.118-4.808,15.843-10.232,32.969-25.711,30.5-41.422-1.383,18.82-41.7,64.178-77.027,35.292,2.893,3.628,12.33,8.836,18.41,10.939" transform="translate(-19.146 -99.831)" fill="#ca6400"/>
            <g id="Grupo_1017501" data-name="Grupo 1017501" transform="translate(31.729 119.98)" opacity="0.5">
              <g id="Grupo_1017500" data-name="Grupo 1017500">
                <g id="Grupo_1017499" data-name="Grupo 1017499" clip-path="url(#clip-path-22)">
                  <path id="Trazado_716968" data-name="Trazado 716968" d="M118.595,221.149s-27.588,32.307-60.112,32.062c10.554-2.725,33.741-9.514,60.112-32.062" transform="translate(-58.483 -221.149)" fill="#cc6601"/>
                </g>
              </g>
            </g>
            <g id="Grupo_1017504" data-name="Grupo 1017504" transform="translate(34.011 111.309)" opacity="0.5">
              <g id="Grupo_1017503" data-name="Grupo 1017503">
                <g id="Grupo_1017502" data-name="Grupo 1017502" clip-path="url(#clip-path-23)">
                  <path id="Trazado_716969" data-name="Trazado 716969" d="M113.129,205.166s-23.149,27.109-50.44,26.9c8.856-2.287,28.312-7.984,50.44-26.9" transform="translate(-62.689 -205.166)" fill="#cc6601"/>
                </g>
              </g>
            </g>
            <g id="Grupo_1017507" data-name="Grupo 1017507" transform="translate(30.222 111.648)" opacity="0.5">
              <g id="Grupo_1017506" data-name="Grupo 1017506">
                <g id="Grupo_1017505" data-name="Grupo 1017505" clip-path="url(#clip-path-24)">
                  <path id="Trazado_716970" data-name="Trazado 716970" d="M92.189,205.792S75.445,225.4,55.705,225.251c6.406-1.654,20.479-5.774,36.484-19.459" transform="translate(-55.705 -205.792)" fill="#cc6601"/>
                </g>
              </g>
            </g>
            <path id="Trazado_716971" data-name="Trazado 716971" d="M223.334,101.789a1.163,1.163,0,0,0,.962.032c.145-.06.3-.114.452-.163.091-.03.186-.06.281-.085a14.032,14.032,0,0,1,5.286-.158c-.872-2.376-3.292-3.2-4.725-3.478a2.232,2.232,0,0,0-1.863.477l-.232.193a2.384,2.384,0,0,0-.8,2.345.148.148,0,0,1,.009.042,1.16,1.16,0,0,0,.627.795" transform="translate(-101.852 -44.784)" fill="#efb525"/>
          </g>
        </g>
      </g>
    </g>
  </g>
</svg>
