<svg xmlns="http://www.w3.org/2000/svg" xmlns:xlink="http://www.w3.org/1999/xlink" width="98.915" height="99.5" viewBox="0 0 98.915 99.5">
  <defs>
    <radialGradient id="radial-gradient" cx="0.076" cy="0.019" r="1.465" gradientTransform="translate(0.001)" gradientUnits="objectBoundingBox">
      <stop offset="0" stop-color="#f6f6f7"/>
      <stop offset="0.477" stop-color="#f9f9fa"/>
      <stop offset="0.715" stop-color="#fff"/>
    </radialGradient>
    <filter id="Trazado_40937" x="0.001" y="0.685" width="98.915" height="98.815" filterUnits="userSpaceOnUse">
      <feOffset dy="7" input="SourceAlpha"/>
      <feGaussianBlur stdDeviation="2.5" result="blur"/>
      <feFlood flood-opacity="0.102"/>
      <feComposite operator="in" in2="blur"/>
      <feComposite in="SourceGraphic"/>
    </filter>
  </defs>
  <g id="Grupo_1018041" data-name="Grupo 1018041" transform="translate(10620.415 -11803.985)">
    <g id="Grupo_1017767" data-name="Grupo 1017767" transform="translate(9531 6530.992)">
      <g id="Grupo_1016997" data-name="Grupo 1016997" transform="translate(-20145 5272.994)">
        <g id="Grupo_1004059" data-name="Grupo 1004059">
          <g id="Grupo_18423" data-name="Grupo 18423">
            <g id="Grupo_18421" data-name="Grupo 18421">
              <g id="Grupo_18420" data-name="Grupo 18420">
                <g id="Grupo_18419" data-name="Grupo 18419">
                  <path id="Trazado_40936" data-name="Trazado 40936" d="M279.623,2188.219a42.5,42.5,0,1,1-42.5-42.5A42.5,42.5,0,0,1,279.623,2188.219Z" transform="translate(-194.623 -2145.721)" fill="#fff"/>
                </g>
              </g>
            </g>
            <g transform="matrix(1, 0, 0, 1, -6.42, 0)" filter="url(#Trazado_40937)">
              <path id="Trazado_40937-2" data-name="Trazado 40937" d="M279.391,2187.967a42.5,42.5,0,1,0-42.5,42.5A42.331,42.331,0,0,0,279.391,2187.967Z" transform="translate(-187.98 -2145.47)" fill="url(#radial-gradient)"/>
            </g>
            <g id="Grupo_18422" data-name="Grupo 18422" transform="translate(7.529 23.86)">
              <path id="Trazado_40939" data-name="Trazado 40939" d="M273.718,2164.488a42.5,42.5,0,0,1-73.173,42.323,42.37,42.37,0,0,0,73.173-42.323Z" transform="translate(-200.545 -2164.488)" fill="#eceef0"/>
            </g>
          </g>
        </g>
      </g>
      <g id="dolor" transform="translate(-20137.5 5280.493)">
        <g id="Grupo_1017049" data-name="Grupo 1017049" transform="translate(0)">
          <path id="Trazado_715248" data-name="Trazado 715248" d="M70,35A35,35,0,0,1,14.469,63.349a7.815,7.815,0,0,0-7.816-7.818h0A35,35,0,0,1,55.53,6.653a7.818,7.818,0,0,0,7.818,7.818A34.839,34.839,0,0,1,70,35Z" transform="translate(0)" fill="#464f6e"/>
          <path id="Trazado_715249" data-name="Trazado 715249" d="M70,146.363a35,35,0,0,1-55.531,28.349h0a7.815,7.815,0,0,0-7.816-7.816h0A35.025,35.025,0,0,1,4.6,129,35.01,35.01,0,0,0,65.4,129,34.834,34.834,0,0,1,70,146.363Z" transform="translate(0 -111.363)" fill="#303c5a"/>
        </g>
        <g id="Grupo_1017053" data-name="Grupo 1017053" transform="translate(6.651 6.653)">
          <g id="Grupo_1017050" data-name="Grupo 1017050">
            <path id="Trazado_715250" data-name="Trazado 715250" d="M100.294,61.529a5.9,5.9,0,0,0-1.7,4.576c0,.01,0,.019,0,.027a19.154,19.154,0,0,1-1.188,7.524,39.652,39.652,0,0,1-9.461,14.3,39.648,39.648,0,0,1-14.3,9.462,19.167,19.167,0,0,1-7.525,1.189l-.026,0a5.909,5.909,0,0,0-4.577,1.7l-5.053,5.053a35.222,35.222,0,0,1-7.818-7.818L53.7,92.485a5.906,5.906,0,0,0,1.7-4.577c0-.008,0-.018,0-.026a19.158,19.158,0,0,1,1.188-7.524,39.653,39.653,0,0,1,9.462-14.3,39.647,39.647,0,0,1,14.3-9.46,19.137,19.137,0,0,1,7.524-1.188H87.9a5.909,5.909,0,0,0,4.577-1.7l5.052-5.052a35.107,35.107,0,0,1,7.818,7.818Z" transform="translate(-48.65 -48.66)" fill="#fd6a6b"/>
            <path id="Trazado_715251" data-name="Trazado 715251" d="M123.033,84.26a5.9,5.9,0,0,0-1.7,4.576c0,.01,0,.019,0,.027a19.154,19.154,0,0,1-1.188,7.524,39.652,39.652,0,0,1-9.461,14.3,39.649,39.649,0,0,1-14.3,9.462,19.167,19.167,0,0,1-7.525,1.189l-.026,0a5.909,5.909,0,0,0-4.577,1.7l-5.053,5.053a35.074,35.074,0,0,1-4.216-3.6l49.5-49.5a35.076,35.076,0,0,1,3.6,4.218Z" transform="translate(-71.389 -71.39)" fill="#fc5b5b"/>
            <path id="Trazado_715252" data-name="Trazado 715252" d="M149.874,149.871c-8.979,8.979-19.761,12.756-24.082,8.435s-.545-15.1,8.434-24.083,19.761-12.754,24.082-8.433S158.853,140.892,149.874,149.871Z" transform="translate(-113.701 -113.7)" fill="#fe3244"/>
            <path id="Trazado_715253" data-name="Trazado 715253" d="M161.169,161.167c-8.979,8.979-19.761,12.756-24.082,8.435L169.6,137.085c4.321,4.321.545,15.1-8.434,24.082Z" transform="translate(-124.996 -124.996)" fill="#de1263"/>
            <path id="Trazado_715254" data-name="Trazado 715254" d="M133.3,165.814c-2.453-2.453,2.838-11.72,11.817-20.7s18.247-14.269,20.7-11.817c-.965-.965-9.027,5.532-18.005,14.51S132.335,164.849,133.3,165.814Z" transform="translate(-121.209 -121.208)" fill="#fd6a6b"/>
            <path id="Trazado_715255" data-name="Trazado 715255" d="M157.786,157.783c-8.979,8.979-18.247,14.271-20.7,11.818.965.965,9.027-5.532,18.006-14.511s15.475-17.041,14.511-18.005C172.056,139.537,166.765,148.8,157.786,157.783Z" transform="translate(-124.996 -124.996)" fill="#f95860"/>
          </g>
        </g>
        <path id="Trazado_715260" data-name="Trazado 715260" d="M70,35a34.986,34.986,0,1,1-4.6-17.363A35,35,0,0,1,70,35Z" fill="none"/>
      </g>
    </g>
  </g>
</svg>
