<svg xmlns="http://www.w3.org/2000/svg" width="90" height="90" viewBox="0 0 90 90">
  <g id="Grupo_1018034" data-name="Grupo 1018034" transform="translate(9091 -9815.467)">
    <g id="Grupo_1017763" data-name="Grupo 1017763" transform="translate(11450 6529.2)">
      <g id="Grupo_1017762" data-name="Grupo 1017762">
        <g id="Grupo_1017761" data-name="Grupo 1017761">
          <g id="Grupo_1017760" data-name="Grupo 1017760">
            <g id="Grupo_1016984" data-name="Grupo 1016984" transform="translate(-21043 -2947.733)">
              <circle id="Elipse_7975" data-name="Elipse 7975" cx="45" cy="45" r="45" transform="translate(502 6234)" fill="#bbf2fb"/>
              <g id="poliquistico" transform="translate(506.18 6219.644)">
                <g id="Grupo_1016968" data-name="Grupo 1016968" transform="translate(0 24.207)">
                  <path id="Trazado_715205" data-name="Trazado 715205" d="M77.641,56.973a12.431,12.431,0,0,0-2.335-7.27,4.51,4.51,0,0,1-.815-2.954,9.367,9.367,0,0,0-7.921-9.933,4.525,4.525,0,0,1-2.609-1.36A10.944,10.944,0,0,0,54.1,32.183a4.55,4.55,0,0,1-4.265-1.532,9.371,9.371,0,0,0-14.1-.238,4.54,4.54,0,0,1-4.654,1.275,14.085,14.085,0,0,0-4.365-.566,13.877,13.877,0,0,0-4.278.8A11.722,11.722,0,0,1,11.647,30.5a16.316,16.316,0,0,1-4.205-4.436l-.708-.708a3.835,3.835,0,0,0-2.7-1.151,4.032,4.032,0,0,0-1.34.232V25.8L.847,25.774A4.022,4.022,0,0,0,0,28.248a7.53,7.53,0,0,0,1.193,4.067A30.448,30.448,0,0,1,6.014,48.758v.284a9.707,9.707,0,0,1-1.309,4.8,10.936,10.936,0,0,0,.173,11.092,4.487,4.487,0,0,1,.645,2.686C7.2,77.067,22.4,89.037,42.763,89.037S75.2,71.1,75.2,66.928a4.467,4.467,0,0,1,.547-3.333,12.437,12.437,0,0,0,1.9-6.622Z" transform="translate(0 -24.207)" fill="#ffa8ad"/>
                </g>
                <g id="Grupo_1016969" data-name="Grupo 1016969" transform="translate(0 24.207)">
                  <path id="Trazado_715206" data-name="Trazado 715206" d="M46.1,85.423a9.341,9.341,0,0,1-1.3-3.411,5.675,5.675,0,0,0-5.708-4.691l-.145,0a17.185,17.185,0,0,1-10.1-31.176,10.7,10.7,0,0,0,4.47-9.113q-.006-.163-.006-.327a9.338,9.338,0,0,1,2.414-6.278,4.54,4.54,0,0,1-4.641,1.262,14.085,14.085,0,0,0-4.365-.566,13.877,13.877,0,0,0-4.278.8A11.722,11.722,0,0,1,11.647,30.5a16.316,16.316,0,0,1-4.205-4.436l-.708-.708a3.835,3.835,0,0,0-2.7-1.151,4.032,4.032,0,0,0-1.34.232V25.8L.847,25.775A4.022,4.022,0,0,0,0,28.249a7.53,7.53,0,0,0,1.193,4.067A30.448,30.448,0,0,1,6.014,48.759v.284a9.707,9.707,0,0,1-1.309,4.8,10.936,10.936,0,0,0,.173,11.092,4.487,4.487,0,0,1,.645,2.686C7.2,77.068,22.4,89.038,42.763,89.038a33.85,33.85,0,0,0,6.375-.6A9.327,9.327,0,0,1,46.1,85.423Z" transform="translate(0 -24.208)" fill="#fc979e"/>
                </g>
                <g id="Grupo_1016970" data-name="Grupo 1016970" transform="translate(4.453 66.928)">
                  <path id="Trazado_715207" data-name="Trazado 715207" d="M100.109,305.931A12.5,12.5,0,0,1,89.8,313.743a4.684,4.684,0,0,0-3.3,1.892,9.377,9.377,0,0,1-7.5,3.813,4.383,4.383,0,0,0-3.129,1.357,10.933,10.933,0,0,1-16.18-.513,4.565,4.565,0,0,0-4.816-1.384,12.5,12.5,0,0,1-14.231-5.321,4.492,4.492,0,0,0-3.2-2.038,9.387,9.387,0,0,1-7.011-4.928,4.356,4.356,0,0,1-.33,1.361,9.374,9.374,0,0,0,7.341,12.94,4.492,4.492,0,0,1,3.2,2.038,12.5,12.5,0,0,0,14.231,5.321,4.565,4.565,0,0,1,4.816,1.384,10.933,10.933,0,0,0,16.18.513A4.383,4.383,0,0,1,79,328.821a9.377,9.377,0,0,0,7.5-3.813,4.684,4.684,0,0,1,3.3-1.892,12.5,12.5,0,0,0,10.475-16.606,4.875,4.875,0,0,1-.164-.58Z" transform="translate(-29.365 -305.931)" fill="#fff2de"/>
                </g>
                <g id="Grupo_1016971" data-name="Grupo 1016971" transform="translate(4.453 67.618)">
                  <path id="Trazado_715208" data-name="Trazado 715208" d="M79,332.683a9.366,9.366,0,0,1-7.984-4.4c-.126-.2-.241-.407-.35-.614a10.932,10.932,0,0,1-10.966-3.519,4.565,4.565,0,0,0-4.816-1.384,12.5,12.5,0,0,1-14.231-5.321,4.491,4.491,0,0,0-3.2-2.038,9.387,9.387,0,0,1-7.011-4.928,4.356,4.356,0,0,1-.33,1.361,9.374,9.374,0,0,0,7.341,12.94,4.492,4.492,0,0,1,3.2,2.038,12.5,12.5,0,0,0,14.231,5.321,4.565,4.565,0,0,1,4.816,1.384,10.933,10.933,0,0,0,16.18.513A4.384,4.384,0,0,1,79,332.683Z" transform="translate(-29.366 -310.483)" fill="#ffe4c2"/>
                </g>
                <g id="Grupo_1016972" data-name="Grupo 1016972" transform="translate(33.732 63.956)">
                  <ellipse id="Elipse_7969" data-name="Elipse 7969" cx="9.373" cy="7.811" rx="9.373" ry="7.811" fill="#ff808c"/>
                </g>
                <g id="Grupo_1016973" data-name="Grupo 1016973" transform="translate(33.732 63.956)">
                  <path id="Trazado_715209" data-name="Trazado 715209" d="M228.695,294.142c0-3.4,2.609-6.292,6.249-7.365a11.055,11.055,0,0,0-3.124-.446c-5.177,0-9.373,3.5-9.373,7.811s4.2,7.811,9.373,7.811a11.049,11.049,0,0,0,3.124-.446C231.3,300.434,228.695,297.543,228.695,294.142Z" transform="translate(-222.446 -286.331)" fill="#ff6e7c"/>
                </g>
                <g id="Grupo_1016974" data-name="Grupo 1016974" transform="translate(54.122 56.272)">
                  <ellipse id="Elipse_7970" data-name="Elipse 7970" cx="7.811" cy="6.249" rx="7.811" ry="6.249" transform="translate(0 4.858) rotate(-18.109)" fill="#ff808c"/>
                </g>
                <g id="Grupo_1016975" data-name="Grupo 1016975" transform="translate(55.776 58.216)">
                  <path id="Trazado_715210" data-name="Trazado 715210" d="M374.312,257.322c-1.05-3.21,1.279-6.864,5.221-8.276a8.808,8.808,0,0,0-5.988-.091c-4.1,1.341-6.555,5.087-5.482,8.367s5.266,4.852,9.366,3.512c.088-.029.174-.06.261-.091A5.639,5.639,0,0,1,374.312,257.322Z" transform="translate(-367.812 -248.477)" fill="#ff6e7c"/>
                </g>
                <g id="Grupo_1016976" data-name="Grupo 1016976" transform="translate(33.235 34.133)">
                  <ellipse id="Elipse_7971" data-name="Elipse 7971" cx="5.624" cy="7.03" rx="5.624" ry="7.03" transform="translate(0 11.248) rotate(-89.141)" fill="#ff808c"/>
                </g>
                <g id="Grupo_1016977" data-name="Grupo 1016977" transform="translate(33.302 34.234)">
                  <path id="Trazado_715211" data-name="Trazado 715211" d="M225.232,95.855c.033-2.27,1.743-4.2,4.177-5.053a8.549,8.549,0,0,0-2.689-.468c-3.882-.057-7.066,2.415-7.111,5.521s3.065,5.669,6.947,5.726a8.5,8.5,0,0,0,2.935-.468C226.958,100.229,225.2,98.2,225.232,95.855Z" transform="translate(-219.608 -90.333)" fill="#ff6e7c"/>
                </g>
                <g id="Grupo_1016978" data-name="Grupo 1016978" transform="translate(48.218 35.522)">
                  <ellipse id="Elipse_7972" data-name="Elipse 7972" cx="6.975" cy="8.719" rx="6.975" ry="8.719" transform="translate(0 11.495) rotate(-55.515)" fill="#ff808c"/>
                </g>
                <g id="Grupo_1016979" data-name="Grupo 1016979" transform="translate(51.175 38.627)">
                  <path id="Trazado_715212" data-name="Trazado 715212" d="M347.427,132.629c-3.969-2.727-5.417-7.512-3.235-10.687a5.885,5.885,0,0,1,2.757-2.147c-3.317-1.1-6.752-.343-8.462,2.147-2.182,3.175-.733,7.959,3.235,10.687a9.221,9.221,0,0,0,8.379,1.336A10.674,10.674,0,0,1,347.427,132.629Z" transform="translate(-337.471 -119.303)" fill="#ff6e7c"/>
                </g>
                <g id="Grupo_1016980" data-name="Grupo 1016980" transform="translate(16.302 63.113)">
                  <ellipse id="Elipse_7973" data-name="Elipse 7973" cx="4.687" cy="6.249" rx="4.687" ry="6.249" transform="matrix(0.294, -0.956, 0.956, 0.294, 0, 8.961)" fill="#ff808c"/>
                </g>
                <g id="Grupo_1016981" data-name="Grupo 1016981" transform="translate(17.509 64.57)">
                  <path id="Trazado_715213" data-name="Trazado 715213" d="M121.871,293.391a3.963,3.963,0,0,1,2-2.311,8.37,8.37,0,0,0-.9-.334c-3.3-1.013-6.589.171-7.349,2.645s1.3,5.3,4.6,6.315a7.094,7.094,0,0,0,5.348-.334C122.806,298.161,121.183,295.631,121.871,293.391Z" transform="translate(-115.465 -290.383)" fill="#ff6e7c"/>
                </g>
                <g id="Grupo_1016982" data-name="Grupo 1016982" transform="translate(6.674 52.742)">
                  <ellipse id="Elipse_7974" data-name="Elipse 7974" cx="3.515" cy="4.687" rx="3.515" ry="4.687" transform="matrix(0.963, -0.268, 0.268, 0.963, 0, 1.884)" fill="#ff6e7c"/>
                </g>
                <g id="Grupo_1016983" data-name="Grupo 1016983" transform="translate(0.847 24.439)">
                  <path id="Trazado_715214" data-name="Trazado 715214" d="M32.385,53.975l.054.024a62.879,62.879,0,0,0,24.236,6.649c.032,0,.064,0,.1,0a1.137,1.137,0,0,0,.094-2.271,65.439,65.439,0,0,1-16.6-3.447l.547-.056a28.213,28.213,0,0,1,9.7.346A1.137,1.137,0,1,0,50.988,53a30.558,30.558,0,0,0-10.405-.383c-2.653.272-4.582.467-7.149-.666a51.519,51.519,0,0,1-8-5.191c-1.29-1.017-2.517-2.083-3.691-3.187q-.361-.374-.768-.735l-.049-.048c.972.133,1.956.181,2.93.227,2.348.112,4.566.219,6.436,1.52a1.137,1.137,0,1,0,1.3-1.867c-2.407-1.676-5.06-1.8-7.627-1.926-2.754-.132-5.136-.247-7.006-2.176A130.131,130.131,0,0,1,7.426,25.74a4.047,4.047,0,0,0-1.843,1.335,132.653,132.653,0,0,0,9.555,12.873,1.153,1.153,0,0,0,.087.105l.037.038c1.273,1.467,2.61,2.9,4.027,4.284a1.146,1.146,0,0,0,.09.088l.009.008q.372.361.751.718a18.733,18.733,0,0,1,3.221,5.192c1.542,3.231,3.136,6.573,8.066,8.648a1.137,1.137,0,1,0,.883-2.1c-3.994-1.682-5.324-4.245-6.747-7.22A53.683,53.683,0,0,0,32.242,53.9a1.172,1.172,0,0,0,.143.079Z" transform="translate(-5.583 -25.74)" fill="#ff6e7c"/>
                </g>
              </g>
            </g>
          </g>
        </g>
      </g>
    </g>
  </g>
</svg>
