<svg xmlns="http://www.w3.org/2000/svg" xmlns:xlink="http://www.w3.org/1999/xlink" width="219" height="123" viewBox="0 0 219 123">
  <defs>
    <linearGradient id="linear-gradient" x1="0.5" x2="0.857" y2="0.904" gradientUnits="objectBoundingBox">
      <stop offset="0" stop-color="#accd32"/>
      <stop offset="1" stop-color="#3f7324"/>
    </linearGradient>
    <filter id="Trazado_717322" x="48.999" y="10.661" width="111.745" height="111.745" filterUnits="userSpaceOnUse">
      <feOffset dy="3" input="SourceAlpha"/>
      <feGaussianBlur stdDeviation="3" result="blur"/>
      <feFlood flood-opacity="0.161"/>
      <feComposite operator="in" in2="blur"/>
      <feComposite in="SourceGraphic"/>
    </filter>
  </defs>
  <g id="Grupo_1018031" data-name="Grupo 1018031" transform="translate(9578 -9551.037)">
    <g id="Grupo_1017783" data-name="Grupo 1017783" transform="translate(11206 6530.992)">
      <path id="Trazado_717314" data-name="Trazado 717314" d="M7.688-3.5A3.582,3.582,0,0,1,6.7-.9,3.428,3.428,0,0,1,4.119.123,3.4,3.4,0,0,1,1.553-.9,3.6,3.6,0,0,1,.568-3.5V-5.033A3.605,3.605,0,0,1,1.55-7.626,3.375,3.375,0,0,1,4.107-8.654,3.437,3.437,0,0,1,6.691-7.626a3.576,3.576,0,0,1,1,2.593ZM5.982-5.045a2.58,2.58,0,0,0-.5-1.635,1.649,1.649,0,0,0-1.377-.639,1.6,1.6,0,0,0-1.351.639,2.634,2.634,0,0,0-.483,1.635V-3.5A2.653,2.653,0,0,0,2.76-1.846a1.611,1.611,0,0,0,1.359.639A1.633,1.633,0,0,0,5.49-1.846,2.631,2.631,0,0,0,5.982-3.5Zm5.836,2.73.105.469h.035l.1-.451,1.857-6.234h1.8L12.82,0H11.063L8.168-8.531h1.8ZM18.375,0H16.664V-8.531h1.711Zm8.59,0H25.254L21.814-5.754l-.035.006V0H20.068V-8.531h1.711l3.439,5.748.035-.006V-8.531h1.711Zm8.473-3.5a3.582,3.582,0,0,1-.99,2.6A3.428,3.428,0,0,1,31.869.123,3.4,3.4,0,0,1,29.3-.9a3.6,3.6,0,0,1-.984-2.6V-5.033A3.605,3.605,0,0,1,29.3-7.626a3.375,3.375,0,0,1,2.558-1.028,3.437,3.437,0,0,1,2.584,1.028,3.576,3.576,0,0,1,1,2.593ZM33.732-5.045a2.58,2.58,0,0,0-.5-1.635,1.649,1.649,0,0,0-1.377-.639,1.6,1.6,0,0,0-1.351.639,2.634,2.634,0,0,0-.483,1.635V-3.5a2.653,2.653,0,0,0,.486,1.652,1.611,1.611,0,0,0,1.359.639,1.633,1.633,0,0,0,1.371-.639A2.631,2.631,0,0,0,33.732-3.5Zm7.506,2.818a1,1,0,0,0-.343-.791,3.444,3.444,0,0,0-1.2-.562A6.843,6.843,0,0,1,37.45-4.629a1.985,1.985,0,0,1-.765-1.646,2.071,2.071,0,0,1,.861-1.714,3.491,3.491,0,0,1,2.2-.665,3.466,3.466,0,0,1,2.282.715,2.236,2.236,0,0,1,.835,1.875l-.012.035H41.191a1.242,1.242,0,0,0-.387-.981,1.579,1.579,0,0,0-1.084-.343,1.432,1.432,0,0,0-.979.3.992.992,0,0,0-.346.779.851.851,0,0,0,.375.712,5.017,5.017,0,0,0,1.295.589,5.572,5.572,0,0,1,2.145,1.04,2.131,2.131,0,0,1,.738,1.69A2.035,2.035,0,0,1,42.094-.51a3.714,3.714,0,0,1-2.262.633,4.041,4.041,0,0,1-2.364-.686,2.261,2.261,0,0,1-.958-2.045l.012-.035H38.18a1.342,1.342,0,0,0,.445,1.113,1.875,1.875,0,0,0,1.207.357,1.648,1.648,0,0,0,1.046-.287A.931.931,0,0,0,41.238-2.227ZM4.664,18H2.959V10.957H1.2V9.65l3.469-.3Zm6.527-2.988H7.74V13.693h3.451Zm6.516-.187h.961v1.324h-.961V18H16V16.148H12.521l-.082-1.025,3.539-5.654h1.729Zm-3.715,0h2v-3.1l-.035-.006-.176.381Z" transform="translate(-20770 3045.046)" fill="#12263f"/>
      <path id="Trazado_717315" data-name="Trazado 717315" d="M5.66-3.75H2.5v2.438H6.258V0H.785V-8.531H6.246v1.318H2.5v2.145H5.66Zm8.7.252a4.021,4.021,0,0,1-.179,1.213,3.591,3.591,0,0,1-.507,1.025L14.947.012,13.828.926,12.58-.3a3.512,3.512,0,0,1-.841.319,4.014,4.014,0,0,1-.946.108A3.4,3.4,0,0,1,8.227-.9a3.6,3.6,0,0,1-.984-2.6V-5.033a3.605,3.605,0,0,1,.981-2.593,3.375,3.375,0,0,1,2.558-1.028,3.437,3.437,0,0,1,2.584,1.028,3.576,3.576,0,0,1,1,2.593ZM12.656-5.045a2.58,2.58,0,0,0-.5-1.635,1.649,1.649,0,0,0-1.377-.639,1.6,1.6,0,0,0-1.351.639,2.634,2.634,0,0,0-.483,1.635V-3.5a2.653,2.653,0,0,0,.486,1.652,1.611,1.611,0,0,0,1.359.639,1.633,1.633,0,0,0,1.371-.639A2.631,2.631,0,0,0,12.656-3.5ZM22.664-8.531v5.584a2.806,2.806,0,0,1-.955,2.256A3.687,3.687,0,0,1,19.23.123a3.644,3.644,0,0,1-2.464-.814,2.818,2.818,0,0,1-.946-2.256V-8.531h1.717v5.584a1.756,1.756,0,0,0,.457,1.307,1.683,1.683,0,0,0,1.236.451,1.719,1.719,0,0,0,1.254-.451,1.743,1.743,0,0,0,.463-1.307V-8.531ZM25.975,0H24.264V-8.531h1.711Zm8.59,0H32.854L29.414-5.754l-.035.006V0H27.668V-8.531h1.711l3.439,5.748.035-.006V-8.531h1.711Zm8.473-3.5a3.582,3.582,0,0,1-.99,2.6A3.428,3.428,0,0,1,39.469.123,3.4,3.4,0,0,1,36.9-.9a3.6,3.6,0,0,1-.984-2.6V-5.033A3.605,3.605,0,0,1,36.9-7.626a3.375,3.375,0,0,1,2.558-1.028,3.437,3.437,0,0,1,2.584,1.028,3.576,3.576,0,0,1,1,2.593ZM41.332-5.045a2.58,2.58,0,0,0-.5-1.635,1.649,1.649,0,0,0-1.377-.639,1.6,1.6,0,0,0-1.351.639,2.634,2.634,0,0,0-.483,1.635V-3.5a2.653,2.653,0,0,0,.486,1.652,1.611,1.611,0,0,0,1.359.639,1.633,1.633,0,0,0,1.371-.639A2.631,2.631,0,0,0,41.332-3.5Zm7.506,2.818a1,1,0,0,0-.343-.791,3.444,3.444,0,0,0-1.2-.562A6.843,6.843,0,0,1,45.05-4.629a1.985,1.985,0,0,1-.765-1.646,2.071,2.071,0,0,1,.861-1.714,3.491,3.491,0,0,1,2.2-.665,3.466,3.466,0,0,1,2.282.715,2.236,2.236,0,0,1,.835,1.875l-.012.035H48.791a1.242,1.242,0,0,0-.387-.981,1.579,1.579,0,0,0-1.084-.343,1.432,1.432,0,0,0-.979.3A.992.992,0,0,0,46-6.27a.851.851,0,0,0,.375.712,5.017,5.017,0,0,0,1.295.589,5.572,5.572,0,0,1,2.145,1.04,2.131,2.131,0,0,1,.738,1.69A2.035,2.035,0,0,1,49.693-.51a3.714,3.714,0,0,1-2.262.633,4.041,4.041,0,0,1-2.364-.686,2.261,2.261,0,0,1-.958-2.045l.012-.035h1.658a1.342,1.342,0,0,0,.445,1.113,1.875,1.875,0,0,0,1.207.357,1.648,1.648,0,0,0,1.046-.287A.931.931,0,0,0,48.838-2.227ZM4.664,18H2.959V10.957H1.2V9.65l3.469-.3Zm6.527-2.988H7.74V13.693h3.451ZM18.521,18H12.8V16.881l2.643-2.988a6.679,6.679,0,0,0,.841-1.181,1.962,1.962,0,0,0,.249-.888,1.276,1.276,0,0,0-.264-.844.971.971,0,0,0-.791-.316,1.015,1.015,0,0,0-.861.4,1.656,1.656,0,0,0-.3,1.025H12.645l-.012-.035a2.535,2.535,0,0,1,.75-1.925,2.809,2.809,0,0,1,2.092-.788,2.894,2.894,0,0,1,2.039.671,2.334,2.334,0,0,1,.727,1.8,2.534,2.534,0,0,1-.407,1.4,15.766,15.766,0,0,1-1.4,1.752l-1.406,1.688.012.029h3.486Z" transform="translate(-20770 3110.046)" fill="#12263f"/>
      <path id="Trazado_717316" data-name="Trazado 717316" d="M-56.35-3.094V0h-1.711V-8.531H-54.8a3.36,3.36,0,0,1,2.314.75,2.515,2.515,0,0,1,.844,1.975,2.5,2.5,0,0,1-.844,1.969,3.377,3.377,0,0,1-2.314.744Zm0-1.318H-54.8a1.423,1.423,0,0,0,1.084-.39,1.386,1.386,0,0,0,.369-.993,1.45,1.45,0,0,0-.366-1.017,1.4,1.4,0,0,0-1.087-.4H-56.35Zm12.838.914A3.582,3.582,0,0,1-44.5-.9,3.428,3.428,0,0,1-47.08.123,3.4,3.4,0,0,1-49.646-.9a3.6,3.6,0,0,1-.984-2.6V-5.033a3.605,3.605,0,0,1,.981-2.593,3.375,3.375,0,0,1,2.558-1.028,3.437,3.437,0,0,1,2.584,1.028,3.576,3.576,0,0,1,1,2.593Zm-1.705-1.547a2.58,2.58,0,0,0-.5-1.635,1.649,1.649,0,0,0-1.377-.639,1.6,1.6,0,0,0-1.351.639,2.634,2.634,0,0,0-.483,1.635V-3.5a2.653,2.653,0,0,0,.486,1.652,1.611,1.611,0,0,0,1.359.639,1.633,1.633,0,0,0,1.371-.639A2.631,2.631,0,0,0-45.217-3.5Zm4.77,1.635V0h-1.711V-8.531h2.953a3.537,3.537,0,0,1,2.282.665A2.251,2.251,0,0,1-36.1-6.012a1.87,1.87,0,0,1-.349,1.134,2.428,2.428,0,0,1-1.017.771,1.836,1.836,0,0,1,1.087.744,2.359,2.359,0,0,1,.331,1.289v.627a3.1,3.1,0,0,0,.1.747,1.027,1.027,0,0,0,.331.577V0h-1.764a.947.947,0,0,1-.3-.621,5.456,5.456,0,0,1-.067-.838v-.6a1.356,1.356,0,0,0-.349-.993,1.322,1.322,0,0,0-.987-.354Zm0-1.318h1.213a1.6,1.6,0,0,0,1.072-.3,1.129,1.129,0,0,0,.352-.9,1.242,1.242,0,0,0-.354-.932,1.432,1.432,0,0,0-1.04-.346h-1.242Zm12.334,1.9.012.035A2.671,2.671,0,0,1-28.934-.65a3.392,3.392,0,0,1-2.361.773,3.271,3.271,0,0,1-2.479-.987,3.542,3.542,0,0,1-.943-2.552V-5.109a3.607,3.607,0,0,1,.92-2.552,3.136,3.136,0,0,1,2.414-.993,3.6,3.6,0,0,1,2.438.762,2.622,2.622,0,0,1,.855,2.145l-.012.035h-1.664a1.677,1.677,0,0,0-.4-1.222,1.65,1.65,0,0,0-1.222-.4,1.379,1.379,0,0,0-1.2.618,2.734,2.734,0,0,0-.431,1.6v1.705a2.653,2.653,0,0,0,.454,1.605,1.476,1.476,0,0,0,1.263.621,1.5,1.5,0,0,0,1.146-.4,1.746,1.746,0,0,0,.378-1.233ZM-25.049,0H-26.76V-8.531h1.711Zm8.59,0H-18.17l-3.439-5.754-.035.006V0h-1.711V-8.531h1.711l3.439,5.748.035-.006V-8.531h1.711Zm8.473-3.5a3.582,3.582,0,0,1-.99,2.6A3.428,3.428,0,0,1-11.555.123,3.4,3.4,0,0,1-14.121-.9a3.6,3.6,0,0,1-.984-2.6V-5.033a3.605,3.605,0,0,1,.981-2.593,3.375,3.375,0,0,1,2.558-1.028A3.437,3.437,0,0,1-8.982-7.626a3.576,3.576,0,0,1,1,2.593ZM-9.691-5.045a2.58,2.58,0,0,0-.5-1.635,1.649,1.649,0,0,0-1.377-.639,1.6,1.6,0,0,0-1.351.639A2.634,2.634,0,0,0-13.4-5.045V-3.5a2.653,2.653,0,0,0,.486,1.652,1.611,1.611,0,0,0,1.359.639,1.633,1.633,0,0,0,1.371-.639A2.631,2.631,0,0,0-9.691-3.5Zm7.506,2.818a1,1,0,0,0-.343-.791,3.444,3.444,0,0,0-1.2-.562A6.843,6.843,0,0,1-5.974-4.629a1.985,1.985,0,0,1-.765-1.646,2.071,2.071,0,0,1,.861-1.714,3.491,3.491,0,0,1,2.2-.665A3.466,3.466,0,0,1-1.4-7.939,2.236,2.236,0,0,1-.562-6.064l-.012.035H-2.232a1.242,1.242,0,0,0-.387-.981A1.579,1.579,0,0,0-3.7-7.354a1.432,1.432,0,0,0-.979.3.992.992,0,0,0-.346.779.851.851,0,0,0,.375.712,5.017,5.017,0,0,0,1.295.589,5.572,5.572,0,0,1,2.145,1.04,2.131,2.131,0,0,1,.738,1.69A2.035,2.035,0,0,1-1.33-.51,3.714,3.714,0,0,1-3.592.123,4.041,4.041,0,0,1-5.956-.562a2.261,2.261,0,0,1-.958-2.045l.012-.035h1.658A1.342,1.342,0,0,0-4.8-1.529a1.875,1.875,0,0,0,1.207.357,1.648,1.648,0,0,0,1.046-.287A.931.931,0,0,0-2.186-2.227ZM-28.1,18h-1.705V10.957H-31.57V9.65l3.469-.3Zm8.549-3.088a3.344,3.344,0,0,1-.788,2.355,2.7,2.7,0,0,1-2.089.855,2.728,2.728,0,0,1-2.1-.855,3.336,3.336,0,0,1-.791-2.355v-2.35a3.357,3.357,0,0,1,.788-2.355,2.7,2.7,0,0,1,2.095-.861,2.714,2.714,0,0,1,2.095.861,3.341,3.341,0,0,1,.794,2.355Zm-1.705-2.525a2.208,2.208,0,0,0-.313-1.271,1,1,0,0,0-.87-.451.992.992,0,0,0-.87.451,2.241,2.241,0,0,0-.308,1.271v2.689a2.246,2.246,0,0,0,.311,1.286,1.007,1.007,0,0,0,.879.448.989.989,0,0,0,.864-.448,2.263,2.263,0,0,0,.308-1.286Zm6.568,2.625h-3.451V13.693h3.451ZM-7.359,18h-5.725V16.881l2.643-2.988A6.679,6.679,0,0,0-9.6,12.712a1.962,1.962,0,0,0,.249-.888,1.276,1.276,0,0,0-.264-.844.971.971,0,0,0-.791-.316,1.015,1.015,0,0,0-.861.4,1.656,1.656,0,0,0-.3,1.025h-1.664l-.012-.035a2.535,2.535,0,0,1,.75-1.925,2.809,2.809,0,0,1,2.092-.788,2.894,2.894,0,0,1,2.039.671,2.334,2.334,0,0,1,.727,1.8,2.534,2.534,0,0,1-.407,1.4,15.766,15.766,0,0,1-1.4,1.752l-1.406,1.688.012.029h3.486Zm1.289-3.762.492-4.77H-.82V10.84H-4.178l-.234,1.992a2.067,2.067,0,0,1,.6-.29,2.891,2.891,0,0,1,.791-.126,2.261,2.261,0,0,1,1.843.735,3.121,3.121,0,0,1,.653,2.112A2.992,2.992,0,0,1-1.23,17.32a2.744,2.744,0,0,1-2.168.8A3.279,3.279,0,0,1-5.414,17.5a1.949,1.949,0,0,1-.809-1.714l.012-.029,1.646-.076a1.079,1.079,0,0,0,.322.832,1.191,1.191,0,0,0,.844.3,1.007,1.007,0,0,0,.888-.4,1.97,1.97,0,0,0,.278-1.137,2.018,2.018,0,0,0-.3-1.175,1.029,1.029,0,0,0-.9-.437,1.311,1.311,0,0,0-.753.182.991.991,0,0,0-.372.492Z" transform="translate(-20578 3047.046)" fill="#12263f"/>
      <path id="Trazado_717317" data-name="Trazado 717317" d="M-50.285,0V-8.531h2.795a4.058,4.058,0,0,1,2.35.589A1.994,1.994,0,0,1-44.3-6.193a1.865,1.865,0,0,1-.3,1.049,1.853,1.853,0,0,1-.891.7,1.838,1.838,0,0,1,1.2.691,2.076,2.076,0,0,1,.4,1.271A2.207,2.207,0,0,1-44.7-.63,3.655,3.655,0,0,1-46.986,0Zm1.711-3.773v2.461h1.588a1.589,1.589,0,0,0,1.037-.3,1.072,1.072,0,0,0,.357-.876,1.255,1.255,0,0,0-.352-.955A1.489,1.489,0,0,0-47-3.773Zm0-1.184h1.143a1.712,1.712,0,0,0,1.055-.281.968.968,0,0,0,.369-.82,1.024,1.024,0,0,0-.372-.873,1.828,1.828,0,0,0-1.11-.281h-1.084ZM-35.736-3.5a3.582,3.582,0,0,1-.99,2.6A3.428,3.428,0,0,1-39.3.123,3.4,3.4,0,0,1-41.871-.9a3.6,3.6,0,0,1-.984-2.6V-5.033a3.605,3.605,0,0,1,.981-2.593,3.375,3.375,0,0,1,2.558-1.028,3.437,3.437,0,0,1,2.584,1.028,3.576,3.576,0,0,1,1,2.593Zm-1.705-1.547a2.58,2.58,0,0,0-.5-1.635,1.649,1.649,0,0,0-1.377-.639,1.6,1.6,0,0,0-1.351.639,2.634,2.634,0,0,0-.483,1.635V-3.5a2.653,2.653,0,0,0,.486,1.652,1.611,1.611,0,0,0,1.359.639,1.633,1.633,0,0,0,1.371-.639A2.631,2.631,0,0,0-37.441-3.5Zm5.836,2.73.105.469h.035l.1-.451,1.857-6.234h1.8L-30.6,0h-1.758l-2.895-8.531h1.8ZM-25.049,0H-26.76V-8.531h1.711Zm8.59,0H-18.17l-3.439-5.754-.035.006V0h-1.711V-8.531h1.711l3.439,5.748.035-.006V-8.531h1.711Zm8.473-3.5a3.582,3.582,0,0,1-.99,2.6A3.428,3.428,0,0,1-11.555.123,3.4,3.4,0,0,1-14.121-.9a3.6,3.6,0,0,1-.984-2.6V-5.033a3.605,3.605,0,0,1,.981-2.593,3.375,3.375,0,0,1,2.558-1.028A3.437,3.437,0,0,1-8.982-7.626a3.576,3.576,0,0,1,1,2.593ZM-9.691-5.045a2.58,2.58,0,0,0-.5-1.635,1.649,1.649,0,0,0-1.377-.639,1.6,1.6,0,0,0-1.351.639A2.634,2.634,0,0,0-13.4-5.045V-3.5a2.653,2.653,0,0,0,.486,1.652,1.611,1.611,0,0,0,1.359.639,1.633,1.633,0,0,0,1.371-.639A2.631,2.631,0,0,0-9.691-3.5Zm7.506,2.818a1,1,0,0,0-.343-.791,3.444,3.444,0,0,0-1.2-.562A6.843,6.843,0,0,1-5.974-4.629a1.985,1.985,0,0,1-.765-1.646,2.071,2.071,0,0,1,.861-1.714,3.491,3.491,0,0,1,2.2-.665A3.466,3.466,0,0,1-1.4-7.939,2.236,2.236,0,0,1-.562-6.064l-.012.035H-2.232a1.242,1.242,0,0,0-.387-.981A1.579,1.579,0,0,0-3.7-7.354a1.432,1.432,0,0,0-.979.3.992.992,0,0,0-.346.779.851.851,0,0,0,.375.712,5.017,5.017,0,0,0,1.295.589,5.572,5.572,0,0,1,2.145,1.04,2.131,2.131,0,0,1,.738,1.69A2.035,2.035,0,0,1-1.33-.51,3.714,3.714,0,0,1-3.592.123,4.041,4.041,0,0,1-5.956-.562a2.261,2.261,0,0,1-.958-2.045l.012-.035h1.658A1.342,1.342,0,0,0-4.8-1.529a1.875,1.875,0,0,0,1.207.357,1.648,1.648,0,0,0,1.046-.287A.931.931,0,0,0-2.186-2.227ZM-14.332,18h-1.705V10.957H-17.8V9.65l3.469-.3ZM-7.8,15.012h-3.451V13.693H-7.8ZM-.475,18H-6.2V16.881l2.643-2.988a6.679,6.679,0,0,0,.841-1.181,1.962,1.962,0,0,0,.249-.888,1.276,1.276,0,0,0-.264-.844.971.971,0,0,0-.791-.316,1.015,1.015,0,0,0-.861.4,1.656,1.656,0,0,0-.3,1.025H-6.352l-.012-.035a2.535,2.535,0,0,1,.75-1.925,2.809,2.809,0,0,1,2.092-.788,2.894,2.894,0,0,1,2.039.671,2.334,2.334,0,0,1,.727,1.8,2.534,2.534,0,0,1-.407,1.4,15.766,15.766,0,0,1-1.4,1.752l-1.406,1.688.012.029H-.475Z" transform="translate(-20577 3109.046)" fill="#12263f"/>
      <g id="Trazado_717318" data-name="Trazado 717318" transform="translate(-20784 3083.046)" fill="none">
        <path d="M20,0H88a20,20,0,0,1,20,20V40A20,20,0,0,1,88,60H20A20,20,0,0,1,0,40V20A20,20,0,0,1,20,0Z" stroke="none"/>
        <path d="M 20 1 C 17.4345703125 1 14.9464111328125 1.502212524414062 12.60464477539062 2.492698669433594 C 10.34225463867188 3.449615478515625 8.310211181640625 4.819713592529297 6.564971923828125 6.564971923828125 C 4.819717407226562 8.310214996337891 3.449615478515625 10.34225845336914 2.492698669433594 12.60464096069336 C 1.502212524414062 14.94641494750977 1 17.4345703125 1 20 L 1 40 C 1 42.5654296875 1.502212524414062 45.05358505249023 2.492698669433594 47.39535522460938 C 3.449615478515625 49.65774154663086 4.819717407226562 51.68978500366211 6.564971923828125 53.43502807617188 C 8.310211181640625 55.1802864074707 10.34225463867188 56.55038452148438 12.60464477539062 57.50730133056641 C 14.9464111328125 58.49778747558594 17.4345703125 59 20 59 L 88 59 C 90.5654296875 59 93.05357360839844 58.49778747558594 95.39533996582031 57.50730133056641 C 97.65773010253906 56.55038452148438 99.68977355957031 55.1802864074707 101.4350280761719 53.43502807617188 C 103.1802749633789 51.68978500366211 104.5503845214844 49.65774154663086 105.5073013305664 47.39535522460938 C 106.4977874755859 45.05358505249023 107 42.5654296875 107 40 L 107 20 C 107 17.4345703125 106.4977874755859 14.94641494750977 105.5073013305664 12.60464096069336 C 104.5503845214844 10.34225845336914 103.1802749633789 8.310214996337891 101.4350280761719 6.564971923828125 C 99.68977355957031 4.819713592529297 97.65773010253906 3.449615478515625 95.39533996582031 2.492698669433594 C 93.05357360839844 1.502212524414062 90.5654296875 1 88 1 L 20 1 M 20 0 L 88 0 C 99.04568481445312 0 108 8.954299926757812 108 20 L 108 40 C 108 51.04570007324219 99.04568481445312 60 88 60 L 20 60 C 8.954299926757812 60 0 51.04570007324219 0 40 L 0 20 C 0 8.954299926757812 8.954299926757812 0 20 0 Z" stroke="none" fill="#0b481e"/>
      </g>
      <g id="Trazado_717319" data-name="Trazado 717319" transform="translate(-20673 3083.046)" fill="none">
        <path d="M20,0H88a20,20,0,0,1,20,20V40A20,20,0,0,1,88,60H20A20,20,0,0,1,0,40V20A20,20,0,0,1,20,0Z" stroke="none"/>
        <path d="M 20 1 C 17.4345703125 1 14.9464111328125 1.502212524414062 12.60464477539062 2.492698669433594 C 10.34225463867188 3.449615478515625 8.310211181640625 4.819713592529297 6.564971923828125 6.564971923828125 C 4.819717407226562 8.310214996337891 3.449615478515625 10.34225845336914 2.492698669433594 12.60464096069336 C 1.502212524414062 14.94641494750977 1 17.4345703125 1 20 L 1 40 C 1 42.5654296875 1.502212524414062 45.05358505249023 2.492698669433594 47.39535522460938 C 3.449615478515625 49.65774154663086 4.819717407226562 51.68978500366211 6.564971923828125 53.43502807617188 C 8.310211181640625 55.1802864074707 10.34225463867188 56.55038452148438 12.60464477539062 57.50730133056641 C 14.9464111328125 58.49778747558594 17.4345703125 59 20 59 L 88 59 C 90.5654296875 59 93.05357360839844 58.49778747558594 95.39533996582031 57.50730133056641 C 97.65773010253906 56.55038452148438 99.68977355957031 55.1802864074707 101.4350280761719 53.43502807617188 C 103.1802749633789 51.68978500366211 104.5503845214844 49.65774154663086 105.5073013305664 47.39535522460938 C 106.4977874755859 45.05358505249023 107 42.5654296875 107 40 L 107 20 C 107 17.4345703125 106.4977874755859 14.94641494750977 105.5073013305664 12.60464096069336 C 104.5503845214844 10.34225845336914 103.1802749633789 8.310214996337891 101.4350280761719 6.564971923828125 C 99.68977355957031 4.819713592529297 97.65773010253906 3.449615478515625 95.39533996582031 2.492698669433594 C 93.05357360839844 1.502212524414062 90.5654296875 1 88 1 L 20 1 M 20 0 L 88 0 C 99.04568481445312 0 108 8.954299926757812 108 20 L 108 40 C 108 51.04570007324219 99.04568481445312 60 88 60 L 20 60 C 8.954299926757812 60 0 51.04570007324219 0 40 L 0 20 C 0 8.954299926757812 8.954299926757812 0 20 0 Z" stroke="none" fill="#0b481e"/>
      </g>
      <g id="Trazado_717320" data-name="Trazado 717320" transform="translate(-20784 3020.046)" fill="none">
        <path d="M20,0H88a20,20,0,0,1,20,20V40A20,20,0,0,1,88,60H20A20,20,0,0,1,0,40V20A20,20,0,0,1,20,0Z" stroke="none"/>
        <path d="M 20 1 C 17.4345703125 1 14.9464111328125 1.502212524414062 12.60464477539062 2.492698669433594 C 10.34225463867188 3.449615478515625 8.310211181640625 4.819713592529297 6.564971923828125 6.564971923828125 C 4.819717407226562 8.310214996337891 3.449615478515625 10.34225845336914 2.492698669433594 12.60464096069336 C 1.502212524414062 14.94641494750977 1 17.4345703125 1 20 L 1 40 C 1 42.5654296875 1.502212524414062 45.05358505249023 2.492698669433594 47.39535522460938 C 3.449615478515625 49.65774154663086 4.819717407226562 51.68978500366211 6.564971923828125 53.43502807617188 C 8.310211181640625 55.1802864074707 10.34225463867188 56.55038452148438 12.60464477539062 57.50730133056641 C 14.9464111328125 58.49778747558594 17.4345703125 59 20 59 L 88 59 C 90.5654296875 59 93.05357360839844 58.49778747558594 95.39533996582031 57.50730133056641 C 97.65773010253906 56.55038452148438 99.68977355957031 55.1802864074707 101.4350280761719 53.43502807617188 C 103.1802749633789 51.68978500366211 104.5503845214844 49.65774154663086 105.5073013305664 47.39535522460938 C 106.4977874755859 45.05358505249023 107 42.5654296875 107 40 L 107 20 C 107 17.4345703125 106.4977874755859 14.94641494750977 105.5073013305664 12.60464096069336 C 104.5503845214844 10.34225845336914 103.1802749633789 8.310214996337891 101.4350280761719 6.564971923828125 C 99.68977355957031 4.819713592529297 97.65773010253906 3.449615478515625 95.39533996582031 2.492698669433594 C 93.05357360839844 1.502212524414062 90.5654296875 1 88 1 L 20 1 M 20 0 L 88 0 C 99.04568481445312 0 108 8.954299926757812 108 20 L 108 40 C 108 51.04570007324219 99.04568481445312 60 88 60 L 20 60 C 8.954299926757812 60 0 51.04570007324219 0 40 L 0 20 C 0 8.954299926757812 8.954299926757812 0 20 0 Z" stroke="none" fill="#0b481e"/>
      </g>
      <g id="Trazado_717321" data-name="Trazado 717321" transform="translate(-20673 3020.046)" fill="none">
        <path d="M20,0H88a20,20,0,0,1,20,20V40A20,20,0,0,1,88,60H20A20,20,0,0,1,0,40V20A20,20,0,0,1,20,0Z" stroke="none"/>
        <path d="M 20 1 C 17.4345703125 1 14.9464111328125 1.502212524414062 12.60464477539062 2.492698669433594 C 10.34225463867188 3.449615478515625 8.310211181640625 4.819713592529297 6.564971923828125 6.564971923828125 C 4.819717407226562 8.310214996337891 3.449615478515625 10.34225845336914 2.492698669433594 12.60464096069336 C 1.502212524414062 14.94641494750977 1 17.4345703125 1 20 L 1 40 C 1 42.5654296875 1.502212524414062 45.05358505249023 2.492698669433594 47.39535522460938 C 3.449615478515625 49.65774154663086 4.819717407226562 51.68978500366211 6.564971923828125 53.43502807617188 C 8.310211181640625 55.1802864074707 10.34225463867188 56.55038452148438 12.60464477539062 57.50730133056641 C 14.9464111328125 58.49778747558594 17.4345703125 59 20 59 L 88 59 C 90.5654296875 59 93.05357360839844 58.49778747558594 95.39533996582031 57.50730133056641 C 97.65773010253906 56.55038452148438 99.68977355957031 55.1802864074707 101.4350280761719 53.43502807617188 C 103.1802749633789 51.68978500366211 104.5503845214844 49.65774154663086 105.5073013305664 47.39535522460938 C 106.4977874755859 45.05358505249023 107 42.5654296875 107 40 L 107 20 C 107 17.4345703125 106.4977874755859 14.94641494750977 105.5073013305664 12.60464096069336 C 104.5503845214844 10.34225845336914 103.1802749633789 8.310214996337891 101.4350280761719 6.564971923828125 C 99.68977355957031 4.819713592529297 97.65773010253906 3.449615478515625 95.39533996582031 2.492698669433594 C 93.05357360839844 1.502212524414062 90.5654296875 1 88 1 L 20 1 M 20 0 L 88 0 C 99.04568481445312 0 108 8.954299926757812 108 20 L 108 40 C 108 51.04570007324219 99.04568481445312 60 88 60 L 20 60 C 8.954299926757812 60 0 51.04570007324219 0 40 L 0 20 C 0 8.954299926757812 8.954299926757812 0 20 0 Z" stroke="none" fill="#0b481e"/>
      </g>
      <g transform="matrix(1, 0, 0, 1, -20784, 3020.05)" filter="url(#Trazado_717322)">
        <path id="Trazado_717322-2" data-name="Trazado 717322" d="M42.648,0A42.648,42.648,0,1,1,0,42.648,42.648,42.648,0,0,1,42.648,0Z" transform="translate(151.74 101.49) rotate(174)" fill="url(#linear-gradient)"/>
      </g>
      <g id="Grupo_1016913" data-name="Grupo 1016913" transform="matrix(1, -0.017, 0.017, 1, -20718.803, 3045.266)">
        <ellipse id="Elipse_5242" data-name="Elipse 5242" cx="39" cy="39" rx="39" ry="39" transform="translate(0 0)" fill="#fff"/>
      </g>
      <path id="Trazado_717323" data-name="Trazado 717323" d="M17.163,10H16.2L12.778,4.57l-.029.01V10h-.962V2.891h.962l3.423,5.425.029-.01V2.891h.962Zm4.878-.786a1.8,1.8,0,0,1-.642.657,1.739,1.739,0,0,1-.9.232,1.7,1.7,0,0,1-1.348-.552,2.562,2.562,0,0,1-.483-1.719V4.717h.962V7.842A1.967,1.967,0,0,0,19.877,9a.926.926,0,0,0,.776.317,1.568,1.568,0,0,0,.847-.21,1.309,1.309,0,0,0,.505-.6v-3.8h.962V10H22.1Zm3.188-4.5.068.693a1.794,1.794,0,0,1,.657-.583,1.973,1.973,0,0,1,.925-.208,1.635,1.635,0,0,1,.906.244,1.477,1.477,0,0,1,.569.732,1.976,1.976,0,0,1,.662-.715,1.731,1.731,0,0,1,.955-.261,1.582,1.582,0,0,1,1.274.554,2.532,2.532,0,0,1,.469,1.667V10h-.962V6.831a1.756,1.756,0,0,0-.269-1.106.979.979,0,0,0-.8-.325,1.019,1.019,0,0,0-.8.342,1.488,1.488,0,0,0-.359.864V10h-.967V6.831a1.732,1.732,0,0,0-.276-1.086.957.957,0,0,0-.793-.344,1.322,1.322,0,0,0-.723.181,1.167,1.167,0,0,0-.435.508V10H24.37V4.717ZM35.4,10.1a2.377,2.377,0,0,1-1.848-.73,2.725,2.725,0,0,1-.667-1.912V7.246a2.741,2.741,0,0,1,.657-1.882,2.059,2.059,0,0,1,1.6-.745,1.917,1.917,0,0,1,1.589.659,2.716,2.716,0,0,1,.53,1.753v.508H33.886l-.01.024a2.051,2.051,0,0,0,.374,1.289,1.352,1.352,0,0,0,1.15.5,2.35,2.35,0,0,0,.762-.1,5.067,5.067,0,0,0,.669-.305l.239.679a2.787,2.787,0,0,1-.642.334A2.968,2.968,0,0,1,35.4,10.1Zm-.254-4.727a1.046,1.046,0,0,0-.833.388,1.837,1.837,0,0,0-.4.994l.01.024H36.3V6.7a1.538,1.538,0,0,0-.283-.952A1.023,1.023,0,0,0,35.146,5.376Zm5.7.19-.493-.029a1.1,1.1,0,0,0-.642.181,1.159,1.159,0,0,0-.4.508V10h-.962V4.717H39.2l.068.82a1.855,1.855,0,0,1,.557-.674,1.3,1.3,0,0,1,.781-.244,1.189,1.189,0,0,1,.205.017,1.359,1.359,0,0,1,.161.037Zm.581,1.743a2.909,2.909,0,0,1,.635-1.931,2.352,2.352,0,0,1,3.459,0,2.9,2.9,0,0,1,.637,1.934v.107a2.9,2.9,0,0,1-.635,1.934,2.363,2.363,0,0,1-3.459,0,2.89,2.89,0,0,1-.637-1.931Zm.962.107A2.506,2.506,0,0,0,42.741,8.8a1.279,1.279,0,0,0,2.1,0,2.493,2.493,0,0,0,.356-1.387V7.31a2.485,2.485,0,0,0-.359-1.382,1.176,1.176,0,0,0-1.052-.552,1.16,1.16,0,0,0-1.042.552,2.511,2.511,0,0,0-.354,1.382Zm7.212.039A3.526,3.526,0,0,1,50.144,5.4a1.754,1.754,0,0,1,1.526-.781,1.892,1.892,0,0,1,.823.171,1.686,1.686,0,0,1,.613.5V2.383h.962V10H53.33l-.146-.669a1.715,1.715,0,0,1-.64.576,1.911,1.911,0,0,1-.884.2,1.813,1.813,0,0,1-1.514-.7A2.912,2.912,0,0,1,49.6,7.559Zm.962.1a2.243,2.243,0,0,0,.327,1.282,1.142,1.142,0,0,0,1.016.481,1.274,1.274,0,0,0,.723-.2,1.459,1.459,0,0,0,.479-.547V6.113a1.481,1.481,0,0,0-.481-.52,1.271,1.271,0,0,0-.71-.193,1.1,1.1,0,0,0-1.023.571,2.949,2.949,0,0,0-.33,1.484ZM57.792,10.1a2.377,2.377,0,0,1-1.848-.73,2.725,2.725,0,0,1-.667-1.912V7.246a2.741,2.741,0,0,1,.657-1.882,2.059,2.059,0,0,1,1.6-.745,1.917,1.917,0,0,1,1.589.659,2.716,2.716,0,0,1,.53,1.753v.508H56.279l-.01.024a2.051,2.051,0,0,0,.374,1.289,1.352,1.352,0,0,0,1.15.5,2.35,2.35,0,0,0,.762-.1,5.067,5.067,0,0,0,.669-.305l.239.679a2.787,2.787,0,0,1-.642.334A2.968,2.968,0,0,1,57.792,10.1Zm-.254-4.727a1.046,1.046,0,0,0-.833.388,1.837,1.837,0,0,0-.4.994l.01.024H58.7V6.7a1.538,1.538,0,0,0-.283-.952A1.023,1.023,0,0,0,57.539,5.376ZM17.409,24V19.43h-.83v-.713h.83v-.669a1.819,1.819,0,0,1,.439-1.306,1.618,1.618,0,0,1,1.23-.461,2.122,2.122,0,0,1,.334.027q.168.027.374.076l-.117.732q-.088-.02-.212-.034a2.193,2.193,0,0,0-.256-.015.758.758,0,0,0-.627.251,1.141,1.141,0,0,0-.2.73v.669h.957v.713h-.957V24Zm2.554-2.69a2.909,2.909,0,0,1,.635-1.931,2.352,2.352,0,0,1,3.459,0,2.9,2.9,0,0,1,.637,1.934v.107a2.9,2.9,0,0,1-.635,1.934,2.363,2.363,0,0,1-3.459,0,2.89,2.89,0,0,1-.637-1.931Zm.962.107a2.506,2.506,0,0,0,.354,1.387,1.279,1.279,0,0,0,2.1,0,2.493,2.493,0,0,0,.356-1.387V21.31a2.485,2.485,0,0,0-.359-1.382,1.176,1.176,0,0,0-1.052-.552,1.16,1.16,0,0,0-1.042.552,2.511,2.511,0,0,0-.354,1.382ZM26.911,24h-.962V16.383h.962Zm2.49,0h-.962V18.717H29.4Zm-.015-7.422H30.51l.01.029-1.313,1.27h-.723ZM33,23.351a1.131,1.131,0,0,0,.776-.3.933.933,0,0,0,.332-.725h.869l.015.029a1.517,1.517,0,0,1-.586,1.213,2.239,2.239,0,0,1-3.125-.227,2.921,2.921,0,0,1-.605-1.885v-.205a2.909,2.909,0,0,1,.608-1.877A2.073,2.073,0,0,1,33,18.619a1.993,1.993,0,0,1,1.448.547A1.734,1.734,0,0,1,35,20.509l-.01.029h-.874a1.166,1.166,0,0,0-.315-.823A1.036,1.036,0,0,0,33,19.376a1.111,1.111,0,0,0-1.033.549,2.571,2.571,0,0,0-.325,1.331v.205a2.62,2.62,0,0,0,.32,1.343A1.11,1.11,0,0,0,33,23.351Zm6.489-.137a1.8,1.8,0,0,1-.642.657,1.739,1.739,0,0,1-.9.232,1.7,1.7,0,0,1-1.348-.552,2.562,2.562,0,0,1-.483-1.719V18.717h.962v3.125A1.967,1.967,0,0,0,37.331,23a.926.926,0,0,0,.776.317,1.568,1.568,0,0,0,.847-.21,1.309,1.309,0,0,0,.505-.6v-3.8h.962V24h-.864ZM42.863,24H41.9V16.383h.962Zm1.255-2.69a2.909,2.909,0,0,1,.635-1.931,2.352,2.352,0,0,1,3.459,0,2.9,2.9,0,0,1,.637,1.934v.107a2.9,2.9,0,0,1-.635,1.934,2.363,2.363,0,0,1-3.459,0,2.89,2.89,0,0,1-.637-1.931Zm.962.107a2.506,2.506,0,0,0,.354,1.387,1.279,1.279,0,0,0,2.1,0,2.493,2.493,0,0,0,.356-1.387V21.31a2.485,2.485,0,0,0-.359-1.382,1.176,1.176,0,0,0-1.052-.552,1.16,1.16,0,0,0-1.042.552,2.511,2.511,0,0,0-.354,1.382ZM53.1,22.579a.641.641,0,0,0-.242-.518,2.333,2.333,0,0,0-.916-.352,3.841,3.841,0,0,1-1.433-.562,1.134,1.134,0,0,1-.5-.967,1.393,1.393,0,0,1,.549-1.1,2.424,2.424,0,0,1,2.878.029,1.4,1.4,0,0,1,.532,1.138l-.01.029h-.918a.832.832,0,0,0-.3-.62,1.073,1.073,0,0,0-.759-.278,1.1,1.1,0,0,0-.759.229.716.716,0,0,0-.251.547.579.579,0,0,0,.217.483,2.4,2.4,0,0,0,.9.313,3.786,3.786,0,0,1,1.475.581,1.17,1.17,0,0,1,.5.981,1.391,1.391,0,0,1-.569,1.147A2.346,2.346,0,0,1,52,24.1a2.322,2.322,0,0,1-1.592-.513,1.463,1.463,0,0,1-.552-1.2l.01-.029h.918a.89.89,0,0,0,.381.75,1.474,1.474,0,0,0,.835.237,1.315,1.315,0,0,0,.8-.217A.665.665,0,0,0,53.1,22.579ZM17.146,32.717l.068.693a1.794,1.794,0,0,1,.657-.583,1.973,1.973,0,0,1,.925-.208,1.635,1.635,0,0,1,.906.244,1.477,1.477,0,0,1,.569.732,1.976,1.976,0,0,1,.662-.715,1.731,1.731,0,0,1,.955-.261,1.582,1.582,0,0,1,1.274.554,2.532,2.532,0,0,1,.469,1.667V38h-.962V34.831a1.756,1.756,0,0,0-.269-1.106.979.979,0,0,0-.8-.325,1.019,1.019,0,0,0-.8.342,1.488,1.488,0,0,0-.359.864V38h-.967V34.831a1.732,1.732,0,0,0-.276-1.086.957.957,0,0,0-.793-.344,1.322,1.322,0,0,0-.723.181,1.167,1.167,0,0,0-.435.508V38h-.962V32.717ZM28.273,38q-.049-.239-.076-.422a3.1,3.1,0,0,1-.032-.369,2.243,2.243,0,0,1-.7.637,1.792,1.792,0,0,1-.93.256,1.727,1.727,0,0,1-1.257-.422,1.553,1.553,0,0,1-.432-1.165,1.364,1.364,0,0,1,.613-1.184,2.862,2.862,0,0,1,1.663-.427h1.045v-.522a.969.969,0,0,0-.283-.735,1.112,1.112,0,0,0-.8-.271,1.162,1.162,0,0,0-.757.234.7.7,0,0,0-.288.562l-.913.01-.01-.029a1.265,1.265,0,0,1,.54-1.055,2.236,2.236,0,0,1,1.482-.479,2.182,2.182,0,0,1,1.445.457,1.617,1.617,0,0,1,.547,1.316v2.544a4.952,4.952,0,0,0,.029.547,2.812,2.812,0,0,0,.107.518Zm-1.6-.7a1.712,1.712,0,0,0,.942-.269,1.276,1.276,0,0,0,.547-.615v-.859H27.087a1.4,1.4,0,0,0-.93.293.876.876,0,0,0-.349.688.725.725,0,0,0,.22.557A.92.92,0,0,0,26.677,37.3ZM30.3,35.456a3.526,3.526,0,0,1,.544-2.056,1.754,1.754,0,0,1,1.526-.781,1.892,1.892,0,0,1,.823.171,1.686,1.686,0,0,1,.613.5V30.383h.962V38h-.737l-.146-.669a1.715,1.715,0,0,1-.64.576,1.911,1.911,0,0,1-.884.2,1.813,1.813,0,0,1-1.514-.7,2.912,2.912,0,0,1-.547-1.843Zm.962.1a2.243,2.243,0,0,0,.327,1.282,1.142,1.142,0,0,0,1.016.481,1.274,1.274,0,0,0,.723-.2,1.459,1.459,0,0,0,.479-.547V34.113a1.481,1.481,0,0,0-.481-.52,1.271,1.271,0,0,0-.71-.193,1.1,1.1,0,0,0-1.023.571,2.949,2.949,0,0,0-.33,1.484Zm8.3,1.655a1.8,1.8,0,0,1-.642.657,1.739,1.739,0,0,1-.9.232,1.7,1.7,0,0,1-1.348-.552,2.562,2.562,0,0,1-.483-1.719V32.717h.962v3.125A1.967,1.967,0,0,0,37.4,37a.926.926,0,0,0,.776.317,1.568,1.568,0,0,0,.847-.21,1.309,1.309,0,0,0,.505-.6v-3.8h.962V38h-.864Zm4.829-3.647-.493-.029a1.1,1.1,0,0,0-.642.181,1.159,1.159,0,0,0-.4.508V38h-.962V32.717h.859l.068.82a1.855,1.855,0,0,1,.557-.674,1.3,1.3,0,0,1,.781-.244,1.188,1.188,0,0,1,.205.017,1.359,1.359,0,0,1,.161.037Zm.581,1.743a2.909,2.909,0,0,1,.635-1.931,2.352,2.352,0,0,1,3.459,0A2.9,2.9,0,0,1,49.7,35.31v.107a2.9,2.9,0,0,1-.635,1.934,2.363,2.363,0,0,1-3.459,0,2.89,2.89,0,0,1-.637-1.931Zm.962.107a2.506,2.506,0,0,0,.354,1.387,1.279,1.279,0,0,0,2.1,0,2.493,2.493,0,0,0,.356-1.387V35.31a2.485,2.485,0,0,0-.359-1.382,1.176,1.176,0,0,0-1.052-.552,1.16,1.16,0,0,0-1.042.552,2.511,2.511,0,0,0-.354,1.382Zm8.018,1.162a.641.641,0,0,0-.242-.518,2.333,2.333,0,0,0-.916-.352,3.841,3.841,0,0,1-1.433-.562,1.134,1.134,0,0,1-.5-.967,1.393,1.393,0,0,1,.549-1.1,2.424,2.424,0,0,1,2.878.029,1.4,1.4,0,0,1,.532,1.138l-.01.029h-.918a.832.832,0,0,0-.3-.62,1.073,1.073,0,0,0-.759-.278,1.1,1.1,0,0,0-.759.229.716.716,0,0,0-.251.547.579.579,0,0,0,.217.483,2.4,2.4,0,0,0,.9.313,3.786,3.786,0,0,1,1.475.581,1.17,1.17,0,0,1,.5.981,1.391,1.391,0,0,1-.569,1.147,2.346,2.346,0,0,1-1.487.444,2.322,2.322,0,0,1-1.592-.513,1.463,1.463,0,0,1-.552-1.2l.01-.029h.918a.89.89,0,0,0,.381.75,1.474,1.474,0,0,0,.835.237,1.315,1.315,0,0,0,.8-.217A.665.665,0,0,0,53.952,36.579Z" transform="translate(-20715 3060.046)" fill="#12263f"/>
    </g>
  </g>
</svg>
