<svg xmlns="http://www.w3.org/2000/svg" width="46.333" height="46.334" viewBox="0 0 46.333 46.334">
  <g id="Grupo_1017584" data-name="Grupo 1017584" transform="translate(6140 11015.611)">
    <g id="gallina_1_" data-name="gallina (1)" transform="translate(-6140 -11015.611)">
      <path id="Trazado_715227" data-name="Trazado 715227" d="M46.333,23.167a23.065,23.065,0,0,1-4.719,14.015c-4.232,5.562-10.92.581-18.447.581-5.182,0-3.392,4.267-7.251,1.393-1.747-1.3-9.878-.241-11.2-1.974A23.167,23.167,0,1,1,46.333,23.167Z" transform="translate(0 0)" fill="#ffa686"/>
      <path id="Trazado_715228" data-name="Trazado 715228" d="M199.641,51.438H187.187v-5.06a3.806,3.806,0,0,1,3.806-3.806h4.841a3.806,3.806,0,0,1,3.806,3.806Z" transform="translate(-170.247 -38.719)" fill="#e9424a"/>
      <path id="Trazado_715229" data-name="Trazado 715229" d="M103.425,92.646c-4.232,5.562-8.063,7.665-15.59,7.665-5.182,0-7.707.107-11.565-2.768-1.747-1.3-3.849-2.456-5.167-4.189l.757-7.279.743-2.318.011-.033,4.342-13.547a11.425,11.425,0,0,1,21.759,0l4.342,13.547.011.033.69,2.151Z" transform="translate(-64.668 -56.608)" fill="#fff9f1"/>
      <g id="Grupo_1017006" data-name="Grupo 1017006" transform="translate(18.089 17.335)">
        <circle id="Elipse_7976" data-name="Elipse 7976" cx="2.225" cy="2.225" r="2.225" fill="#e9424a"/>
        <circle id="Elipse_7977" data-name="Elipse 7977" cx="2.225" cy="2.225" r="2.225" transform="translate(5.706)" fill="#fd5758"/>
      </g>
      <path id="Trazado_715230" data-name="Trazado 715230" d="M89.045,269.76a23.168,23.168,0,0,1-36.895,0l3.215-10.031a6.217,6.217,0,0,0,11.664,4.246L70.6,255.72l3.568,8.255a6.217,6.217,0,0,0,11.664-4.246Z" transform="translate(-47.431 -232.579)" fill="#ffe5bf"/>
      <path id="Trazado_715231" data-name="Trazado 715231" d="M90.879,62.653a11.425,11.425,0,0,0-7.834,7.525L78.7,83.724l-.011.033-3.549,11.07L71.1,90.981l.982-5.606.519-1.618.011-.033,4.342-13.547a11.427,11.427,0,0,1,13.924-7.525Z" transform="translate(-64.667 -56.608)" fill="#f7eadc"/>
      <g id="Grupo_1017007" data-name="Grupo 1017007" transform="translate(12.456 23.167)">
        <path id="Trazado_715232" data-name="Trazado 715232" d="M143.079,256l-4.155,3.691a3.8,3.8,0,1,0,6.176,3.91l1.9-6.494L143.7,256" transform="translate(-137.646 -256)" fill="#e9424a"/>
        <path id="Trazado_715233" data-name="Trazado 715233" d="M274.926,256l4.155,3.691a3.8,3.8,0,1,1-6.176,3.91l-1.9-6.494L274.3,256" transform="translate(-258.938 -256)" fill="#fd5758"/>
      </g>
      <path id="Trazado_715234" data-name="Trazado 715234" d="M59.032,307.58l-2.259,7.048a23.3,23.3,0,0,1-4.623-4.576l3.215-10.031a6.211,6.211,0,0,0,3.667,7.56Z" transform="translate(-47.431 -272.87)" fill="#ffe0a7"/>
      <g id="Grupo_1017008" data-name="Grupo 1017008" transform="translate(16.215 26.572)">
        <path id="Trazado_715235" data-name="Trazado 715235" d="M182.358,307.989a3.174,3.174,0,0,0,3.174-3.174v-9.167l-1.9-2.024-4.353,10.415A3.174,3.174,0,0,0,182.358,307.989Z" transform="translate(-179.182 -293.624)" fill="#fd5758"/>
        <path id="Trazado_715236" data-name="Trazado 715236" d="M265.834,307.989a3.174,3.174,0,0,1-3.174-3.174v-9.167l3.624-2.024,2.627,10.415A3.174,3.174,0,0,1,265.834,307.989Z" transform="translate(-255.106 -293.624)" fill="#fd5758"/>
      </g>
      <g id="Grupo_1017009" data-name="Grupo 1017009" transform="translate(16.215 26.572)">
        <path id="Trazado_715237" data-name="Trazado 715237" d="M183.555,307.755a3.176,3.176,0,0,1-4.278-3.715l2.628-10.416,2.1,1.176-2.33,9.24A3.174,3.174,0,0,0,183.555,307.755Z" transform="translate(-179.18 -293.624)" fill="#e9424a"/>
        <path id="Trazado_715238" data-name="Trazado 715238" d="M267.035,307.755a3.178,3.178,0,0,1-4.375-2.939v-9.167l3.623-2.024.3,1.176-1.518.848v9.167A3.174,3.174,0,0,0,267.035,307.755Z" transform="translate(-255.105 -293.624)" fill="#e9424a"/>
      </g>
      <g id="Grupo_1017010" data-name="Grupo 1017010" transform="translate(19.859)">
        <path id="Trazado_715239" data-name="Trazado 715239" d="M228.875,0c-1.986,0-2.663,1.881-2.421,3.852l-.278,4.6a2.719,2.719,0,0,0,5.4,0l.583-4.747a3.307,3.307,0,0,0-3.282-3.71Z" transform="translate(-225.568 -0.005)" fill="#fd5758"/>
        <path id="Trazado_715240" data-name="Trazado 715240" d="M224.038,10.526a2.72,2.72,0,0,1-3.976-2.069l-.583-4.747A3.309,3.309,0,0,1,224.038.255a3.308,3.308,0,0,0-2,3.455l.583,4.747A2.718,2.718,0,0,0,224.038,10.526Z" transform="translate(-219.453)" fill="#e9424a"/>
      </g>
      <g id="Grupo_1017011" data-name="Grupo 1017011" transform="translate(10.012 15.438)">
        <ellipse id="Elipse_7978" data-name="Elipse 7978" cx="2.213" cy="3.277" rx="2.213" ry="3.277" transform="translate(0 0)" fill="#516666"/>
        <path id="Trazado_715241" data-name="Trazado 715241" d="M113.959,176.71a1.693,1.693,0,0,1-1.106.439c-1.223,0-2.213-1.467-2.213-3.277s.99-3.277,2.213-3.277a1.694,1.694,0,0,1,1.106.439,4.194,4.194,0,0,0,0,5.676Z" transform="translate(-110.64 -170.595)" fill="#384948"/>
        <ellipse id="Elipse_7979" data-name="Elipse 7979" cx="2.213" cy="3.277" rx="2.213" ry="3.277" transform="translate(21.882 0)" fill="#516666"/>
        <path id="Trazado_715242" data-name="Trazado 715242" d="M355.762,176.71a1.693,1.693,0,0,1-1.106.439c-1.223,0-2.213-1.467-2.213-3.277s.99-3.277,2.213-3.277a1.694,1.694,0,0,1,1.106.439,4.194,4.194,0,0,0,0,5.676Z" transform="translate(-330.561 -170.595)" fill="#384948"/>
      </g>
      <path id="Trazado_715243" data-name="Trazado 715243" d="M206.229,256v2.816l-2.215,2.626a5.764,5.764,0,0,0-1.251,2.61,2.069,2.069,0,0,1-.717,1.2,1.984,1.984,0,0,1-.2.146,2.072,2.072,0,0,1-3.15-1.348,5.76,5.76,0,0,0-1.251-2.61l-2.215-2.626.565-2.816Z" transform="translate(-177.563 -232.833)" fill="#f5cf33"/>
      <path id="Trazado_715244" data-name="Trazado 715244" d="M201.846,265.4a2.072,2.072,0,0,1-3.15-1.348,5.76,5.76,0,0,0-1.251-2.61l-2.215-2.626.565-2.816h.624l2.19,1.723,2.121,4.838v.866A2.3,2.3,0,0,0,201.846,265.4Z" transform="translate(-177.563 -232.833)" fill="#f2b632"/>
      <path id="Trazado_715245" data-name="Trazado 715245" d="M198.288,175.739a.878.878,0,0,1-1.677.363.89.89,0,0,0-1.453-.245L193.5,177.59a2.2,2.2,0,0,1-3.187,0l-1.381-1.447-.36-.689a.8.8,0,0,0-.639-.2,1.082,1.082,0,0,0-.886.6,1.1,1.1,0,0,1-.346.432c-.139.089-.122.045-.294.045-.552,0-.967-.23-.861-.772l.267-1.356a3.37,3.37,0,0,1,1.748-2.337l.322-.167a3.166,3.166,0,0,0,1.7-2.807v-.961a2.322,2.322,0,0,1,2.813-2.267c.069.015.137.033.2.053a2.321,2.321,0,0,1,1.623,2.214v.961a3.166,3.166,0,0,0,1.7,2.807l.322.167A3.37,3.37,0,0,1,198,174.213l.267,1.356A.857.857,0,0,1,198.288,175.739Z" transform="translate(-168.744 -150.632)" fill="#fde42f"/>
      <path id="Trazado_715246" data-name="Trazado 715246" d="M192.607,165.726a1.946,1.946,0,0,0-1.31,1.712l-.2,2.959a2.784,2.784,0,0,1-1.474,2.275,1.575,1.575,0,0,0-.838,1.392c0,.039,0,.078,0,.117l.145,1.962-.272-.286a.89.89,0,0,0-1.453.245.878.878,0,0,1-1.66-.534l.267-1.356a3.37,3.37,0,0,1,1.748-2.337l.322-.167a3.166,3.166,0,0,0,1.7-2.807v-.961a2.322,2.322,0,0,1,2.813-2.267c.069.015.137.033.2.053Z" transform="translate(-168.744 -150.632)" fill="#f5cf33"/>
    </g>
  </g>
</svg>
