<svg id="Grupo_1018008" data-name="Grupo 1018008" xmlns="http://www.w3.org/2000/svg" xmlns:xlink="http://www.w3.org/1999/xlink" width="715" height="551.641" viewBox="0 0 715 551.641">
  <defs>
    <clipPath id="clip-path">
      <rect id="Rectángulo_352786" data-name="Rectángulo 352786" width="715" height="551.641" fill="none"/>
    </clipPath>
    <clipPath id="clip-path-2">
      <path id="Trazado_716972" data-name="Trazado 716972" d="M372.77,89.335c-10.443,3.965-45.76,17.274-70.843,51.657-43.912,60.192-23.575,124.95-51.657,134.307-19.409,6.467-30.054-24.739-78.94-39.664-9.737-2.973-59.532-18.176-104.072,7.195-31.651,18.028-44.724,47.476-53.133,66.415,0,0-28.762,64.759-4.2,139.522a209.621,209.621,0,0,0,8.224,21.118c26.527,58.554,85.273,95.81,149.555,95.81H558.5a163.9,163.9,0,0,0,134-68.993,75.909,75.909,0,0,0,7.921-13.3c.416-1.013,1.05-2.553,1.828-4.551,29-74.371-.541-123.4-.541-123.4-22.26-38.935-57.281-23.609-78.773-60.225-21.406-36.469,7.186-62.15-3.9-104.25-15.9-60.419-102.365-112.287-185.271-112.285-20.957,0-41.695,3.316-61,10.646" transform="translate(0 -78.689)" fill="#eff5d6"/>
    </clipPath>
    <clipPath id="clip-path-4">
      <rect id="Rectángulo_352770" data-name="Rectángulo 352770" width="352.232" height="222.468" fill="none"/>
    </clipPath>
    <clipPath id="clip-path-5">
      <path id="Trazado_716982" data-name="Trazado 716982" d="M641.992,312.982c-1.377,3-2.836,5.839-4.348,8.457-14.027,24.368-34.969,35.91-48.457,43.136-83.1,44.554-174.532.776-182.616-3.25-19.214-9.576-46.428-23.126-57.546-49.555-2.04-4.845-3.83-10.807-11.729-30.879-10.558-26.812-13.5-31.749-16.1-35.466-10.972-15.682-22.163-18.509-30.724-26.169-.238-.217-.476-.435-.715-.662,9.214-29.576,17.029-54.15,17.619-55.994,1.445-4.512,7.024,14.906,18.25,56.356,12.793,47.232,20.543,67.626,26.94,67.156,4.919-.361,6.565-12.883,10.994-12.581,4.812.328,6.929,15.383,8.562,21.805,8.053,31.678,57.445,62.331,95.056,57.562,40.311-5.111,42-34.166,93.3-68.518,34.875-23.354,75.247-16.625,75.247-16.625s2.9,20.4,6.263,45.227" transform="translate(-289.76 -161.961)" fill="none"/>
    </clipPath>
    <linearGradient id="linear-gradient" x1="-0.473" y1="1.286" x2="-0.471" y2="1.286" gradientUnits="objectBoundingBox">
      <stop offset="0" stop-color="#fff"/>
      <stop offset="1" stop-color="#d9a182"/>
    </linearGradient>
    <clipPath id="clip-path-6">
      <rect id="Rectángulo_352772" data-name="Rectángulo 352772" width="50.311" height="119.638" fill="none"/>
    </clipPath>
    <clipPath id="clip-path-7">
      <path id="Trazado_716994" data-name="Trazado 716994" d="M304.5,205.787c-.724,1.325-1.45,2.174-2.371,3.706a28.738,28.738,0,0,0-2.361,4.7,22.442,22.442,0,0,0-1.024,8.52c.031.445.072,1,.1,1.657.021.383.031.807.052,1.252v.011c.093,2.661.113,6.345-.072,10.383-.073,1.573-.177,3.2-.311,4.844-.2,2.3-.466,4.617-.838,6.853-.073.466-.155.932-.249,1.387a1.133,1.133,0,0,1-.031.186c-.041.218-.082.435-.124.652-.259,1.3-.559,2.567-.911,3.747-.072.279-.155.549-.248.818s-.166.527-.259.8c-.083.228-.166.466-.249.693a20.93,20.93,0,0,1-1.107,2.516c-.062.124-.145.269-.238.435s-.176.332-.269.528c-.124.228-.259.476-.393.756a41.118,41.118,0,0,0-9.068,5.1c-3.2,2.412-4.378,4.078-7.007,4.244-1.76.114-2.226-.569-6.274-1.107-2.7-.363-3.467-.186-4.606-.363a8.648,8.648,0,0,1-4.523-2.391,22.62,22.62,0,0,0,23.416-3.7,69.219,69.219,0,0,1,.352-7.815,69.94,69.94,0,0,1,1.722-9.84c1.752-7.237,4.374-20.12,5.907-31.237a103.012,103.012,0,0,1,2.672-14.116c.558-2.082,1.293-4.068,2.825-8.368,3.416-9.576-3.406-26.222,2.64-27.712,4.183-1.025,6.408-8.479,7.381-12.982.435,3.7,1.035,8.468,1.935,14.761.849,5.931.881,5.7,1.18,8.272,1.9,16.386-6.47,33.053-7.65,32.8" transform="translate(-262.123 -149.949)" fill="none"/>
    </clipPath>
    <linearGradient id="linear-gradient-2" x1="-1.452" y1="6.482" x2="-1.445" y2="6.482" xlink:href="#linear-gradient"/>
    <clipPath id="clip-path-8">
      <rect id="Rectángulo_352774" data-name="Rectángulo 352774" width="15.055" height="22.768" fill="none"/>
    </clipPath>
    <clipPath id="clip-path-9">
      <path id="Trazado_717013" data-name="Trazado 717013" d="M298.442,130.243a1.892,1.892,0,0,1-.517-1.81,6.607,6.607,0,0,1,.579-1.534c1.286-2.425,3.72-2.952,6.15-4.427a16.082,16.082,0,0,0,3.607-3.012,1.882,1.882,0,0,1,3.182.669,29.535,29.535,0,0,1-.67,20.307,1.882,1.882,0,0,1-3.272.387,78.085,78.085,0,0,0-5.429-6.789c-1.22-1.364-2.435-2.624-3.628-3.789" transform="translate(-297.869 -118.839)" fill="none"/>
    </clipPath>
    <linearGradient id="linear-gradient-3" x1="-10.024" y1="16.352" x2="-9.989" y2="16.352" xlink:href="#linear-gradient"/>
    <clipPath id="clip-path-10">
      <rect id="Rectángulo_352776" data-name="Rectángulo 352776" width="12.526" height="21.408" fill="none"/>
    </clipPath>
    <clipPath id="clip-path-11">
      <path id="Trazado_717014" data-name="Trazado 717014" d="M243.9,131.57l-10.17-8.606a1.177,1.177,0,0,0-1.914,1.125,42.553,42.553,0,0,1,.721,7.97c-.023,4.513-.959,7.573.922,9.871a6.648,6.648,0,0,0,3.949,2.135,1.179,1.179,0,0,0,1.374-.825,27.527,27.527,0,0,1,5.27-10.029,1.17,1.17,0,0,0-.154-1.641" transform="translate(-231.796 -122.681)" fill="none"/>
    </clipPath>
    <linearGradient id="linear-gradient-4" x1="-8.847" y1="17.876" x2="-8.807" y2="17.876" xlink:href="#linear-gradient"/>
    <clipPath id="clip-path-12">
      <rect id="Rectángulo_352778" data-name="Rectángulo 352778" width="47.999" height="46.863" fill="none"/>
    </clipPath>
    <clipPath id="clip-path-13">
      <path id="Trazado_717041" data-name="Trazado 717041" d="M241.35,213.094a194.588,194.588,0,0,1-26.915-2.587,193.246,193.246,0,0,1-20.983-4.731q2.5-13.184,5.155-26.522,1.289-6.536,2.609-13.023a72.06,72.06,0,0,1,11.532,19.855c4.648,12.681,19.678,16.221,28.447,19.41a42.214,42.214,0,0,1,.155,7.6" transform="translate(-193.452 -166.231)" fill="none"/>
    </clipPath>
    <linearGradient id="linear-gradient-5" x1="-2.23" y1="6.336" x2="-2.218" y2="6.336" gradientUnits="objectBoundingBox">
      <stop offset="0" stop-color="#fff"/>
      <stop offset="1" stop-color="#c1e3e0"/>
    </linearGradient>
    <clipPath id="clip-path-14">
      <rect id="Rectángulo_352780" data-name="Rectángulo 352780" width="44.43" height="148.187" fill="none"/>
    </clipPath>
    <clipPath id="clip-path-15">
      <path id="Trazado_717051" data-name="Trazado 717051" d="M138.422,224.99c-.766,4.616-1.46,8.468-1.977,11.242-5.217-.4-12.816,1.656-19.834,13.457-12.278,20.642-18.9,52.867-22.412,54.647a.689.689,0,0,1-.207.062c2.091-18.043,2.868-15.6,3.706-29.275,1.377-22.494,2.868-88.125,4.948-96.9.021-.113.279-1.18.6-2.639.632-2.8,1.294-6.066,1.946-9.762a26.048,26.048,0,0,1,3.758-9.607l13.209,7.837s6.159,33.167,6.9,36.511,6.46,15.9,6.46,15.9Z" transform="translate(-93.992 -156.212)" fill="none"/>
    </clipPath>
    <linearGradient id="linear-gradient-6" x1="-0.493" y1="2.774" x2="-0.485" y2="2.774" xlink:href="#linear-gradient-5"/>
    <clipPath id="clip-path-16">
      <rect id="Rectángulo_352782" data-name="Rectángulo 352782" width="70.834" height="123.606" fill="none"/>
    </clipPath>
    <clipPath id="clip-path-17">
      <path id="Trazado_717113" data-name="Trazado 717113" d="M569.41,230.805c.481-.232,19.454-9.6,28.453-4.958,5.867,3.028,15.037,7.119,18.537,19.231h20.458a986.732,986.732,0,0,0,2.728-117.636c-.069-2-.154-3.989-.241-5.97-4.426,5.816-9.8,15.921-11.8,30.768-3.234,23.846,4.109,23.109-15.157,39.372-19.1,16.143-42.615,38.84-42.975,39.193" transform="translate(-569.41 -121.472)" fill="none"/>
    </clipPath>
    <linearGradient id="linear-gradient-7" x1="-3.517" y1="3.23" x2="-3.51" y2="3.23" gradientUnits="objectBoundingBox">
      <stop offset="0" stop-color="#fff"/>
      <stop offset="1" stop-color="#ff7161"/>
    </linearGradient>
    <clipPath id="clip-path-18">
      <rect id="Rectángulo_352784" data-name="Rectángulo 352784" width="48.904" height="292.011" fill="none"/>
    </clipPath>
    <clipPath id="clip-path-19">
      <path id="Trazado_717115" data-name="Trazado 717115" d="M641.677,508.456c-4.335,3.034-11.349,6.16-17.956,8.755a12.841,12.841,0,0,0,9.99,4.145l22.208-.9a12.8,12.8,0,0,0,12.319-12.626,38.967,38.967,0,0,0-1.2-9.74c-.091-.348-.149-.581-.223-.862-2.728-10.337-6.964-35.68-13.853-89.292.291-12.112.779-44.717-2.611-78.067q-1.069-41.77-2.155-83.539c-4.933-6.209-9.077-11.929-12.509-16.978l-16.349,15.76a80.677,80.677,0,0,1,15.875,26.669c4.245,11.979,6.093,27.092-.348,43.423a76.027,76.027,0,0,0-4.3,16.15c-5.571,35.531,10.172,76.533,11.117,98.51,1.087,25.4,10.14,71.5,0,78.589" transform="translate(-619.336 -229.355)" fill="none"/>
    </clipPath>
    <linearGradient id="linear-gradient-8" x1="-1.372" y1="1.779" x2="-1.369" y2="1.779" gradientUnits="objectBoundingBox">
      <stop offset="0" stop-color="#fff"/>
      <stop offset="1" stop-color="#55939e"/>
    </linearGradient>
  </defs>
  <g id="Grupo_1017556" data-name="Grupo 1017556" clip-path="url(#clip-path)">
    <g id="Grupo_1017513" data-name="Grupo 1017513" transform="translate(0 64.636)">
      <g id="Grupo_1017512" data-name="Grupo 1017512" clip-path="url(#clip-path-2)">
        <path id="Trazado_717132" data-name="Trazado 717132" d="M0,0H745.889V487.008H0Z" transform="translate(-14.638 -0.002)" fill="#eff5d6"/>
      </g>
    </g>
    <g id="Grupo_1017555" data-name="Grupo 1017555">
      <g id="Grupo_1017554" data-name="Grupo 1017554" clip-path="url(#clip-path)">
        <path id="Trazado_716973" data-name="Trazado 716973" d="M624.726,509.152c-1.639,4.91,1.528,8.965,5.171,17.138t6.8,21.571c2.9,9.2,6.173,23.288,7.558,44.407l12.115,1.985c-1.677-50.429-3.565-89.659-5.448-89.638-.65.007-1.527,4.694-2.826,4.505s-1.422-5.1-2.808-5.358c-1.538-.282-2.385,5.593-4.432,5.755-2.129.168-2.364-6.577-5.909-7.739-3.242-1.063-8.645,2.665-10.217,7.375" transform="translate(-111.493 -89.582)" fill="#40342e"/>
        <path id="Trazado_716974" data-name="Trazado 716974" d="M549.606,253.759c-12.743,16.5,2.753,34.155-3.152,80.372-4.311,33.74-14.244,32.828-10.244,46.884,9.21,32.367,68.685,66.145,68.877,76.728a12.057,12.057,0,0,0,2.068,6.8c.529.743,2.439,3.424,5.107,3.511,2.752.09,3.421-2.626,6.121-2.526,2.392.089,2.807,2.4,5.319,2.364,1.03-.016,1.425-.412,4.334-1.97,1.057-.567,1.9-.992,2.564-1.319,1.225-.6,1.983-.968,2.136-1.045,2.167-1.082,3.79-6.766,3.378-12.312a24.91,24.91,0,0,0-5.052-13c-1.189-8.913-4.5-22.507-2.346-38.729,1.852-13.977,5.028-30.164,5.6-51.985.71-27.241,2.3-88.338-29.186-104.531-17.386-8.941-44.22-3.865-55.52,10.763" transform="translate(-95.598 -42.605)" fill="#80411e"/>
        <path id="Trazado_716975" data-name="Trazado 716975" d="M629.432,636.838l25.22.867c-.07-1.711-.133-4.4,0-7.683a115.171,115.171,0,0,1,3.1-21.774c2.223-8.989,5.677-12.664,2.562-16.587-2.686-3.383-3.214-5.815-4.045-5.664-1.389.251-1.027,4-2.348.629-.482-1.232-1.856-3.9-2.912-3.866-1.074.039-2.152,2.9-2.344,5.3-.131,1.653.2,2.535-.218,2.758-1.047.56-4.177-4.372-5.345-3.852-.406.181-.353,1.083-.269,2.868a29.427,29.427,0,0,0,.624,4.522c2.61,11.928.31,18.37-2.4,22.072-2.994,4.1-8,6.906-10.44,14.183a23.775,23.775,0,0,0-1.188,6.225" transform="translate(-112.412 -104.077)" fill="#dbc5b0"/>
        <path id="Trazado_716976" data-name="Trazado 716976" d="M651.206,667.081a17.626,17.626,0,0,0,2.323-6.785,18.244,18.244,0,0,0-2.364-11.229c-4.1-1.529-14.334-4.685-25.22-.867a23.58,23.58,0,0,0-10.739,6.743,22.7,22.7,0,0,0-5.3,12.137Z" transform="translate(-108.925 -115.44)" fill="#d99f80"/>
        <path id="Trazado_716977" data-name="Trazado 716977" d="M250.915,127.137a48.249,48.249,0,0,0-7.485-8.077,49.253,49.253,0,0,0-18.514-9.891,117,117,0,0,1,.554,12.177c-.07,10.874-1.593,12.576.022,17.641a23.421,23.421,0,0,0,10.351,12.777,17.974,17.974,0,0,0,3.235,1.294l11.838-25.919" transform="translate(-40.139 -19.497)" fill="#bf6a3e"/>
        <path id="Trazado_716978" data-name="Trazado 716978" d="M369.826,315.82c-9.407,38.234-16.123,61.01-20.684,75.054-5.541,17.062-6.982,35.85-15.9,51.414a12.357,12.357,0,0,0-1.773,6.107c-.016,2.4.766,4.464,2.9,8.077,4.491,7.6,6.737,11.4,9.632,11.362,2.362-.03,4.225-2.429,7.95-7.225,3.088-3.977,3.017-5.347,5.915-7.757,1.778-1.478,2.944-1.91,4.137-3.669a11.052,11.052,0,0,0,1.773-5.909c.491-11,23.781-25.806,23.781-25.806,18.212-11.578,38.053-38.358,37.166-57.324-.526-11.229-54.9-44.323-54.9-44.323" transform="translate(-59.198 -56.403)" fill="#80411e"/>
        <path id="Trazado_716979" data-name="Trazado 716979" d="M331.965,481.763c-3.052,2.077-.873,10.021,2.229,22.121,2.027,7.909,3.042,16.045,4.728,24.034a258.716,258.716,0,0,1,5.049,38.375l11.888,3.061c5.858-71.241,5.485-88.2,3.692-88.424-.576-.073-1.353,1.575-4.312,2.894a13.11,13.11,0,0,1-6.666,1.151c-2.519-.258-3.608-1.009-6-1.853-3.033-1.069-8.3-2.926-10.605-1.358" transform="translate(-59.024 -85.89)" fill="#40342e"/>
        <path id="Trazado_716980" data-name="Trazado 716980" d="M767.321,307.546c-7.2-4.751-3.689-10.144,1.166-17.606,1.011-1.553,2.057-3.16,3.053-4.846a6.189,6.189,0,0,0,.836-4.938c-1.147-4.075-6.883-7.125-12.957-10.354-4.4-2.338-8.943-4.756-11.948-7.659-4.8-4.638-4.991-9.927-5.214-16.052-.172-4.693-.349-9.546-2.608-14.711-2.748-6.284-10.295-10.217-16.971-12.555a59.793,59.793,0,0,0-9.009-5.585,51.778,51.778,0,0,0-4.7-2.2c14.559.22,27.368,6.417,34.019,16.962a34.917,34.917,0,0,1,5.085,19.271.519.519,0,0,0,.51.527h.008a.519.519,0,0,0,.518-.51,35.949,35.949,0,0,0-5.246-19.839c-7.252-11.5-21.587-17.986-37.606-17.428-21.469-7.436-43.037.544-48.139,2.563,7.511,8.96,18.76,19.074,33.423,20.319,10.8.918,15.966-3.612,19.865-.358,8.336,6.956-12.117,30.3-13.3,66.666-.642,19.79,1.908,15.484,11.017,60.647,2.434,12.068,5.2,24.772,8.851,40.523,10.411,44.914,17.073,1.925,22.471-4.137s5.531-21.275,9.077-28.021,10.047-12.166,6.5-20.57.591-17.008,6.5-24.691-2.364-11.819-13.593-19.5,2.955-7.683,6.5-16.164a7.262,7.262,0,0,0,.39-3.236c-.085-8.883-12.065-12.677-18.317-22.166-7.675-11.651,1.245-19.751-6.3-33.292a31.286,31.286,0,0,0-6.086-7.706c5.677,2.334,11.372,5.833,13.585,10.9,2.18,4.985,2.353,9.739,2.522,14.334.222,6.085.432,11.832,5.53,16.758,3.109,3.006,7.721,5.458,12.181,7.829,5.873,3.122,11.42,6.071,12.448,9.721a5.135,5.135,0,0,1-.732,4.131c-.985,1.667-2.024,3.264-3.029,4.809-4.789,7.361-8.924,13.716-.869,19.034,9.03,5.959,7.922,17.452,7.59,18.119a.518.518,0,0,0,.888.534c.684-1.14,1.459-13.335-7.908-19.516" transform="translate(-117.535 -36.953)" fill="#40342e"/>
        <path id="Trazado_716981" data-name="Trazado 716981" d="M638.7,304.847c-1.377,3-2.836,5.839-4.348,8.457-14.027,24.369-34.969,35.911-48.457,43.136-83.1,44.555-174.532.776-182.616-3.25-19.214-9.575-46.428-23.126-57.546-49.555-2.04-4.845-3.83-10.807-11.729-30.879-10.558-26.812-13.5-31.749-16.1-35.465-10.972-15.683-22.163-18.51-30.724-26.17-.238-.217-.476-.435-.714-.662-12.112-11.418-21.677-35.869-9.441-93.239,0,0,37.649-6.1,57.059,15.113,14.887,16.269,18.218,17.752,39.814,32.826,25.6,17.871,50.8,24.693,76.476,31.643,16.268,4.4,27.281,7.385,42.662,8.74,53.26,4.689,69.249-18.017,106.769-6.7,7.412,2.236,25.714,7.743,37.826,24.43,17.588,24.254,11.9,58.042,1.066,81.572" transform="translate(-48.461 -20.79)" fill="#bf6a3e"/>
        <g id="Grupo_1017518" data-name="Grupo 1017518" transform="translate(238.011 133.037)" style="mix-blend-mode: multiply;isolation: isolate">
          <g id="Grupo_1017517" data-name="Grupo 1017517">
            <g id="Grupo_1017516" data-name="Grupo 1017516" clip-path="url(#clip-path-4)">
              <g id="Grupo_1017515" data-name="Grupo 1017515" transform="translate(0 -0.001)">
                <g id="Grupo_1017514" data-name="Grupo 1017514" clip-path="url(#clip-path-5)">
                  <rect id="Rectángulo_352769" data-name="Rectángulo 352769" width="425.792" height="377.661" transform="translate(-97.122 42.133) rotate(-25.346)" fill="url(#linear-gradient)"/>
                </g>
              </g>
            </g>
          </g>
        </g>
        <path id="Trazado_716983" data-name="Trazado 716983" d="M443.2,507.989c-2.242,4.994.068,9.881,3.152,18.32,2.587,7.081,4.531,14.38,6.8,21.571,2.9,9.2,6.173,23.288,7.558,44.407l12.115,1.984c-1.677-50.429-3.565-89.659-5.448-89.638-.65.007-1.527,4.694-2.826,4.505s-1.422-5.1-2.808-5.358c-1.538-.282-2.385,5.593-4.432,5.755-2.141.169-2.5-6.851-5.91-7.739-2.7-.7-6.558,2.541-8.2,6.193" transform="translate(-78.993 -89.6)" fill="#40342e"/>
        <path id="Trazado_716984" data-name="Trazado 716984" d="M461.513,413.83a133.311,133.311,0,0,1,.269,16.894c-.518,17.3-3.075,20.849-1.947,28.064a19.25,19.25,0,0,1-.29,8.281,18.1,18.1,0,0,1-2.029,4.721,14.259,14.259,0,0,1-4.668,1.283c-1.812.177-2.278-.145-3.644.2-2.734.673-3.116,2.495-4.431,2.36-2.454-.238-2.4-6.676-5.125-7.288-2.349-.517-4.027,3.893-6.739,3.447-2.173-.352-3.354-3.54-4.1-5.611a28.049,28.049,0,0,1-1.47-11.822,24.134,24.134,0,0,0-.031-2.992c-.321-5.486-2.164-18.3-11.5-36.6-1.088-2.132-2.309-4.348-2.309-4.348-1-1.8-1.77-3.1-2.2-3.851-6.491-11.211-22.691-46.107-24.089-74.575-.642-12.857,1.739-24.41,9.4-31.873,12.308-12,36.852-12.1,53.353-2.36,2.743,1.615,17.567,10.351,20.694,26,3.716,18.623-11.3,36.211-11.822,59.089C458.7,388.6,459,393.6,459,393.6c.539,7.4,1.843,12.4,2.516,20.227" transform="translate(-69.135 -51.927)" fill="#bf6a3e"/>
        <path id="Trazado_716985" data-name="Trazado 716985" d="M429.194,459.4c-.673.3-1.284.61-1.863.931-.321-5.486-2.164-18.3-11.5-36.6-1.087-2.133-2.308-4.348-2.308-4.348-1-1.8-1.77-3.1-2.206-3.852-6.49-11.211-22.691-46.106-24.089-74.575,2.444,10.466,6.967,23.1,15.341,33.333,17.712,21.646,24.379,18.965,29.9,38.022s2.195,44.627-3.271,47.09" transform="translate(-69.156 -60.892)" fill="#c77e56"/>
        <path id="Trazado_716986" data-name="Trazado 716986" d="M409.2,405.423a.517.517,0,0,1-.468-.3c-12.706-26.893-15.223-34.442-15.247-34.516a141.291,141.291,0,0,1-6.08-27.952c-2.117-16.666-.257-23.077.355-25.184a44.943,44.943,0,0,1,8.318-15.762.518.518,0,0,1,.806.651,43.9,43.9,0,0,0-8.129,15.4c-.6,2.055-2.412,8.31-.321,24.763a140.341,140.341,0,0,0,6.036,27.762c.024.073,2.539,7.6,15.2,34.4a.519.519,0,0,1-.247.69.527.527,0,0,1-.22.049" transform="translate(-69.013 -53.849)" fill="#40342e"/>
        <path id="Trazado_716987" data-name="Trazado 716987" d="M476.313,453.7a.466.466,0,0,1-.058,0,.518.518,0,0,1-.458-.572c.477-4.274.792-8.617.933-12.906a156.944,156.944,0,0,0-.481-19.031,63.622,63.622,0,0,0-.9-6.727c-.265-1.446-.539-2.94-.854-5.987-.579-5.593-1.548-14.953.269-25.711a55.314,55.314,0,0,1,2.373-8.926c.617-1.951,1.42-4.491,2.5-8.016,2.193-7.176,4.284-14.384,6.216-21.425a.518.518,0,1,1,1,.273c-1.934,7.052-4.028,14.27-6.224,21.455-1.079,3.529-1.883,6.073-2.5,8.026a54.6,54.6,0,0,0-2.339,8.786c-1.793,10.618-.834,19.892-.26,25.432.311,3.007.581,4.481.843,5.906a64.715,64.715,0,0,1,.918,6.819,158.237,158.237,0,0,1,.485,19.161c-.143,4.316-.458,8.686-.939,12.986a.518.518,0,0,1-.513.46" transform="translate(-84.601 -61.439)" fill="#40342e"/>
        <path id="Trazado_716988" data-name="Trazado 716988" d="M464.252,211.885c-.8-4.11-3.374-17.446-14.556-26.847-5.23-4.4-8.327-4.559-13.924-7.364-4.615-2.313-4.347-3.134-9.34-5.9-7.353-4.076-8.3-1.962-13.418-5.11-4.942-3.04-6.33-6.4-9-8.958a11.615,11.615,0,0,1,5.309,2.238c6.886,5.164,11.407,5.762,14.209,5.762,2.215,0,18.741,10.332,19.9,11.629a.517.517,0,1,0,.779-.681c-1.1-1.257-17.92-11.984-20.683-11.984-2.653,0-6.949-.576-13.588-5.554a12.589,12.589,0,0,0-7.328-2.57,12.638,12.638,0,0,0-3.219-1.625,19.242,19.242,0,0,0-7.413-.8,39.5,39.5,0,0,1-11.315-1.689c6.2-.4,12.116-1.75,14.275-4.044a.518.518,0,0,0-.754-.71c-2.245,2.385-9.441,3.714-16.388,3.834a64.055,64.055,0,0,1-21.262-12.81c-6.281-5.846-6.748-8.658-15.989-17.5q-.787-.752-1.667-1.52a29.418,29.418,0,0,1,5.968,3.056,28.626,28.626,0,0,1,4.85,5.025,45.627,45.627,0,0,0,10.668,10.018,35.375,35.375,0,0,0,16.5,5.908h.02a.517.517,0,0,0,.018-1.034,34.932,34.932,0,0,1-15.971-5.741A44.148,44.148,0,0,1,350.5,127.1a29.3,29.3,0,0,0-5.039-5.2,38.885,38.885,0,0,0-9.109-4.283c-1.217-.934-2.555-1.888-4.064-2.868-11.092-7.215-17.37-.571-31.049-6.05-6.183-2.477-7.5-4.7-13.707-5.715a32.545,32.545,0,0,0-13.649.789c10.678,24.107,21.746,31.217,30.468,32.744,8.263,1.446,14.72-2.067,19.559,2.643,4.721,4.594,1.38,10.665,7.448,25.2a42.163,42.163,0,0,0,4.871,9.022c2.353,3.2,4.976,5.4,8.989,9.453,6.793,6.853,13.261,1.275,23.114,3.852s13.762,9.026,19.993,14.768,14.165,16.613,25.842,24.914,15.8-5.748,20.652-2.788,17.791,14.831,24.584,13.06a3.889,3.889,0,0,0,1.28-.688c7.287-4.862,4.259-20.518,3.572-24.067" transform="translate(-48.913 -18.322)" fill="#40342e"/>
        <path id="Trazado_716989" data-name="Trazado 716989" d="M321.62,194.517c0,.369,2.46,15-5.9,18.818a44.809,44.809,0,0,1-15.374,4.059s1.722-11.74,2.952-12.7,18.326-10.18,18.326-10.18" transform="translate(-53.639 -34.739)" fill="#f0f8ff"/>
        <path id="Trazado_716990" data-name="Trazado 716990" d="M313.386,217.749a.518.518,0,0,1-.164-1.009c2.676-.894,7.2-2.633,7.935-3.5.835-.974,1.784-5.089,2.08-6.593a.518.518,0,0,1,1.016.2c-.114.581-1.148,5.711-2.31,7.067s-7.656,3.558-8.392,3.8a.5.5,0,0,1-.164.027" transform="translate(-55.876 -36.832)" fill="#40342e"/>
        <path id="Trazado_716991" data-name="Trazado 716991" d="M300.326,199.739c-.724,1.325-1.449,2.174-2.371,3.706a28.673,28.673,0,0,0-2.36,4.7,22.432,22.432,0,0,0-1.025,8.52c.031.445.072,1,.1,1.657.021.383.041.807.052,1.252v.011c.047,1.331.075,2.917.069,4.675s-.048,3.693-.141,5.707c-.062,1.574-.166,3.2-.31,4.845-.2,2.3-.467,4.617-.839,6.853-.072.466-.155.932-.249,1.387a1.133,1.133,0,0,1-.031.186c-.041.218-.082.435-.124.652-.259,1.3-.559,2.567-.911,3.747-.072.279-.155.549-.248.818s-.166.527-.259.8c-.083.228-.166.466-.249.693a20.93,20.93,0,0,1-1.107,2.516c-.062.124-.145.269-.238.435-.062.135-.155.311-.269.528s-.259.476-.393.756a41.09,41.09,0,0,0-9.068,5.1c-3.2,2.412-4.379,4.078-7.008,4.244-1.76.114-2.226-.569-6.273-1.107-2.7-.363-3.468-.186-4.607-.363a8.647,8.647,0,0,1-4.523-2.391c-.114-.113-.238-.228-.362-.352a21.643,21.643,0,0,1-3.189-4.2c-.176-.3-.362-.611-.538-.931a11.037,11.037,0,0,1-.839-2.3,16.63,16.63,0,0,1-.3-1.677c-.062-.57-.114-1.16-.135-1.75a33.9,33.9,0,0,1,.207-4.7c.021-.321.062-.642.1-.952s.072-.642.114-.963c.041-.29.083-.58.113-.87q.078-.527.155-1.025c.114-.817.228-1.594.31-2.3a30.763,30.763,0,0,0,.125-7.556c-.963-7.826-5.342-10.445-4.379-24.534a45.743,45.743,0,0,0,.072-7.723,33.75,33.75,0,0,0-2.495-10.383c-.735-1.75-1.088-2.164-2.1-4.214a72.3,72.3,0,0,1-5.828-18.84c-1.718-11.5,5.259-41.562,28.147-47.318,13.074-3.282,29.9,1.791,35.237,11.883,1.408,2.651,1.221,4.162,2.495,14.938.435,3.7,1.035,8.468,1.935,14.761.849,5.931.881,5.7,1.18,8.271,1.9,16.387-6.469,33.053-7.65,32.805" transform="translate(-42.636 -20.732)" fill="#bf6a3e"/>
        <path id="Trazado_716992" data-name="Trazado 716992" d="M240.552,152.647a.5.5,0,0,1-.092-.008.518.518,0,0,1-.418-.6,31.161,31.161,0,0,1,2.711-8.333c1.041-2.1,5.052-8.623,5.74-8.623a.518.518,0,0,1,.41.833,61.637,61.637,0,0,0-5.222,8.25,30.055,30.055,0,0,0-2.619,8.056.518.518,0,0,1-.509.426" transform="translate(-42.868 -24.125)" fill="#40342e"/>
        <path id="Trazado_716993" data-name="Trazado 716993" d="M249.138,217.039h-.025a.515.515,0,0,1-.492-.526c0-.012.006-.079.017-.195a66.727,66.727,0,0,0,.105-13.288,20.535,20.535,0,0,0-3.319-8.794,49.349,49.349,0,0,1-3.73-7.475,53.936,53.936,0,0,1-3.58-17.236.518.518,0,0,1,1.034-.049,52.911,52.911,0,0,0,3.509,16.906,48.405,48.405,0,0,0,3.66,7.33,21.383,21.383,0,0,1,3.452,9.183,67.768,67.768,0,0,1-.1,13.523l-.013.139a.521.521,0,0,1-.517.482" transform="translate(-42.525 -30.179)" fill="#40342e"/>
        <g id="Grupo_1017523" data-name="Grupo 1017523" transform="translate(215.31 123.169)" style="mix-blend-mode: multiply;isolation: isolate">
          <g id="Grupo_1017522" data-name="Grupo 1017522">
            <g id="Grupo_1017521" data-name="Grupo 1017521" clip-path="url(#clip-path-6)">
              <g id="Grupo_1017520" data-name="Grupo 1017520" transform="translate(0 0)">
                <g id="Grupo_1017519" data-name="Grupo 1017519" clip-path="url(#clip-path-7)">
                  <rect id="Rectángulo_352771" data-name="Rectángulo 352771" width="123.61" height="61.621" transform="translate(-9.829 118.927) rotate(-85.276)" fill="url(#linear-gradient-2)"/>
                </g>
              </g>
            </g>
          </g>
        </g>
        <path id="Trazado_716995" data-name="Trazado 716995" d="M306.857,243.483h-.007a.517.517,0,0,1-.51-.525c0-.3,0-1.479,0-3.048-.015-4.017-.038-10.738.055-11.951.131-1.709,4.831-10.954,5.366-12a.517.517,0,1,1,.922.471c-1.986,3.889-5.169,10.48-5.256,11.611-.09,1.171-.066,7.867-.052,11.869.006,1.579.01,2.76,0,3.066a.517.517,0,0,1-.517.51" transform="translate(-54.707 -38.518)" fill="#40342e"/>
        <path id="Trazado_716996" data-name="Trazado 716996" d="M290.145,260.357c-1.781-.518-2.661-.807-2.836-.89-3.944-1.853,6.677-29.7,3.043-31.78-2.236-1.283-8.83,7.723-10.673,6.5-2.06-1.346,4.431-13.665,4.813-25.145.124-4-.839-7.329-.839-9.13a10.8,10.8,0,0,0-1.9-5.953,30.639,30.639,0,0,0-3.053-4.11c-5.911-6.16-5.7-21.873-8.861-22.132-1.661-.136-3.315,4.673-4.42,7.867a29.962,29.962,0,0,0-1.787,8.426c-.414,6.925,1.83,11.441.1,13.713-.476.627-3.229,3.68-3.485,3.935-2.258,2.173-.846,5.987,1.173,18.324,1.752,10.708,1.725,14.11-.373,16.6a9.056,9.056,0,0,1-4.327,2.722,30.722,30.722,0,0,1-.124,7.557c-.083.7-.2,1.48-.31,2.3q-.078.5-.155,1.024c-.031.29-.072.58-.113.87-.042.321-.073.642-.114.963s-.083.632-.1.952a32.389,32.389,0,0,0-.207,4.7,13.8,13.8,0,0,0,.135,1.75,12.2,12.2,0,0,0,.3,1.677,9.3,9.3,0,0,0,1.377,3.23,6.354,6.354,0,0,0,.445.591c.072.083.145.155.207.238.186.2.362.4.518.59.445.549.818,1.025,1.014,1.294a.975.975,0,0,1,.114.155c.011.011.021.031.031.042l.01.01c.155.228.321.476.5.725.114.186.228.372.352.559a8.908,8.908,0,0,0,4.886,2.744c1.139.176,1.9,0,4.606.362,1.12.149,1.966.309,2.641.46,1.842.412,3.38.609,3.633.647,1.07.161,2.905.08,8.487-3.6a72.21,72.21,0,0,0,7.589-5.752c.135-.259.249-.5.362-.7a.277.277,0,0,1,.031-.052c.135-.269.259-.5.362-.683.052-.1.1-.2.145-.279.062-.113.113-.217.165-.331-1.149-.362-2.3-.683-3.354-.994" transform="translate(-45.644 -29.953)" fill="#c77e56"/>
        <path id="Trazado_716997" data-name="Trazado 716997" d="M274.55,293.034a2.944,2.944,0,0,1-1.476-.453,7.849,7.849,0,0,0-1.848-.734,7.732,7.732,0,0,0-3.176-.184,8.575,8.575,0,0,1-2.751-.05,10.644,10.644,0,0,1-5.129-2.862,15.958,15.958,0,0,1-5.036-9.417.518.518,0,1,1,1.022-.166,14.923,14.923,0,0,0,4.7,8.8,9.767,9.767,0,0,0,4.643,2.625,7.625,7.625,0,0,0,2.449.038,8.715,8.715,0,0,1,3.547.212,8.989,8.989,0,0,1,2.065.817,1.775,1.775,0,0,0,1.289.312,7.881,7.881,0,0,0,.954-.231,14.655,14.655,0,0,1,3.167-.587.5.5,0,0,1,.553.479.517.517,0,0,1-.479.554,13.6,13.6,0,0,0-2.96.55,8.674,8.674,0,0,1-1.086.259,3.1,3.1,0,0,1-.443.034" transform="translate(-45.564 -49.78)" fill="#40342e"/>
        <path id="Trazado_716998" data-name="Trazado 716998" d="M275.68,288.076a6.636,6.636,0,0,1-1.853-.287c-2.409-.7-6.277-1.071-11.823-1.138a.517.517,0,0,1-.512-.523.508.508,0,0,1,.524-.512c5.641.067,9.6.453,12.1,1.179a4.708,4.708,0,0,0,2.505.132A4.21,4.21,0,0,0,279,285.141a4.671,4.671,0,0,1,2.27-1.822c1.437-.458,2.5.189,3.538.814a5.865,5.865,0,0,0,3.854,1.144c.031,0,3.344-.32,4.771-2.813a4.949,4.949,0,0,0,.608-1.875.517.517,0,0,1,1.028.123,5.966,5.966,0,0,1-.737,2.265c-1.692,2.958-5.422,3.318-5.58,3.332a6.915,6.915,0,0,1-4.48-1.29c-.987-.6-1.7-1.028-2.687-.713a3.761,3.761,0,0,0-1.775,1.479,5.175,5.175,0,0,1-2.939,2.146,4.842,4.842,0,0,1-1.193.145" transform="translate(-46.701 -50.03)" fill="#40342e"/>
        <path id="Trazado_716999" data-name="Trazado 716999" d="M266.9,236.745a.517.517,0,0,1-.5-.372c-1.953-6.7-1.924-12.523.089-17.319a22.957,22.957,0,0,1,1.524-2.937,11.917,11.917,0,0,0,1.766-4.337c.54-2.891-.057-4.785-.885-7.406a47.635,47.635,0,0,1-1.408-5.233c-.958-4.763-.681-8.424-.129-15.719a95.115,95.115,0,0,1,2.424-15.275.518.518,0,0,1,1.006.245,94.019,94.019,0,0,0-2.4,15.1c-.545,7.2-.819,10.816.112,15.441a46.469,46.469,0,0,0,1.38,5.125c.839,2.661,1.5,4.763.915,7.908a12.95,12.95,0,0,1-1.892,4.673,21.812,21.812,0,0,0-1.461,2.812c-1.918,4.572-1.934,10.167-.049,16.628a.517.517,0,0,1-.5.663" transform="translate(-47.319 -29.959)" fill="#40342e"/>
        <path id="Trazado_717000" data-name="Trazado 717000" d="M258.165,186.336c0,1.564-.894,2.831-2,2.831s-2-1.267-2-2.831.894-2.831,2-2.831,2,1.267,2,2.831" transform="translate(-45.393 -32.773)" fill="#40342e"/>
        <path id="Trazado_717001" data-name="Trazado 717001" d="M300.39,186.336c0,1.564-.894,2.831-2,2.831s-2-1.267-2-2.831.894-2.831,2-2.831,2,1.267,2,2.831" transform="translate(-52.935 -32.773)" fill="#40342e"/>
        <path id="Trazado_717002" data-name="Trazado 717002" d="M260.956,267.919c-.562-1.623-1.421-4.1-.369-5.166,1.433-1.447,4.6,1.569,9.962,1.845,6.69.345,10.33-3.912,11.808-2.4,1.314,1.347-.9,5.4-3.506,10.147a15.667,15.667,0,0,1-4.473,5.185,4.284,4.284,0,0,1-.858.535c-2.851,1.166-6.672-2.484-8.321-4.059a14.91,14.91,0,0,1-4.243-6.088" transform="translate(-46.45 -46.769)" fill="#bf6a3e"/>
        <path id="Trazado_717003" data-name="Trazado 717003" d="M260.07,261.023a4.1,4.1,0,0,1-2.727-.9,3.814,3.814,0,0,1-1.078-3.279,18.906,18.906,0,0,0-1.28-7.853.518.518,0,0,1,.95-.413,19.616,19.616,0,0,1,1.364,8.336,2.849,2.849,0,0,0,.731,2.433,3.674,3.674,0,0,0,2.719.59.517.517,0,0,1,.186,1.018,5.1,5.1,0,0,1-.864.067" transform="translate(-45.531 -44.339)" fill="#40342e"/>
        <path id="Trazado_717004" data-name="Trazado 717004" d="M279.467,276.814c-1.095-.242-1.985-3.628-.646-6,1.379-2.439,4.868-3.352,5.494-2.629.127.146.139.371-.113,1.261a16.808,16.808,0,0,1-1.63,3.948c-1.3,2.048-2.291,3.6-3.106,3.416" transform="translate(-49.675 -47.854)" fill="#40342e"/>
        <path id="Trazado_717005" data-name="Trazado 717005" d="M261.144,269.136a1.294,1.294,0,0,1,.34-.283c1.071-.608,2.847.578,3.57,1.206,2.367,2.055,2.674,6.144,1.831,6.544-.706.334-2.394-1.837-3.184-2.854a17.3,17.3,0,0,1-2.557-4.612" transform="translate(-46.639 -47.985)" fill="#40342e"/>
        <path id="Trazado_717006" data-name="Trazado 717006" d="M327.014,180.847a8.984,8.984,0,0,0-3.925-5.564,13.351,13.351,0,0,0-4.2-1.045c-3.7-.611-5.286-.167-6.287.314-.633.3-1.213.568-1.339,1.1-.3,1.3,2.4,2.663,2.03,3.612-.2.515-1.044.227-1.6.939a2.843,2.843,0,0,0,.062,2.952c.614,1.015,1.6,1.232,1.538,1.906-.007.063-.026.173-.492.8-.617.83-.808.938-.973,1.2-.609.968.076,2.536.728,4.027.578,1.324.84,1.373.793,1.908-.1,1.19-1.443,1.46-1.778,2.826a3.387,3.387,0,0,0,.307,2.091c1.065,2.817,3.909,5.2,4.92,6.006.43-.36,1.116-.933,1.967-1.64a12.426,12.426,0,0,0,1.845-1.6c.752-1.111.453-1.97,1.336-3.686a5.326,5.326,0,0,1,.505-.842,10.379,10.379,0,0,0,1.863-2.441,13.6,13.6,0,0,0,1.244-4.574c.516-4.216,1.452-8.292,1.452-8.292" transform="translate(-55.586 -31.065)" fill="#ffccbc"/>
        <path id="Trazado_717007" data-name="Trazado 717007" d="M315.207,206.383a10.025,10.025,0,0,1-1.929-.171.517.517,0,0,1,.216-1.012,9.96,9.96,0,0,0,3.327.016.518.518,0,0,1,.174,1.021,10.827,10.827,0,0,1-1.788.146" transform="translate(-55.876 -36.645)" fill="#9e6352"/>
        <path id="Trazado_717008" data-name="Trazado 717008" d="M311.657,201.916a.517.517,0,0,1-.517-.51c-.009-.665.022-2.269.514-2.808.41-.448,1.691-1.718,1.691-1.718a.518.518,0,0,1,.364-.149h2.89a.518.518,0,0,1,0,1.036h-2.677c-.346.343-1.188,1.184-1.5,1.53a6.032,6.032,0,0,0-.243,2.094.517.517,0,0,1-.51.525Z" transform="translate(-55.567 -35.135)" fill="#9e6352"/>
        <path id="Trazado_717009" data-name="Trazado 717009" d="M313.63,187.788a.517.517,0,0,1-.09-1.027c3.346-.6,3.521-.478,3.7-.352a.518.518,0,0,1-.434.925c-.36,0-1.837.222-3.089.445a.487.487,0,0,1-.091.008" transform="translate(-55.92 -33.273)" fill="#9e6352"/>
        <path id="Trazado_717010" data-name="Trazado 717010" d="M317.018,180.6h-3.013a.517.517,0,1,1,0-1.035h2.932l2.435-.775a.518.518,0,1,1,.315.987l-2.512.8a.509.509,0,0,1-.157.025" transform="translate(-55.987 -31.926)" fill="#9e6352"/>
        <path id="Trazado_717011" data-name="Trazado 717011" d="M328.565,181.317a.518.518,0,0,1-.5-.4,8.48,8.48,0,0,0-1.1-2.636,8.6,8.6,0,0,0-2.532-2.563l-4.112-1.023a.518.518,0,0,1,.25-1.005l4.2,1.045a.524.524,0,0,1,.154.067,9.6,9.6,0,0,1,2.919,2.926,9.5,9.5,0,0,1,1.232,2.957.518.518,0,0,1-.505.634" transform="translate(-57.137 -31.017)" fill="#9e6352"/>
        <path id="Trazado_717012" data-name="Trazado 717012" d="M290.629,118.382c.97-1.131,2.484-2.833,4.456-4.787a120.4,120.4,0,0,1,9.8-8.437c2.261-1.854,5.5-4.588,9.348-8.118a49.293,49.293,0,0,1,3.249,14.064,79.387,79.387,0,0,1-.407,12.238c-.025.251-.05.474-.077.7-.434,3.61-1.116,7.14-2.257,13.043-.42,2.171-.784,3.961-1.034,5.171a27.285,27.285,0,0,1-6.36-2.169c-11.539-5.619-15.607-17.88-16.712-21.706" transform="translate(-51.904 -17.331)" fill="#bf6a3e"/>
        <g id="Grupo_1017528" data-name="Grupo 1017528" transform="translate(244.672 97.615)" style="mix-blend-mode: multiply;isolation: isolate">
          <g id="Grupo_1017527" data-name="Grupo 1017527">
            <g id="Grupo_1017526" data-name="Grupo 1017526" clip-path="url(#clip-path-8)">
              <g id="Grupo_1017525" data-name="Grupo 1017525" transform="translate(0 0)">
                <g id="Grupo_1017524" data-name="Grupo 1017524" clip-path="url(#clip-path-9)">
                  <rect id="Rectángulo_352773" data-name="Rectángulo 352773" width="23.968" height="27.92" transform="translate(-9.249 3.883) rotate(-25.346)" fill="url(#linear-gradient-3)"/>
                </g>
              </g>
            </g>
          </g>
        </g>
        <g id="Grupo_1017533" data-name="Grupo 1017533" transform="translate(190.399 100.771)" style="mix-blend-mode: multiply;isolation: isolate">
          <g id="Grupo_1017532" data-name="Grupo 1017532">
            <g id="Grupo_1017531" data-name="Grupo 1017531" clip-path="url(#clip-path-10)">
              <g id="Grupo_1017530" data-name="Grupo 1017530" transform="translate(0 0)">
                <g id="Grupo_1017529" data-name="Grupo 1017529" clip-path="url(#clip-path-11)">
                  <rect id="Rectángulo_352775" data-name="Rectángulo 352775" width="21.037" height="25.344" transform="translate(-8.705 3.585) rotate(-25.346)" fill="url(#linear-gradient-4)"/>
                </g>
              </g>
            </g>
          </g>
        </g>
        <path id="Trazado_717015" data-name="Trazado 717015" d="M294.855,98.715c-.7-.249-2.625-.646-5.067-1.15-2.281-.47-4.867-1-7.057-1.541-4.344-1.065-8.581,3.791-9.477,4.891-.505.051-1.022.121-1.543.2a43.706,43.706,0,0,0-6.455-.551c-6.276.033-14.639-6.234-14.723-6.3a.518.518,0,1,0-.627.824c.351.267,8.631,6.509,15.271,6.509h.088a32.13,32.13,0,0,1,3.4.172,22.559,22.559,0,0,0-10.25,5.958c-5.566,5.681-8.608,14.763-6.038,22.212,1.943,5.632,6.744,9.675,7.763,9.057,1.046-.633-1.659-6.357.108-7.709l0,0a4.944,4.944,0,0,1,.176.862,17.014,17.014,0,0,0,5.428,9.545c3.956,3.252,9.286,3.751,12.161,2.48.442-.2,1.6-.708,1.749-1.617s-.836-1.4-1.725-2.911c-1.1-1.865-1.426-4.2-.863-4.529.412-.237,1.042.747,2.912,1.833.692.4,3.482,2.022,4.528,1.186.655-.524.4-1.831.108-3.235-.962-4.627-3.282-6.578-2.537-9.046a2.851,2.851,0,0,1,.6-.982c1.342-1.771,3.024-5.006,4.671-11.4l-4.24-12a30.914,30.914,0,0,0-8.479-.676c1.477-1.59,4.691-4.522,7.752-3.774,2.21.542,4.805,1.078,7.094,1.549,2.308.476,4.3.887,4.928,1.111a.517.517,0,1,0,.349-.974" transform="translate(-44.595 -16.817)" fill="#40342e"/>
        <path id="Trazado_717016" data-name="Trazado 717016" d="M445.549,636.835l25.22.867c-.07-1.711-.133-4.4,0-7.683a115.172,115.172,0,0,1,3.1-21.774c2.224-8.989,5.677-12.664,2.562-16.587-2.686-3.383-3.214-5.815-4.045-5.664-1.389.251-1.027,4-2.348.629-.917-2.343-2.477-4.066-2.912-3.866-.5.228,1.651,3.842.081,6.344a3.774,3.774,0,0,1-2.642,1.718c-2.664.1-4.386-4.28-5.346-3.852-.406.181-.353,1.083-.269,2.868a29.362,29.362,0,0,0,.623,4.522c2.61,11.928.31,18.37-2.4,22.072-2.994,4.1-8,6.906-10.44,14.183a23.774,23.774,0,0,0-1.188,6.225" transform="translate(-79.572 -104.074)" fill="#dbcbbc"/>
        <path id="Trazado_717017" data-name="Trazado 717017" d="M478.087,617.606A.535.535,0,0,1,478,617.6a.517.517,0,0,1-.424-.6c.07-.4,1.187-4.519,2.884-10.748,1.022-3.748,2.005-7.36,2.355-8.711.729-2.805-1.685-4.8-1.709-4.818a.517.517,0,1,1,.651-.8c.122.1,2.955,2.44,2.061,5.883-.351,1.353-1.336,4.97-2.359,8.723-1.245,4.57-2.794,10.257-2.862,10.65a.519.519,0,0,1-.509.43" transform="translate(-85.29 -105.692)" fill="#40342e"/>
        <path id="Trazado_717018" data-name="Trazado 717018" d="M467.323,667.081a17.628,17.628,0,0,0,2.323-6.785,18.244,18.244,0,0,0-2.364-11.229c-4.1-1.529-14.334-4.685-25.22-.867a23.58,23.58,0,0,0-10.739,6.743,22.7,22.7,0,0,0-5.3,12.137Z" transform="translate(-76.084 -115.44)" fill="#d99f80"/>
        <path id="Trazado_717019" data-name="Trazado 717019" d="M385.587,642.817a18.153,18.153,0,0,0-.508-7.634,18.753,18.753,0,0,0-6.887-9.743L361.541,633a20.725,20.725,0,0,0-9.675,25.124Z" transform="translate(-62.632 -111.699)" fill="#d99f80"/>
        <path id="Trazado_717020" data-name="Trazado 717020" d="M358.636,585.479c2.251,14.325,6.67,19.238,10.541,20.911,1.689.73,5.09,1.629,7.388,4.827a11.25,11.25,0,0,1,1.795,4.026,3.607,3.607,0,0,1-1.862,4.052c-1.335.676-2.757,1.337-4.266,1.969a66.044,66.044,0,0,1-13.368,3.991,2.845,2.845,0,0,1-3.03-1.445,29.52,29.52,0,0,1-2.907-7.964c-1.152-5.58.378-7.277,0-12.411-.848-11.534-7.761-13.435-6.8-22.753.48-4.633,2.755-9.615,3.795-9.463.367.054.692.582.932,1.78,1.182,5.91,3.547,5.614,4.432,2.66a1.854,1.854,0,0,1,1.122-1.39c.865-.26,2.116,1.776,2.673,3.176,1.2,3.017.324,6.142-.448,8.033" transform="translate(-61.8 -102.016)" fill="#dbcbbc"/>
        <path id="Trazado_717021" data-name="Trazado 717021" d="M353.021,608.416l-.046,0a.518.518,0,0,1-.47-.562c.393-4.459-1.023-7.637-2.663-11.316l-.411-.926a62.081,62.081,0,0,1-3.15-10.769.518.518,0,0,1,1.016-.2,62.227,62.227,0,0,0,3.081,10.551l.409.922c1.7,3.812,3.166,7.1,2.748,11.83a.518.518,0,0,1-.515.472" transform="translate(-61.842 -104.338)" fill="#40342e"/>
        <path id="Trazado_717022" data-name="Trazado 717022" d="M378.766,615.674a.517.517,0,0,1-.505-.407c-.333-1.529-1.374-1.888-3.654-2.675a40.049,40.049,0,0,1-4.333-1.715c-5.222-2.47-6.857-10.622-6.924-10.968a.518.518,0,1,1,1.016-.2c.016.08,1.6,7.985,6.35,10.229a39.329,39.329,0,0,0,4.228,1.673c2.331.8,3.871,1.336,4.328,3.433a.519.519,0,0,1-.506.628" transform="translate(-64.89 -107.03)" fill="#40342e"/>
        <path id="Trazado_717023" data-name="Trazado 717023" d="M719.73,509.152c-1.639,4.91,1.528,8.965,5.171,17.138t6.8,21.571c2.9,9.2,6.173,23.288,7.558,44.407l12.115,1.985c-1.717-44.349-3.832-89.674-5.448-89.638-.3.007-.741,1.568-1.893,1.681-1.559.153-2.32-2.556-3.741-2.534-2.036.033-2.609,5.611-4.432,5.755-2.129.168-2.364-6.577-5.909-7.739-3.242-1.063-8.645,2.665-10.218,7.375" transform="translate(-128.46 -89.582)" fill="#40342e"/>
        <path id="Trazado_717024" data-name="Trazado 717024" d="M726.076,438.125s9.068,20.58,5,23.178c-1.594,1-4.606-1.3-7.66.559-2.195,1.335-2.132,3.354-3.84,3.737-2.226.508-3.53-3.374-6-3.147-2.7.248-3.023,5.031-6.294,5.476a5.067,5.067,0,0,1-3.665-1.253c-1.294-1.118-1.4-2.454-2.06-4.224,0,0-.61-1.615-3.747-5.715-5.517-7.215-58.208-44.43-66.582-75.837-2.671-10.02,1.149-12.65,5.176-24.109,1.718-4.887,3.272-10.663,5.072-22.774,4.855-32.846-7.836-69.45,6-86.189,5.61-6.781,18.146-13.416,50.165-7.867a130.356,130.356,0,0,1,22.825,33.571c6.1,13.033,9.431,25.993,11.1,44.3.569,6.179.942,12.971,1.17,20.579a523.054,523.054,0,0,1-3.581,77.721q-1.258,10.622-3.075,22" transform="translate(-112.573 -42.486)" fill="#bf6a3e"/>
        <path id="Trazado_717025" data-name="Trazado 717025" d="M742.285,323.668a.518.518,0,0,1-.478-.319c-11.064-26.667-13.652-30.685-13.676-30.722-7.294-11.006-19.872-19.049-37.384-23.905a.518.518,0,1,1,.277-1c17.759,4.926,30.533,13.111,37.97,24.331.1.156,2.666,4.139,13.769,30.9a.518.518,0,0,1-.28.676.506.506,0,0,1-.2.039" transform="translate(-123.295 -47.81)" fill="#40342e"/>
        <path id="Trazado_717026" data-name="Trazado 717026" d="M705.908,500.923a.516.516,0,0,1-.447-.257c-.057-.1-5.8-9.909-7.866-12.08-.938-.987-4.587-4.172-9.636-8.581-6.1-5.33-14.458-12.627-22.241-19.742-14.026-12.817-22.412-32.593-22.5-32.791a.517.517,0,1,1,.954-.4c.083.2,8.385,19.766,22.239,32.427,7.775,7.106,16.127,14.4,22.225,19.725,5.071,4.427,8.733,7.627,9.7,8.648,2.147,2.258,7.771,11.864,8.01,12.273a.518.518,0,0,1-.186.708.512.512,0,0,1-.261.071" transform="translate(-114.868 -76.215)" fill="#40342e"/>
        <path id="Trazado_717027" data-name="Trazado 717027" d="M748.177,433.507a71.053,71.053,0,0,1-9.71-22.226c-5-21.273,2.785-33.343,8.685-54.419a126.779,126.779,0,0,0,3.437-21.656c.57,6.18.942,12.971,1.17,20.58a523.06,523.06,0,0,1-3.581,77.721" transform="translate(-131.599 -59.866)" fill="#c77e56"/>
        <path id="Trazado_717028" data-name="Trazado 717028" d="M724.436,636.838l25.221.867c-.07-1.711-.133-4.4,0-7.683a115.165,115.165,0,0,1,3.1-21.774c2.224-8.989,5.677-12.664,2.562-16.587-2.686-3.383-3.214-5.815-4.045-5.664-1.389.251-1.027,4-2.348.629-.482-1.232-1.856-3.9-2.912-3.866-1.074.039-2.152,2.9-2.344,5.3-.131,1.653.2,2.535-.217,2.758-1.047.56-4.177-4.372-5.346-3.852-.406.181-.353,1.083-.269,2.868a29.369,29.369,0,0,0,.623,4.522c2.61,11.928.31,18.37-2.4,22.072-2.994,4.1-8,6.906-10.44,14.183a23.778,23.778,0,0,0-1.188,6.225" transform="translate(-129.379 -104.077)" fill="#dbcbbc"/>
        <path id="Trazado_717029" data-name="Trazado 717029" d="M727.981,630.762a.518.518,0,0,1-.413-.829c1.543-2.055,3.19-4.1,4.891-6.063,1.4-1.617,2.429-2.719,3.111-3.449.278-.3.494-.527.647-.7,2.722-3.065,3.8-8.466,3.194-16.052a.517.517,0,1,1,1.031-.083c.626,7.878-.536,13.538-3.452,16.822-.158.178-.379.415-.664.72-.678.723-1.7,1.817-3.086,3.419-1.685,1.95-3.315,3.971-4.846,6.008a.516.516,0,0,1-.413.206" transform="translate(-129.92 -107.711)" fill="#40342e"/>
        <path id="Trazado_717030" data-name="Trazado 717030" d="M746.21,667.081a17.628,17.628,0,0,0,2.323-6.785,18.238,18.238,0,0,0-2.364-11.229c-4.1-1.529-14.333-4.685-25.22-.867a23.58,23.58,0,0,0-10.739,6.743,22.7,22.7,0,0,0-5.3,12.137Z" transform="translate(-125.892 -115.44)" fill="#d99f80"/>
        <path id="Trazado_717031" data-name="Trazado 717031" d="M107.623,624.667a57.648,57.648,0,0,0-1.182,6.8c-.357,3.165-.578,5.115-.214,7.3.731,4.377,3.185,7.615,4.323,8.3,5.981,3.615,15.971,9.336,19.487,9.464,5.147.187,6.4,2.292,5.615,3.863-1.147,2.309-15.513.609-32.866-1.615-3.676-.471-7.941-1.186-10.205-4.5-1.683-2.461-1.386-5.149-1.006-10.132.311-4.082.7-10.006.978-17.413l15.07-2.068" transform="translate(-16.302 -111.561)" fill="#ffccbc"/>
        <path id="Trazado_717032" data-name="Trazado 717032" d="M90.8,645.968a10.45,10.45,0,0,1,1.223-.251c.278-.039.55-.067.819-.083a8.569,8.569,0,0,1,7.295,3.635c.287.387.609.788.968,1.2,4.062,4.612,9.515,6.2,14.407,7.557a52.107,52.107,0,0,0,13.654,1.879,10.938,10.938,0,0,1,8.424,2.9,9.9,9.9,0,0,1,2.435,4.144H95.058s-1.127-6.2-2.56-5.455-2.458,5.455-2.458,5.455H87.274a38.079,38.079,0,0,1,1.263-10.733c.322-1.156.835-3.881.955-4.435.536-2.44.991-4.446,1.3-5.808" transform="translate(-15.586 -115.304)" fill="#ff7161"/>
        <path id="Trazado_717033" data-name="Trazado 717033" d="M192.7,624.667a57.645,57.645,0,0,0-1.182,6.8c-.357,3.165-.578,5.115-.214,7.3.731,4.377,3.185,7.615,4.323,8.3,5.981,3.615,15.971,9.336,19.487,9.464,5.148.187,6.4,2.292,5.615,3.863-1.147,2.309-15.513.609-32.865-1.615-3.677-.471-7.941-1.186-10.206-4.5-1.683-2.461-1.386-5.149-1.006-10.132.311-4.082.7-10.006.978-17.413l15.07-2.068" transform="translate(-31.496 -111.561)" fill="#ffccbc"/>
        <path id="Trazado_717034" data-name="Trazado 717034" d="M175.873,645.968a10.45,10.45,0,0,1,1.223-.251c.278-.039.55-.067.82-.083a8.568,8.568,0,0,1,7.294,3.635c.288.387.609.788.968,1.2,4.062,4.612,9.515,6.2,14.407,7.557a52.107,52.107,0,0,0,13.654,1.879,10.939,10.939,0,0,1,8.424,2.9,9.89,9.89,0,0,1,2.435,4.144H180.134s-1.127-6.2-2.56-5.455-2.458,5.455-2.458,5.455H172.35a38.079,38.079,0,0,1,1.263-10.733c.322-1.156.835-3.881.955-4.435.536-2.44.991-4.446,1.3-5.808" transform="translate(-30.78 -115.304)" fill="#ff7161"/>
        <path id="Trazado_717035" data-name="Trazado 717035" d="M186.733,83.587C185.5,78.254,181.926,73.5,179.9,71.121c-.06-.086-.113-.174-.175-.26-6.211-8.792-18.371-11.874-28.265-9.9a28.387,28.387,0,0,0-16.734,10.129c-.377.486-.72.977-1.051,1.47a10.055,10.055,0,0,0-5.218,4.052c-1.624,2.742-1.322,5.94-1.057,8.762.232,2.462.43,4.588-.823,5.469a2.827,2.827,0,0,1-1.482.422,3.187,3.187,0,0,0-2.287.937c-1.125,1.193-1.322,3.219-.586,6.022a.518.518,0,0,0,.5.386.527.527,0,0,0,.132-.017.519.519,0,0,0,.369-.632c-.641-2.434-.527-4.132.338-5.048a2.221,2.221,0,0,1,1.631-.618,3.775,3.775,0,0,0,1.979-.605c1.745-1.226,1.52-3.63,1.258-6.414-.25-2.664-.534-5.684.919-8.136a8.2,8.2,0,0,1,3.356-3.008c-4.5,7.891-3.629,16.035-3.3,19.02a35.246,35.246,0,0,0,6.97,17.277,27.446,27.446,0,0,0-14.871-.717,28.6,28.6,0,0,0-10.088,4.85c-2.076-.08-5.516.032-7.621,1.424-3.028,2-7.13,8.061-7.3,8.318a.517.517,0,0,0,.858.578c.042-.061,4.158-6.145,7.016-8.033,1.49-.985,3.851-1.239,5.733-1.263-7.835,6.427-12.61,16.345-10.395,24,2.594,8.966,16.018,16.524,16.019,16.524l35.688-18.234c6.432-19.693,11.889-24.691,15.769-25.451a18.841,18.841,0,0,0,6.731-1.678,17.689,17.689,0,0,0,6.966-6.837c3.992-6.5,3.585-13.36,3.289-17.457a40.271,40.271,0,0,0-1.6-9.9,24.9,24.9,0,0,1,3.153,7.265c1.673,7.219.968,18.474.959,18.588a.519.519,0,0,0,.484.55l.034,0a.519.519,0,0,0,.517-.485c.03-.467.724-11.519-.984-18.887" transform="translate(-17.218 -10.785)" fill="#ed8251"/>
        <path id="Trazado_717036" data-name="Trazado 717036" d="M180.816,160.368c-2.308,6.863-3.447,10.31-5.176,11.79-4.41,3.81-13.447,1.895-18.623-1.408-9.141-5.828-12.723-20.009-8.954-35.579l2.1-.444a6.242,6.242,0,0,0,3.52-2.133,8.16,8.16,0,0,0,1.3-1.925c.983-2.09.756-4.1.248-8.033-.414-3.24-.735-5.642-.88-6.74a10.081,10.081,0,0,1,5.052,1.874,8.754,8.754,0,0,1,1.314,1.211,9.983,9.983,0,0,0,2.237,1.75.187.187,0,0,0,.052.041,64.406,64.406,0,0,0,10.475,4.8c.456,5.218.777,8.934.787,9.638a4.183,4.183,0,0,0,.186,1.231,4.242,4.242,0,0,0,.218.58c.041.094.093.2.134.3.4.828.953,1.749,1.16,2.1l.124.094,3.1,1.987c1.18,3.9,1.895,6.781,1.895,6.956-.011.124-.031.249-.031.249v.113c-.021.166-.052.4-.072.7-.186,2.546.59,4.172.849,5.539.176.88.145,1.842-1.014,5.3" transform="translate(-26.179 -20.698)" fill="#ffccbc"/>
        <path id="Trazado_717037" data-name="Trazado 717037" d="M178.769,139.927a16.209,16.209,0,0,1-7.049-.8,14.892,14.892,0,0,1-6.8-4.576c-4.73-6.014-3.1-16.252-3.1-16.252.083-.041.176-.083.259-.124.414.4.849.807,1.314,1.211a28.351,28.351,0,0,0,2.236,1.75.238.238,0,0,0,.052.042,32.436,32.436,0,0,0,10.476,4.8c.456,5.218.776,8.934.787,9.638a4.19,4.19,0,0,0,.186,1.232,4.364,4.364,0,0,0,.217.58.814.814,0,0,0,.135.3c.4.828.953,1.75,1.16,2.1Z" transform="translate(-28.852 -21.106)" fill="#ffab91"/>
        <path id="Trazado_717038" data-name="Trazado 717038" d="M93.936,430.92c.99-28.548,1.294-45.912,1.572-56.247.653-24.219,2.38-59.13,7.182-104.66l66.19,15.76c2.368,15.806,5.018,35.146,7.505,57.288,0,0,2.559,22.7,4.408,45.1a1511.845,1511.845,0,0,1,4.147,178.683,51.581,51.581,0,0,1-8.982,2.316,52.506,52.506,0,0,1-18.7-.349c-4.238-78.695-7.915-136.025-8.474-141.915-.779-8.2-1.608-16-1.608-16v-.007c-.292-2.716-.554-4.957-1.015-9.072-.77-6.863-1.615-13.992-2.557-21.509a.77.77,0,0,0-1.523-.042c-1.048,6.311-6.813,26.3-7.458,38.608-1,19.078-5.719,37.786-7.9,56.766-2.471,21.529-6.383,52.563-12.608,92.783a63.492,63.492,0,0,1-24.23-1.576c.448-40.8,1.488-67.82,2.075-85.3.806-23.99,1.6-39.985,1.97-50.627" transform="translate(-16.054 -48.223)" fill="#3f5763"/>
        <path id="Trazado_717039" data-name="Trazado 717039" d="M173.89,294.723c-1.461-47.464-.648-69.978.581-81.53.275-2.594,1.645-14.725,2.435-31.222.329-6.884.47-12.681.535-16.9a17.6,17.6,0,0,1-16.05,9.127A17.783,17.783,0,0,1,145.252,159.9c-2.192,18.926-4.747,34.05-6.705,44.487-.577,3.075-2.518,14.374-5.823,30.6-3.165,15.536-7.587,35.8-13.592,59.733Z" transform="translate(-21.276 -28.557)" fill="#55939e"/>
        <path id="Trazado_717040" data-name="Trazado 717040" d="M241.35,210.5a194.477,194.477,0,0,1-26.915-2.588,193.066,193.066,0,0,1-20.983-4.73q2.5-13.184,5.155-26.522,1.289-6.536,2.609-13.023c.8-3.985,1.615-7.971,2.433-11.925,0,0,6.066,2.526,8.415,3.6,5.632,2.567,7.609,4.854,15.363,10.641.931.694,2.018,1.491,3.26,2.371a20.785,20.785,0,0,0,.218,2.433,71.6,71.6,0,0,0,5.818,18.84c1.014,2.05,1.366,2.464,2.1,4.2a33.585,33.585,0,0,1,2.371,9.1,42.136,42.136,0,0,1,.155,7.6" transform="translate(-34.549 -27.095)" fill="#f0f8ff"/>
        <g id="Grupo_1017538" data-name="Grupo 1017538" transform="translate(158.903 136.543)" style="mix-blend-mode: multiply;isolation: isolate">
          <g id="Grupo_1017537" data-name="Grupo 1017537">
            <g id="Grupo_1017536" data-name="Grupo 1017536" clip-path="url(#clip-path-12)">
              <g id="Grupo_1017535" data-name="Grupo 1017535" transform="translate(0 0)">
                <g id="Grupo_1017534" data-name="Grupo 1017534" clip-path="url(#clip-path-13)">
                  <rect id="Rectángulo_352777" data-name="Rectángulo 352777" width="67.005" height="67.101" transform="matrix(0.668, -0.745, 0.745, 0.668, -23.293, 25.975)" fill="url(#linear-gradient-5)"/>
                </g>
              </g>
            </g>
          </g>
        </g>
        <path id="Trazado_717042" data-name="Trazado 717042" d="M240.222,223.191a.519.519,0,0,1-.062,0l-30.866-3.66a.517.517,0,1,1,.122-1.028l30.867,3.659a.518.518,0,0,1-.06,1.032" transform="translate(-37.297 -39.022)" fill="#40342e"/>
        <path id="Trazado_717043" data-name="Trazado 717043" d="M191.722,147.991q4.3,1.268,8.577,2.513c-.086,1.875-.2,4.761-.241,8.305-.034,2.674,0,3.225,0,4.816.01,1.561,0,2.685,0,2.888-.022,3.351,1.723,11.531,1.723,11.531.206,2.908.5,7.368.769,12.81.044.908.809,16.835.7,33.185-.253,38.359-5.212,64.365-3.78,98.2.084,1.974.288,6.314,1.288,28.677.15,3.337.871,19.522,1.016,22.8a94.152,94.152,0,0,1-27.054,3.571q.7-34.726,2.173-70.694,1.578-38.3,3.932-75.138a91.151,91.151,0,0,1,1.823-22.65c.458-2.132.819-3.346,1.334-6.26a83.548,83.548,0,0,0,1.454-17.984c-.213-6.609-1.747-9.234-2.242-13.83a34.749,34.749,0,0,1-.092-5,138.283,138.283,0,0,0-1.6-20.781q5.089,1.525,10.222,3.04" transform="translate(-31.204 -25.887)" fill="#f0f8ff"/>
        <path id="Trazado_717044" data-name="Trazado 717044" d="M191.822,415.376a.517.517,0,0,1-.106-1.023l12.484-2.616L201.915,360.7a.517.517,0,0,1,.494-.54.508.508,0,0,1,.54.494l2.3,51.479a.518.518,0,0,1-.411.53l-12.914,2.706a.474.474,0,0,1-.107.011" transform="translate(-34.166 -64.321)" fill="#40342e"/>
        <path id="Trazado_717045" data-name="Trazado 717045" d="M184.571,337.283a2.529,2.529,0,0,1-1.6-.592,3.977,3.977,0,0,1-1.334-2.931l-.907-24.641c-.071-1.919,1.014-3.567,2.524-3.832l10.349-1.824c1.513-.268,2.923.939,3.275,2.806a99.663,99.663,0,0,1,1.667,15.024,101.107,101.107,0,0,1-.207,10.828,3.4,3.4,0,0,1-2.533,3.3l-10.836,1.826a2.391,2.391,0,0,1-.4.033m9.445-32.82a1.334,1.334,0,0,0-.234.021l-10.35,1.823c-.987.175-1.721,1.393-1.67,2.775l.907,24.641a2.934,2.934,0,0,0,.954,2.166,1.454,1.454,0,0,0,1.171.341L195.63,334.4a2.42,2.42,0,0,0,1.673-2.357,100.1,100.1,0,0,0,.205-10.716,98.77,98.77,0,0,0-1.649-14.868c-.224-1.186-.993-2-1.843-2" transform="translate(-32.276 -54.19)" fill="#40342e"/>
        <path id="Trazado_717046" data-name="Trazado 717046" d="M185.243,316.653a.518.518,0,0,1-.117-1.022l12.673-2.956a.518.518,0,0,1,.235,1.009l-12.673,2.956a.538.538,0,0,1-.118.013" transform="translate(-32.991 -55.839)" fill="#40342e"/>
        <path id="Trazado_717047" data-name="Trazado 717047" d="M194.734,331.918a.518.518,0,0,1-.517-.5L193.524,315a.518.518,0,0,1,.5-.54.538.538,0,0,1,.539.5l.693,16.422a.518.518,0,0,1-.5.54Z" transform="translate(-34.562 -56.161)" fill="#40342e"/>
        <path id="Trazado_717048" data-name="Trazado 717048" d="M205.99,284.984l-.048,0a.516.516,0,0,1-.467-.563c.126-1.365,3.1-33.8,2.7-65.526-.159-12.584-.876-25.42-2.132-38.151a.517.517,0,0,1,.464-.566.508.508,0,0,1,.566.463c1.258,12.761,1.978,25.628,2.136,38.241.4,31.779-2.578,64.268-2.7,65.635a.517.517,0,0,1-.515.47" transform="translate(-36.696 -32.178)" fill="#40342e"/>
        <path id="Trazado_717049" data-name="Trazado 717049" d="M228.345,166.773a.51.51,0,0,1-.31-.1s-5.028-3.781-11.579-8.784c-6.4-4.885-26.91-10.516-27.116-10.572a.518.518,0,0,1,.272-1c.852.232,20.918,5.742,27.473,10.748s11.573,8.781,11.573,8.781a.517.517,0,0,1-.311.931" transform="translate(-33.747 -26.127)" fill="#40342e"/>
        <path id="Trazado_717050" data-name="Trazado 717050" d="M142.867,180.1c-.4,4.989-1.626,15.1-2.661,22.836-.693,5.073-1.439,10.093-2.225,15.031-.218,1.377-.435,2.7-.652,3.965-.766,4.617-1.46,8.468-1.977,11.242-.021.094-.031.2-.052.29-.342,1.864-.611,3.282-.694,3.717a.747.747,0,0,1-.021.082v.042c-.011.031-2.992,40.382-10.683,144.532-6.5-2.112-13.623-4.11-21.325-5.849-5.1-1.149-10.02-2.07-14.71-2.826.414-14.493,1.387-35.963,3.985-62,.383-3.841.734-7.071,1.045-9.824,2.091-18.043,2.868-15.6,3.706-29.275,1.377-22.494,2.868-88.125,4.948-96.9.021-.114.28-1.18.6-2.64.632-2.8,1.295-6.066,1.946-9.762a26.039,26.039,0,0,1,3.758-9.606,25.738,25.738,0,0,1,14.3-10.755,90.851,90.851,0,0,1,14.534-3.075c.652-.083,1.3-.166,1.947-.228,4.855,19.162,4.886,32.754,4.234,41" transform="translate(-15.693 -24.842)" fill="#f0f8ff"/>
        <g id="Grupo_1017543" data-name="Grupo 1017543" transform="translate(77.206 128.314)" style="mix-blend-mode: multiply;isolation: isolate">
          <g id="Grupo_1017542" data-name="Grupo 1017542">
            <g id="Grupo_1017541" data-name="Grupo 1017541" clip-path="url(#clip-path-14)">
              <g id="Grupo_1017540" data-name="Grupo 1017540" transform="translate(0 0)">
                <g id="Grupo_1017539" data-name="Grupo 1017539" clip-path="url(#clip-path-15)">
                  <rect id="Rectángulo_352779" data-name="Rectángulo 352779" width="100.15" height="153.563" transform="matrix(0.916, -0.401, 0.401, 0.916, -54.458, 23.852)" fill="url(#linear-gradient-6)"/>
                </g>
              </g>
            </g>
          </g>
        </g>
        <path id="Trazado_717052" data-name="Trazado 717052" d="M140.341,309.816H140.3a.518.518,0,0,1-.48-.553l2.922-41.7a.51.51,0,0,1,.554-.48.517.517,0,0,1,.48.553l-2.923,41.7a.517.517,0,0,1-.516.481" transform="translate(-24.972 -47.699)" fill="#40342e"/>
        <path id="Trazado_717053" data-name="Trazado 717053" d="M123.3,333.76a3.588,3.588,0,0,1-.468-.03L108.609,331.9a3.664,3.664,0,0,1-3.208-3.293,76.887,76.887,0,0,1,1.917-25.892,3.7,3.7,0,0,1,4.082-2.78l13.581,1.824a3.675,3.675,0,0,1,3.2,3.841l-1.191,24.641a3.7,3.7,0,0,1-3.695,3.517m-12.39-32.82a2.664,2.664,0,0,0-2.583,2.028,75.867,75.867,0,0,0-1.892,25.543,2.635,2.635,0,0,0,2.311,2.366l14.218,1.827h0a2.661,2.661,0,0,0,3-2.511l1.191-24.64a2.646,2.646,0,0,0-2.3-2.766l-13.58-1.824a2.639,2.639,0,0,0-.357-.024" transform="translate(-18.761 -53.561)" fill="#40342e"/>
        <path id="Trazado_717054" data-name="Trazado 717054" d="M123.609,313.131a.584.584,0,0,1-.091-.008l-16.629-2.956a.518.518,0,0,1,.181-1.019L123.7,312.1a.517.517,0,0,1-.09,1.027" transform="translate(-19.013 -55.21)" fill="#40342e"/>
        <path id="Trazado_717055" data-name="Trazado 717055" d="M114.571,328.4h-.03a.518.518,0,0,1-.488-.545l.911-16.422a.5.5,0,0,1,.545-.487.516.516,0,0,1,.487.545l-.91,16.421a.517.517,0,0,1-.516.49" transform="translate(-20.369 -55.531)" fill="#40342e"/>
        <path id="Trazado_717056" data-name="Trazado 717056" d="M99.6,255.223h-.02a.517.517,0,0,1-.5-.536c.7-19.444,1.388-35.847,1.891-47.825.166-3.939.313-7.436.435-10.459a119.757,119.757,0,0,1,2.244-19.674,117.818,117.818,0,0,1,3.438-13.181.518.518,0,0,1,.986.32,116.6,116.6,0,0,0-3.41,13.063,118.526,118.526,0,0,0-2.221,19.461q-.189,4.615-.437,10.513c-.5,11.977-1.194,28.378-1.893,47.819a.517.517,0,0,1-.516.5" transform="translate(-17.695 -29.145)" fill="#40342e"/>
        <path id="Trazado_717057" data-name="Trazado 717057" d="M120.436,416.126a.566.566,0,0,1-.1-.01q-4.575-.936-9.191-1.918c-7.825-1.666-15.732-3.438-23.5-5.267a.516.516,0,0,1-.4-.537c1-15.272,2.085-30.767,3.23-46.056q.952-12.713,1.962-25.325a.518.518,0,0,1,1.032.083Q92.455,349.7,91.5,362.415c-1.133,15.14-2.21,30.482-3.2,45.609,7.626,1.791,15.38,3.527,23.054,5.161q4.613.982,9.183,1.916a.518.518,0,0,1-.1,1.025" transform="translate(-15.581 -60.103)" fill="#40342e"/>
        <path id="Trazado_717058" data-name="Trazado 717058" d="M97.69,307.193h-.035a.519.519,0,0,1-.482-.552l.922-13.692a.518.518,0,0,1,1.033.07l-.922,13.692a.518.518,0,0,1-.516.483" transform="translate(-17.354 -52.233)" fill="#40342e"/>
        <path id="Trazado_717059" data-name="Trazado 717059" d="M154.464,133.343a11.539,11.539,0,0,1,1.566-.711c-.087.21-.186.431-.3.659-.1.208-.205.4-.309.584a1.67,1.67,0,0,0-.5.079c-.15.048-.6.259-1.49,1.525a6.814,6.814,0,0,0-1.183,3.093c-.168,1.405-.389,2.7-.626,4.07-.343,1.993-.7,4.047-.894,6.552a52.227,52.227,0,0,0,.332,13.087c.209,1.146.389,2.294.525,3.451q.123,1.062.251,2.123c.757,6.36,1.589,12.752,2.474,19.089l-.756.107c-.924-6.543-1.772-13.141-2.543-19.661q-.09-.749-.176-1.495c-.136-1.179-.327-2.349-.54-3.517a52.454,52.454,0,0,1-.329-13.244c.2-2.535.558-4.611.9-6.62.237-1.359.458-2.65.626-4.031a7.689,7.689,0,0,1,.435-1.779,7.476,7.476,0,0,1,2.535-3.36" transform="translate(-26.741 -23.687)" fill="#1d3557"/>
        <path id="Trazado_717060" data-name="Trazado 717060" d="M191.215,165.259l-.764-.007c.008-.779-.015-1.535-.076-2.26a18.814,18.814,0,0,0-1.382-6.055l-.237-.527a54.37,54.37,0,0,1-2.008-5.062c-.443-1.29-.679-2.107-.763-2.412a12.485,12.485,0,0,0-1.619-3.512,12.838,12.838,0,0,0-3.566-3.581,3.3,3.3,0,0,1-.04-.644,3.354,3.354,0,0,1,.052-.478,12.67,12.67,0,0,1,4.882,5.452,13.249,13.249,0,0,1,1.023,2.55c.084.3.313,1.107.748,2.382.794,2.329,1.543,3.994,1.985,4.993l.244.542a18.782,18.782,0,0,1,1.352,5.307,24.443,24.443,0,0,1,.168,3.314" transform="translate(-32.282 -25.131)" fill="#1d3557"/>
        <path id="Trazado_717061" data-name="Trazado 717061" d="M158.549,200.706a4.128,4.128,0,1,1-4.128-4.128,4.128,4.128,0,0,1,4.128,4.128" transform="translate(-26.842 -35.108)" fill="#40342e"/>
        <path id="Trazado_717062" data-name="Trazado 717062" d="M205.693,217.1a.424.424,0,0,1-.424-.422l-.068-16.768a.424.424,0,0,1,.422-.426h0a.423.423,0,0,1,.423.422l.069,16.768a.424.424,0,0,1-.422.425Z" transform="translate(-36.648 -35.626)" fill="#969696"/>
        <path id="Trazado_717063" data-name="Trazado 717063" d="M193.587,219.458a.423.423,0,0,1-.4-.278L187.9,204.607a.424.424,0,0,1,.8-.29l5.293,14.573a.423.423,0,0,1-.4.568" transform="translate(-33.552 -36.44)" fill="#969696"/>
        <path id="Trazado_717064" data-name="Trazado 717064" d="M187.852,199.8a.847.847,0,0,1-.8-.569,51.66,51.66,0,0,1-1.842-6.754,39.774,39.774,0,0,1-.973-8.744c.123-4.4,1.857-13.727,6.432-14.515,4.4-.756,9.969,6.737,11.1,13.1a92.681,92.681,0,0,1,.717,9.656c.087,1.874.131,3.42.155,4.455a.847.847,0,0,1-.827.867.837.837,0,0,1-.867-.827c-.023-1.026-.067-2.558-.154-4.417a92.315,92.315,0,0,0-.692-9.437c-1.028-5.788-6.073-12.243-9.142-11.723-3.02.52-4.889,7.954-5.027,12.893a38.319,38.319,0,0,0,.94,8.364,49.917,49.917,0,0,0,1.781,6.531.848.848,0,0,1-.522,1.079.861.861,0,0,1-.278.047" transform="translate(-32.902 -30.212)" fill="#40342e"/>
        <path id="Trazado_717065" data-name="Trazado 717065" d="M196.821,222.066a1.057,1.057,0,1,1-1.056-1.056,1.056,1.056,0,0,1,1.056,1.056" transform="translate(-34.774 -39.471)" fill="#212121"/>
        <path id="Trazado_717066" data-name="Trazado 717066" d="M205.642,220.183a1.057,1.057,0,1,1-1.056-1.056,1.056,1.056,0,0,1,1.056,1.056" transform="translate(-36.349 -39.135)" fill="#212121"/>
        <path id="Trazado_717067" data-name="Trazado 717067" d="M180.545,190.693a35.914,35.914,0,0,1,8.819-6.524l11.753-.648,7.054,3.567s-1.819,2.733-3.761,1.663-5.238-.418-5.238-.418l-3.134,1.916s12.053,5.673,13.492,4.116,6.21-4.774,8-5.03,4.884,1.144,3.164,1.6-7.631,7.234-7.631,7.234a43.917,43.917,0,0,1-5.839,1.973,60.468,60.468,0,0,1-10.93,1.731c-6.059.475-8.663-.829-10.425,1.085-1.36,1.478-.734,3.117-1.822,3.743-1.227.7-3.933-.283-10.145-6.7a35.914,35.914,0,0,1,6.648-9.308" transform="translate(-31.057 -32.775)" fill="#ffccbc"/>
        <path id="Trazado_717068" data-name="Trazado 717068" d="M188.526,206.29a.518.518,0,0,1-.506-.411.855.855,0,0,1,.24-.74c.589-.631,2.159-.757,4.8-.388,4.542.637,17.2-1.861,18.036-2.123a.518.518,0,1,1,.307.989c-.888.276-13.7,2.834-18.487,2.159-3-.421-3.738-.048-3.873.049a.516.516,0,0,1-.408.453.471.471,0,0,1-.107.012m.508-.624v0" transform="translate(-33.577 -36.184)" fill="#9e6352"/>
        <path id="Trazado_717069" data-name="Trazado 717069" d="M208.955,194.99a.52.52,0,0,1-.175-.03L196.942,190.7a.517.517,0,0,1-.247-.786,4.242,4.242,0,0,1,.458-.545A4.65,4.65,0,0,1,198.9,188.3a9.8,9.8,0,0,1,4.238-.634,7.883,7.883,0,0,1,1.9.489,1.968,1.968,0,0,0,1.457.166,3.975,3.975,0,0,0,1.3-.735,4.024,4.024,0,0,0,.455-.446l-6.409-3.24c-.912-.057-7.722-.4-12.37,1.129-3.685,1.216-6.981,3.981-9.8,8.219a.518.518,0,0,1-.862-.573c2.949-4.436,6.427-7.339,10.337-8.628,5.162-1.7,12.559-1.2,12.871-1.173a.494.494,0,0,1,.2.054l7.054,3.567a.518.518,0,0,1,.2.744,5.171,5.171,0,0,1-1.008,1.139,4.99,4.99,0,0,1-1.65.93,2.97,2.97,0,0,1-2.123-.181,6.948,6.948,0,0,0-1.676-.435,8.953,8.953,0,0,0-3.752.578,3.764,3.764,0,0,0-1.252.716l11.123,4a.518.518,0,0,1-.175,1" transform="translate(-31.919 -32.644)" fill="#9e6352"/>
        <path id="Trazado_717070" data-name="Trazado 717070" d="M221.461,199.767a.517.517,0,0,1-.356-.893l7.425-7.039a1.724,1.724,0,0,0-.7-1.071,1.9,1.9,0,0,0-1.693.126c-2.754,1.2-3.5,1.639-3.509,1.644a.517.517,0,0,1-.529-.89,39.946,39.946,0,0,1,3.623-1.7,2.843,2.843,0,0,1,2.629-.071,2.966,2.966,0,0,1,1.258,2.088.519.519,0,0,1-.159.433l-7.63,7.234a.515.515,0,0,1-.356.142" transform="translate(-39.459 -33.858)" fill="#9e6352"/>
        <path id="Trazado_717071" data-name="Trazado 717071" d="M107.5,185.626c.059-18.335.1-32.221,9.29-39.013,4.644-3.433,10.051-3.889,13.3-3.87a91.942,91.942,0,0,1,4.824,16.736c1.18,6.28,1.23,10.167,1.923,17.81.475,5.238,1.308,12.867,2.855,22.225l24.821-14.478a21.513,21.513,0,0,1,9.751,27.48,243.576,243.576,0,0,1-26.89,26.594c-5.725,4.827-10.268,8.094-15.66,7.387-6.768-.888-11.158-7.578-12.828-10.123-2.56-3.9-4.272-9.624-7.7-21.072-.349-1.169-.537-1.8-.732-2.49-2.947-10.488-2.982-18.665-2.955-27.184" transform="translate(-19.197 -25.493)" fill="#f0f8ff"/>
        <path id="Trazado_717072" data-name="Trazado 717072" d="M184.611,227.584a.517.517,0,0,1-.3-.936,10.569,10.569,0,0,0,3.173-3.58c.7-1.308,1.307-3.11,1.045-7.414a42.245,42.245,0,0,0-2.468-11.765.517.517,0,1,1,.973-.352,43.323,43.323,0,0,1,2.528,12.053c.278,4.561-.4,6.524-1.166,7.964a11.572,11.572,0,0,1-3.479,3.93.515.515,0,0,1-.3.1" transform="translate(-32.878 -36.289)" fill="#40342e"/>
        <path id="Trazado_717073" data-name="Trazado 717073" d="M132.206,261.768h-.072c-9.1-.084-18.655-15.478-22.216-35.806a.518.518,0,0,1,1.02-.179c3.475,19.845,12.591,34.87,21.2,34.95h.067a23.071,23.071,0,0,0,9.235-2.6c2.436-1.24,4.013-2.594,10.288-8.359,1.925-1.768,4.332-3.987,7.106-6.563a.518.518,0,0,1,.7.758c-2.776,2.578-5.184,4.8-7.11,6.567-6.362,5.844-7.968,7.22-10.519,8.52a24.217,24.217,0,0,1-9.709,2.709" transform="translate(-19.629 -40.247)" fill="#40342e"/>
        <path id="Trazado_717074" data-name="Trazado 717074" d="M145.951,207.43a.519.519,0,0,1-.513-.452l-2.855-22.226a.518.518,0,0,1,1.027-.131l2.756,21.45,17.6-10.264a.518.518,0,0,1,.522.9l-18.27,10.657a.52.52,0,0,1-.261.071" transform="translate(-25.463 -32.891)" fill="#40342e"/>
        <path id="Trazado_717075" data-name="Trazado 717075" d="M107.317,191.717a.517.517,0,0,1-.514-.464,97.084,97.084,0,0,1-.04-19.479c.926-9.344,1.537-15.519,5.154-20.9,7.325-10.9,22.686-12.118,28.95-12.135h0a.517.517,0,0,1,0,1.035c-6.1.018-21.045,1.19-28.094,11.678-3.471,5.165-4.073,11.234-4.983,20.423a96.066,96.066,0,0,0,.04,19.273.517.517,0,0,1-.462.568.4.4,0,0,1-.053,0" transform="translate(-18.983 -24.778)" fill="#40342e"/>
        <path id="Trazado_717076" data-name="Trazado 717076" d="M150.428,96.452c.8,4.875,3.328,9.174,7.483,16.254a25.9,25.9,0,0,0,3.992,5.052,22.064,22.064,0,0,0,5.372,4.158c2.477,1.336,4.867,2.624,7.426,1.968.5-.129,2.069-.561,4.787-4.107a37.022,37.022,0,0,0,5.1-9.122,14.405,14.405,0,0,0,.562-2.819,109.565,109.565,0,0,0,.03-13.937c-.436-5.117-.655-7.675-1.765-10.425-3.009-7.452-11.915-15.037-20.166-13.436-9.959,1.933-14.394,16.9-12.823,26.413" transform="translate(-26.81 -12.47)" fill="#ffccbc"/>
        <path id="Trazado_717077" data-name="Trazado 717077" d="M183.093,95.053c.254.751,1.575.887,2.526.985a8.337,8.337,0,0,0,2.747-.179.461.461,0,0,0,.228-.753c-1.487-1.745-3.194-2.512-4.316-2.015-.751.332-1.408,1.3-1.185,1.962" transform="translate(-32.691 -16.599)" fill="#c76d44"/>
        <path id="Trazado_717078" data-name="Trazado 717078" d="M171.707,94.932c-.641,1.293-4.072,1.393-5.719,1.365a.46.46,0,0,1-.354-.739c1.582-2.132,3.379-3.33,4.667-2.946.1.03,1.372.427,1.567,1.36a1.6,1.6,0,0,1-.161.959" transform="translate(-29.564 -16.527)" fill="#c76d44"/>
        <path id="Trazado_717079" data-name="Trazado 717079" d="M181.043,115.118a.517.517,0,0,1-.306-.935c.633-.465,1.912-1.664,1.821-2.41-.026-.223-.195-.358-.709-.72a11.768,11.768,0,0,1-.96-.734,9.915,9.915,0,0,1-2.532-3.5.518.518,0,1,1,.945-.423,8.879,8.879,0,0,0,2.265,3.14,10.722,10.722,0,0,0,.88.672c.567.4,1.056.743,1.141,1.442.188,1.549-1.989,3.188-2.238,3.37a.514.514,0,0,1-.3.1" transform="translate(-31.845 -18.947)" fill="#9e6352"/>
        <path id="Trazado_717080" data-name="Trazado 717080" d="M168.938,102.649c.108.863.738,1.5,1.4,1.412a1.432,1.432,0,0,0,1.01-1.716c-.108-.863-.737-1.5-1.4-1.412a1.433,1.433,0,0,0-1.01,1.716" transform="translate(-30.168 -18.025)" fill="#40342e"/>
        <path id="Trazado_717081" data-name="Trazado 717081" d="M184.336,102.055c.108.863.738,1.5,1.4,1.412a1.432,1.432,0,0,0,1.01-1.716c-.108-.863-.737-1.5-1.4-1.412a1.433,1.433,0,0,0-1.01,1.716" transform="translate(-32.918 -17.919)" fill="#40342e"/>
        <path id="Trazado_717082" data-name="Trazado 717082" d="M176.994,123.677l4.758-.378a.481.481,0,0,1,.513.539,2.9,2.9,0,0,1-5.693.444.478.478,0,0,1,.422-.605" transform="translate(-31.531 -22.02)" fill="#fff"/>
        <path id="Trazado_717083" data-name="Trazado 717083" d="M183.231,83.6c-1.84-4.871-3.813-6.135-5.281-6.384-2.219-.376-3.138,1.593-9.532,5.72a71.469,71.469,0,0,1-9.5,5.535c-3.211,1.486-4.284,1.607-5.148,3.009-1.627,2.639.252,5.724-1.764,7.573a5.528,5.528,0,0,1-3.13,1.313,24.065,24.065,0,0,1-8.347-14.407,23.2,23.2,0,0,1,7.216-20.713c5.742-5.158,12.43-5.592,15.045-5.762a27.129,27.129,0,0,1,18.071,5.306c1.58,1.215,8.109,6.235,9.1,14.263a19.067,19.067,0,0,1,0,4.287,22.66,22.66,0,0,1-6.34,13.076L183.231,83.6" transform="translate(-25.047 -10.613)" fill="#ed8251"/>
        <path id="Trazado_717084" data-name="Trazado 717084" d="M154.266,109.386c-1.762-3.706-4.574-5.682-6.523-5.139a4.113,4.113,0,0,0-1.968,1.667,5.014,5.014,0,0,0-.736,3.544c.074.381.266,1.086,2.37,3.346,2.083,2.238,3.153,3.36,4.514,3.524a3.7,3.7,0,0,0,2.9-.815c1.21-1.225,1.144-3.815-.555-6.128" transform="translate(-25.889 -18.602)" fill="#ffccbc"/>
        <path id="Trazado_717085" data-name="Trazado 717085" d="M544.136,89.19c.935,18.8,16.678,44.279,42.8,44.3,25.134.018,44.9-23.549,42.8-44.3-1.177-11.633-9.273-22.846-19.713-28.436-6.725-3.6-12.635-3.912-20.146-4.307-11.22-.59-29.425-1.546-39.345,10.31-7.082,8.464-6.538,19.391-6.387,22.433" transform="translate(-97.166 -10.027)" fill="#edbe5f"/>
        <path id="Trazado_717086" data-name="Trazado 717086" d="M640.249,81.813a.415.415,0,0,0,.387-.563,38.8,38.8,0,0,0-14.711-18.625,37.352,37.352,0,0,0-11.744-5.105.415.415,0,1,0-.2.806,36.486,36.486,0,0,1,11.483,4.992,37.968,37.968,0,0,1,14.393,18.229.414.414,0,0,0,.387.266" transform="translate(-109.597 -10.271)" fill="#40342e"/>
        <path id="Trazado_717087" data-name="Trazado 717087" d="M564.333,94.625c.573,11.524,10.22,27.134,26.225,27.147,15.4.011,27.513-14.431,26.226-27.147-.721-7.129-5.682-14-12.08-17.426-4.121-2.206-7.743-2.4-12.345-2.639-6.877-.361-18.032-.947-24.112,6.318-4.339,5.187-4.007,11.883-3.914,13.747" transform="translate(-100.778 -13.282)" fill="#ab7d48"/>
        <path id="Trazado_717088" data-name="Trazado 717088" d="M564.559,90.557a.415.415,0,0,0,.41-.355,16.332,16.332,0,0,1,5.3-9.862.414.414,0,1,0-.553-.618,17.152,17.152,0,0,0-5.566,10.36.415.415,0,0,0,.351.47.374.374,0,0,0,.06,0" transform="translate(-100.752 -14.219)" fill="#40342e"/>
        <path id="Trazado_717089" data-name="Trazado 717089" d="M601.728,81.851l-16.369-1.785-11.485,5.361q-.238,5.466-.475,10.933L604.2,90.6Z" transform="translate(-102.405 -14.299)" fill="#d15d4f"/>
        <path id="Trazado_717090" data-name="Trazado 717090" d="M617.344,91.05c-.724,18.131-16.029,31.643-32.115,30.622-13.762-.865-25.882-12.231-27.916-27.357a24.971,24.971,0,0,0,12.976-4.9,22.719,22.719,0,0,0,2.586-2.325c-.252-9.148-.506-18.321-.757-27.464v0q4.63-.325,9.42-.774,7.548-.711,14.658-1.652c-.211.978-.49,2.4-.725,4.132a60.71,60.71,0,0,0-.247,12.9c.127,2.02.347,4.481.747,7.293a4.9,4.9,0,0,0,3.79,4.1c2.626.577,5.407,1.288,8.3,2.162,3.367,1.019,6.468,2.134,9.284,3.263" transform="translate(-99.532 -10.216)" fill="#ffccbc"/>
        <path id="Trazado_717091" data-name="Trazado 717091" d="M578.316,94.6l2.058,14.3-3.582-4.292Z" transform="translate(-103.011 -16.895)" fill="#d15d4f"/>
        <path id="Trazado_717092" data-name="Trazado 717092" d="M594.938,95.181l.54,13.34,4.885-3.411Z" transform="translate(-106.252 -16.999)" fill="#d15d4f"/>
        <path id="Trazado_717093" data-name="Trazado 717093" d="M594.5,60.945c.4,4.823.958,11.639-2.681,17.82-.955,1.624-3.576,6.076-8.94,7.89a15.083,15.083,0,0,1-6.768.629q-.346-12.59-.695-25.2l18.779-3.8c.089.6.212,1.53.306,2.666" transform="translate(-102.765 -10.408)" fill="#ffab91"/>
        <path id="Trazado_717094" data-name="Trazado 717094" d="M596.734,36.3c0-.029,0-.043.007-.061.55-5.381,2.169-20.966-6.2-27.543-8.685-6.828-25.906-2.193-29.523,5.94-1.353,3.042-1.074,7.18-.678,13.027.131,1.952.342,3.712.572,5.246.371,2.93.89,6.464,1.63,10.458,1.678,9.054,2.964,12.218,3.749,13.708.1.182.169.307.294.529a76.745,76.745,0,0,0,4.52,7.116,5.092,5.092,0,0,0,5.89,1.8l11.659-4.263a2.842,2.842,0,0,0,1.51-1.289q2.66-4.767,5.6-9.628.866-1.429,1.736-2.832c.033-.108.051-.163.065-.216.9-3.445-1.477-5.695-.835-11.988" transform="translate(-100.016 -0.962)" fill="#ffccbc"/>
        <path id="Trazado_717095" data-name="Trazado 717095" d="M570.015,62.6a3.838,3.838,0,0,1,2.1-1.431,2.734,2.734,0,0,1,1.819.4,4.514,4.514,0,0,1,1.491-.931c3.121-1.164,6.406,1.8,6.616,2-.767.3-4.559,1.755-6.686,1.488a1.892,1.892,0,0,1-1.095-.432,2.893,2.893,0,0,1-.785.78A4.1,4.1,0,0,1,568.926,64a8.285,8.285,0,0,1,1.089-1.4" transform="translate(-101.606 -10.782)" fill="#40342e"/>
        <path id="Trazado_717096" data-name="Trazado 717096" d="M580.506,44.341c.108.864.737,1.5,1.4,1.413a1.432,1.432,0,0,0,1.01-1.717c-.108-.862-.736-1.495-1.4-1.411a1.432,1.432,0,0,0-1.01,1.715" transform="translate(-103.672 -7.611)" fill="#40342e"/>
        <path id="Trazado_717097" data-name="Trazado 717097" d="M565.843,45.462c.108.863.737,1.5,1.4,1.412a1.432,1.432,0,0,0,1.01-1.716c-.108-.863-.736-1.5-1.4-1.412a1.432,1.432,0,0,0-1.01,1.716" transform="translate(-101.053 -7.811)" fill="#40342e"/>
        <path id="Trazado_717098" data-name="Trazado 717098" d="M573.712,57.684a.414.414,0,0,0,.136-.781l-2.162-1.1,1.961-7.92a.414.414,0,1,0-.8-.2l-2.04,8.24a.412.412,0,0,0,.215.469l2.457,1.245a.419.419,0,0,0,.238.041" transform="translate(-101.939 -8.46)" fill="#9e6352"/>
        <path id="Trazado_717099" data-name="Trazado 717099" d="M576.69,69.719l.1-.013a6.033,6.033,0,0,0,3.734-2.15.415.415,0,0,0-.644-.523,5.187,5.187,0,0,1-3.208,1.852,5.021,5.021,0,0,1-2.658-.354.414.414,0,1,0-.322.763,5.852,5.852,0,0,0,3,.425" transform="translate(-102.412 -11.944)" fill="#9e6352"/>
        <path id="Trazado_717100" data-name="Trazado 717100" d="M577.427,38.117a.853.853,0,0,0,1.108.478,8.785,8.785,0,0,1,6.412-.007.854.854,0,0,0,.784-1.5,7.205,7.205,0,0,0-4.595-1.248,7.076,7.076,0,0,0-3.418,1.227.85.85,0,0,0-.3,1.019Z" transform="translate(-103.111 -6.396)" fill="#40342e"/>
        <path id="Trazado_717101" data-name="Trazado 717101" d="M568.858,38.865l-.006.028a1.029,1.029,0,0,1-1.278.723,4.526,4.526,0,0,0-3.489.432,1.044,1.044,0,0,1-1.358-.269.869.869,0,0,1,.261-1.242,6.177,6.177,0,0,1,5.246-.7.879.879,0,0,1,.623,1.025" transform="translate(-100.471 -6.705)" fill="#40342e"/>
        <path id="Trazado_717102" data-name="Trazado 717102" d="M595.651,50.369c.021-1.479.094-2.67.154-3.449,0,0,.475-5.889-.228-7.643a3.565,3.565,0,0,0-.48-.868,4.219,4.219,0,0,1-.333-.661c-.275-.648-2.063-1.3-2.916-2a4.559,4.559,0,0,1-1.33-2.71c-1.2-4.79,1.912-11.98.039-13.854-2.215-2.216-9.494,5.053-20.782,5.489a29.01,29.01,0,0,1-9.76-1.332c-1.495-6.29-.069-10.325.831-12.209,5.551-11.62,26.57-14.805,36.875-6.4,2.9,2.364,4.2,5.036,5.5,7.683,4.946,10.117,4.12,23.137-2.392,32.372a28.8,28.8,0,0,1-5.177,5.579" transform="translate(-99.899 0)" fill="#40342e"/>
        <path id="Trazado_717103" data-name="Trazado 717103" d="M602.458,40.791A7.823,7.823,0,0,1,604.2,37.65c1.158-1.183,3.423-2.618,5.209-1.925,2.413.935,2.6,5.217,2.215,7.554a9.2,9.2,0,0,1-5.023,6.839,3.956,3.956,0,0,1-2.771.194,3.068,3.068,0,0,1-.724-.377l-.9,4.863-2.36-5.118a81.267,81.267,0,0,1,2.615-8.888" transform="translate(-107.128 -6.348)" fill="#ffccbc"/>
        <path id="Trazado_717104" data-name="Trazado 717104" d="M529.44,176.277q-9.254,8.556-18.5,17.132-8.711,1.926-17.432,3.841a57.9,57.9,0,0,0-3.6-5.19c-2.424-3.117-3.627-4.683-5.655-6.249a34.824,34.824,0,0,0-9.38-4.79,23.466,23.466,0,0,1-2.707-1.095,22.093,22.093,0,0,1-4.785-3.149q8.007-5.048,16.38-10.8,8.074-5.562,15.409-11.068c7.215-16.552,11.657-27.919,13.665-35.144A16.179,16.179,0,0,1,527.36,106.9c.052,1.842.766,25.579.828,27.4.621,20.983,1.221,40.89,1.253,41.976" transform="translate(-83.471 -19.091)" fill="#ff7161"/>
        <path id="Trazado_717105" data-name="Trazado 717105" d="M561.99,521.4a7.606,7.606,0,0,1-4.845,7.559q-1.015.391-2.073.754a64.48,64.48,0,0,1-30.126,2.591,8.979,8.979,0,0,1-7.561-7.171,36.518,36.518,0,0,1-.848-5.708c.094-.676.237-1.528.237-1.529.021-.127.038-.22.047-.274,2.607-15.267-2.914-75.485-1.23-110.768.149-3.117,1.713-14.408,4.841-36.99,4.574-33.023,8.892-60.1,11.99-78.711l38.664-6.6,14.1,32.941a63.655,63.655,0,0,1-.967,25.156c-2.136,8.608-5.247,12.93-8.429,20.34-3.225,7.511-6.86,18.978-7.358,34.98-5.838,74.465-7.27,109.812-6.446,123.428" transform="translate(-92.023 -50.82)" fill="#55939e"/>
        <path id="Trazado_717106" data-name="Trazado 717106" d="M594.277,642.751c3.172-3.237,16.321-7.575,29.461-8.971a6.212,6.212,0,0,0,5.6-6.157l-1.683-25.536h-1.12a4.383,4.383,0,0,1-4.383-4.382V585.78a4.382,4.382,0,0,1,4.383-4.382H657.31a4.382,4.382,0,0,1,4.382,4.382V597.7a4.383,4.383,0,0,1-4.382,4.382h-1.37l1.989,31.084a26.411,26.411,0,0,1,3.408,9.376c.449,2.859.9,5.733-.584,8.756a11.1,11.1,0,0,1-3.65,4.172H593.511a2.473,2.473,0,0,1-2.406-1.9,14.279,14.279,0,0,1-.5-3.9,12.2,12.2,0,0,1,3.669-6.93" transform="translate(-105.476 -103.834)" fill="#40342e"/>
        <path id="Trazado_717107" data-name="Trazado 717107" d="M481.058,642.751c3.172-3.237,16.321-7.575,29.461-8.971a6.212,6.212,0,0,0,5.6-6.157V602.087H515a4.383,4.383,0,0,1-4.382-4.382V585.78A4.382,4.382,0,0,1,515,581.4H546.08a4.382,4.382,0,0,1,4.382,4.382V597.7a4.383,4.383,0,0,1-4.382,4.382h-1.37V633.17a26.411,26.411,0,0,1,3.408,9.376c.449,2.859.9,5.733-.584,8.756a11.1,11.1,0,0,1-3.65,4.172H480.292a2.474,2.474,0,0,1-2.407-1.9,14.309,14.309,0,0,1-.5-3.9,12.2,12.2,0,0,1,3.669-6.93" transform="translate(-85.256 -103.834)" fill="#40342e"/>
        <path id="Trazado_717108" data-name="Trazado 717108" d="M583.225,283.844l6.018,59.257,7.843,77.18c12.377,61.189,16.24,85.785,16.538,94.042.008.034,0-.008.008.05.067,1.791.191,3.4.365,4.841A12.81,12.81,0,0,0,627.261,530.5l22.209-.9a12.805,12.805,0,0,0,12.319-12.626,38.968,38.968,0,0,0-1.2-9.741c-.091-.348-.15-.58-.223-.862-2.728-10.337-6.964-35.68-13.853-89.292.29-12.112.779-44.717-2.611-78.068-1.989-19.605-5.115-37.528-5.322-38.673-1.41-7.991-2.794-14.739-3.888-19.8-1.973.125-3.954.249-5.927.381q-22.78,1.455-45.537,2.918" transform="translate(-104.16 -50.103)" fill="#55939e"/>
        <path id="Trazado_717109" data-name="Trazado 717109" d="M535.075,256.842a193.056,193.056,0,0,0,93.55-3.371q.656-6.742,1.218-13.579a986.921,986.921,0,0,0,2.728-117.636c-.069-2-.155-3.989-.241-5.972q-.308-7.552-.746-14.984c-3.363-1.459-22.869-6.777-23.384-6.846-3.954-.549-7.642-1.244-11.056-2.024-.687,1.921-3.732,9.658-11.752,13.193-1.819.8-8.424,3.7-14.085.5-.652-.359-4.684-2.641-5.7-7.153a9.867,9.867,0,0,1-.172-3.26q-9.057,2.51-18.648,5.722-4.2,1.416-8.218,2.881a240.654,240.654,0,0,0-1.5,29.981c.191,14.474,1.8,35-.619,47.59-.034.178-.825,4.285-1.906,9.779-1.085,5.511-1.544,7.748-2.239,11.538,0,0-.887,4.129-1.335,7.642a111.642,111.642,0,0,0,4.109,46" transform="translate(-94.678 -16.508)" fill="#ff7161"/>
        <path id="Trazado_717110" data-name="Trazado 717110" d="M533.5,211.2a.414.414,0,0,0,.407-.34l5.015-27.607-.1-33.044a.414.414,0,0,0-.414-.413h0a.415.415,0,0,0-.413.416l.109,32.969-5.007,27.53a.415.415,0,0,0,.333.482.388.388,0,0,0,.075.007" transform="translate(-95.206 -26.753)" fill="#40342e"/>
        <path id="Trazado_717111" data-name="Trazado 717111" d="M589,141.964h.008a.415.415,0,0,0,.407-.423l-.614-30.429a.415.415,0,0,0-.83.017l.614,30.429a.415.415,0,0,0,.415.406" transform="translate(-105.008 -19.771)" fill="#40342e"/>
        <path id="Trazado_717112" data-name="Trazado 717112" d="M587.114,182.821a.415.415,0,0,0,.415-.415V160.876a.415.415,0,1,0-.83,0v21.531a.415.415,0,0,0,.415.415" transform="translate(-104.781 -28.657)" fill="#40342e"/>
        <g id="Grupo_1017548" data-name="Grupo 1017548" transform="translate(467.717 99.778)" style="mix-blend-mode: multiply;isolation: isolate">
          <g id="Grupo_1017547" data-name="Grupo 1017547">
            <g id="Grupo_1017546" data-name="Grupo 1017546" clip-path="url(#clip-path-16)">
              <g id="Grupo_1017545" data-name="Grupo 1017545" transform="translate(0 0)">
                <g id="Grupo_1017544" data-name="Grupo 1017544" clip-path="url(#clip-path-17)">
                  <rect id="Rectángulo_352781" data-name="Rectángulo 352781" width="125.358" height="142.863" transform="translate(-54.778 33.185) rotate(-31.208)" fill="url(#linear-gradient-7)"/>
                </g>
              </g>
            </g>
          </g>
        </g>
        <path id="Trazado_717114" data-name="Trazado 717114" d="M525.375,328.8l53.537-4q17.434-1.3,34.868-2.6,9.9-.745,19.789-1.483-1.069-41.77-2.155-83.539c-4.933-6.21-9.077-11.929-12.51-16.978-2.42-3.556-4.493-6.781-6.225-9.6a103.642,103.642,0,0,1-8.887-17.069,93.588,93.588,0,0,1-4.385-14.284l-47.411-1.194-23.751,50.66q-1.431,50.052-2.868,100.094" transform="translate(-93.828 -31.798)" fill="#55939e"/>
        <g id="Grupo_1017553" data-name="Grupo 1017553" transform="translate(508.727 188.394)" style="mix-blend-mode: multiply;isolation: isolate">
          <g id="Grupo_1017552" data-name="Grupo 1017552">
            <g id="Grupo_1017551" data-name="Grupo 1017551" clip-path="url(#clip-path-18)">
              <g id="Grupo_1017550" data-name="Grupo 1017550" transform="translate(0 0)">
                <g id="Grupo_1017549" data-name="Grupo 1017549" clip-path="url(#clip-path-19)">
                  <rect id="Rectángulo_352783" data-name="Rectángulo 352783" width="284.814" height="169.783" transform="translate(-113.407 238.155) rotate(-64.537)" fill="url(#linear-gradient-8)"/>
                </g>
              </g>
            </g>
          </g>
        </g>
        <path id="Trazado_717116" data-name="Trazado 717116" d="M550.205,275.421h56a6.14,6.14,0,0,0,5.9-7.832l-8.356-29.142a6.141,6.141,0,0,0-5.9-4.447H558.562a6.141,6.141,0,0,0-5.9,4.447L544.3,267.589a6.14,6.14,0,0,0,5.9,7.832" transform="translate(-97.166 -41.791)" fill="#477a85"/>
        <path id="Trazado_717117" data-name="Trazado 717117" d="M564.857,99.625q-.33,35.3-.661,70.6l-6.717.351q-.265-34.81-.53-69.62a1.7,1.7,0,0,1,1.216-1.643l4.51-1.336a1.7,1.7,0,0,1,2.182,1.645" transform="translate(-99.467 -17.486)" fill="#55939e"/>
        <path id="Trazado_717118" data-name="Trazado 717118" d="M613.479,94.567l-7.56,70.047,8.058.184,8.009-69.145a2.193,2.193,0,0,0-1.865-2.423l-4.147-.6a2.193,2.193,0,0,0-2.494,1.935" transform="translate(-108.213 -16.539)" fill="#55939e"/>
        <path id="Trazado_717119" data-name="Trazado 717119" d="M607.277,184.631a2.191,2.191,0,1,0,2.192-2.192,2.192,2.192,0,0,0-2.192,2.192" transform="translate(-108.456 -32.582)" fill="#fff"/>
        <path id="Trazado_717120" data-name="Trazado 717120" d="M559.1,182.686a2.191,2.191,0,1,0,2.191-2.192,2.191,2.191,0,0,0-2.191,2.192" transform="translate(-99.851 -32.235)" fill="#fff"/>
        <path id="Trazado_717121" data-name="Trazado 717121" d="M578.622,125.9a16.49,16.49,0,0,0,4.271.915c-8.7,5.293-8.267,6.415-8.051,6.967a2.871,2.871,0,0,0,1.129,1.255,3.36,3.36,0,0,0,1.594.4h0c1.224,0,3.43-1.035,5.108-3.035l-2.334,9.265a.429.429,0,0,0,.311.521.423.423,0,0,0,.105.013.43.43,0,0,0,.416-.324l3.014-11.969a9.176,9.176,0,0,0,.4-1.146c.058-.218.09-.444.133-.668q.1.588.248,1.3l2.233,12.986a.429.429,0,0,0,.422.356.447.447,0,0,0,.073-.007.429.429,0,0,0,.35-.5l-1.193-6.938a4.29,4.29,0,0,0,2.012,2.191,1.91,1.91,0,0,0,.66.119,2.592,2.592,0,0,0,1.727-.793,3.219,3.219,0,0,0,1.147-2.794c-.281-2.852-4.135-5.857-6.125-7.231a27.2,27.2,0,0,0,10.67-3.4c9.744-5.37,16.877-15.532,19.571-27.883a.428.428,0,1,0-.837-.183c-2.642,12.109-9.62,22.065-19.148,27.314a25.7,25.7,0,0,1-11.47,3.378.4.4,0,0,0-.146-.036.349.349,0,0,0-.058,0,.341.341,0,0,0-.041,0,.394.394,0,0,0-.1.04h0c-.009-.007-.013-.018-.023-.024a.429.429,0,0,0-.431,0l-.036.021a16.18,16.18,0,0,1-5.3-.925c-8.358-3.041-14.386-14.407-14.659-27.644a.429.429,0,0,0-.858.018c.28,13.582,6.541,25.273,15.224,28.431m7.157,3.171-.306-1.778c1.763,1.189,5.811,4.189,6.07,6.817a2.377,2.377,0,0,1-.872,2.077,1.476,1.476,0,0,1-1.514.5c-1.589-.581-2.746-4.54-3.379-7.617M584,127.145l-.628,2.5c-1.358,3.2-4.4,4.939-5.8,4.939h0a2.517,2.517,0,0,1-1.155-.284,2.058,2.058,0,0,1-.77-.832c-.025-.118,0-1.3,8.358-6.32" transform="translate(-100.619 -16.963)" fill="#fff"/>
        <path id="Trazado_717122" data-name="Trazado 717122" d="M579.806,233.869l-14.7,5.369-7.328,5.437a.326.326,0,0,0,.122.58,8.09,8.09,0,0,0,3.991-.075,7.9,7.9,0,0,0,2.278-1.056l1.834.5a.585.585,0,0,1,.187,1.037c-4.591,3.38-7.726,3.681-9.82,3.21a20.318,20.318,0,0,0-5.225-1.045,14.82,14.82,0,0,0-5.145.8c1.433,1.361,3.038,2.77,4.823,4.18a69.612,69.612,0,0,0,6.385,4.482,4.515,4.515,0,0,0,3.255.606c.814-.159,1.77-.374,2.821-.668,5.463-1.525,7.529-3.5,12.139-4.983a31.228,31.228,0,0,1,12.434-1.271c1.1-2.087,1.2-2.274,2.3-4.361Z" transform="translate(-97.512 -41.767)" fill="#ffccbc"/>
        <path id="Trazado_717123" data-name="Trazado 717123" d="M642.74,103.224a82.34,82.34,0,0,0-7.663,28.652c-.759,10.157.767,20.592,3.82,41.46.662,4.523,1.257,8.227,1.655,10.643l-47.964,24.586q2.437,11.071,4.875,22.14l65.85-16.467a9.736,9.736,0,0,0,7.374-9.253,393.708,393.708,0,0,0-3.638-61.859c-1.094-7.9-3.462-20.236-4.845-27.219a9.918,9.918,0,0,0-6.034-7.283l-13.431-5.4" transform="translate(-105.832 -18.435)" fill="#ff7161"/>
        <path id="Trazado_717124" data-name="Trazado 717124" d="M636.029,238.408a.437.437,0,0,0,.1-.012l35.525-8.932a8.521,8.521,0,0,0,6.45-8.274V187.684a.414.414,0,1,0-.829,0V221.19a7.692,7.692,0,0,1-5.824,7.47l-35.526,8.932a.415.415,0,0,0,.1.816" transform="translate(-113.517 -33.445)" fill="#40342e"/>
        <path id="Trazado_717125" data-name="Trazado 717125" d="M625.408,205.559a.414.414,0,0,0,.189-.046l20.933-10.73a.414.414,0,0,0,.221-.428l-4.658-32.349a.415.415,0,0,0-.821.118l4.617,32.056-20.67,10.6a.415.415,0,0,0,.19.784" transform="translate(-111.62 -28.87)" fill="#40342e"/>
        <path id="Trazado_717126" data-name="Trazado 717126" d="M674.678,128.677a.4.4,0,0,0,.115-.016.415.415,0,0,0,.283-.513l-4.427-15.352a8.286,8.286,0,0,0-5.028-5.439l-16.233-6.095a.415.415,0,0,0-.292.776l16.233,6.095a7.455,7.455,0,0,1,4.523,4.891l4.427,15.353a.415.415,0,0,0,.4.3" transform="translate(-115.876 -18.08)" fill="#40342e"/>
        <path id="Trazado_717127" data-name="Trazado 717127" d="M590.737,257.284l11.235-3.626a3.285,3.285,0,0,0,2.117-4.134l-6.813-21.11a3.284,3.284,0,0,0-4.134-2.117l-11.235,3.626a3.285,3.285,0,0,0-2.117,4.134l6.813,21.11a3.284,3.284,0,0,0,4.134,2.117" transform="translate(-103.518 -40.387)" fill="#ff8678"/>
        <path id="Trazado_717128" data-name="Trazado 717128" d="M605.574,82.239a19.4,19.4,0,0,1-6.841,8.641,18.211,18.211,0,0,1-3.8,1.989l4.8,13.167a29.988,29.988,0,0,0,10.171-15.128l-4.334-8.67" transform="translate(-106.252 -14.687)" fill="#ff7161"/>
        <path id="Trazado_717129" data-name="Trazado 717129" d="M600.235,109.5a.411.411,0,0,0,.257-.09,30.391,30.391,0,0,0,7.934-9.5.415.415,0,1,0-.731-.391,29.525,29.525,0,0,1-7.218,8.838l-1.926-7.574a.414.414,0,0,0-.8.2l2.086,8.2a.416.416,0,0,0,.4.312" transform="translate(-106.752 -17.733)" fill="#40342e"/>
        <path id="Trazado_717130" data-name="Trazado 717130" d="M573.159,86.592a7.59,7.59,0,0,0,1.4,4.431A7.419,7.419,0,0,0,577,93.168q-.042,7.193-.084,14.385a21.832,21.832,0,0,1-5.627-6.809,21.573,21.573,0,0,1-1.886-5.021l3.761-9.131" transform="translate(-101.691 -15.465)" fill="#ff7161"/>
        <path id="Trazado_717131" data-name="Trazado 717131" d="M577.369,111.021a.4.4,0,0,0,.15-.029.414.414,0,0,0,.264-.38l.084-6.508a.415.415,0,0,0-.41-.42h0a.415.415,0,0,0-.415.409l-.07,5.476c-.86-.929-1.709-1.88-2.529-2.835q-.9-1.05-1.744-2.083a.415.415,0,0,0-.643.524q.849,1.041,1.758,2.1c1.053,1.225,2.149,2.441,3.258,3.617a.414.414,0,0,0,.3.13" transform="translate(-102.148 -18.517)" fill="#40342e"/>
      </g>
    </g>
  </g>
</svg>
