<svg xmlns="http://www.w3.org/2000/svg" xmlns:xlink="http://www.w3.org/1999/xlink" width="383" height="355.707" viewBox="0 0 383 355.707">
  <defs>
    <clipPath id="clip-path">
      <rect id="Rectángulo_352641" data-name="Rectángulo 352641" width="383" height="355.707" fill="none"/>
    </clipPath>
    <clipPath id="clip-path-3">
      <rect id="Rectángulo_352616" data-name="Rectángulo 352616" width="70.435" height="5.09" fill="none"/>
    </clipPath>
    <clipPath id="clip-path-4">
      <rect id="Rectángulo_352627" data-name="Rectángulo 352627" width="256.971" height="180.653" fill="none"/>
    </clipPath>
    <clipPath id="clip-path-5">
      <rect id="Rectángulo_352639" data-name="Rectángulo 352639" width="307.612" height="88.053" fill="none"/>
    </clipPath>
  </defs>
  <g id="Grupo_1018063" data-name="Grupo 1018063" transform="translate(2135.5 -7266.988)">
    <g id="Grupo_1017812" data-name="Grupo 1017812" transform="translate(-2135.5 7266.988)">
      <g id="Grupo_1017237" data-name="Grupo 1017237" clip-path="url(#clip-path)">
        <g id="Grupo_1017236" data-name="Grupo 1017236">
          <g id="Grupo_1017235" data-name="Grupo 1017235" clip-path="url(#clip-path)">
            <path id="Trazado_716468" data-name="Trazado 716468" d="M347.553,120.64H19.392A15.274,15.274,0,0,1,4.119,105.367V95.092A15.274,15.274,0,0,1,19.392,79.819h328.16a15.274,15.274,0,0,1,15.273,15.273v10.274a15.274,15.274,0,0,1-15.273,15.273" transform="translate(9.269 179.62)" fill="#9dbb30"/>
            <path id="Trazado_716469" data-name="Trazado 716469" d="M290.333,131.27H31.928a16.662,16.662,0,0,1-16.664-16.661V103.4A16.665,16.665,0,0,1,31.928,86.737h258.4A16.664,16.664,0,0,1,306.995,103.4v11.207a16.661,16.661,0,0,1-16.661,16.661" transform="translate(34.349 195.187)" fill="#adce32"/>
            <path id="Trazado_716470" data-name="Trazado 716470" d="M33.34,119.163H11.127a7.007,7.007,0,0,1-7.008-7.008v-4.71a7.007,7.007,0,0,1,7.008-7.008H33.34a7.007,7.007,0,0,1,7.008,7.008v4.71a7.007,7.007,0,0,1-7.008,7.008" transform="translate(9.269 226.019)" fill="#adce32"/>
            <path id="Trazado_716471" data-name="Trazado 716471" d="M130.918,113.4H115.911a7.006,7.006,0,0,1-7-7.008v-4.71a7.007,7.007,0,0,1,7.008-7.008h15a7.007,7.007,0,0,1,7.008,7.008v4.71a7.007,7.007,0,0,1-7.008,7.008" transform="translate(245.077 213.055)" fill="#adce32"/>
            <path id="Trazado_716472" data-name="Trazado 716472" d="M126.549,123.207h-56.8a7.441,7.441,0,0,1-7.44-7.443v-5a7.441,7.441,0,0,1,7.44-7.443h56.8a7.441,7.441,0,0,1,7.44,7.443v5a7.441,7.441,0,0,1-7.44,7.443" transform="translate(140.216 232.5)" fill="#adce32"/>
            <path id="Trazado_716473" data-name="Trazado 716473" d="M141.609,12.756l-5.526-3.1a27.811,27.811,0,0,0-27.277,0l-5.526,3.1A31.5,31.5,0,0,0,87.228,40.205v227h70.435v-227a31.5,31.5,0,0,0-16.053-27.449" transform="translate(196.292 13.679)" fill="#f0e2d3"/>
            <rect id="Rectángulo_352613" data-name="Rectángulo 352613" width="70.435" height="10.18" transform="translate(283.52 58.301)" fill="#f39a92"/>
            <rect id="Rectángulo_352614" data-name="Rectángulo 352614" width="35.217" height="172.307" transform="translate(283.52 68.485)" fill="#e6d8ca"/>
            <rect id="Rectángulo_352615" data-name="Rectángulo 352615" width="70.435" height="2.096" transform="translate(283.52 58.305)" fill="#f8c4bf"/>
            <g id="Grupo_1017228" data-name="Grupo 1017228" transform="translate(283.52 68.483)" style="mix-blend-mode: multiply;isolation: isolate">
              <g id="Grupo_1017227" data-name="Grupo 1017227">
                <g id="Grupo_1017226" data-name="Grupo 1017226" clip-path="url(#clip-path-3)">
                  <path id="Trazado_716474" data-name="Trazado 716474" d="M149.478,26.159H87.228v-5.09h70.435Z" transform="translate(-87.228 -21.069)" fill="#e2c7be"/>
                </g>
              </g>
            </g>
            <rect id="Rectángulo_352617" data-name="Rectángulo 352617" width="256.971" height="181.596" transform="translate(33.706 99.298)" fill="#ea3e31"/>
            <rect id="Rectángulo_352618" data-name="Rectángulo 352618" width="12.251" height="172.095" transform="translate(238.601 108.789)" fill="#fa493c"/>
            <rect id="Rectángulo_352619" data-name="Rectángulo 352619" width="12.251" height="172.095" transform="translate(266.202 108.789)" fill="#fa493c"/>
            <rect id="Rectángulo_352620" data-name="Rectángulo 352620" width="12.251" height="172.095" transform="translate(183.228 108.789)" fill="#fa493c"/>
            <rect id="Rectángulo_352621" data-name="Rectángulo 352621" width="12.251" height="172.095" transform="translate(210.83 108.789)" fill="#fa493c"/>
            <rect id="Rectángulo_352622" data-name="Rectángulo 352622" width="12.251" height="172.095" transform="translate(127.855 108.789)" fill="#fa493c"/>
            <rect id="Rectángulo_352623" data-name="Rectángulo 352623" width="12.251" height="172.095" transform="translate(155.457 108.789)" fill="#fa493c"/>
            <rect id="Rectángulo_352624" data-name="Rectángulo 352624" width="12.251" height="172.095" transform="translate(72.482 108.789)" fill="#fa493c"/>
            <rect id="Rectángulo_352625" data-name="Rectángulo 352625" width="12.251" height="172.095" transform="translate(100.084 108.789)" fill="#fa493c"/>
            <rect id="Rectángulo_352626" data-name="Rectángulo 352626" width="12.251" height="172.095" transform="translate(44.712 108.789)" fill="#fa493c"/>
            <g id="Grupo_1017231" data-name="Grupo 1017231" transform="translate(33.706 99.299)" style="mix-blend-mode: multiply;isolation: isolate">
              <g id="Grupo_1017230" data-name="Grupo 1017230">
                <g id="Grupo_1017229" data-name="Grupo 1017229" clip-path="url(#clip-path-4)">
                  <path id="Trazado_716475" data-name="Trazado 716475" d="M267.341,30.55,121.434,211.2H10.37V30.55Z" transform="translate(-10.37 -30.55)" fill="#e2bbbe"/>
                </g>
              </g>
            </g>
            <path id="Trazado_716476" data-name="Trazado 716476" d="M189.428,69.531,106.98,53.575,24.532,69.531v90.795h164.9Z" transform="translate(55.206 120.561)" fill="#472f21"/>
            <path id="Trazado_716477" data-name="Trazado 716477" d="M326.269,93.967v15.082H0V92.862L83.111,45.31l14.431-8.288,18.267-10.434L130.241,18.3,162.192,0,190.7,16.349l32.5,18.592Z" transform="translate(0 0.001)" fill="#f9f8ee"/>
            <rect id="Rectángulo_352628" data-name="Rectángulo 352628" width="307.599" height="9.491" transform="translate(8.386 99.298)" fill="#f9f8ee"/>
            <rect id="Rectángulo_352629" data-name="Rectángulo 352629" width="13.447" height="22.145" transform="translate(155.464 130.39)" fill="#f0e2d3"/>
            <rect id="Rectángulo_352630" data-name="Rectángulo 352630" width="17.747" height="16.648" transform="translate(153.312 168.426)" fill="#d5b684"/>
            <path id="Trazado_716478" data-name="Trazado 716478" d="M310.192,91.512H2.58l14.366-8.223,14.431-8.256L49.645,64.567l14.431-8.256L82.148,45.975,96.58,37.686l18.267-10.434,14.431-8.288L147.35,8.628l9.036-5.168,5.4,3.088,18.267,10.466,14.4,8.223,18.1,10.369,14.4,8.256,18.267,10.466,14.432,8.256L277.721,72.92l14.431,8.256Z" transform="translate(5.806 7.787)" fill="#fa493c"/>
            <path id="Trazado_716479" data-name="Trazado 716479" d="M91.661,27.366V56.294H77.23V19.11Z" transform="translate(173.793 43.005)" fill="#fa5447"/>
            <path id="Trazado_716480" data-name="Trazado 716480" d="M101.661,33.086V43.422H87.23V24.83Z" transform="translate(196.297 55.876)" fill="#fa5447"/>
            <path id="Trazado_716481" data-name="Trazado 716481" d="M71.579,15.854V82.128H57.18V7.63Z" transform="translate(128.674 17.171)" fill="#fa5447"/>
            <path id="Trazado_716482" data-name="Trazado 716482" d="M81.579,21.606v47.65H67.18V13.35Z" transform="translate(151.178 30.042)" fill="#fa5447"/>
            <path id="Trazado_716483" data-name="Trazado 716483" d="M51.551,8.23V80.778H37.12V16.519Z" transform="translate(83.532 18.521)" fill="#fa5447"/>
            <path id="Trazado_716484" data-name="Trazado 716484" d="M61.551,6.548V91.512H47.12V8.628L56.156,3.46Z" transform="translate(106.036 7.787)" fill="#fa5447"/>
            <path id="Trazado_716485" data-name="Trazado 716485" d="M31.491,19.72v35.2H17.06V27.976Z" transform="translate(38.391 44.377)" fill="#fa5447"/>
            <path id="Trazado_716486" data-name="Trazado 716486" d="M41.491,13.99V67.816H27.06V22.279Z" transform="translate(60.894 31.483)" fill="#fa5447"/>
            <path id="Trazado_716487" data-name="Trazado 716487" d="M21.431,25.48V41.96H7V33.736Z" transform="translate(15.752 57.339)" fill="#fa5447"/>
            <rect id="Rectángulo_352631" data-name="Rectángulo 352631" width="4.954" height="9.078" transform="translate(159.708 152.538)" fill="#dbba96"/>
            <rect id="Rectángulo_352632" data-name="Rectángulo 352632" width="70.893" height="47.598" transform="translate(173.743 233.286)" fill="#c26100"/>
            <rect id="Rectángulo_352633" data-name="Rectángulo 352633" width="39.804" height="23.11" transform="translate(204.833 210.176)" fill="#de8200"/>
            <path id="Trazado_716488" data-name="Trazado 716488" d="M109.474,68.113s-26.549,8.006-35.89,28.671c-5.974,13.216-7.349,55.1-7.349,55.1H157.3s-.3-31.532-12.517-57.164c-9.767-20.49-35.312-26.607-35.312-26.607" transform="translate(149.051 153.277)" fill="#febb0a"/>
            <path id="Trazado_716489" data-name="Trazado 716489" d="M94.509,68.113S81.553,76.119,76.993,96.784c-2.912,13.216-3.585,55.1-3.585,55.1h67.756s.176-34.112-12.52-57.164C115.3,70.479,94.509,68.113,94.509,68.113" transform="translate(165.193 153.277)" fill="#fdc224"/>
            <path id="Trazado_716490" data-name="Trazado 716490" d="M84.028,14.3h-19.2A25.831,25.831,0,0,0,39,40.132v9.933h70.861V40.132A25.831,25.831,0,0,0,84.028,14.3" transform="translate(87.759 32.175)" fill="#472f21"/>
            <rect id="Rectángulo_352634" data-name="Rectángulo 352634" width="14.818" height="10.112" transform="translate(21.342 108.789)" fill="#f1827a"/>
            <rect id="Rectángulo_352635" data-name="Rectángulo 352635" width="14.818" height="10.112" transform="translate(87.957 108.789)" fill="#f1827a"/>
            <rect id="Rectángulo_352636" data-name="Rectángulo 352636" width="14.818" height="10.112" transform="translate(154.573 108.789)" fill="#f1827a"/>
            <rect id="Rectángulo_352637" data-name="Rectángulo 352637" width="14.818" height="10.112" transform="translate(221.189 108.789)" fill="#f1827a"/>
            <rect id="Rectángulo_352638" data-name="Rectángulo 352638" width="14.818" height="10.112" transform="translate(287.804 108.789)" fill="#f1827a"/>
            <path id="Trazado_716491" data-name="Trazado 716491" d="M51.742,54.137a6.207,6.207,0,0,0-2.408,4.141C49.015,61,51.7,61.31,52,60.751s1.641-6.332-.26-6.614" transform="translate(110.957 121.826)" fill="#bd6300"/>
            <path id="Trazado_716492" data-name="Trazado 716492" d="M66.731,57.245s.488-2.122-6.361-2.9-13.193.536-13.209,2.532c-.033,3.484,19.59,3.549,19.57.364" transform="translate(106.128 121.8)" fill="#fe9500"/>
            <path id="Trazado_716493" data-name="Trazado 716493" d="M47.834,59.306s.046-7.97,5.4-8.987,9.452,3.153,9.452,8.815a34.674,34.674,0,0,0,.306,5.558s-1.258,1.06-7.921,1.06c-6.133,0-7.2-1.57-7.2-1.57Z" transform="translate(107.643 112.89)" fill="#febb0a"/>
            <path id="Trazado_716494" data-name="Trazado 716494" d="M49.544,52.531s-.033-.107-.072-.28c-.172-.748-.465-2.73,1.206-2.851,2.057-.153,2.552,2.031,2.044,3.143s-3.179-.013-3.179-.013" transform="translate(111.025 111.152)" fill="#fe9500"/>
            <path id="Trazado_716495" data-name="Trazado 716495" d="M53.535,52.275c-.562-1.04-3.543-3.029-2.737.826.462,2.2,1.186,3.806,3.1,3.046.839-.332.77-1.762-.367-3.871" transform="translate(114.004 114.379)" fill="#ffe85c"/>
            <g id="Grupo_1017234" data-name="Grupo 1017234" transform="translate(8.386 11.246)" style="mix-blend-mode: multiply;isolation: isolate">
              <g id="Grupo_1017233" data-name="Grupo 1017233">
                <g id="Grupo_1017232" data-name="Grupo 1017232" clip-path="url(#clip-path-5)">
                  <path id="Trazado_716496" data-name="Trazado 716496" d="M24.644,88.242,42.91,77.776,57.342,69.52,75.414,59.184,89.845,50.9l18.267-10.434,14.432-8.288,18.072-10.336,9.036-5.168,5.4,3.088,18.267,10.466,14.4,8.223,18.1,10.369,14.4,8.256,18.267,10.466,14.432,8.256,18.072,10.336,9.41,5.383h29.8L292.153,81.176,277.721,72.92,259.649,62.584l-14.431-8.256L226.951,43.862l-14.4-8.256-18.1-10.369-14.4-8.223L161.782,6.548l-5.4-3.088L147.35,8.628,129.278,18.965l-14.431,8.288L96.58,37.686,82.148,45.975,64.077,56.311,49.645,64.567,31.378,75.033,16.947,83.289,2.58,91.512H18.929Z" transform="translate(-2.579 -3.459)" fill="#e2bbbe"/>
                </g>
              </g>
            </g>
          </g>
        </g>
      </g>
    </g>
  </g>
</svg>
