<svg xmlns="http://www.w3.org/2000/svg" xmlns:xlink="http://www.w3.org/1999/xlink" width="190" height="160.765" viewBox="0 0 190 160.765">
  <defs>
    <clipPath id="clip-path">
      <rect id="Rectángulo_352739" data-name="Rectángulo 352739" width="190" height="160.765" fill="none"/>
    </clipPath>
  </defs>
  <g id="Grupo_1018121" data-name="Grupo 1018121" transform="translate(-13318 -9720.43)">
    <g id="Grupo_1018006" data-name="Grupo 1018006" transform="translate(13318 9720.43)">
      <g id="Grupo_1017440" data-name="Grupo 1017440" clip-path="url(#clip-path)">
        <path id="Trazado_716747" data-name="Trazado 716747" d="M135.751,210.066c1.7,7.246-12.685,16.81-32.122,21.362s-36.57,2.366-38.266-4.88,12.685-16.81,32.122-21.361,36.57-2.366,38.266,4.88" transform="translate(-37.39 -116.259)" fill="#f2f2f2"/>
        <path id="Trazado_716748" data-name="Trazado 716748" d="M231.78,224.174c-.9,7.387-17.7,11.412-37.515,8.99s-35.147-10.375-34.244-17.762,17.7-11.412,37.514-8.99,35.147,10.375,34.244,17.762" transform="translate(-91.709 -117.919)" fill="#f2f2f2"/>
        <path id="Trazado_716749" data-name="Trazado 716749" d="M186.4,61.459h-.26a4.715,4.715,0,0,0-4.7,4.7V127.4a4.715,4.715,0,0,0,4.7,4.7h.26a4.715,4.715,0,0,0,4.7-4.7V66.16a4.715,4.715,0,0,0-4.7-4.7" transform="translate(-104.007 -35.231)" fill="#5e5e85"/>
        <path id="Trazado_716750" data-name="Trazado 716750" d="M123.865,67.177,72.576,74.5V142.59l.962.91,50.327-8.236Z" transform="translate(-41.603 -38.509)" fill="#282842"/>
        <path id="Trazado_716751" data-name="Trazado 716751" d="M192.758,67.177,244.047,74.5V142.59l-.962.91-50.327-8.236Z" transform="translate(-110.496 -38.509)" fill="#282842"/>
        <path id="Trazado_716752" data-name="Trazado 716752" d="M125.157,69.31,74.83,76.636v68.086l50.327-7.326Z" transform="translate(-42.895 -39.731)" fill="#5e5e85"/>
        <path id="Trazado_716753" data-name="Trazado 716753" d="M127.867,73.737l0-1.555s-2.651,2.65-12.925,4.27-25.823-1.6-34.708,3.9l-.674,65.726,45.859-6.675a19.864,19.864,0,0,0,2.45-2.519Z" transform="translate(-45.605 -41.377)" fill="#505078"/>
        <path id="Trazado_716754" data-name="Trazado 716754" d="M192.758,69.31l50.327,7.326v68.086L192.758,137.4Z" transform="translate(-110.496 -39.731)" fill="#5e5e85"/>
        <path id="Trazado_716755" data-name="Trazado 716755" d="M240.839,79.721c-8.95-5.378-24.613-1.956-34.961-3.442s-13.02-4.1-13.02-4.1l-.1,51.853v12.731a19.593,19.593,0,0,0,2.637,2.663l46.131,6.715Z" transform="translate(-110.496 -41.375)" fill="#505078"/>
        <line id="Línea_191" data-name="Línea 191" y2="68.086" transform="translate(132.589 36.904)" fill="#5e5e85"/>
        <path id="Trazado_716756" data-name="Trazado 716756" d="M129.387,72.187s-2.588,2.7-12.618,4.492S91.561,75.524,82.887,81.17l-.678,67.76s5.15-3.192,16.942-2.558,23.853-1.163,30.359-9.633Z" transform="translate(-47.125 -41.38)" fill="#ccc"/>
        <path id="Trazado_716757" data-name="Trazado 716757" d="M133.735,97.637l-.048-25.182c-.84.961-7.351,7.844-21.159,7.578C95.3,79.7,90.266,82.171,90.266,82.171s-.507,52.284-.556,65.633a40.746,40.746,0,0,1,13.74-1.279c11.593.623,23.445-1.108,30.023-9.217.061-.141.125-.277.185-.421Z" transform="translate(-51.425 -41.534)" fill="#bababa"/>
        <path id="Trazado_716758" data-name="Trazado 716758" d="M192.821,72.187s2.588,2.7,12.618,4.492,25.209-1.155,33.883,4.492L240,148.93s-5.15-3.192-16.942-2.558-23.853-1.163-30.359-9.633Z" transform="translate(-110.462 -41.38)" fill="#ededed"/>
        <path id="Trazado_716759" data-name="Trazado 716759" d="M236.748,82.321s-5.081-2.483-22.491-2.2c-13.834.228-20.416-6.555-21.353-7.607l-.061,32.011.062,32.553c6.533,8.336,18.517,10.109,30.236,9.48a39.913,39.913,0,0,1,14.169,1.41c-.049-13.322-.562-65.651-.562-65.651" transform="translate(-110.545 -41.57)" fill="#ccc"/>
        <path id="Trazado_716760" data-name="Trazado 716760" d="M135.674,72.187s-6.209,8.213-20.576,8.47c-16.681.3-21.55,2.951-21.55,2.951s-.542,57.75-.542,67.375c0,0,4.507-1.956,14.1-1.155,13.824,1.155,23.694-1.027,28.45-13.09Z" transform="translate(-53.315 -41.38)" fill="#d9d9d9"/>
        <path id="Trazado_716761" data-name="Trazado 716761" d="M141.291,136.953l.058-30.558-.065-33.833-.032.039c-1.1,7.557-7.25,13.807-21.173,12.342-14.049-1.477-17.06,1.439-17.06,1.439l.768,63.717a46.091,46.091,0,0,1,9.055-.055c13.824,1.155,23.694-1.027,28.45-13.09" transform="translate(-59.054 -41.595)" fill="#ccc"/>
        <path id="Trazado_716762" data-name="Trazado 716762" d="M192.7,72.187s6.21,8.213,20.576,8.47c16.681.3,21.55,2.951,21.55,2.951s.542,57.75.542,67.375c0,0-3.324-2.053-14.1-1.155-15.29,1.275-25.7-2.118-28.45-10.783Z" transform="translate(-110.462 -41.38)" fill="#fff"/>
        <path id="Trazado_716763" data-name="Trazado 716763" d="M144.23,139.871s-.788,8.417-11.5,11.112-21.55,1.54-23.989,8.47L107.932,88.1s2.847-3.068,16.129-2.3,19.086-5.915,20.047-13.615Z" transform="translate(-61.871 -41.38)" fill="#e8e8e8"/>
        <path id="Trazado_716764" data-name="Trazado 716764" d="M137.033,214.109a13.639,13.639,0,0,0,8.9-7.033l0,2.066s-.015.25-.061.675a14.767,14.767,0,0,1-8.467,5.619,91.766,91.766,0,0,1-9.327,1.7c-5.3.772-9.755,1.421-12.307,3.621l-.016-1.734c2.934-1.906,7.3-2.544,12.1-3.243a90.579,90.579,0,0,0,9.175-1.665" transform="translate(-66.356 -118.704)" fill="#a1a1a1"/>
        <path id="Trazado_716765" data-name="Trazado 716765" d="M131.048,203.671c-4,.582-7.517,1.1-10.1,2.258l-.012-1.489a46.428,46.428,0,0,1,9.892-2.125A90.663,90.663,0,0,0,140,200.649a13.571,13.571,0,0,0,8.661-6.606l0,2.548a14.763,14.763,0,0,1-8.292,5.384,91.779,91.779,0,0,1-9.327,1.7" transform="translate(-69.325 -111.233)" fill="#a1a1a1"/>
        <path id="Trazado_716766" data-name="Trazado 716766" d="M137.406,185.175a91.882,91.882,0,0,1-9.327,1.7c-5.3.771-9.755,1.421-12.307,3.621l-.015-1.734c2.934-1.907,7.3-2.544,12.1-3.243a90.573,90.573,0,0,0,9.175-1.666,13.639,13.639,0,0,0,8.9-7.032l0,2.066s-.014.249-.061.675a14.766,14.766,0,0,1-8.467,5.618" transform="translate(-66.356 -101.358)" fill="#a1a1a1"/>
        <path id="Trazado_716767" data-name="Trazado 716767" d="M148.663,163.782l0,2.548a14.762,14.762,0,0,1-8.292,5.385,91.765,91.765,0,0,1-9.327,1.7c-4,.582-7.517,1.1-10.1,2.258l-.012-1.489a46.419,46.419,0,0,1,9.892-2.125A90.569,90.569,0,0,0,140,170.388a13.572,13.572,0,0,0,8.661-6.606" transform="translate(-69.325 -93.886)" fill="#a1a1a1"/>
        <path id="Trazado_716768" data-name="Trazado 716768" d="M137.406,154.914a91.882,91.882,0,0,1-9.327,1.7c-5.3.771-9.755,1.421-12.307,3.621l-.015-1.734c2.934-1.907,7.3-2.544,12.1-3.243a90.577,90.577,0,0,0,9.175-1.666,13.639,13.639,0,0,0,8.9-7.032l0,2.066s-.014.249-.061.675a14.766,14.766,0,0,1-8.467,5.618" transform="translate(-66.356 -84.011)" fill="#a1a1a1"/>
        <path id="Trazado_716769" data-name="Trazado 716769" d="M148.663,133.521l0,2.548a14.763,14.763,0,0,1-8.292,5.384,91.647,91.647,0,0,1-9.327,1.7c-4,.582-7.517,1.1-10.1,2.258l-.012-1.489a46.42,46.42,0,0,1,9.892-2.125A90.57,90.57,0,0,0,140,140.127a13.571,13.571,0,0,0,8.661-6.606" transform="translate(-69.325 -76.539)" fill="#a1a1a1"/>
        <path id="Trazado_716770" data-name="Trazado 716770" d="M137.406,124.653a91.878,91.878,0,0,1-9.327,1.7c-5.3.771-9.755,1.421-12.307,3.621l-.015-1.734c2.934-1.907,7.3-2.544,12.1-3.243a90.573,90.573,0,0,0,9.175-1.666,13.639,13.639,0,0,0,8.9-7.032l0,2.066s-.014.249-.061.675a14.766,14.766,0,0,1-8.467,5.618" transform="translate(-66.356 -66.664)" fill="#a1a1a1"/>
        <path id="Trazado_716771" data-name="Trazado 716771" d="M140.374,111.193a91.879,91.879,0,0,1-9.327,1.7c-4,.582-7.517,1.1-10.1,2.258l-.012-1.49a46.446,46.446,0,0,1,9.892-2.124A90.569,90.569,0,0,0,140,109.866a13.572,13.572,0,0,0,8.661-6.606l0,2.548a14.764,14.764,0,0,1-8.292,5.385" transform="translate(-69.325 -59.193)" fill="#a1a1a1"/>
        <path id="Trazado_716772" data-name="Trazado 716772" d="M225.061,217.878a42.749,42.749,0,0,1,11.363.376q0,.728.007,1.41a40.649,40.649,0,0,0-11.243-.42c-9.709.812-19.316.344-25.467-7.071-.1-.279-.2-.557-.3-.847l0-1.968c5.232,8.288,14.127,9.481,25.64,8.519" transform="translate(-114.316 -120.013)" fill="#a1a1a1"/>
        <path id="Trazado_716773" data-name="Trazado 716773" d="M225.017,203.21a48.436,48.436,0,0,1,8.351-.032q0,.7.008,1.387a46.327,46.327,0,0,0-8.231.012c-9.885.827-19.663.322-25.8-7.488l0-2.448c5.227,8.334,14.136,9.533,25.673,8.569" transform="translate(-114.272 -111.576)" fill="#a1a1a1"/>
        <path id="Trazado_716774" data-name="Trazado 716774" d="M225.188,189.621c-9.708.812-19.316.344-25.467-7.071-.1-.279-.2-.557-.3-.848l0-1.968c5.232,8.288,14.127,9.481,25.64,8.519a42.767,42.767,0,0,1,11.363.376q0,.728.008,1.41a40.67,40.67,0,0,0-11.243-.42" transform="translate(-114.316 -103.031)" fill="#a1a1a1"/>
        <path id="Trazado_716775" data-name="Trazado 716775" d="M225.017,173.587a48.435,48.435,0,0,1,8.351-.032q0,.7.008,1.387a46.326,46.326,0,0,0-8.231.012c-9.885.827-19.663.322-25.8-7.488l0-2.448c5.227,8.334,14.136,9.533,25.673,8.569" transform="translate(-114.272 -94.595)" fill="#a1a1a1"/>
        <path id="Trazado_716776" data-name="Trazado 716776" d="M225.188,160c-9.708.812-19.316.344-25.467-7.071-.1-.279-.2-.557-.3-.847l0-1.968c5.232,8.288,14.127,9.481,25.64,8.519a42.767,42.767,0,0,1,11.363.376q0,.728.008,1.41a40.669,40.669,0,0,0-11.243-.42" transform="translate(-114.316 -86.05)" fill="#a1a1a1"/>
        <path id="Trazado_716777" data-name="Trazado 716777" d="M225.144,145.331c-9.885.827-19.663.322-25.8-7.488l0-2.448c5.227,8.334,14.136,9.533,25.673,8.569a48.386,48.386,0,0,1,8.351-.032q0,.7.008,1.387a46.327,46.327,0,0,0-8.231.012" transform="translate(-114.272 -77.614)" fill="#a1a1a1"/>
        <path id="Trazado_716778" data-name="Trazado 716778" d="M225.188,130.376c-9.708.812-19.316.344-25.467-7.071-.1-.279-.2-.558-.3-.848l0-1.968c5.232,8.288,14.127,9.481,25.64,8.519a42.766,42.766,0,0,1,11.363.376q0,.728.008,1.41a40.669,40.669,0,0,0-11.243-.42" transform="translate(-114.316 -69.069)" fill="#a1a1a1"/>
        <path id="Trazado_716779" data-name="Trazado 716779" d="M225.144,115.708c-9.885.827-19.663.322-25.8-7.488l0-2.448c5.227,8.334,14.136,9.533,25.673,8.569a48.43,48.43,0,0,1,8.351-.032q0,.7.008,1.387a46.365,46.365,0,0,0-8.231.012" transform="translate(-114.272 -60.633)" fill="#a1a1a1"/>
        <path id="Trazado_716780" data-name="Trazado 716780" d="M351.126,330.338c0,6.947-15.011,12.579-33.529,12.579s-33.529-5.632-33.529-12.579,15.011-12.579,33.529-12.579,33.529,5.632,33.529,12.579" transform="translate(-162.839 -182.152)" fill="#f2f2f2"/>
        <path id="Trazado_716781" data-name="Trazado 716781" d="M211,301.926c0,5.925-12.8,10.728-28.6,10.728s-28.6-4.8-28.6-10.728,12.8-10.728,28.6-10.728S211,296,211,301.926" transform="translate(-88.167 -166.926)" fill="#f2f2f2"/>
        <path id="Trazado_716782" data-name="Trazado 716782" d="M134.9,326.256c-.509,4.163-21.4,5.034-46.669,1.946S42.9,319.234,43.4,315.071s21.4-5.035,46.669-1.946,45.335,8.967,44.826,13.13" transform="translate(-24.876 -178.436)" fill="#f2f2f2"/>
        <path id="Trazado_716783" data-name="Trazado 716783" d="M214.836,337.654c.364,4.178-19.9,9.357-45.255,11.568s-46.209.615-46.573-3.563,19.9-9.357,45.255-11.568,46.209-.615,46.573,3.563" transform="translate(-70.51 -190.943)" fill="#f2f2f2"/>
        <path id="Trazado_716784" data-name="Trazado 716784" d="M211.793,298.485a15.829,15.829,0,0,0-4.94-8.393h-16.06c-1.49-.1-3.021-.156-4.588-.156s-3.1.055-4.589.156h-16.1c-3.989,3.78-4.843,7.526-5.026,8.929-.013.077-.02.154-.027.231-.022.226-.024.35-.024.35,0,5.338,11.535,9.666,25.764,9.666s25.763-4.327,25.763-9.666a3.8,3.8,0,0,0-.176-1.116" transform="translate(-91.971 -166.202)" fill="#704c2a"/>
        <path id="Trazado_716785" data-name="Trazado 716785" d="M171.736,306.685a33.68,33.68,0,0,0,8.814,2.9V292.48h-8.814Z" transform="translate(-98.446 -167.661)" fill="#805730"/>
        <path id="Trazado_716786" data-name="Trazado 716786" d="M225.527,317.144c1.651-.048,3.258-.154,4.807-.313v-13.1c-1.638,0-3.236.055-4.807.139Z" transform="translate(-129.281 -174.112)" fill="#805730"/>
        <path id="Trazado_716787" data-name="Trazado 716787" d="M253.339,307.95a26.752,26.752,0,0,0,8.814-3.563V292.565a19.358,19.358,0,0,0-2.047-2.265h-6.767Z" transform="translate(-145.224 -166.411)" fill="#805730"/>
        <path id="Trazado_716788" data-name="Trazado 716788" d="M212.726,289.39c0,4.986-10.549,9.028-23.561,9.028S165.6,294.376,165.6,289.39s10.549-9.028,23.562-9.028,23.561,4.042,23.561,9.028" transform="translate(-94.93 -160.714)" fill="#a37448"/>
        <path id="Trazado_716789" data-name="Trazado 716789" d="M212.938,287.616a13.815,13.815,0,0,0-4.312-7.328H194.6c-1.3-.088-2.638-.136-4.006-.136s-2.705.048-4.006.136H172.535a13.436,13.436,0,0,0-4.388,7.8c-.011.067-.017.134-.023.2-.02.2-.02.306-.02.306,0,4.661,10.071,8.439,22.495,8.439s22.494-3.779,22.494-8.439a3.316,3.316,0,0,0-.154-.975" transform="translate(-96.363 -160.594)" fill="#8a5d34"/>
        <path id="Trazado_716790" data-name="Trazado 716790" d="M185.315,295.011a38.948,38.948,0,0,0,6.589,1.567V280.47h-6.589Z" transform="translate(-106.23 -160.776)" fill="#9e6b3c"/>
        <path id="Trazado_716791" data-name="Trazado 716791" d="M213.092,296.938q1.614.089,3.295.091V280.151c-1.122,0-2.217.04-3.295.1Z" transform="translate(-122.152 -160.593)" fill="#9e6b3c"/>
        <path id="Trazado_716792" data-name="Trazado 716792" d="M239.334,296.676a41.006,41.006,0,0,0,6.589-1.45V280.471h-6.589Z" transform="translate(-137.195 -160.777)" fill="#9e6b3c"/>
        <path id="Trazado_716793" data-name="Trazado 716793" d="M214.118,277.113c0,4.041-8.732,7.317-19.5,7.317s-19.5-3.276-19.5-7.317,8.732-7.317,19.5-7.317,19.5,3.276,19.5,7.317" transform="translate(-100.38 -154.657)" fill="#a37448"/>
        <line id="Línea_192" data-name="Línea 192" y1="46.175" x2="17.579" transform="translate(147.657 4.466)" fill="none" stroke="#a17900" stroke-linecap="round" stroke-linejoin="round" stroke-width="1"/>
        <line id="Línea_193" data-name="Línea 193" x2="17.576" y2="46.602" transform="translate(168.197 4.039)" fill="none" stroke="#a17900" stroke-linecap="round" stroke-linejoin="round" stroke-width="1"/>
        <path id="Trazado_716794" data-name="Trazado 716794" d="M217.816,281.186a5.257,5.257,0,0,0-1.641-2.788h-5.336c-.5-.033-1-.052-1.524-.052s-1.029.019-1.524.052h-5.349a5.111,5.111,0,0,0-1.67,2.966c0,.026-.006.051-.009.077-.007.075-.008.116-.008.116,0,1.774,3.832,3.211,8.56,3.211s8.56-1.438,8.56-3.211a1.253,1.253,0,0,0-.058-.371" transform="translate(-115.08 -159.558)" fill="#8a5d34"/>
        <path id="Trazado_716795" data-name="Trazado 716795" d="M218.265,277.189c0,1.538-3.323,2.784-7.422,2.784s-7.421-1.247-7.421-2.784,3.323-2.784,7.421-2.784,7.422,1.247,7.422,2.784" transform="translate(-116.609 -157.299)" fill="#b17743"/>
        <path id="Trazado_716796" data-name="Trazado 716796" d="M209.7,162c-4.571,0-8.276,29.242-8.276,38.295a28.53,28.53,0,0,0,1.5,9.416,6.486,6.486,0,0,0,6.027,4.307q.372.005.747.005t.747-.005a6.486,6.486,0,0,0,6.027-4.307,28.529,28.529,0,0,0,1.5-9.416c0-9.053-3.705-38.295-8.276-38.295" transform="translate(-115.462 -92.863)" fill="#8a5d34"/>
        <path id="Trazado_716797" data-name="Trazado 716797" d="M215.2,167.643c-1.595,0-3.734,19.655-4.108,28.312a71.782,71.782,0,0,0,.355,11.054c.4,3.458,1.729,5.9,3.315,5.959q.217.008.437.008t.437-.008c1.586-.057,2.918-2.5,3.315-5.959a71.942,71.942,0,0,0,.356-11.054c-.373-8.657-2.514-28.312-4.108-28.312" transform="translate(-120.967 -96.099)" fill="#b17743"/>
        <path id="Trazado_716798" data-name="Trazado 716798" d="M216.768,96.053h0a3.02,3.02,0,0,1-3.012-3.011V38.133a3.011,3.011,0,0,1,6.022,0V93.042a3.02,3.02,0,0,1-3.011,3.011" transform="translate(-122.533 -20.133)" fill="#b17743"/>
        <path id="Trazado_716799" data-name="Trazado 716799" d="M218.673,96.053h0a1.6,1.6,0,0,1-1.594-1.593V36.715a1.593,1.593,0,0,1,3.186,0V94.46a1.6,1.6,0,0,1-1.593,1.593" transform="translate(-124.438 -20.133)" fill="#c9905c"/>
        <path id="Trazado_716800" data-name="Trazado 716800" d="M219.524,172.306c0,.868-1.681,2.545-3.755,2.545s-3.755-1.677-3.755-2.545,1.681-.6,3.755-.6,3.755-.271,3.755.6" transform="translate(-121.534 -98.407)" fill="#ffc100"/>
        <path id="Trazado_716801" data-name="Trazado 716801" d="M219.524,124.7c0,.868-1.681,2.545-3.755,2.545s-3.755-1.677-3.755-2.545,1.681-.6,3.755-.6,3.755-.271,3.755.6" transform="translate(-121.534 -71.116)" fill="#ffc100"/>
        <path id="Trazado_716802" data-name="Trazado 716802" d="M219.524,78.365c0,.868-1.681,2.545-3.755,2.545s-3.755-1.677-3.755-2.545,1.681-.6,3.755-.6,3.755-.271,3.755.6" transform="translate(-121.534 -44.556)" fill="#ffc100"/>
        <path id="Trazado_716803" data-name="Trazado 716803" d="M218.828,11.234l1.439,7.621L282.676,5.179a5.777,5.777,0,0,1,4.137.651,7.879,7.879,0,0,0,5.463,1.012,7.272,7.272,0,0,0,5.649-5.78.856.856,0,0,0-.547-1,.948.948,0,0,0-1.24.572,4.974,4.974,0,0,1-4.212,3.4,6.05,6.05,0,0,1-5.276-1.591A5.525,5.525,0,0,0,282.1,1.2Z" transform="translate(-125.441 0)" fill="#b17743"/>
        <path id="Trazado_716804" data-name="Trazado 716804" d="M297.586.416a6.954,6.954,0,0,1-5.311,4.67,7.878,7.878,0,0,1-5.463-1.012,5.778,5.778,0,0,0-4.137-.651L220.267,17.1l-1.073-5.684-.366.058,1.439,7.621L282.676,5.418a5.778,5.778,0,0,1,4.137.651,7.875,7.875,0,0,0,5.463,1.012,7.272,7.272,0,0,0,5.649-5.78.844.844,0,0,0-.338-.885" transform="translate(-125.441 -0.238)" fill="#8a5d34"/>
        <line id="Línea_194" data-name="Línea 194" y1="45.65" x2="17.381" transform="translate(4.228 31.652)" fill="none" stroke="#a17900" stroke-linecap="round" stroke-linejoin="round" stroke-width="1"/>
        <line id="Línea_195" data-name="Línea 195" x2="17.576" y2="46.174" transform="translate(24.767 31.127)" fill="none" stroke="#a17900" stroke-linecap="round" stroke-linejoin="round" stroke-width="1"/>
        <path id="Trazado_716805" data-name="Trazado 716805" d="M115.779,26.123l1.439,7.621-63.1,10.019A5.776,5.776,0,0,0,50.5,45.877a7.88,7.88,0,0,1-4.718,2.934,7.273,7.273,0,0,1-7.368-3.323.857.857,0,0,1,.145-1.13.948.948,0,0,1,1.363.08,4.974,4.974,0,0,0,5.163,1.635,6.049,6.049,0,0,0,4.333-3.4A5.524,5.524,0,0,1,53.2,39.85Z" transform="translate(-21.936 -14.975)" fill="#b17743"/>
        <path id="Trazado_716806" data-name="Trazado 716806" d="M54.118,49.4A5.778,5.778,0,0,0,50.5,51.517a7.88,7.88,0,0,1-4.718,2.935,7.033,7.033,0,0,1-6.862-2.662.963.963,0,0,0-.361.2.856.856,0,0,0-.145,1.13,7.273,7.273,0,0,0,7.368,3.323A7.88,7.88,0,0,0,50.5,53.512,5.776,5.776,0,0,1,54.118,51.4l63.1-10.019-.365-1.937Z" transform="translate(-21.936 -22.61)" fill="#8a5d34"/>
        <path id="Trazado_716807" data-name="Trazado 716807" d="M215.1,29.7h-1.96a4.017,4.017,0,0,1-4.005-4.005V16.234a4.017,4.017,0,0,1,4.005-4.005h1.96a4.017,4.017,0,0,1,4.005,4.005V25.7A4.017,4.017,0,0,1,215.1,29.7" transform="translate(-119.882 -7.01)" fill="#8a5d34"/>
        <path id="Trazado_716808" data-name="Trazado 716808" d="M217.093,28.782h-.651a2.694,2.694,0,0,1-2.686-2.686V18.458a2.694,2.694,0,0,1,2.686-2.686h.651a2.694,2.694,0,0,1,2.686,2.686V26.1a2.694,2.694,0,0,1-2.686,2.686" transform="translate(-122.534 -9.041)" fill="#b17743"/>
        <path id="Trazado_716809" data-name="Trazado 716809" d="M217,16.662a2.5,2.5,0,0,0,2.133-1.216,4.021,4.021,0,0,0-3.926-3.217h-1.96a4.021,4.021,0,0,0-3.926,3.217,2.5,2.5,0,0,0,2.133,1.216Z" transform="translate(-119.988 -7.01)" fill="#b08761"/>
        <path id="Trazado_716810" data-name="Trazado 716810" d="M219.3,50.461c0,.763-1.977,2.238-4.415,2.238s-4.416-1.474-4.416-2.238,1.977-.525,4.416-.525,4.415-.238,4.415.525" transform="translate(-120.647 -28.605)" fill="#ffc100"/>
        <path id="Trazado_716811" data-name="Trazado 716811" d="M382.661,125.526c0,4.041-10.422,11.283-23.278,11.283s-23.278-7.242-23.278-11.283,10.422-3.351,23.278-3.351,23.278-.69,23.278,3.351" transform="translate(-192.668 -70.01)" fill="#fada76"/>
        <path id="Trazado_716812" data-name="Trazado 716812" d="M345.485,116.673a1.48,1.48,0,1,1-1.48-1.48,1.48,1.48,0,0,1,1.48,1.48" transform="translate(-196.348 -66.033)" fill="#ffc100"/>
        <path id="Trazado_716813" data-name="Trazado 716813" d="M434.8,116.673a1.48,1.48,0,1,1-1.48-1.48,1.48,1.48,0,0,1,1.48,1.48" transform="translate(-247.547 -66.033)" fill="#ffc100"/>
        <path id="Trazado_716814" data-name="Trazado 716814" d="M382.658,119.022c0,4.041-10.425,7.317-23.285,7.317s-23.285-3.276-23.285-7.317,10.425-7.317,23.285-7.317,23.285,3.276,23.285,7.317" transform="translate(-192.658 -64.034)" fill="#ffc100"/>
        <path id="Trazado_716815" data-name="Trazado 716815" d="M345.993,134.51c4.213,1.883,11.176,3.115,19.058,3.115s14.845-1.232,19.058-3.115c-4.213-1.883-11.176-3.115-19.058-3.115s-14.845,1.232-19.058,3.115" transform="translate(-198.336 -75.321)" fill="#d9a400"/>
        <line id="Línea_196" data-name="Línea 196" y1="58.266" transform="translate(166.715 4.039)" fill="none" stroke="#a17900" stroke-linecap="round" stroke-linejoin="round" stroke-width="1"/>
        <path id="Trazado_716816" data-name="Trazado 716816" d="M390.145,144.006a1.48,1.48,0,1,1-1.48-1.48,1.48,1.48,0,0,1,1.48,1.48" transform="translate(-221.949 -81.701)" fill="#ffc100"/>
        <path id="Trazado_716817" data-name="Trazado 716817" d="M46.573,188c0,4.041-10.422,11.283-23.278,11.283S.017,192.041.017,188s10.422-3.351,23.278-3.351,23.278-.69,23.278,3.351" transform="translate(-0.01 -105.822)" fill="#fada76"/>
        <path id="Trazado_716818" data-name="Trazado 716818" d="M9.4,179.146a1.48,1.48,0,1,1-1.48-1.48,1.48,1.48,0,0,1,1.48,1.48" transform="translate(-3.691 -101.845)" fill="#ffc100"/>
        <path id="Trazado_716819" data-name="Trazado 716819" d="M98.712,179.146a1.48,1.48,0,1,1-1.48-1.48,1.48,1.48,0,0,1,1.48,1.48" transform="translate(-54.889 -101.845)" fill="#ffc100"/>
        <path id="Trazado_716820" data-name="Trazado 716820" d="M46.571,181.495c0,4.041-10.425,7.317-23.285,7.317S0,185.536,0,181.495s10.425-7.317,23.285-7.317,23.285,3.276,23.285,7.317" transform="translate(0 -99.845)" fill="#ffc100"/>
        <path id="Trazado_716821" data-name="Trazado 716821" d="M9.906,196.983c4.213,1.883,11.176,3.115,19.058,3.115s14.845-1.232,19.058-3.115c-4.213-1.883-11.176-3.115-19.058-3.115S14.119,195.1,9.906,196.983" transform="translate(-5.678 -111.132)" fill="#d9a400"/>
        <line id="Línea_197" data-name="Línea 197" y1="57.867" transform="translate(23.285 31.099)" fill="none" stroke="#a17900" stroke-linecap="round" stroke-linejoin="round" stroke-width="1"/>
        <path id="Trazado_716822" data-name="Trazado 716822" d="M54.058,206.479a1.48,1.48,0,1,1-1.48-1.48,1.48,1.48,0,0,1,1.48,1.48" transform="translate(-29.291 -117.513)" fill="#ffc100"/>
        <path id="Trazado_716823" data-name="Trazado 716823" d="M137.793,309.286s1.312.846.524,6.066-2.291,5.641-2.291,5.641-2.348-.635-1.5-6.214c0,0,.713-4.516,3.27-5.494" transform="translate(-77.008 -177.294)" fill="#37374d"/>
        <path id="Trazado_716824" data-name="Trazado 716824" d="M219.014,334.055c-.514-.056-.7-1.68-.4-3.628s.948-3.447,1.456-3.349.67,1.72.382,3.625-.928,3.407-1.436,3.352" transform="translate(-125.236 -187.491)" fill="#37374d"/>
        <path id="Trazado_716825" data-name="Trazado 716825" d="M210.9,327.8l2.473,3.176,2.32.35a9.427,9.427,0,0,0,.585,1.541,3.613,3.613,0,0,0,4.644,1.763,13.4,13.4,0,0,0,2.88-1.579c3-2.234,7.926-2.107,7.926-2.107l-.007.05s-4.744-1.333-6.951-4.353a13.413,13.413,0,0,0-2.285-2.359,3.613,3.613,0,0,0-4.957.314,9.478,9.478,0,0,0-1.014,1.3l-2.32-.35-3.3,2.3" transform="translate(-120.894 -185.41)" fill="#ffc100"/>
        <path id="Trazado_716826" data-name="Trazado 716826" d="M212.48,331.241l-1.512,1.056,1.512,1.942Z" transform="translate(-120.935 -189.88)" fill="#fada76"/>
        <path id="Trazado_716827" data-name="Trazado 716827" d="M225.312,324.751a10.3,10.3,0,0,0-.842,1.044v7.874a3.6,3.6,0,0,0,2.568,1.381V323.717a3.539,3.539,0,0,0-1.725,1.034" transform="translate(-128.675 -185.567)" fill="#fada76"/>
        <path id="Trazado_716828" data-name="Trazado 716828" d="M241.712,329a11.693,11.693,0,0,0-1.267-1.44v8.055c.1-.069.2-.132.3-.2a8.946,8.946,0,0,1,2.269-1.188v-3.836a8.361,8.361,0,0,1-1.3-1.387" transform="translate(-137.832 -187.768)" fill="#fada76"/>
        <path id="Trazado_716829" data-name="Trazado 716829" d="M230.425,336.385a1.683,1.683,0,1,1,1.916-1.413,1.683,1.683,0,0,1-1.916,1.413" transform="translate(-131.268 -190.91)" fill="#37374d"/>
        <path id="Trazado_716830" data-name="Trazado 716830" d="M213.635,333.666h0a.442.442,0,0,1,.5-.37l11.772,1.777a.441.441,0,0,1-.132.873l-11.772-1.778a.442.442,0,0,1-.37-.5" transform="translate(-122.461 -191.055)" fill="#37374d"/>
        <path id="Trazado_716831" data-name="Trazado 716831" d="M126.5,315.715h0c.378-2.505,1.527-4.306,4.4-3.8l36.373,6.35a8.455,8.455,0,0,0-1.063,7.042l-36.627-4.673c-2.893-.359-3.458-2.419-3.08-4.924" transform="translate(-72.454 -178.755)" fill="#5e5e85"/>
        <path id="Trazado_716832" data-name="Trazado 716832" d="M130.742,319.76c-2.893-.359-3.458-2.419-3.08-4.924a7.936,7.936,0,0,1,.409-1.628,4.909,4.909,0,0,0-1.573,3.3c-.378,2.505.188,4.565,3.08,4.924l36.627,4.673a8.571,8.571,0,0,1-.314-1.857Z" transform="translate(-72.454 -179.543)" fill="#474763"/>
        <path id="Trazado_716833" data-name="Trazado 716833" d="M42.92,301.538h0a5.938,5.938,0,0,1,6.738-4.97l35.692,5.39a13.413,13.413,0,0,0-1.768,11.708l-35.692-5.39a5.938,5.938,0,0,1-4.97-6.738" transform="translate(-24.565 -169.966)" fill="#474763"/>
        <path id="Trazado_716834" data-name="Trazado 716834" d="M46.954,313.328a6.891,6.891,0,0,1-4.073-2.151,5.942,5.942,0,0,0,5.025,5.511l35.692,5.39a14.09,14.09,0,0,1-.586-3.3Z" transform="translate(-24.581 -178.378)" fill="#37374d"/>
        <path id="Trazado_716835" data-name="Trazado 716835" d="M109.949,330.034a1.607,1.607,0,1,1,1.829-1.349,1.607,1.607,0,0,1-1.829,1.349" transform="translate(-62.243 -187.356)" fill="#ffc100"/>
        <path id="Trazado_716836" data-name="Trazado 716836" d="M131.376,314.087a14.324,14.324,0,0,1,2.246-5.648l-4.176-.631a13.413,13.413,0,0,0-1.768,11.708l4.176.631a14.325,14.325,0,0,1-.478-6.06" transform="translate(-72.837 -176.447)" fill="#ffc100"/>
        <path id="Trazado_716837" data-name="Trazado 716837" d="M68.746,304.63a14.324,14.324,0,0,1,2.246-5.648l-4.176-.631a13.413,13.413,0,0,0-1.768,11.708l4.176.631a14.325,14.325,0,0,1-.478-6.06" transform="translate(-36.935 -171.026)" fill="#ffc100"/>
        <path id="Trazado_716838" data-name="Trazado 716838" d="M69.088,320.625c-1.066-.161-1.64,1.439-1.849,2.826-.108.719.7,1.585,1.763,1.747s.435-1.084.644-2.472.113-2-.558-2.1" transform="translate(-38.538 -183.788)" fill="#bf9100"/>
        <path id="Trazado_716839" data-name="Trazado 716839" d="M67.23,325.59h0a1.469,1.469,0,0,1,1.666-1.229l19.973,3.016a1.464,1.464,0,1,1-.437,2.895l-19.973-3.015a1.468,1.468,0,0,1-1.229-1.666" transform="translate(-38.529 -185.927)" fill="#ffc100"/>
        <path id="Trazado_716840" data-name="Trazado 716840" d="M351.892,325.1a18.845,18.845,0,0,0-5.882-10H326.884c-1.774-.12-3.6-.186-5.464-.186s-3.69.066-5.464.186H296.783c-4.751,4.5-5.767,8.962-5.985,10.634-.014.091-.023.183-.032.275-.026.269-.028.417-.028.417,0,6.357,13.737,11.511,30.682,11.511s30.682-5.154,30.682-11.511a4.517,4.517,0,0,0-.21-1.33" transform="translate(-166.661 -180.521)" fill="#734d2b"/>
        <path id="Trazado_716841" data-name="Trazado 716841" d="M353.255,312.153a16.452,16.452,0,0,0-5.136-8.727h-16.7c-1.549-.1-3.141-.162-4.77-.162s-3.222.058-4.771.162H305.14c-4.148,3.93-5.036,7.825-5.226,9.284-.012.08-.02.16-.028.24-.023.235-.025.364-.025.364,0,5.55,11.994,10.05,26.789,10.05s26.789-4.5,26.789-10.05a3.948,3.948,0,0,0-.183-1.161" transform="translate(-171.892 -173.842)" fill="#8a5d34"/>
        <path id="Trazado_716842" data-name="Trazado 716842" d="M310.626,322a31.61,31.61,0,0,0,7.847,2.856V308.6h-7.847Z" transform="translate(-178.063 -176.9)" fill="#734d2b"/>
        <path id="Trazado_716843" data-name="Trazado 716843" d="M343.706,325.738q1.9.226,3.924.345V308.218c-1.336,0-2.64.047-3.924.119Z" transform="translate(-197.025 -176.682)" fill="#734d2b"/>
        <path id="Trazado_716844" data-name="Trazado 716844" d="M401.731,321.283V306.44h-7.847v17.409a35.4,35.4,0,0,0,7.847-2.567" transform="translate(-225.789 -175.663)" fill="#734d2b"/>
        <path id="Trazado_716845" data-name="Trazado 716845" d="M354.661,299.644c0,4.813-10.4,8.714-23.227,8.714s-23.227-3.9-23.227-8.714,10.4-8.714,23.227-8.714,23.227,3.9,23.227,8.714" transform="translate(-176.676 -166.772)" fill="#c9905c"/>
        <path id="Trazado_716846" data-name="Trazado 716846" d="M356,302.505c0,3.636-8.649,6.584-19.319,6.584s-19.319-2.948-19.319-6.584,8.65-6.584,19.319-6.584S356,298.869,356,302.505" transform="translate(-181.926 -169.633)" fill="#d4aa83"/>
        <path id="Trazado_716847" data-name="Trazado 716847" d="M323.575,300.022c-3.816,1.2-6.209,2.922-6.209,4.833a2.465,2.465,0,0,0,.265,1.081q2.971-2.959,5.944-5.915" transform="translate(-181.926 -171.984)" fill="#deba9b"/>
        <path id="Trazado_716848" data-name="Trazado 716848" d="M325.948,306.46q.762.359,1.656.68,5.548-5.519,11.088-11.044c-.86.044-1.7.108-2.521.19q-5.115,5.085-10.224,10.174" transform="translate(-186.846 -169.734)" fill="#deba9b"/>
        <path id="Trazado_716849" data-name="Trazado 716849" d="M357.3,296.481c-1.165-.151-2.383-.267-3.644-.34q-6.161,6.156-12.335,12.3c1.114.2,2.3.367,3.525.494Z" transform="translate(-195.658 -169.759)" fill="#deba9b"/>
        <path id="Trazado_716850" data-name="Trazado 716850" d="M379.147,300.8a21.179,21.179,0,0,0-4.04-1.5L363.381,311.02a53.951,53.951,0,0,0,5.892-.348l9.874-9.874" transform="translate(-208.304 -171.567)" fill="#deba9b"/>
        <path id="Trazado_716851" data-name="Trazado 716851" d="M395.726,315.01c3.221-1.176,5.2-2.753,5.2-4.489a2.336,2.336,0,0,0-.092-.616l-5.1,5.1" transform="translate(-226.845 -177.649)" fill="#deba9b"/>
        <path id="Trazado_716852" data-name="Trazado 716852" d="M299.811,324.65a4.519,4.519,0,0,0,1.446,3.379,11.04,11.04,0,0,0,1.451,1.18,14.565,14.565,0,0,0,1.64.93,31.669,31.669,0,0,0,7.219,2.384,71.492,71.492,0,0,0,15.262,1.467,69.908,69.908,0,0,0,15.239-1.614,29.768,29.768,0,0,0,7.15-2.523,10,10,0,0,0,2.947-2.256,4.615,4.615,0,0,0,.89-1.609,2.19,2.19,0,0,0,.112-.456,3.12,3.12,0,0,0,.061-.472,4.344,4.344,0,0,0-.075-.967,3.772,3.772,0,0,1,.28.955,3.392,3.392,0,0,1,.034.506,2.476,2.476,0,0,1-.023.512,5.129,5.129,0,0,1-.682,1.946,10.412,10.412,0,0,1-2.858,2.931,26.413,26.413,0,0,1-7.29,3.422,54.34,54.34,0,0,1-15.775,2.248,55.463,55.463,0,0,1-15.79-2.1,27.793,27.793,0,0,1-7.346-3.267,11.685,11.685,0,0,1-3-2.754,5.9,5.9,0,0,1-.89-1.849,3.919,3.919,0,0,1,0-1.993" transform="translate(-171.789 -185.782)" fill="#ffc100"/>
        <path id="Trazado_716853" data-name="Trazado 716853" d="M425.037,324.261c-.021-.055-.038-.114-.061-.168.02.106.03.213.043.319.009-.05.013-.1.019-.151" transform="translate(-243.612 -185.782)" fill="#e0aa00"/>
        <path id="Trazado_716854" data-name="Trazado 716854" d="M353.442,326.526a5.133,5.133,0,0,1-.679,1.932,10.407,10.407,0,0,1-2.858,2.931,26.416,26.416,0,0,1-7.29,3.422,54.342,54.342,0,0,1-15.775,2.248,55.464,55.464,0,0,1-15.79-2.1,27.8,27.8,0,0,1-7.346-3.267,11.68,11.68,0,0,1-3-2.754,5.887,5.887,0,0,1-.89-1.849,4.251,4.251,0,0,1-.1-.554,4.07,4.07,0,0,0,.1,1.5,5.882,5.882,0,0,0,.89,1.849,11.68,11.68,0,0,0,3,2.754,27.779,27.779,0,0,0,7.346,3.267,55.45,55.45,0,0,0,15.79,2.1,54.328,54.328,0,0,0,15.775-2.248,26.4,26.4,0,0,0,7.29-3.422,10.4,10.4,0,0,0,2.858-2.931,5.118,5.118,0,0,0,.682-1.947,2.417,2.417,0,0,0,.023-.512c0-.142-.008-.283-.025-.423" transform="translate(-171.79 -187.177)" fill="#d19f00"/>
        <path id="Trazado_716855" data-name="Trazado 716855" d="M290.7,339.409a5.182,5.182,0,0,0,1.616,3.9,12.439,12.439,0,0,0,1.656,1.376,16.794,16.794,0,0,0,1.877,1.088,26.93,26.93,0,0,0,4.041,1.648c1.392.445,2.8.841,4.235,1.155a69.279,69.279,0,0,0,8.7,1.337,82.487,82.487,0,0,0,8.816.382,78.695,78.695,0,0,0,17.5-1.888c1.426-.335,2.829-.751,4.208-1.223a24.518,24.518,0,0,0,3.989-1.739,11.458,11.458,0,0,0,3.368-2.633,5.33,5.33,0,0,0,1-1.867l.077-.26c.019-.088.029-.177.044-.267a3.607,3.607,0,0,0,.064-.543,4.968,4.968,0,0,0-.1-1.106,4.366,4.366,0,0,1,.306,1.095,3.825,3.825,0,0,1,.032.577c0,.1.005.2,0,.292l-.034.29a5.827,5.827,0,0,1-.8,2.205,11.874,11.874,0,0,1-3.279,3.308,30.475,30.475,0,0,1-8.342,3.846,62.918,62.918,0,0,1-18.026,2.536,76.843,76.843,0,0,1-9.1-.542,56.933,56.933,0,0,1-8.947-1.826,32.037,32.037,0,0,1-8.407-3.669,13.348,13.348,0,0,1-3.444-3.108,6.7,6.7,0,0,1-1.033-2.093,4.49,4.49,0,0,1-.027-2.274" transform="translate(-166.563 -194.196)" fill="#ffc100"/>
        <path id="Trazado_716856" data-name="Trazado 716856" d="M434.1,338.951c-.022-.059-.039-.121-.063-.179.019.1.029.2.044.3.006-.04.012-.08.019-.12" transform="translate(-248.807 -194.197)" fill="#d19f00"/>
        <path id="Trazado_716857" data-name="Trazado 716857" d="M352.107,341.24c0-.024-.011-.047-.015-.071a5.832,5.832,0,0,1-.748,2.063,5.917,5.917,0,0,1-.631.956,8.8,8.8,0,0,1-.749.791,15.666,15.666,0,0,1-1.933,1.624,30.456,30.456,0,0,1-8.341,3.846,62.92,62.92,0,0,1-18.027,2.536,76.675,76.675,0,0,1-9.1-.542,56.944,56.944,0,0,1-8.947-1.825,32.07,32.07,0,0,1-8.407-3.669c-.419-.278-.831-.573-1.23-.886l0,0a12.449,12.449,0,0,1-1.657-1.376,5.629,5.629,0,0,1-1.548-2.817c-.012-.041-.029-.08-.04-.121a4.919,4.919,0,0,1-.108-.536,4.618,4.618,0,0,0,.108,1.845,6.71,6.71,0,0,0,1.032,2.093,13.353,13.353,0,0,0,3.444,3.108,32.042,32.042,0,0,0,8.407,3.669,57,57,0,0,0,8.947,1.826,76.856,76.856,0,0,0,9.1.542,62.922,62.922,0,0,0,18.027-2.536,30.467,30.467,0,0,0,8.341-3.846,11.872,11.872,0,0,0,3.28-3.308,5.822,5.822,0,0,0,.8-2.2l.034-.29c0-.1,0-.2,0-.292a3.777,3.777,0,0,0-.032-.577" transform="translate(-166.57 -195.571)" fill="#d19f00"/>
        <path id="Trazado_716858" data-name="Trazado 716858" d="M272.69,260.238l17.641-14.711s3.2.614,6.328,6.794,1.734,9.121,1.734,9.121l-22.3,5.522Z" transform="translate(-156.316 -140.745)" fill="#b17743"/>
        <path id="Trazado_716859" data-name="Trazado 716859" d="M274.083,265.143l18.453-13.108s2.884-.006,4.922,4.017.327,6.344.327,6.344L276.3,269.521Z" transform="translate(-157.115 -144.476)" fill="#c9905c"/>
        <path id="Trazado_716860" data-name="Trazado 716860" d="M280.021,278.6a11.389,11.389,0,0,0-1.86-2.64l-4.078,2.9,2.218,4.379,4.747-1.574a11.407,11.407,0,0,0-1.028-3.061" transform="translate(-157.115 -158.192)" fill="#b17743"/>
        <path id="Trazado_716861" data-name="Trazado 716861" d="M316.807,256.75a19.9,19.9,0,0,0-3.325-4.715h-.022l-2.876,2.042c.692,1.346,1.533,2.911,2.4,4.612.895,1.766,1.685,3.432,2.38,4.817l3.316-1.1a19.866,19.866,0,0,0-1.869-5.656" transform="translate(-178.039 -144.475)" fill="#b17743"/>
        <path id="Trazado_716862" data-name="Trazado 716862" d="M190.213,281.676h0a4.123,4.123,0,0,0-5.526-1.809l-61.27,31.041a4.111,4.111,0,1,0,3.716,7.335L188.4,287.2a4.123,4.123,0,0,0,1.809-5.526" transform="translate(-69.457 -160.177)" fill="#c9905c"/>
        <path id="Trazado_716863" data-name="Trazado 716863" d="M191.026,283.583h0a3.446,3.446,0,0,0-4.618-1.512l-62.474,31.651a3.436,3.436,0,0,0,3.106,6.131L189.513,288.2a3.446,3.446,0,0,0,1.512-4.618" transform="translate(-69.965 -161.482)" fill="#8a5d34"/>
        <path id="Trazado_716864" data-name="Trazado 716864" d="M193.221,282.687l-.038-.075a2.727,2.727,0,0,0-3.654-1.2l-61.659,31.238a2.727,2.727,0,0,0-1.2,3.654l.038.075a2.727,2.727,0,0,0,3.654,1.2l61.659-31.238a2.727,2.727,0,0,0,1.2-3.654" transform="translate(-72.447 -161.15)" fill="#b17743"/>
        <path id="Trazado_716865" data-name="Trazado 716865" d="M193.365,283.413l-.024-.048a1.742,1.742,0,0,0-2.335-.765L127.6,314.725a1.743,1.743,0,0,0-.765,2.335l.024.048a1.743,1.743,0,0,0,2.335.765l63.41-32.125a1.742,1.742,0,0,0,.765-2.335" transform="translate(-72.598 -161.89)" fill="#c9905c"/>
        <path id="Trazado_716866" data-name="Trazado 716866" d="M231.041,308.585c1.057-.536,2.063-3.618.783-6.144s-4.36-3.538-5.417-3,.309,2.416,1.589,4.942,1.987,4.74,3.045,4.2" transform="translate(-129.568 -171.57)" fill="#8a5d34"/>
        <path id="Trazado_716867" data-name="Trazado 716867" d="M274.576,286.53c1.057-.536,2.063-3.618.783-6.144s-4.36-3.538-5.417-3,.309,2.416,1.589,4.942,1.987,4.74,3.044,4.2" transform="translate(-154.524 -158.927)" fill="#8a5d34"/>
        <path id="Trazado_716868" data-name="Trazado 716868" d="M353.447,280.619a24.743,24.743,0,0,1,8.1-2.582l4.527-2.293,2.2,4.338c1.552,3.064-2.567,8.273-9.2,11.634s-13.271,3.6-14.823.538l-2.2-4.338,4.527-2.293a24.728,24.728,0,0,1,6.872-5" transform="translate(-196.075 -158.067)" fill="#734d2b"/>
        <path id="Trazado_716869" data-name="Trazado 716869" d="M350.81,273.395c-6.634,3.361-10.754,8.57-9.2,11.634s8.189,2.823,14.823-.538,10.754-8.57,9.2-11.634-8.189-2.823-14.823.538" transform="translate(-195.635 -155.18)" fill="#8a5d34"/>
        <path id="Trazado_716870" data-name="Trazado 716870" d="M302.565,204.206l21.559-10.922L341.762,228.1c-1,2.843-4.466,6.215-9.236,8.631-4.692,2.377-9.382,3.191-12.277,2.381Z" transform="translate(-173.442 -110.798)" fill="#b17743"/>
        <path id="Trazado_716871" data-name="Trazado 716871" d="M311.912,204.9l13.581-6.881,18.731,36.971a27.139,27.139,0,0,1-13.564,6.913Z" transform="translate(-178.8 -113.512)" fill="#c9905c"/>
        <path id="Trazado_716872" data-name="Trazado 716872" d="M313.962,241.372l9.5,18.76c2-2.939,3.3-8.149,1.157-12.374s-7.111-6.257-10.661-6.386" transform="translate(-179.975 -138.364)" fill="#b17743"/>
        <path id="Trazado_716873" data-name="Trazado 716873" d="M305.018,185.028a24.744,24.744,0,0,1,8.1-2.582l4.527-2.293,2.2,4.338c1.552,3.064-2.567,8.273-9.2,11.634s-13.271,3.6-14.823.538l-2.2-4.338,4.527-2.293a24.736,24.736,0,0,1,6.872-5" transform="translate(-168.314 -103.271)" fill="#8a5d34"/>
        <path id="Trazado_716874" data-name="Trazado 716874" d="M302.38,177.8c-6.634,3.361-10.754,8.57-9.2,11.634s8.189,2.823,14.823-.538,10.754-8.57,9.2-11.634-8.189-2.823-14.823.538" transform="translate(-167.874 -100.383)" fill="#b17743"/>
        <path id="Trazado_716875" data-name="Trazado 716875" d="M307.594,182.938c-4.964,2.515-8.161,6.184-7.142,8.2s5.869,1.6,10.833-.911,8.162-6.184,7.143-8.2-5.87-1.6-10.833.911" transform="translate(-172.122 -103.612)" fill="#c9905c"/>
        <path id="Trazado_716876" data-name="Trazado 716876" d="M303.448,192.165a4.648,4.648,0,0,0,1.166.266q5.791-5.789,11.592-11.568a14.043,14.043,0,0,0-1.677.271q-5.542,5.514-11.081,11.031" transform="translate(-173.948 -103.678)" fill="#e6b283"/>
        <path id="Trazado_716877" data-name="Trazado 716877" d="M325.267,193.07c.117-.057.234-.11.351-.169a24.2,24.2,0,0,0,2.354-1.366q2.307-2.3,4.61-4.609a3.164,3.164,0,0,0,.361-1.506q-3.84,3.824-7.677,7.649" transform="translate(-186.455 -106.29)" fill="#e6b283"/>
        <path id="Trazado_716878" data-name="Trazado 716878" d="M320.635,213.169c5.881-2.98,9.533-7.6,8.158-10.314l1.948,3.846c1.376,2.717-2.276,7.334-8.158,10.314s-11.765,3.193-13.141.477l-1.948-3.846c1.376,2.716,7.26,2.5,13.141-.477" transform="translate(-176.267 -116.284)" fill="#ffc100"/>
        <path id="Trazado_716879" data-name="Trazado 716879" d="M312.853,230.011c-2.611.192-4.625-.423-5.359-1.871l1.948,3.846c.537,1.06,1.768,1.666,3.411,1.843Z" transform="translate(-176.267 -130.779)" fill="#fada76"/>
        <path id="Trazado_716880" data-name="Trazado 716880" d="M333.542,226.167a24.813,24.813,0,0,1-3.533,1.466v4.373a22.975,22.975,0,0,0,4.712-1.622v-4.855q-.574.329-1.18.638" transform="translate(-189.174 -129.282)" fill="#fada76"/>
        <path id="Trazado_716881" data-name="Trazado 716881" d="M355.685,206.7l-1.948-3.846c.872,1.721-.276,4.2-2.728,6.551v5.476c3.747-2.76,5.754-6.054,4.676-8.181" transform="translate(-201.212 -116.284)" fill="#fada76"/>
        <path id="Trazado_716882" data-name="Trazado 716882" d="M346.594,264.408c5.881-2.98,9.533-7.6,8.157-10.314l1.949,3.846c1.376,2.716-2.276,7.334-8.158,10.314s-11.765,3.193-13.141.477l-1.948-3.846c1.376,2.716,7.26,2.5,13.141-.477" transform="translate(-191.148 -145.656)" fill="#ffc100"/>
        <path id="Trazado_716883" data-name="Trazado 716883" d="M336.7,281.21a3.951,3.951,0,0,1-3.243-1.832l1.948,3.846a2.95,2.95,0,0,0,1.294,1.258Z" transform="translate(-191.148 -160.15)" fill="#fada76"/>
        <path id="Trazado_716884" data-name="Trazado 716884" d="M356.658,276.521a23.375,23.375,0,0,1-5.649,2.036v4.14a21.481,21.481,0,0,0,7.6-2.331c.107-.054.211-.11.316-.165v-4.977a25.472,25.472,0,0,1-2.264,1.3" transform="translate(-201.212 -157.769)" fill="#fada76"/>
        <path id="Trazado_716885" data-name="Trazado 716885" d="M383.1,257.94l-1.948-3.846c.731,1.443.043,3.422-1.644,5.408v5.763c3.036-2.561,4.56-5.414,3.592-7.326" transform="translate(-217.548 -145.656)" fill="#fada76"/>
        <path id="Trazado_716886" data-name="Trazado 716886" d="M322.018,260.824c1.057-.536,1.089-5.54-1.392-10.436s-6.535-7.831-7.592-7.3,1.283,4.338,3.764,9.234,4.162,9.033,5.219,8.5" transform="translate(-179.294 -139.314)" fill="#8a5d34"/>
        <path id="Trazado_716887" data-name="Trazado 716887" d="M174.61,337.175c1.057-.536,2.063-3.618.783-6.144s-4.36-3.538-5.417-3,.309,2.416,1.589,4.942,1.987,4.74,3.045,4.2" transform="translate(-97.22 -187.959)" fill="#8a5d34"/>
      </g>
    </g>
  </g>
</svg>
