<svg xmlns="http://www.w3.org/2000/svg" xmlns:xlink="http://www.w3.org/1999/xlink" width="96" height="95" viewBox="0 0 96 95">
  <defs>
    <linearGradient id="linear-gradient" x1="0.5" x2="0.5" y2="1" gradientUnits="objectBoundingBox">
      <stop offset="0" stop-color="#fff"/>
      <stop offset="1" stop-color="#e9e9e9"/>
    </linearGradient>
    <filter id="Elipse_8023" x="0" y="0" width="96" height="95" filterUnits="userSpaceOnUse">
      <feOffset dy="3" input="SourceAlpha"/>
      <feGaussianBlur stdDeviation="3" result="blur"/>
      <feFlood flood-opacity="0.161"/>
      <feComposite operator="in" in2="blur"/>
      <feComposite in="SourceGraphic"/>
    </filter>
  </defs>
  <g id="Grupo_1018111" data-name="Grupo 1018111" transform="translate(-8597 -7695.116)">
    <g id="Grupo_1018012" data-name="Grupo 1018012">
      <g transform="matrix(1, 0, 0, 1, 8597, 7695.12)" filter="url(#Elipse_8023)">
        <ellipse id="Elipse_8023-2" data-name="Elipse 8023" cx="39" cy="38.5" rx="39" ry="38.5" transform="translate(9 6)" fill="url(#linear-gradient)"/>
      </g>
      <g id="pulgares-para-arriba" transform="translate(8611.5 7704.115)">
        <path id="Trazado_716706" data-name="Trazado 716706" d="M67.276,44.5A33.256,33.256,0,0,1,6.45,63.091,38.247,38.247,0,0,1,1.485,50.469a37.479,37.479,0,0,1-.379-10.724A33.256,33.256,0,0,1,67.276,44.5Zm0,0" transform="translate(-0.769 -9.749)" fill="#12263f"/>
        <path id="Trazado_716707" data-name="Trazado 716707" d="M294.535,4.77a16.288,16.288,0,1,1-23.034,0A16.288,16.288,0,0,1,294.535,4.77Zm0,0" transform="translate(-231.305 0)" fill="#00b96f"/>
        <path id="Trazado_716708" data-name="Trazado 716708" d="M315.636,4.774a16.29,16.29,0,0,1,1.5,21.3A16.288,16.288,0,0,1,294.331,3.272a16.29,16.29,0,0,1,21.3,1.5Zm0,0" transform="translate(-252.407 -0.004)" fill="#54d680"/>
        <path id="Trazado_716709" data-name="Trazado 716709" d="M350.522,42.206,337.28,55.448a2.394,2.394,0,0,1-3.386,0l-3.629-3.628L327.3,48.856a2.394,2.394,0,0,1,3.386-3.386l4.9,4.9,11.55-11.55a2.394,2.394,0,1,1,3.385,3.386Zm0,0" transform="translate(-283.224 -33.056)" fill="#cee284"/>
        <path id="Trazado_716710" data-name="Trazado 716710" d="M362.6,38.817a2.393,2.393,0,0,1,0,3.385L351.2,53.6a2.393,2.393,0,0,1-3.386,0L341.226,47a2.392,2.392,0,0,1-.649-2.186,2.392,2.392,0,0,1,2.186.649l4.9,4.9,11.55-11.55a2.394,2.394,0,0,1,3.386,0Zm0,0" transform="translate(-295.3 -33.054)" fill="#fff5f5"/>
        <path id="Trazado_716711" data-name="Trazado 716711" d="M157.765,122.235a.363.363,0,0,0,0,.64,2.713,2.713,0,0,1,1.438,2.395v1.357a2.712,2.712,0,0,1-1.438,2.394.363.363,0,0,0,0,.64,2.713,2.713,0,0,1,1.438,2.395v1.357a2.712,2.712,0,0,1-1.438,2.394.363.363,0,0,0,0,.64,2.713,2.713,0,0,1,1.438,2.395V140.2a2.714,2.714,0,0,1-2.715,2.714h-14.5a9.38,9.38,0,0,1-5.66-1.9,9.379,9.379,0,0,0-5.66-1.9h-11.1V121.469H129.2a5.429,5.429,0,0,0,4.7-2.714l4.592-7.954a4.073,4.073,0,0,0,.545-2.036v-4.533a2.036,2.036,0,0,1,2.036-2.036,4.75,4.75,0,0,1,4.75,4.751V109.5a8.144,8.144,0,0,1-1.1,4.088l-.908,1.564a.407.407,0,0,0,.352.612h12.318a2.715,2.715,0,0,1,2.715,2.715v1.357a2.712,2.712,0,0,1-1.438,2.394Zm0,0" transform="translate(-103.689 -88.623)" fill="#ffdfcf"/>
        <path id="Trazado_716712" data-name="Trazado 716712" d="M268.689,102.738v2.714a1.357,1.357,0,0,1-1.357,1.357h-1.16v-2.579a2.036,2.036,0,0,1,2.036-2.036c.127,0,.252.006.376.016A1.362,1.362,0,0,1,268.689,102.738Zm0,0" transform="translate(-230.821 -88.622)" fill="#ffeee6"/>
        <path id="Trazado_716713" data-name="Trazado 716713" d="M148.344,236.408a1.357,1.357,0,0,1,1.357-1.357h9.5a2.712,2.712,0,0,1-1.438,2.394.363.363,0,0,0-.191.32H149.7a1.357,1.357,0,0,1-1.357-1.357Zm8.144,17.374h-14.5a9.38,9.38,0,0,1-5.66-1.9,9.379,9.379,0,0,0-5.66-1.9h-11.1v4.343h11.1a9.379,9.379,0,0,1,5.66,1.9,9.38,9.38,0,0,0,5.66,1.9h14.5a2.714,2.714,0,0,0,2.715-2.714v-1.357a2.691,2.691,0,0,0-.45-1.49,2.713,2.713,0,0,1-2.265,1.219Zm-8.144-3.8a1.357,1.357,0,0,0,1.357,1.357h7.872a.363.363,0,0,1,.191-.32,2.712,2.712,0,0,0,1.438-2.394h-9.5a1.357,1.357,0,0,0-1.357,1.357Zm0-6.786a1.357,1.357,0,0,0,1.357,1.357h7.872a.363.363,0,0,1,.191-.32,2.712,2.712,0,0,0,1.438-2.394h-9.5a1.357,1.357,0,0,0-1.357,1.357Zm0,0" transform="translate(-103.69 -203.833)" fill="#ffc9c0"/>
        <path id="Trazado_716714" data-name="Trazado 716714" d="M21.309,216.645v22.26a2.036,2.036,0,0,1-2.036,2.036H12.487a2.036,2.036,0,0,1-1.961-1.493H5.681A33.1,33.1,0,0,1,0,220.853,33.521,33.521,0,0,1,.339,216.1H10.526a2.036,2.036,0,0,1,1.961-1.493h6.786a2.036,2.036,0,0,1,2.036,2.036Zm0,0" transform="translate(0 -186.106)" fill="#ff393a"/>
        <path id="Trazado_716715" data-name="Trazado 716715" d="M0,220.853A33.522,33.522,0,0,1,.337,216.1H6.379v16.653a2.036,2.036,0,0,1-2.036,2.036H3.053A33.126,33.126,0,0,1,0,220.853Zm10.451-4.207V234.29a2.036,2.036,0,0,0,2.036,2.036h6.786a2.036,2.036,0,0,0,2.036-2.036V216.646a2.036,2.036,0,0,0-2.036-2.036H12.487A2.036,2.036,0,0,0,10.451,216.646Zm0,0" transform="translate(0 -186.106)" fill="#ff6466"/>
      </g>
    </g>
  </g>
</svg>
