<svg xmlns="http://www.w3.org/2000/svg" xmlns:xlink="http://www.w3.org/1999/xlink" width="96" height="95" viewBox="0 0 96 95">
  <defs>
    <linearGradient id="linear-gradient" x1="0.5" x2="0.5" y2="1" gradientUnits="objectBoundingBox">
      <stop offset="0" stop-color="#fff"/>
      <stop offset="1" stop-color="#e9e9e9"/>
    </linearGradient>
    <filter id="Elipse_8021" x="0" y="0" width="96" height="95" filterUnits="userSpaceOnUse">
      <feOffset dy="3" input="SourceAlpha"/>
      <feGaussianBlur stdDeviation="3" result="blur"/>
      <feFlood flood-opacity="0.161"/>
      <feComposite operator="in" in2="blur"/>
      <feComposite in="SourceGraphic"/>
    </filter>
  </defs>
  <g id="Grupo_1018113" data-name="Grupo 1018113" transform="translate(-8719 -8208.287)">
    <g transform="matrix(1, 0, 0, 1, 8719, 8208.29)" filter="url(#Elipse_8021)">
      <ellipse id="Elipse_8021-2" data-name="Elipse 8021" cx="39" cy="38.5" rx="39" ry="38.5" transform="translate(9 6)" fill="url(#linear-gradient)"/>
    </g>
    <g id="pastillas" transform="translate(8732 8218.072)">
      <path id="Trazado_716716" data-name="Trazado 716716" d="M.633,36.362a.625.625,0,0,1-.625-.612Q0,35.376,0,35a35,35,0,0,1,70,0q0,.306-.005.611a.766.766,0,0,1-.766.751Z" transform="translate(0 0)" fill="#20b7a1"/>
      <path id="Trazado_716717" data-name="Trazado 716717" d="M17.5,86.629a.488.488,0,0,1-.488-.478q-.006-.292-.006-.586a27.338,27.338,0,1,1,54.675,0q0,.239,0,.477a.6.6,0,0,1-.6.587H17.5Z" transform="translate(-14.682 -50.266)" fill="#24d3b5"/>
      <path id="Trazado_716718" data-name="Trazado 716718" d="M70.023,260A35,35,0,0,1,.031,260Z" transform="translate(-0.027 -224.453)" fill="#3d4ec6"/>
      <path id="Trazado_716719" data-name="Trazado 716719" d="M125.281,189.115h-22.43V163.17h22.43Z" transform="translate(-88.789 -140.862)" fill="#ffc14f"/>
      <path id="Trazado_716720" data-name="Trazado 716720" d="M107.5,189.115H102.85V163.17H107.5Z" transform="translate(-88.788 -140.862)" fill="#ffa90b"/>
      <path id="Trazado_716721" data-name="Trazado 716721" d="M123.913,128.841h-19.7a1.367,1.367,0,0,1-1.367-1.367v-3.747a1.367,1.367,0,0,1,1.367-1.367h19.7a1.367,1.367,0,0,1,1.367,1.367v3.747A1.367,1.367,0,0,1,123.913,128.841Z" transform="translate(-88.789 -105.631)" fill="#a7d0fc"/>
      <path id="Trazado_716722" data-name="Trazado 716722" d="M157.955,128.841h-19.7a1.367,1.367,0,0,1-1.367-1.367v-3.747a1.367,1.367,0,0,1,1.367-1.367h19.7a1.367,1.367,0,0,1,1.367,1.367v3.747A1.367,1.367,0,0,1,157.955,128.841Z" transform="translate(-118.177 -105.631)" fill="#c8e2fd"/>
      <path id="Trazado_716723" data-name="Trazado 716723" d="M109.118,153.771H87.08a1.367,1.367,0,0,1,0-2.734h22.038a1.367,1.367,0,1,1,0,2.734Z" transform="translate(-73.994 -130.387)" fill="#c8e2fd"/>
      <path id="Trazado_716724" data-name="Trazado 716724" d="M145.39,153.771H123.351a1.367,1.367,0,0,1,0-2.734h22.038a1.367,1.367,0,0,1,0,2.734Z" transform="translate(-105.306 -130.387)" fill="#e9f3fe"/>
      <path id="Trazado_716725" data-name="Trazado 716725" d="M265.945,66.777V80.586a4.1,4.1,0,0,1-4.1,4.1H238.6a4.1,4.1,0,0,1-4.1-4.1V42.578a4.1,4.1,0,0,1,4.1-4.1h1.914a2.051,2.051,0,0,0,2.051-2.051V30h9.57V62.676h9.707A4.1,4.1,0,0,1,265.945,66.777Z" transform="translate(-202.439 -25.898)" fill="#f44545"/>
      <path id="Trazado_716726" data-name="Trazado 716726" d="M341.547,45.868V61.445s1.118,4.357.908,5.149A9.64,9.64,0,0,1,323.5,64.111V30h11.211v6.426a2.051,2.051,0,0,0,2.051,2.051h1.914a4.1,4.1,0,0,1,4.1,4.1v1.094Z" transform="translate(-279.271 -25.898)" fill="#fb5858"/>
      <path id="Trazado_716727" data-name="Trazado 716727" d="M298.812,1.367V8.2a1.367,1.367,0,0,1-1.367,1.367H284.867A1.367,1.367,0,0,1,283.5,8.2V1.367A1.367,1.367,0,0,1,284.867,0h12.578A1.367,1.367,0,0,1,298.812,1.367Z" transform="translate(-244.74 0)" fill="#a7d0fc"/>
      <path id="Trazado_716728" data-name="Trazado 716728" d="M318.812,1.367V8.2a1.367,1.367,0,0,1-1.367,1.367H304.867A1.367,1.367,0,0,1,303.5,8.2V1.367A1.367,1.367,0,0,1,304.867,0h12.578A1.367,1.367,0,0,1,318.812,1.367Z" transform="translate(-262.006 0)" fill="#c8e2fd"/>
      <path id="Trazado_716729" data-name="Trazado 716729" d="M301.336,10.684v5.469a.684.684,0,0,1-1.367,0V10.684a.684.684,0,0,1,1.367,0ZM297.918,10a.684.684,0,0,0-.684.684v5.469a.684.684,0,0,0,1.367,0V10.684A.684.684,0,0,0,297.918,10Zm-2.734,0a.684.684,0,0,0-.684.684v5.469a.684.684,0,0,0,1.367,0V10.684A.684.684,0,0,0,295.184,10Zm13.672,0a.684.684,0,0,0-.684.684v5.469a.684.684,0,0,0,1.367,0V10.684A.684.684,0,0,0,308.855,10Zm-2.734,0a.684.684,0,0,0-.684.684v5.469a.684.684,0,0,0,1.367,0V10.684A.684.684,0,0,0,306.121,10Zm-2.734,0a.684.684,0,0,0-.684.684v5.469a.684.684,0,0,0,1.367,0V10.684A.684.684,0,0,0,303.387,10Z" transform="translate(-254.236 -8.633)" fill="#86befb"/>
      <path id="Trazado_716730" data-name="Trazado 716730" d="M334.641,132.051v19.141a2.051,2.051,0,0,1-2.051,2.051H317.551a2.051,2.051,0,0,1-2.051-2.051V132.051A2.051,2.051,0,0,1,317.551,130H332.59A2.051,2.051,0,0,1,334.641,132.051Z" transform="translate(-272.365 -112.227)" fill="#c8e2fd"/>
      <path id="Trazado_716731" data-name="Trazado 716731" d="M364.359,130v23.242H350.551a2.051,2.051,0,0,1-2.051-2.051V132.051A2.051,2.051,0,0,1,350.551,130Z" transform="translate(-300.854 -112.227)" fill="#e9f3fe"/>
      <path id="Trazado_716732" data-name="Trazado 716732" d="M385.5,231.684a.684.684,0,0,1,.684-.684h5.469a.684.684,0,0,1,0,1.367h-5.469A.684.684,0,0,1,385.5,231.684Zm6.152,2.051h-5.469a.684.684,0,0,0,0,1.367h5.469a.684.684,0,0,0,0-1.367Zm0,2.734h-5.469a.684.684,0,0,0,0,1.367h5.469a.684.684,0,0,0,0-1.367Z" transform="translate(-332.795 -199.418)" fill="#a7d0fc"/>
      <path id="Trazado_716733" data-name="Trazado 716733" d="M64.767,229.051v26.934a2.051,2.051,0,0,1-2.051,2.051H18.966a2.051,2.051,0,0,1-2.051-2.051V229.051A2.051,2.051,0,0,1,18.966,227h43.75A2.051,2.051,0,0,1,64.767,229.051Z" transform="translate(-14.602 -195.965)" fill="#8c96dd"/>
      <path id="Trazado_716734" data-name="Trazado 716734" d="M176.993,229.051v26.934a2.051,2.051,0,0,1-2.051,2.051h-12.51a15.518,15.518,0,0,1,0-31.035h12.51A2.051,2.051,0,0,1,176.993,229.051Z" transform="translate(-126.829 -195.965)" fill="#a6aee5"/>
      <path id="Trazado_716735" data-name="Trazado 716735" d="M80.384,262.373a1.025,1.025,0,0,1-1.025,1.025h-37.6a1.025,1.025,0,1,1,0-2.051h37.6A1.025,1.025,0,0,1,80.384,262.373ZM66.256,258.2a4.1,4.1,0,1,0-4.1-4.1A4.1,4.1,0,0,0,66.256,258.2Zm11.12,0a4.1,4.1,0,1,0-4.1-4.1A4.1,4.1,0,0,0,77.376,258.2Zm-33.359,0a4.1,4.1,0,1,0-4.1-4.1A4.1,4.1,0,0,0,44.017,258.2Zm11.12,0a4.1,4.1,0,1,0-4.1-4.1A4.1,4.1,0,0,0,55.136,258.2Zm11.12,8.2a4.1,4.1,0,1,0,4.1,4.1A4.1,4.1,0,0,0,66.256,266.406Zm11.12,0a4.1,4.1,0,1,0,4.1,4.1A4.1,4.1,0,0,0,77.376,266.406Zm-33.359,0a4.1,4.1,0,1,0,4.1,4.1A4.1,4.1,0,0,0,44.017,266.406Zm11.12,0a4.1,4.1,0,1,0,4.1,4.1A4.1,4.1,0,0,0,55.136,266.406Z" transform="translate(-34.458 -215.82)" fill="#717ed6"/>
      <path id="Trazado_716736" data-name="Trazado 716736" d="M293.748,154.505c1.089,1.089.5,3.444-1.315,5.259s-4.17,2.4-5.259,1.315-.5-3.444,1.315-5.259S292.658,153.416,293.748,154.505ZM281.58,192.65c-1.089-1.089-3.444-.5-5.259,1.315s-2.4,4.17-1.315,5.259,3.444.5,5.259-1.315S282.669,193.739,281.58,192.65Z" transform="translate(-236.935 -132.91)" fill="#ffa90b"/>
      <path id="Trazado_716737" data-name="Trazado 716737" d="M307.014,154.506c.949.949.624,2.857-.674,4.533a2.777,2.777,0,0,1-3.516-.309l-.017-.017-.017-.017a2.777,2.777,0,0,1-.309-3.516C304.156,153.881,306.065,153.557,307.014,154.506ZM294.846,192.65c-.949-.949-2.857-.625-4.533.674a2.777,2.777,0,0,0,.309,3.516l.017.017.017.017a2.777,2.777,0,0,0,3.516.309C295.47,195.507,295.794,193.6,294.846,192.65Z" transform="translate(-250.201 -132.91)" fill="#ffc14f"/>
      <path id="Trazado_716738" data-name="Trazado 716738" d="M77.623,262.734A2.734,2.734,0,1,1,74.889,260,2.734,2.734,0,0,1,77.623,262.734Zm8.385,2.734a2.734,2.734,0,1,0-2.734-2.734A2.734,2.734,0,0,0,86.009,265.469ZM52.649,260a2.734,2.734,0,1,0,2.734,2.734A2.734,2.734,0,0,0,52.649,260Zm11.12,0a2.734,2.734,0,1,0,2.734,2.734A2.734,2.734,0,0,0,63.769,260Zm11.12,16.406a2.734,2.734,0,1,0,2.734,2.734A2.734,2.734,0,0,0,74.889,276.406Zm11.12,0a2.734,2.734,0,1,0,2.734,2.734A2.734,2.734,0,0,0,86.009,276.406Zm-33.359,0a2.734,2.734,0,1,0,2.734,2.734A2.734,2.734,0,0,0,52.649,276.406Zm11.12,0a2.734,2.734,0,1,0,2.734,2.734A2.734,2.734,0,0,0,63.769,276.406Zm28.745,11.484a2.734,2.734,0,1,1-2.734-2.734A2.734,2.734,0,0,1,92.515,287.891Z" transform="translate(-43.091 -224.453)" fill="#c8e2fd"/>
      <path id="Trazado_716739" data-name="Trazado 716739" d="M87.983,262.734a2.73,2.73,0,0,1-.163.931,2.736,2.736,0,0,1-3.5-3.5,2.736,2.736,0,0,1,3.665,2.572Zm10.026,1.094a2.732,2.732,0,0,0,.931-.163,2.736,2.736,0,0,0-3.5-3.5,2.736,2.736,0,0,0,2.572,3.666Zm-35-3.828a2.732,2.732,0,0,0-.931.163,2.736,2.736,0,0,0,3.5,3.5A2.736,2.736,0,0,0,63.009,260Zm11.12,0a2.732,2.732,0,0,0-.931.163,2.736,2.736,0,0,0,3.5,3.5A2.736,2.736,0,0,0,74.129,260Zm11.12,16.406a2.732,2.732,0,0,0-.931.163,2.736,2.736,0,0,0,3.5,3.5,2.736,2.736,0,0,0-2.572-3.666Zm11.12,0a2.732,2.732,0,0,0-.931.163,2.736,2.736,0,0,0,3.5,3.5,2.736,2.736,0,0,0-2.572-3.666Zm-33.359,0a2.732,2.732,0,0,0-.931.163,2.736,2.736,0,0,0,3.5,3.5,2.736,2.736,0,0,0-2.572-3.666Zm11.12,0a2.732,2.732,0,0,0-.931.163,2.736,2.736,0,0,0,3.5,3.5,2.736,2.736,0,0,0-2.572-3.666Zm28.745,11.484a2.73,2.73,0,0,1-.163.931,2.736,2.736,0,0,1-3.5-3.5,2.736,2.736,0,0,1,3.665,2.572Z" transform="translate(-53.45 -224.453)" fill="#e9f3fe"/>
    </g>
  </g>
</svg>
