<svg xmlns="http://www.w3.org/2000/svg" width="267" height="196" viewBox="0 0 267 196">
  <g id="Grupo_1018093" data-name="Grupo 1018093" transform="translate(-3351.417 -15309.612)">
    <g id="Grupo_1017951" data-name="Grupo 1017951" transform="translate(-2092.583 -2659.825)">
      <path id="Trazado_717467" data-name="Trazado 717467" d="M13.117,15H10.836V3.625h2.281Zm4.539-4.125V15H15.375V3.625h4.352a4.48,4.48,0,0,1,3.086,1,3.353,3.353,0,0,1,1.125,2.633,3.329,3.329,0,0,1-1.125,2.625,4.5,4.5,0,0,1-3.086.992Zm0-1.758h2.07a1.9,1.9,0,0,0,1.445-.52,1.848,1.848,0,0,0,.492-1.324,1.934,1.934,0,0,0-.488-1.355,1.864,1.864,0,0,0-1.449-.535h-2.07ZM34.1,11.234l.016.047a3.561,3.561,0,0,1-1.109,2.852,4.523,4.523,0,0,1-3.148,1.031,4.361,4.361,0,0,1-3.3-1.316,4.722,4.722,0,0,1-1.258-3.4V8.188a4.809,4.809,0,0,1,1.227-3.4,4.182,4.182,0,0,1,3.219-1.324,4.8,4.8,0,0,1,3.25,1.016,3.5,3.5,0,0,1,1.141,2.859l-.016.047H31.9a2.236,2.236,0,0,0-.527-1.629,2.2,2.2,0,0,0-1.629-.535,1.839,1.839,0,0,0-1.6.824,3.645,3.645,0,0,0-.574,2.129v2.273a3.538,3.538,0,0,0,.605,2.141,1.968,1.968,0,0,0,1.684.828,2,2,0,0,0,1.527-.535,2.328,2.328,0,0,0,.5-1.645ZM38.109,15H35.828V13h2.281Zm0-6.844H35.828v-2h2.281Zm11.156,4.57a1.026,1.026,0,0,0-.387-.828,3.732,3.732,0,0,0-1.465-.562,6.146,6.146,0,0,1-2.293-.9,1.814,1.814,0,0,1-.8-1.547A2.229,2.229,0,0,1,45.2,7.125a3.879,3.879,0,0,1,4.605.047,2.239,2.239,0,0,1,.852,1.82l-.016.047H49.172a1.331,1.331,0,0,0-.48-.992A1.717,1.717,0,0,0,47.477,7.6a1.751,1.751,0,0,0-1.215.367,1.146,1.146,0,0,0-.4.875.927.927,0,0,0,.348.773,3.848,3.848,0,0,0,1.434.5,6.058,6.058,0,0,1,2.359.93,1.872,1.872,0,0,1,.8,1.57,2.226,2.226,0,0,1-.91,1.836,3.754,3.754,0,0,1-2.379.711,3.715,3.715,0,0,1-2.547-.82,2.341,2.341,0,0,1-.883-1.914l.016-.047H45.57a1.424,1.424,0,0,0,.609,1.2,2.358,2.358,0,0,0,1.336.379,2.1,2.1,0,0,0,1.285-.348A1.063,1.063,0,0,0,49.266,12.727Zm8.82,1.016a2.884,2.884,0,0,1-1.027,1.051,2.782,2.782,0,0,1-1.441.371,2.716,2.716,0,0,1-2.156-.883,4.1,4.1,0,0,1-.773-2.75V6.547h1.539v5a3.147,3.147,0,0,0,.4,1.859,1.481,1.481,0,0,0,1.242.508,2.508,2.508,0,0,0,1.355-.336,2.094,2.094,0,0,0,.809-.953V6.547H59.57V15H58.188Zm5.1-7.2L63.3,7.656a2.871,2.871,0,0,1,1.051-.934,3.158,3.158,0,0,1,1.48-.332,2.615,2.615,0,0,1,1.449.391,2.363,2.363,0,0,1,.91,1.172,3.162,3.162,0,0,1,1.059-1.145,2.769,2.769,0,0,1,1.527-.418,2.531,2.531,0,0,1,2.039.887,4.051,4.051,0,0,1,.75,2.668V15H72.023V9.93a2.81,2.81,0,0,0-.43-1.77,1.567,1.567,0,0,0-1.281-.52,1.631,1.631,0,0,0-1.277.547,2.381,2.381,0,0,0-.574,1.383V15H66.914V9.93a2.772,2.772,0,0,0-.441-1.738,1.532,1.532,0,0,0-1.27-.551,2.115,2.115,0,0,0-1.156.289,1.867,1.867,0,0,0-.7.813V15H61.813V6.547ZM80.992,15q-.078-.383-.121-.676a4.96,4.96,0,0,1-.051-.59,3.589,3.589,0,0,1-1.121,1.02,2.867,2.867,0,0,1-1.488.41,2.763,2.763,0,0,1-2.012-.676,2.486,2.486,0,0,1-.691-1.863,2.183,2.183,0,0,1,.98-1.895,4.579,4.579,0,0,1,2.66-.684H80.82V9.211a1.551,1.551,0,0,0-.453-1.176A1.779,1.779,0,0,0,79.086,7.6a1.859,1.859,0,0,0-1.211.375,1.125,1.125,0,0,0-.461.9l-1.461.016-.016-.047A2.023,2.023,0,0,1,76.8,7.156a3.578,3.578,0,0,1,2.371-.766,3.49,3.49,0,0,1,2.313.73,2.588,2.588,0,0,1,.875,2.105V13.3a7.923,7.923,0,0,0,.047.875,4.5,4.5,0,0,0,.172.828Zm-2.555-1.125a2.739,2.739,0,0,0,1.508-.43,2.042,2.042,0,0,0,.875-.984V11.086H79.094a2.24,2.24,0,0,0-1.488.469,1.4,1.4,0,0,0-.559,1.1,1.159,1.159,0,0,0,.352.891A1.472,1.472,0,0,0,78.438,13.875ZM90.531,4.508V6.547h1.6V7.688h-1.6V12.82a1.149,1.149,0,0,0,.246.836.89.89,0,0,0,.652.242,1.54,1.54,0,0,0,.293-.031,1.793,1.793,0,0,0,.285-.078l.211,1.055a1.446,1.446,0,0,1-.516.23,2.562,2.562,0,0,1-.664.09,2,2,0,0,1-1.488-.566,2.449,2.449,0,0,1-.559-1.777V7.688H87.656V6.547h1.336V4.508ZM93.313,10.7a4.654,4.654,0,0,1,1.016-3.09,3.764,3.764,0,0,1,5.535,0,4.639,4.639,0,0,1,1.02,3.094v.172a4.631,4.631,0,0,1-1.016,3.094,3.781,3.781,0,0,1-5.535,0,4.623,4.623,0,0,1-1.02-3.09Zm1.539.172a4.009,4.009,0,0,0,.566,2.219,2.046,2.046,0,0,0,3.355,0,3.988,3.988,0,0,0,.57-2.219V10.7a3.976,3.976,0,0,0-.574-2.211A1.882,1.882,0,0,0,97.086,7.6a1.856,1.856,0,0,0-1.668.883,4.018,4.018,0,0,0-.566,2.211Zm9.875-6.359V6.547h1.6V7.688h-1.6V12.82a1.149,1.149,0,0,0,.246.836.89.89,0,0,0,.652.242,1.54,1.54,0,0,0,.293-.031,1.793,1.793,0,0,0,.285-.078l.211,1.055a1.446,1.446,0,0,1-.516.23,2.562,2.562,0,0,1-.664.09,2,2,0,0,1-1.488-.566,2.449,2.449,0,0,1-.559-1.777V7.688h-1.336V6.547h1.336V4.508ZM113.063,15q-.078-.383-.121-.676a4.96,4.96,0,0,1-.051-.59,3.589,3.589,0,0,1-1.121,1.02,2.867,2.867,0,0,1-1.488.41,2.763,2.763,0,0,1-2.012-.676,2.486,2.486,0,0,1-.691-1.863,2.183,2.183,0,0,1,.98-1.895,4.579,4.579,0,0,1,2.66-.684h1.672V9.211a1.551,1.551,0,0,0-.453-1.176,1.779,1.779,0,0,0-1.281-.434,1.859,1.859,0,0,0-1.211.375,1.125,1.125,0,0,0-.461.9l-1.461.016-.016-.047a2.023,2.023,0,0,1,.863-1.687,3.578,3.578,0,0,1,2.371-.766,3.49,3.49,0,0,1,2.313.73,2.588,2.588,0,0,1,.875,2.105V13.3a7.923,7.923,0,0,0,.047.875,4.5,4.5,0,0,0,.172.828Zm-2.555-1.125a2.739,2.739,0,0,0,1.508-.43,2.042,2.042,0,0,0,.875-.984V11.086h-1.727a2.24,2.24,0,0,0-1.488.469,1.4,1.4,0,0,0-.559,1.1,1.159,1.159,0,0,0,.352.891A1.472,1.472,0,0,0,110.508,13.875ZM118.328,15h-1.539V2.813h1.539Zm8.008,0H124.8V6.547h1.539Zm0-10.617H124.8V2.813h1.539Zm3.742,2.164.109,1.258a3.069,3.069,0,0,1,1.059-1.043,2.824,2.824,0,0,1,1.449-.371,2.759,2.759,0,0,1,2.117.8,3.515,3.515,0,0,1,.75,2.473V15h-1.539V9.7a2.287,2.287,0,0,0-.441-1.586,1.768,1.768,0,0,0-1.348-.469,2.386,2.386,0,0,0-1.207.285,2.072,2.072,0,0,0-.785.8V15H128.7V6.547Zm9.68-2.039V6.547h1.6V7.688h-1.6V12.82a1.149,1.149,0,0,0,.246.836.89.89,0,0,0,.652.242,1.54,1.54,0,0,0,.293-.031,1.793,1.793,0,0,0,.285-.078l.211,1.055a1.446,1.446,0,0,1-.516.23,2.562,2.562,0,0,1-.664.09,2,2,0,0,1-1.488-.566,2.449,2.449,0,0,1-.559-1.777V7.688h-1.336V6.547h1.336V4.508Zm6.8,10.656A3.8,3.8,0,0,1,143.605,14a4.36,4.36,0,0,1-1.066-3.059v-.344a4.386,4.386,0,0,1,1.051-3.012,3.3,3.3,0,0,1,2.566-1.191A3.067,3.067,0,0,1,148.7,7.445a4.345,4.345,0,0,1,.848,2.8v.813h-5.406l-.016.039a3.281,3.281,0,0,0,.6,2.063,2.164,2.164,0,0,0,1.84.8,3.76,3.76,0,0,0,1.219-.16,8.108,8.108,0,0,0,1.07-.488l.383,1.086a4.459,4.459,0,0,1-1.027.535A4.749,4.749,0,0,1,146.563,15.164ZM146.156,7.6a1.673,1.673,0,0,0-1.332.621,2.938,2.938,0,0,0-.645,1.59l.016.039h3.813V9.727a2.462,2.462,0,0,0-.453-1.523A1.638,1.638,0,0,0,146.156,7.6Zm9.117.3-.789-.047a1.762,1.762,0,0,0-1.027.289,1.855,1.855,0,0,0-.645.813V15h-1.539V6.547h1.375l.109,1.313a2.968,2.968,0,0,1,.891-1.078,2.074,2.074,0,0,1,1.25-.391,1.9,1.9,0,0,1,.328.027,2.174,2.174,0,0,1,.258.059Zm4.7,4.6.133.594h.047l.148-.594,1.945-5.961h1.57L160.711,15h-1.164L156.4,6.547h1.578ZM170.164,15q-.078-.383-.121-.676a4.96,4.96,0,0,1-.051-.59,3.588,3.588,0,0,1-1.121,1.02,2.867,2.867,0,0,1-1.488.41,2.763,2.763,0,0,1-2.012-.676,2.486,2.486,0,0,1-.691-1.863,2.183,2.183,0,0,1,.98-1.895,4.579,4.579,0,0,1,2.66-.684h1.672V9.211a1.551,1.551,0,0,0-.453-1.176,1.779,1.779,0,0,0-1.281-.434,1.859,1.859,0,0,0-1.211.375,1.125,1.125,0,0,0-.461.9l-1.461.016-.016-.047a2.023,2.023,0,0,1,.863-1.687,3.578,3.578,0,0,1,2.371-.766,3.49,3.49,0,0,1,2.313.73,2.588,2.588,0,0,1,.875,2.105V13.3a7.923,7.923,0,0,0,.047.875,4.5,4.5,0,0,0,.172.828Zm-2.555-1.125a2.739,2.739,0,0,0,1.508-.43,2.042,2.042,0,0,0,.875-.984V11.086h-1.727a2.24,2.24,0,0,0-1.488.469,1.4,1.4,0,0,0-.559,1.1,1.159,1.159,0,0,0,.352.891A1.472,1.472,0,0,0,167.609,13.875ZM175.43,15h-1.539V2.813h1.539Zm2.008-4.3a4.654,4.654,0,0,1,1.016-3.09,3.764,3.764,0,0,1,5.535,0,4.639,4.639,0,0,1,1.02,3.094v.172a4.631,4.631,0,0,1-1.016,3.094,3.781,3.781,0,0,1-5.535,0,4.623,4.623,0,0,1-1.02-3.09Zm1.539.172a4.009,4.009,0,0,0,.566,2.219,2.046,2.046,0,0,0,3.355,0,3.988,3.988,0,0,0,.57-2.219V10.7a3.976,3.976,0,0,0-.574-2.211,1.882,1.882,0,0,0-1.684-.883,1.856,1.856,0,0,0-1.668.883,4.018,4.018,0,0,0-.566,2.211ZM191.8,12.727a1.026,1.026,0,0,0-.387-.828,3.732,3.732,0,0,0-1.465-.562,6.146,6.146,0,0,1-2.293-.9,1.814,1.814,0,0,1-.8-1.547,2.229,2.229,0,0,1,.879-1.766,3.879,3.879,0,0,1,4.605.047,2.239,2.239,0,0,1,.852,1.82l-.016.047h-1.469a1.331,1.331,0,0,0-.48-.992,1.717,1.717,0,0,0-1.215-.445,1.751,1.751,0,0,0-1.215.367,1.146,1.146,0,0,0-.4.875.927.927,0,0,0,.348.773,3.848,3.848,0,0,0,1.434.5,6.058,6.058,0,0,1,2.359.93,1.872,1.872,0,0,1,.8,1.57,2.226,2.226,0,0,1-.91,1.836,3.754,3.754,0,0,1-2.379.711,3.715,3.715,0,0,1-2.547-.82,2.341,2.341,0,0,1-.883-1.914l.016-.047h1.469a1.424,1.424,0,0,0,.609,1.2,2.358,2.358,0,0,0,1.336.379,2.1,2.1,0,0,0,1.285-.348A1.063,1.063,0,0,0,191.8,12.727ZM202.9,15.164A3.8,3.8,0,0,1,199.941,14a4.36,4.36,0,0,1-1.066-3.059v-.344a4.386,4.386,0,0,1,1.051-3.012,3.3,3.3,0,0,1,2.566-1.191,3.067,3.067,0,0,1,2.543,1.055,4.345,4.345,0,0,1,.848,2.8v.813h-5.406l-.016.039a3.281,3.281,0,0,0,.6,2.063,2.164,2.164,0,0,0,1.84.8,3.76,3.76,0,0,0,1.219-.16,8.108,8.108,0,0,0,1.07-.488l.383,1.086a4.459,4.459,0,0,1-1.027.535A4.749,4.749,0,0,1,202.9,15.164ZM202.492,7.6a1.673,1.673,0,0,0-1.332.621,2.938,2.938,0,0,0-.645,1.59l.016.039h3.813V9.727a2.462,2.462,0,0,0-.453-1.523A1.638,1.638,0,0,0,202.492,7.6Zm6.492-1.055.109,1.258a3.069,3.069,0,0,1,1.059-1.043,2.824,2.824,0,0,1,1.449-.371,2.759,2.759,0,0,1,2.117.8,3.515,3.515,0,0,1,.75,2.473V15H212.93V9.7a2.287,2.287,0,0,0-.441-1.586,1.768,1.768,0,0,0-1.348-.469,2.386,2.386,0,0,0-1.207.285,2.072,2.072,0,0,0-.785.8V15h-1.539V6.547Zm9.68-2.039V6.547h1.6V7.688h-1.6V12.82a1.149,1.149,0,0,0,.246.836.89.89,0,0,0,.652.242,1.54,1.54,0,0,0,.293-.031,1.793,1.793,0,0,0,.285-.078l.211,1.055a1.446,1.446,0,0,1-.516.23,2.562,2.562,0,0,1-.664.09,2,2,0,0,1-1.488-.566,2.449,2.449,0,0,1-.559-1.777V7.688h-1.336V6.547h1.336V4.508Zm7.141,3.4-.789-.047a1.762,1.762,0,0,0-1.027.289,1.855,1.855,0,0,0-.645.813V15H221.8V6.547h1.375l.109,1.313a2.968,2.968,0,0,1,.891-1.078,2.074,2.074,0,0,1,1.25-.391,1.9,1.9,0,0,1,.328.027,2.174,2.174,0,0,1,.258.059Zm4.969,7.258A3.8,3.8,0,0,1,227.816,14a4.36,4.36,0,0,1-1.066-3.059v-.344A4.386,4.386,0,0,1,227.8,7.582a3.3,3.3,0,0,1,2.566-1.191,3.067,3.067,0,0,1,2.543,1.055,4.345,4.345,0,0,1,.848,2.8v.813h-5.406l-.016.039a3.281,3.281,0,0,0,.6,2.063,2.164,2.164,0,0,0,1.84.8,3.76,3.76,0,0,0,1.219-.16,8.108,8.108,0,0,0,1.07-.488l.383,1.086a4.459,4.459,0,0,1-1.027.535A4.749,4.749,0,0,1,230.773,15.164ZM230.367,7.6a1.673,1.673,0,0,0-1.332.621,2.938,2.938,0,0,0-.645,1.59l.016.039h3.813V9.727a2.462,2.462,0,0,0-.453-1.523A1.638,1.638,0,0,0,230.367,7.6ZM28.059,35.094a4.659,4.659,0,0,1-.875,2.949,2.893,2.893,0,0,1-2.414,1.121A3.354,3.354,0,0,1,23.4,38.9a2.622,2.622,0,0,1-1-.785V42.25H20.855v-11.7h1.18l.242,1.094a2.792,2.792,0,0,1,1.031-.93,3.078,3.078,0,0,1,1.438-.32,2.809,2.809,0,0,1,2.441,1.246,5.638,5.638,0,0,1,.871,3.293ZM26.52,34.93a4.467,4.467,0,0,0-.566-2.363,1.835,1.835,0,0,0-1.668-.926,2.053,2.053,0,0,0-1.133.3,2.25,2.25,0,0,0-.758.824v4.086a2.186,2.186,0,0,0,.758.816,2.126,2.126,0,0,0,1.148.293,1.894,1.894,0,0,0,1.656-.8,3.516,3.516,0,0,0,.563-2.066ZM35.145,39q-.078-.383-.121-.676a4.96,4.96,0,0,1-.051-.59,3.589,3.589,0,0,1-1.121,1.02,2.867,2.867,0,0,1-1.488.41,2.763,2.763,0,0,1-2.012-.676,2.486,2.486,0,0,1-.691-1.863,2.183,2.183,0,0,1,.98-1.895,4.579,4.579,0,0,1,2.66-.684h1.672v-.836a1.551,1.551,0,0,0-.453-1.176,1.779,1.779,0,0,0-1.281-.434,1.859,1.859,0,0,0-1.211.375,1.125,1.125,0,0,0-.461.9l-1.461.016-.016-.047a2.023,2.023,0,0,1,.863-1.687,3.578,3.578,0,0,1,2.371-.766,3.49,3.49,0,0,1,2.313.73,2.588,2.588,0,0,1,.875,2.105V37.3a7.923,7.923,0,0,0,.047.875A4.5,4.5,0,0,0,36.73,39ZM32.59,37.875a2.739,2.739,0,0,0,1.508-.43,2.042,2.042,0,0,0,.875-.984V35.086H33.246a2.24,2.24,0,0,0-1.488.469,1.4,1.4,0,0,0-.559,1.1,1.159,1.159,0,0,0,.352.891A1.472,1.472,0,0,0,32.59,37.875Zm10.156-5.969-.789-.047a1.762,1.762,0,0,0-1.027.289,1.855,1.855,0,0,0-.645.813V39H38.746V30.547h1.375l.109,1.313a2.968,2.968,0,0,1,.891-1.078,2.074,2.074,0,0,1,1.25-.391,1.9,1.9,0,0,1,.328.027,2.174,2.174,0,0,1,.258.059Zm3.828-3.4v2.039h1.6v1.141h-1.6V36.82a1.149,1.149,0,0,0,.246.836.89.89,0,0,0,.652.242,1.54,1.54,0,0,0,.293-.031,1.793,1.793,0,0,0,.285-.078l.211,1.055a1.446,1.446,0,0,1-.516.23,2.562,2.562,0,0,1-.664.09,2,2,0,0,1-1.488-.566,2.449,2.449,0,0,1-.559-1.777V31.688H43.7V30.547h1.336V28.508ZM49.355,34.7a4.654,4.654,0,0,1,1.016-3.09,3.764,3.764,0,0,1,5.535,0,4.639,4.639,0,0,1,1.02,3.094v.172a4.631,4.631,0,0,1-1.016,3.094,3.781,3.781,0,0,1-5.535,0,4.623,4.623,0,0,1-1.02-3.09Zm1.539.172a4.009,4.009,0,0,0,.566,2.219,2.046,2.046,0,0,0,3.355,0,3.988,3.988,0,0,0,.57-2.219V34.7a3.976,3.976,0,0,0-.574-2.211,1.882,1.882,0,0,0-1.684-.883,1.856,1.856,0,0,0-1.668.883,4.018,4.018,0,0,0-.566,2.211Zm14.477,1,.273,1.063h.047l2.078-6.383H69.48L65.926,40.3a4.383,4.383,0,0,1-.918,1.484,2.113,2.113,0,0,1-1.613.633,3.363,3.363,0,0,1-.477-.043q-.289-.043-.445-.082l.156-1.211a2.062,2.062,0,0,1,.277.016q.324.023.41.023a.95.95,0,0,0,.8-.437,4.542,4.542,0,0,0,.523-.969l.367-.883-3.141-8.281H63.59Zm12.8,2.094a1.81,1.81,0,0,0,1.242-.473,1.494,1.494,0,0,0,.531-1.16h1.391l.023.047a2.428,2.428,0,0,1-.937,1.941,3.582,3.582,0,0,1-5-.363,4.674,4.674,0,0,1-.969-3.016v-.328a4.654,4.654,0,0,1,.973-3,3.317,3.317,0,0,1,2.746-1.215,3.189,3.189,0,0,1,2.316.875,2.775,2.775,0,0,1,.871,2.148l-.016.047h-1.4a1.865,1.865,0,0,0-.5-1.316,1.658,1.658,0,0,0-1.27-.543,1.777,1.777,0,0,0-1.652.879A4.114,4.114,0,0,0,76,34.609v.328a4.192,4.192,0,0,0,.512,2.148A1.776,1.776,0,0,0,78.168,37.961ZM82.824,34.7a4.654,4.654,0,0,1,1.016-3.09,3.764,3.764,0,0,1,5.535,0,4.639,4.639,0,0,1,1.02,3.094v.172a4.631,4.631,0,0,1-1.016,3.094,3.781,3.781,0,0,1-5.535,0,4.623,4.623,0,0,1-1.02-3.09Zm1.539.172a4.009,4.009,0,0,0,.566,2.219,2.046,2.046,0,0,0,3.355,0,3.988,3.988,0,0,0,.57-2.219V34.7a3.976,3.976,0,0,0-.574-2.211A1.882,1.882,0,0,0,86.6,31.6a1.856,1.856,0,0,0-1.668.883,4.018,4.018,0,0,0-.566,2.211Zm9.289-4.32.109,1.258a3.069,3.069,0,0,1,1.059-1.043,2.824,2.824,0,0,1,1.449-.371,2.759,2.759,0,0,1,2.117.8,3.515,3.515,0,0,1,.75,2.473V39H97.6V33.7a2.287,2.287,0,0,0-.441-1.586,1.768,1.768,0,0,0-1.348-.469,2.386,2.386,0,0,0-1.207.285,2.072,2.072,0,0,0-.785.8V39H92.277V30.547Zm11.078,7.414a1.81,1.81,0,0,0,1.242-.473,1.494,1.494,0,0,0,.531-1.16h1.391l.023.047a2.428,2.428,0,0,1-.937,1.941,3.582,3.582,0,0,1-5-.363,4.674,4.674,0,0,1-.969-3.016v-.328a4.654,4.654,0,0,1,.973-3,3.317,3.317,0,0,1,2.746-1.215,3.189,3.189,0,0,1,2.316.875,2.775,2.775,0,0,1,.871,2.148l-.016.047h-1.4a1.865,1.865,0,0,0-.5-1.316,1.658,1.658,0,0,0-1.27-.543,1.777,1.777,0,0,0-1.652.879,4.114,4.114,0,0,0-.52,2.129v.328a4.192,4.192,0,0,0,.512,2.148A1.776,1.776,0,0,0,104.73,37.961Zm8.68,1.2A3.8,3.8,0,0,1,110.453,38a4.36,4.36,0,0,1-1.066-3.059v-.344a4.386,4.386,0,0,1,1.051-3.012A3.3,3.3,0,0,1,113,30.391a3.067,3.067,0,0,1,2.543,1.055,4.345,4.345,0,0,1,.848,2.8v.813h-5.406l-.016.039a3.281,3.281,0,0,0,.6,2.063,2.164,2.164,0,0,0,1.84.8,3.76,3.76,0,0,0,1.219-.16,8.108,8.108,0,0,0,1.07-.488l.383,1.086a4.459,4.459,0,0,1-1.027.535A4.749,4.749,0,0,1,113.41,39.164ZM113,31.6a1.673,1.673,0,0,0-1.332.621,2.938,2.938,0,0,0-.645,1.59l.016.039h3.813v-.125A2.462,2.462,0,0,0,114.4,32.2,1.638,1.638,0,0,0,113,31.6Zm12.32,3.492a4.659,4.659,0,0,1-.875,2.949,2.893,2.893,0,0,1-2.414,1.121,3.354,3.354,0,0,1-1.371-.262,2.622,2.622,0,0,1-1-.785V42.25h-1.539v-11.7h1.18l.242,1.094a2.792,2.792,0,0,1,1.031-.93,3.078,3.078,0,0,1,1.438-.32,2.809,2.809,0,0,1,2.441,1.246,5.638,5.638,0,0,1,.871,3.293Zm-1.539-.164a4.467,4.467,0,0,0-.566-2.363,1.835,1.835,0,0,0-1.668-.926,2.053,2.053,0,0,0-1.133.3,2.25,2.25,0,0,0-.758.824v4.086a2.186,2.186,0,0,0,.758.816,2.126,2.126,0,0,0,1.148.293,1.894,1.894,0,0,0,1.656-.8,3.516,3.516,0,0,0,.563-2.066Zm6.789,3.031a1.81,1.81,0,0,0,1.242-.473,1.493,1.493,0,0,0,.531-1.16h1.391l.023.047a2.428,2.428,0,0,1-.937,1.941,3.582,3.582,0,0,1-5-.363,4.674,4.674,0,0,1-.969-3.016v-.328a4.654,4.654,0,0,1,.973-3,3.317,3.317,0,0,1,2.746-1.215,3.189,3.189,0,0,1,2.316.875,2.775,2.775,0,0,1,.871,2.148l-.016.047h-1.4a1.865,1.865,0,0,0-.5-1.316,1.658,1.658,0,0,0-1.27-.543,1.777,1.777,0,0,0-1.652.879,4.114,4.114,0,0,0-.52,2.129v.328a4.192,4.192,0,0,0,.512,2.148A1.776,1.776,0,0,0,130.574,37.961ZM137.254,39h-1.539V30.547h1.539Zm0-10.617h-1.539v-1.57h1.539Zm2.008,6.313a4.654,4.654,0,0,1,1.016-3.09,3.764,3.764,0,0,1,5.535,0,4.639,4.639,0,0,1,1.02,3.094v.172a4.631,4.631,0,0,1-1.016,3.094,3.781,3.781,0,0,1-5.535,0,4.623,4.623,0,0,1-1.02-3.09Zm1.539.172a4.009,4.009,0,0,0,.566,2.219,2.046,2.046,0,0,0,3.355,0,3.988,3.988,0,0,0,.57-2.219V34.7a3.976,3.976,0,0,0-.574-2.211,1.882,1.882,0,0,0-1.684-.883,1.856,1.856,0,0,0-1.668.883A4.018,4.018,0,0,0,140.8,34.7Zm2.992-7.906h1.8l.016.047-2.1,2.031h-1.156Zm6.3,3.586L150.2,31.8a3.069,3.069,0,0,1,1.059-1.043,2.824,2.824,0,0,1,1.449-.371,2.759,2.759,0,0,1,2.117.8,3.515,3.515,0,0,1,.75,2.473V39h-1.539V33.7a2.287,2.287,0,0,0-.441-1.586,1.768,1.768,0,0,0-1.348-.469,2.386,2.386,0,0,0-1.207.285,2.072,2.072,0,0,0-.785.8V39h-1.539V30.547Zm15.359,8.617A3.8,3.8,0,0,1,162.492,38a4.36,4.36,0,0,1-1.066-3.059v-.344a4.386,4.386,0,0,1,1.051-3.012,3.3,3.3,0,0,1,2.566-1.191,3.067,3.067,0,0,1,2.543,1.055,4.345,4.345,0,0,1,.848,2.8v.813h-5.406l-.016.039a3.281,3.281,0,0,0,.6,2.063,2.164,2.164,0,0,0,1.84.8,3.76,3.76,0,0,0,1.219-.16,8.108,8.108,0,0,0,1.07-.488l.383,1.086a4.459,4.459,0,0,1-1.027.535A4.749,4.749,0,0,1,165.449,39.164Zm-.406-7.562a1.673,1.673,0,0,0-1.332.621,2.938,2.938,0,0,0-.645,1.59l.016.039h3.813v-.125a2.462,2.462,0,0,0-.453-1.523A1.638,1.638,0,0,0,165.043,31.6Zm6.492-1.055.109,1.258a3.069,3.069,0,0,1,1.059-1.043,2.824,2.824,0,0,1,1.449-.371,2.759,2.759,0,0,1,2.117.8,3.515,3.515,0,0,1,.75,2.473V39H175.48V33.7a2.287,2.287,0,0,0-.441-1.586,1.768,1.768,0,0,0-1.348-.469,2.386,2.386,0,0,0-1.207.285,2.072,2.072,0,0,0-.785.8V39H170.16V30.547Zm14.516,5.961.133.594h.047l.148-.594,1.945-5.961h1.57L186.785,39h-1.164l-3.148-8.453h1.578ZM196.238,39q-.078-.383-.121-.676a4.96,4.96,0,0,1-.051-.59,3.588,3.588,0,0,1-1.121,1.02,2.867,2.867,0,0,1-1.488.41,2.763,2.763,0,0,1-2.012-.676,2.486,2.486,0,0,1-.691-1.863,2.183,2.183,0,0,1,.98-1.895,4.579,4.579,0,0,1,2.66-.684h1.672v-.836a1.551,1.551,0,0,0-.453-1.176,1.779,1.779,0,0,0-1.281-.434,1.859,1.859,0,0,0-1.211.375,1.125,1.125,0,0,0-.461.9l-1.461.016-.016-.047a2.023,2.023,0,0,1,.863-1.687,3.578,3.578,0,0,1,2.371-.766,3.49,3.49,0,0,1,2.313.73,2.588,2.588,0,0,1,.875,2.105V37.3a7.923,7.923,0,0,0,.047.875,4.5,4.5,0,0,0,.172.828Zm-2.555-1.125a2.739,2.739,0,0,0,1.508-.43,2.042,2.042,0,0,0,.875-.984V35.086H194.34a2.24,2.24,0,0,0-1.488.469,1.4,1.4,0,0,0-.559,1.1,1.159,1.159,0,0,0,.352.891A1.472,1.472,0,0,0,193.684,37.875Zm9.516.086a1.81,1.81,0,0,0,1.242-.473,1.493,1.493,0,0,0,.531-1.16h1.391l.023.047a2.428,2.428,0,0,1-.937,1.941,3.582,3.582,0,0,1-5-.363,4.674,4.674,0,0,1-.969-3.016v-.328a4.654,4.654,0,0,1,.973-3,3.317,3.317,0,0,1,2.746-1.215,3.189,3.189,0,0,1,2.316.875,2.775,2.775,0,0,1,.871,2.148l-.016.047h-1.4a1.865,1.865,0,0,0-.5-1.316,1.658,1.658,0,0,0-1.27-.543,1.777,1.777,0,0,0-1.652.879,4.114,4.114,0,0,0-.52,2.129v.328a4.192,4.192,0,0,0,.512,2.148A1.776,1.776,0,0,0,203.2,37.961ZM213.41,39q-.078-.383-.121-.676a4.96,4.96,0,0,1-.051-.59,3.588,3.588,0,0,1-1.121,1.02,2.867,2.867,0,0,1-1.488.41,2.763,2.763,0,0,1-2.012-.676,2.486,2.486,0,0,1-.691-1.863,2.183,2.183,0,0,1,.98-1.895,4.579,4.579,0,0,1,2.66-.684h1.672v-.836a1.551,1.551,0,0,0-.453-1.176A1.779,1.779,0,0,0,211.5,31.6a1.859,1.859,0,0,0-1.211.375,1.125,1.125,0,0,0-.461.9l-1.461.016-.016-.047a2.023,2.023,0,0,1,.863-1.687,3.578,3.578,0,0,1,2.371-.766,3.49,3.49,0,0,1,2.313.73,2.588,2.588,0,0,1,.875,2.105V37.3a7.923,7.923,0,0,0,.047.875A4.5,4.5,0,0,0,215,39Zm-2.555-1.125a2.739,2.739,0,0,0,1.508-.43,2.042,2.042,0,0,0,.875-.984V35.086h-1.727a2.24,2.24,0,0,0-1.488.469,1.4,1.4,0,0,0-.559,1.1,1.159,1.159,0,0,0,.352.891A1.472,1.472,0,0,0,210.855,37.875Zm11.07-1.148a1.026,1.026,0,0,0-.387-.828,3.732,3.732,0,0,0-1.465-.562,6.146,6.146,0,0,1-2.293-.9,1.814,1.814,0,0,1-.8-1.547,2.229,2.229,0,0,1,.879-1.766,3.879,3.879,0,0,1,4.605.047,2.239,2.239,0,0,1,.852,1.82l-.016.047h-1.469a1.331,1.331,0,0,0-.48-.992,1.717,1.717,0,0,0-1.215-.445,1.751,1.751,0,0,0-1.215.367,1.146,1.146,0,0,0-.4.875.927.927,0,0,0,.348.773,3.848,3.848,0,0,0,1.434.5,6.058,6.058,0,0,1,2.359.93,1.872,1.872,0,0,1,.8,1.57,2.226,2.226,0,0,1-.91,1.836,3.754,3.754,0,0,1-2.379.711,3.715,3.715,0,0,1-2.547-.82,2.341,2.341,0,0,1-.883-1.914l.016-.047h1.469a1.424,1.424,0,0,0,.609,1.2,2.358,2.358,0,0,0,1.336.379,2.1,2.1,0,0,0,1.285-.348A1.063,1.063,0,0,0,221.926,36.727ZM85.367,58.93a5.641,5.641,0,0,1,.871-3.289,2.8,2.8,0,0,1,2.434-1.25,2.966,2.966,0,0,1,1.414.324,2.845,2.845,0,0,1,1.023.934l.188-1.1h1.227v8.5a3.225,3.225,0,0,1-.945,2.5,3.884,3.884,0,0,1-2.727.871,5.717,5.717,0,0,1-1.316-.168,5.147,5.147,0,0,1-1.246-.457l.234-1.2a4.45,4.45,0,0,0,1.074.379,5.517,5.517,0,0,0,1.238.145,2.242,2.242,0,0,0,1.637-.512,2.12,2.12,0,0,0,.512-1.559v-.961a2.725,2.725,0,0,1-.992.8,3.091,3.091,0,0,1-1.336.273,2.89,2.89,0,0,1-2.418-1.121,4.674,4.674,0,0,1-.871-2.949Zm1.539.164a3.592,3.592,0,0,0,.523,2.047,1.817,1.817,0,0,0,1.617.773,2.034,2.034,0,0,0,1.164-.316,2.4,2.4,0,0,0,.773-.895V56.813a2.388,2.388,0,0,0-.773-.855,2.029,2.029,0,0,0-1.148-.316,1.752,1.752,0,0,0-1.629.914,4.718,4.718,0,0,0-.527,2.375ZM98.4,63.164A3.8,3.8,0,0,1,95.441,62a4.36,4.36,0,0,1-1.066-3.059v-.344a4.386,4.386,0,0,1,1.051-3.012,3.3,3.3,0,0,1,2.566-1.191,3.067,3.067,0,0,1,2.543,1.055,4.345,4.345,0,0,1,.848,2.8v.813H95.977l-.016.039a3.281,3.281,0,0,0,.6,2.063,2.164,2.164,0,0,0,1.84.8,3.76,3.76,0,0,0,1.219-.16,8.108,8.108,0,0,0,1.07-.488l.383,1.086a4.459,4.459,0,0,1-1.027.535A4.749,4.749,0,0,1,98.4,63.164ZM97.992,55.6a1.673,1.673,0,0,0-1.332.621,2.938,2.938,0,0,0-.645,1.59l.016.039h3.813v-.125a2.462,2.462,0,0,0-.453-1.523A1.638,1.638,0,0,0,97.992,55.6Zm10.031,5.125a1.026,1.026,0,0,0-.387-.828,3.732,3.732,0,0,0-1.465-.562,6.146,6.146,0,0,1-2.293-.9,1.814,1.814,0,0,1-.8-1.547,2.229,2.229,0,0,1,.879-1.766,3.879,3.879,0,0,1,4.605.047,2.239,2.239,0,0,1,.852,1.82l-.016.047H107.93a1.331,1.331,0,0,0-.48-.992,1.717,1.717,0,0,0-1.215-.445,1.751,1.751,0,0,0-1.215.367,1.146,1.146,0,0,0-.4.875.927.927,0,0,0,.348.773,3.848,3.848,0,0,0,1.434.5,6.058,6.058,0,0,1,2.359.93,1.872,1.872,0,0,1,.8,1.57,2.226,2.226,0,0,1-.91,1.836,3.754,3.754,0,0,1-2.379.711,3.715,3.715,0,0,1-2.547-.82,2.341,2.341,0,0,1-.883-1.914l.016-.047h1.469a1.424,1.424,0,0,0,.609,1.2,2.358,2.358,0,0,0,1.336.379,2.1,2.1,0,0,0,1.285-.348A1.063,1.063,0,0,0,108.023,60.727Zm5.414-8.219v2.039h1.6v1.141h-1.6V60.82a1.149,1.149,0,0,0,.246.836.89.89,0,0,0,.652.242,1.54,1.54,0,0,0,.293-.031,1.793,1.793,0,0,0,.285-.078l.211,1.055a1.445,1.445,0,0,1-.516.23,2.562,2.562,0,0,1-.664.09,2,2,0,0,1-1.488-.566,2.449,2.449,0,0,1-.559-1.777V55.688h-1.336V54.547H111.9V52.508ZM121.773,63q-.078-.383-.121-.676a4.96,4.96,0,0,1-.051-.59,3.589,3.589,0,0,1-1.121,1.02,2.867,2.867,0,0,1-1.488.41,2.763,2.763,0,0,1-2.012-.676,2.486,2.486,0,0,1-.691-1.863,2.183,2.183,0,0,1,.98-1.895,4.579,4.579,0,0,1,2.66-.684H121.6v-.836a1.551,1.551,0,0,0-.453-1.176,1.779,1.779,0,0,0-1.281-.434,1.859,1.859,0,0,0-1.211.375,1.125,1.125,0,0,0-.461.9l-1.461.016-.016-.047a2.023,2.023,0,0,1,.863-1.687,3.578,3.578,0,0,1,2.371-.766,3.49,3.49,0,0,1,2.313.73,2.588,2.588,0,0,1,.875,2.105V61.3a7.923,7.923,0,0,0,.047.875,4.5,4.5,0,0,0,.172.828Zm-2.555-1.125a2.739,2.739,0,0,0,1.508-.43,2.042,2.042,0,0,0,.875-.984V59.086h-1.727a2.24,2.24,0,0,0-1.488.469,1.4,1.4,0,0,0-.559,1.1,1.159,1.159,0,0,0,.352.891A1.472,1.472,0,0,0,119.219,61.875Zm7.531-7.328.109,1.258a3.069,3.069,0,0,1,1.059-1.043,2.824,2.824,0,0,1,1.449-.371,2.759,2.759,0,0,1,2.117.8,3.515,3.515,0,0,1,.75,2.473V63H130.7V57.7a2.287,2.287,0,0,0-.441-1.586,1.768,1.768,0,0,0-1.348-.469,2.386,2.386,0,0,0-1.207.285,2.072,2.072,0,0,0-.785.8V63h-1.539V54.547Zm9.68-2.039v2.039h1.6v1.141h-1.6V60.82a1.149,1.149,0,0,0,.246.836.89.89,0,0,0,.652.242,1.54,1.54,0,0,0,.293-.031,1.793,1.793,0,0,0,.285-.078l.211,1.055a1.446,1.446,0,0,1-.516.23,2.562,2.562,0,0,1-.664.09,2,2,0,0,1-1.488-.566,2.449,2.449,0,0,1-.559-1.777V55.688h-1.336V54.547h1.336V52.508Zm6.8,10.656A3.8,3.8,0,0,1,140.277,62a4.36,4.36,0,0,1-1.066-3.059v-.344a4.386,4.386,0,0,1,1.051-3.012,3.3,3.3,0,0,1,2.566-1.191,3.067,3.067,0,0,1,2.543,1.055,4.345,4.345,0,0,1,.848,2.8v.813h-5.406l-.016.039a3.281,3.281,0,0,0,.6,2.063,2.164,2.164,0,0,0,1.84.8,3.76,3.76,0,0,0,1.219-.16,8.108,8.108,0,0,0,1.07-.488l.383,1.086a4.459,4.459,0,0,1-1.027.535A4.749,4.749,0,0,1,143.234,63.164Zm-.406-7.562a1.673,1.673,0,0,0-1.332.621,2.938,2.938,0,0,0-.645,1.59l.016.039h3.813v-.125a2.462,2.462,0,0,0-.453-1.523A1.638,1.638,0,0,0,142.828,55.6Zm10.031,5.125a1.026,1.026,0,0,0-.387-.828,3.732,3.732,0,0,0-1.465-.562,6.146,6.146,0,0,1-2.293-.9,1.814,1.814,0,0,1-.8-1.547,2.229,2.229,0,0,1,.879-1.766,3.879,3.879,0,0,1,4.605.047,2.239,2.239,0,0,1,.852,1.82l-.016.047h-1.469a1.331,1.331,0,0,0-.48-.992,1.717,1.717,0,0,0-1.215-.445,1.751,1.751,0,0,0-1.215.367,1.146,1.146,0,0,0-.4.875.927.927,0,0,0,.348.773,3.848,3.848,0,0,0,1.434.5,6.058,6.058,0,0,1,2.359.93,1.872,1.872,0,0,1,.8,1.57,2.226,2.226,0,0,1-.91,1.836,3.754,3.754,0,0,1-2.379.711,3.715,3.715,0,0,1-2.547-.82,2.341,2.341,0,0,1-.883-1.914l.016-.047h1.469a1.424,1.424,0,0,0,.609,1.2,2.358,2.358,0,0,0,1.336.379,2.1,2.1,0,0,0,1.285-.348A1.063,1.063,0,0,0,152.859,60.727ZM157.992,63h-1.539V61.422h1.539ZM32.273,135H30.734l-5.477-8.687-.047.016V135H23.672V123.625h1.539l5.477,8.68.047-.016v-8.664h1.539Zm7.8-1.258a2.884,2.884,0,0,1-1.027,1.051,2.783,2.783,0,0,1-1.441.371,2.716,2.716,0,0,1-2.156-.883,4.1,4.1,0,0,1-.773-2.75v-4.984h1.539v5a3.147,3.147,0,0,0,.4,1.859,1.481,1.481,0,0,0,1.242.508,2.508,2.508,0,0,0,1.355-.336,2.094,2.094,0,0,0,.809-.953v-6.078h1.539V135H40.18Zm5.1-7.2.109,1.109a2.871,2.871,0,0,1,1.051-.934,3.158,3.158,0,0,1,1.48-.332,2.615,2.615,0,0,1,1.449.391,2.363,2.363,0,0,1,.91,1.172,3.162,3.162,0,0,1,1.059-1.145,2.769,2.769,0,0,1,1.527-.418,2.531,2.531,0,0,1,2.039.887,4.051,4.051,0,0,1,.75,2.668V135H54.016v-5.07a2.81,2.81,0,0,0-.43-1.77,1.567,1.567,0,0,0-1.281-.52,1.631,1.631,0,0,0-1.277.547,2.381,2.381,0,0,0-.574,1.383V135H48.906v-5.07a2.772,2.772,0,0,0-.441-1.738,1.532,1.532,0,0,0-1.27-.551,2.115,2.115,0,0,0-1.156.289,1.867,1.867,0,0,0-.7.813V135H43.8v-8.453Zm16.273,8.617A3.8,3.8,0,0,1,58.5,134a4.36,4.36,0,0,1-1.066-3.059v-.344a4.386,4.386,0,0,1,1.051-3.012,3.3,3.3,0,0,1,2.566-1.191,3.067,3.067,0,0,1,2.543,1.055,4.345,4.345,0,0,1,.848,2.8v.813H59.031l-.016.039a3.281,3.281,0,0,0,.6,2.063,2.164,2.164,0,0,0,1.84.8,3.76,3.76,0,0,0,1.219-.16,8.107,8.107,0,0,0,1.07-.488l.383,1.086a4.459,4.459,0,0,1-1.027.535A4.749,4.749,0,0,1,61.453,135.164Zm-.406-7.562a1.673,1.673,0,0,0-1.332.621,2.938,2.938,0,0,0-.645,1.59l.016.039H62.9v-.125a2.462,2.462,0,0,0-.453-1.523A1.638,1.638,0,0,0,61.047,127.6Zm9.117.3-.789-.047a1.762,1.762,0,0,0-1.027.289,1.854,1.854,0,0,0-.645.813V135H66.164v-8.453h1.375l.109,1.313a2.968,2.968,0,0,1,.891-1.078,2.074,2.074,0,0,1,1.25-.391,1.9,1.9,0,0,1,.328.027,2.174,2.174,0,0,1,.258.059Zm.93,2.789a4.654,4.654,0,0,1,1.016-3.09,3.764,3.764,0,0,1,5.535,0,4.639,4.639,0,0,1,1.02,3.094v.172a4.631,4.631,0,0,1-1.016,3.094,3.781,3.781,0,0,1-5.535,0,4.623,4.623,0,0,1-1.02-3.09Zm1.539.172a4.009,4.009,0,0,0,.566,2.219,2.046,2.046,0,0,0,3.355,0,3.988,3.988,0,0,0,.57-2.219V130.7a3.976,3.976,0,0,0-.574-2.211,1.882,1.882,0,0,0-1.684-.883,1.856,1.856,0,0,0-1.668.883,4.018,4.018,0,0,0-.566,2.211Zm11.539.063a5.641,5.641,0,0,1,.871-3.289,2.807,2.807,0,0,1,2.441-1.25,3.027,3.027,0,0,1,1.316.273,2.7,2.7,0,0,1,.98.8v-4.648H91.32V135h-1.18l-.234-1.07a2.743,2.743,0,0,1-1.023.922,3.058,3.058,0,0,1-1.414.313,2.9,2.9,0,0,1-2.422-1.121,4.659,4.659,0,0,1-.875-2.949Zm1.539.164a3.588,3.588,0,0,0,.523,2.051,1.828,1.828,0,0,0,1.625.77,2.039,2.039,0,0,0,1.156-.312,2.334,2.334,0,0,0,.766-.875v-3.945a2.37,2.37,0,0,0-.77-.832,2.033,2.033,0,0,0-1.137-.309,1.759,1.759,0,0,0-1.637.914,4.718,4.718,0,0,0-.527,2.375Zm11.57,4.07A3.8,3.8,0,0,1,94.324,134a4.36,4.36,0,0,1-1.066-3.059v-.344a4.386,4.386,0,0,1,1.051-3.012,3.3,3.3,0,0,1,2.566-1.191,3.067,3.067,0,0,1,2.543,1.055,4.345,4.345,0,0,1,.848,2.8v.813H94.859l-.016.039a3.281,3.281,0,0,0,.6,2.063,2.164,2.164,0,0,0,1.84.8,3.76,3.76,0,0,0,1.219-.16,8.107,8.107,0,0,0,1.07-.488l.383,1.086a4.459,4.459,0,0,1-1.027.535A4.749,4.749,0,0,1,97.281,135.164Zm-.406-7.562a1.673,1.673,0,0,0-1.332.621,2.938,2.938,0,0,0-.645,1.59l.016.039h3.813v-.125a2.462,2.462,0,0,0-.453-1.523A1.638,1.638,0,0,0,96.875,127.6Zm11.914,4.906.133.594h.047l.148-.594,1.945-5.961h1.57L109.523,135h-1.164l-3.148-8.453h1.578ZM118.977,135q-.078-.383-.121-.676a4.96,4.96,0,0,1-.051-.59,3.589,3.589,0,0,1-1.121,1.02,2.867,2.867,0,0,1-1.488.41,2.763,2.763,0,0,1-2.012-.676,2.486,2.486,0,0,1-.691-1.863,2.183,2.183,0,0,1,.98-1.895,4.579,4.579,0,0,1,2.66-.684H118.8v-.836a1.551,1.551,0,0,0-.453-1.176,1.779,1.779,0,0,0-1.281-.434,1.859,1.859,0,0,0-1.211.375,1.125,1.125,0,0,0-.461.9l-1.461.016-.016-.047a2.023,2.023,0,0,1,.863-1.687,3.578,3.578,0,0,1,2.371-.766,3.49,3.49,0,0,1,2.313.73,2.588,2.588,0,0,1,.875,2.105v4.07a7.923,7.923,0,0,0,.047.875,4.5,4.5,0,0,0,.172.828Zm-2.555-1.125a2.739,2.739,0,0,0,1.508-.43,2.042,2.042,0,0,0,.875-.984v-1.375h-1.727a2.24,2.24,0,0,0-1.488.469,1.4,1.4,0,0,0-.559,1.1,1.159,1.159,0,0,0,.352.891A1.472,1.472,0,0,0,116.422,133.875Zm9.516.086a1.81,1.81,0,0,0,1.242-.473,1.494,1.494,0,0,0,.531-1.16H129.1l.023.047a2.428,2.428,0,0,1-.937,1.941,3.582,3.582,0,0,1-5-.363,4.674,4.674,0,0,1-.969-3.016v-.328a4.654,4.654,0,0,1,.973-3,3.317,3.317,0,0,1,2.746-1.215,3.189,3.189,0,0,1,2.316.875,2.775,2.775,0,0,1,.871,2.148l-.016.047h-1.4a1.865,1.865,0,0,0-.5-1.316,1.658,1.658,0,0,0-1.27-.543,1.777,1.777,0,0,0-1.652.879,4.114,4.114,0,0,0-.52,2.129v.328a4.192,4.192,0,0,0,.512,2.148A1.776,1.776,0,0,0,125.938,133.961ZM136.148,135q-.078-.383-.121-.676a4.96,4.96,0,0,1-.051-.59,3.588,3.588,0,0,1-1.121,1.02,2.867,2.867,0,0,1-1.488.41,2.763,2.763,0,0,1-2.012-.676,2.486,2.486,0,0,1-.691-1.863,2.183,2.183,0,0,1,.98-1.895,4.579,4.579,0,0,1,2.66-.684h1.672v-.836a1.551,1.551,0,0,0-.453-1.176,1.779,1.779,0,0,0-1.281-.434,1.859,1.859,0,0,0-1.211.375,1.125,1.125,0,0,0-.461.9l-1.461.016-.016-.047a2.023,2.023,0,0,1,.863-1.687,3.578,3.578,0,0,1,2.371-.766,3.49,3.49,0,0,1,2.313.73,2.588,2.588,0,0,1,.875,2.105v4.07a7.923,7.923,0,0,0,.047.875,4.5,4.5,0,0,0,.172.828Zm-2.555-1.125a2.739,2.739,0,0,0,1.508-.43,2.042,2.042,0,0,0,.875-.984v-1.375H134.25a2.24,2.24,0,0,0-1.488.469,1.4,1.4,0,0,0-.559,1.1,1.159,1.159,0,0,0,.352.891A1.472,1.472,0,0,0,133.594,133.875Zm11.07-1.148a1.026,1.026,0,0,0-.387-.828,3.732,3.732,0,0,0-1.465-.562,6.146,6.146,0,0,1-2.293-.9,1.814,1.814,0,0,1-.8-1.547,2.229,2.229,0,0,1,.879-1.766,3.879,3.879,0,0,1,4.605.047,2.239,2.239,0,0,1,.852,1.82l-.016.047H144.57a1.331,1.331,0,0,0-.48-.992,1.717,1.717,0,0,0-1.215-.445,1.751,1.751,0,0,0-1.215.367,1.146,1.146,0,0,0-.4.875.927.927,0,0,0,.348.773,3.848,3.848,0,0,0,1.434.5,6.058,6.058,0,0,1,2.359.93,1.872,1.872,0,0,1,.8,1.57,2.226,2.226,0,0,1-.91,1.836,3.754,3.754,0,0,1-2.379.711,3.715,3.715,0,0,1-2.547-.82,2.341,2.341,0,0,1-.883-1.914l.016-.047h1.469a1.424,1.424,0,0,0,.609,1.2,2.358,2.358,0,0,0,1.336.379,2.1,2.1,0,0,0,1.285-.348A1.063,1.063,0,0,0,144.664,132.727Zm7.156-1.8a5.641,5.641,0,0,1,.871-3.289,2.8,2.8,0,0,1,2.434-1.25,2.966,2.966,0,0,1,1.414.324,2.845,2.845,0,0,1,1.023.934l.188-1.1h1.227v8.5a3.225,3.225,0,0,1-.945,2.5,3.884,3.884,0,0,1-2.727.871,5.716,5.716,0,0,1-1.316-.168,5.147,5.147,0,0,1-1.246-.457l.234-1.2a4.451,4.451,0,0,0,1.074.379,5.516,5.516,0,0,0,1.238.145,2.242,2.242,0,0,0,1.637-.512,2.12,2.12,0,0,0,.512-1.559v-.961a2.725,2.725,0,0,1-.992.8,3.091,3.091,0,0,1-1.336.273,2.89,2.89,0,0,1-2.418-1.121,4.674,4.674,0,0,1-.871-2.949Zm1.539.164a3.592,3.592,0,0,0,.523,2.047,1.817,1.817,0,0,0,1.617.773,2.034,2.034,0,0,0,1.164-.316,2.4,2.4,0,0,0,.773-.895v-3.891a2.388,2.388,0,0,0-.773-.855,2.029,2.029,0,0,0-1.148-.316,1.752,1.752,0,0,0-1.629.914,4.718,4.718,0,0,0-.527,2.375Zm11.492,4.07A3.8,3.8,0,0,1,161.895,134a4.36,4.36,0,0,1-1.066-3.059v-.344a4.386,4.386,0,0,1,1.051-3.012,3.3,3.3,0,0,1,2.566-1.191,3.067,3.067,0,0,1,2.543,1.055,4.345,4.345,0,0,1,.848,2.8v.813H162.43l-.016.039a3.281,3.281,0,0,0,.6,2.063,2.164,2.164,0,0,0,1.84.8,3.76,3.76,0,0,0,1.219-.16,8.107,8.107,0,0,0,1.07-.488l.383,1.086a4.459,4.459,0,0,1-1.027.535A4.749,4.749,0,0,1,164.852,135.164Zm-.406-7.562a1.673,1.673,0,0,0-1.332.621,2.938,2.938,0,0,0-.645,1.59l.016.039H166.3v-.125a2.462,2.462,0,0,0-.453-1.523A1.638,1.638,0,0,0,164.445,127.6Zm10.031,5.125a1.026,1.026,0,0,0-.387-.828,3.732,3.732,0,0,0-1.465-.562,6.146,6.146,0,0,1-2.293-.9,1.814,1.814,0,0,1-.8-1.547,2.229,2.229,0,0,1,.879-1.766,3.879,3.879,0,0,1,4.605.047,2.239,2.239,0,0,1,.852,1.82l-.016.047h-1.469a1.331,1.331,0,0,0-.48-.992,1.717,1.717,0,0,0-1.215-.445,1.751,1.751,0,0,0-1.215.367,1.146,1.146,0,0,0-.4.875.927.927,0,0,0,.348.773,3.848,3.848,0,0,0,1.434.5,6.058,6.058,0,0,1,2.359.93,1.872,1.872,0,0,1,.8,1.57,2.226,2.226,0,0,1-.91,1.836,3.754,3.754,0,0,1-2.379.711,3.715,3.715,0,0,1-2.547-.82,2.341,2.341,0,0,1-.883-1.914l.016-.047h1.469a1.424,1.424,0,0,0,.609,1.2,2.358,2.358,0,0,0,1.336.379,2.1,2.1,0,0,0,1.285-.348A1.063,1.063,0,0,0,174.477,132.727Zm5.414-8.219v2.039h1.6v1.141h-1.6v5.133a1.149,1.149,0,0,0,.246.836.89.89,0,0,0,.652.242,1.54,1.54,0,0,0,.293-.031,1.792,1.792,0,0,0,.285-.078l.211,1.055a1.446,1.446,0,0,1-.516.23,2.562,2.562,0,0,1-.664.09,2,2,0,0,1-1.488-.566,2.449,2.449,0,0,1-.559-1.777v-5.133h-1.336v-1.141h1.336v-2.039ZM188.227,135q-.078-.383-.121-.676a4.96,4.96,0,0,1-.051-.59,3.588,3.588,0,0,1-1.121,1.02,2.867,2.867,0,0,1-1.488.41,2.763,2.763,0,0,1-2.012-.676,2.486,2.486,0,0,1-.691-1.863,2.183,2.183,0,0,1,.98-1.895,4.579,4.579,0,0,1,2.66-.684h1.672v-.836a1.551,1.551,0,0,0-.453-1.176,1.779,1.779,0,0,0-1.281-.434,1.859,1.859,0,0,0-1.211.375,1.125,1.125,0,0,0-.461.9l-1.461.016-.016-.047a2.023,2.023,0,0,1,.863-1.687,3.578,3.578,0,0,1,2.371-.766,3.49,3.49,0,0,1,2.313.73,2.588,2.588,0,0,1,.875,2.105v4.07a7.923,7.923,0,0,0,.047.875,4.5,4.5,0,0,0,.172.828Zm-2.555-1.125a2.739,2.739,0,0,0,1.508-.43,2.042,2.042,0,0,0,.875-.984v-1.375h-1.727a2.24,2.24,0,0,0-1.488.469,1.4,1.4,0,0,0-.559,1.1,1.159,1.159,0,0,0,.352.891A1.472,1.472,0,0,0,185.672,133.875Zm7.531-7.328.109,1.258a3.069,3.069,0,0,1,1.059-1.043,2.824,2.824,0,0,1,1.449-.371,2.759,2.759,0,0,1,2.117.8,3.515,3.515,0,0,1,.75,2.473V135h-1.539v-5.3a2.287,2.287,0,0,0-.441-1.586,1.768,1.768,0,0,0-1.348-.469,2.386,2.386,0,0,0-1.207.285,2.072,2.072,0,0,0-.785.8V135h-1.539v-8.453Zm9.68-2.039v2.039h1.6v1.141h-1.6v5.133a1.149,1.149,0,0,0,.246.836.89.89,0,0,0,.652.242,1.54,1.54,0,0,0,.293-.031,1.792,1.792,0,0,0,.285-.078l.211,1.055a1.446,1.446,0,0,1-.516.23,2.562,2.562,0,0,1-.664.09,2,2,0,0,1-1.488-.566,2.449,2.449,0,0,1-.559-1.777v-5.133h-1.336v-1.141h1.336v-2.039Zm6.8,10.656A3.8,3.8,0,0,1,206.73,134a4.36,4.36,0,0,1-1.066-3.059v-.344a4.386,4.386,0,0,1,1.051-3.012,3.3,3.3,0,0,1,2.566-1.191,3.067,3.067,0,0,1,2.543,1.055,4.345,4.345,0,0,1,.848,2.8v.813h-5.406l-.016.039a3.281,3.281,0,0,0,.6,2.063,2.164,2.164,0,0,0,1.84.8,3.76,3.76,0,0,0,1.219-.16,8.107,8.107,0,0,0,1.07-.488l.383,1.086a4.459,4.459,0,0,1-1.027.535A4.749,4.749,0,0,1,209.688,135.164Zm-.406-7.562a1.673,1.673,0,0,0-1.332.621,2.938,2.938,0,0,0-.645,1.59l.016.039h3.813v-.125a2.462,2.462,0,0,0-.453-1.523A1.638,1.638,0,0,0,209.281,127.6Zm10.031,5.125a1.026,1.026,0,0,0-.387-.828,3.732,3.732,0,0,0-1.465-.562,6.146,6.146,0,0,1-2.293-.9,1.814,1.814,0,0,1-.8-1.547,2.229,2.229,0,0,1,.879-1.766,3.879,3.879,0,0,1,4.605.047,2.239,2.239,0,0,1,.852,1.82l-.016.047h-1.469a1.331,1.331,0,0,0-.48-.992,1.717,1.717,0,0,0-1.215-.445,1.751,1.751,0,0,0-1.215.367,1.146,1.146,0,0,0-.4.875.927.927,0,0,0,.348.773,3.848,3.848,0,0,0,1.434.5,6.058,6.058,0,0,1,2.359.93,1.872,1.872,0,0,1,.8,1.57,2.226,2.226,0,0,1-.91,1.836,3.754,3.754,0,0,1-2.379.711,3.715,3.715,0,0,1-2.547-.82,2.341,2.341,0,0,1-.883-1.914l.016-.047h1.469a1.424,1.424,0,0,0,.609,1.2,2.358,2.358,0,0,0,1.336.379,2.1,2.1,0,0,0,1.285-.348A1.063,1.063,0,0,0,219.313,132.727Z" transform="translate(5456 17998.438)" fill="#12263f"/>
      <path id="Trazado_717468" data-name="Trazado 717468" d="M0,0H244" transform="translate(5456 18079.438)" fill="none" stroke="#adce32" stroke-width="3"/>
      <g id="Trazado_717466" data-name="Trazado 717466" transform="translate(5444 17969.438)" fill="none">
        <path d="M30,0H237a30,30,0,0,1,30,30V166a30,30,0,0,1-30,30H30A30,30,0,0,1,0,166V30A30,30,0,0,1,30,0Z" stroke="none"/>
        <path d="M 30 1 C 26.0845947265625 1 22.28683471679688 1.7666015625 18.71220397949219 3.278564453125 C 15.259033203125 4.7391357421875 12.15753173828125 6.83026123046875 9.493896484375 9.493896484375 C 6.83026123046875 12.15753173828125 4.7391357421875 15.259033203125 3.278564453125 18.71220397949219 C 1.7666015625 22.28683471679688 1 26.0845947265625 1 30 L 1 166 C 1 169.9154052734375 1.7666015625 173.7131652832031 3.278564453125 177.2877960205078 C 4.7391357421875 180.740966796875 6.83026123046875 183.8424682617188 9.493896484375 186.506103515625 C 12.15753173828125 189.1697387695312 15.259033203125 191.2608642578125 18.71220397949219 192.721435546875 C 22.28683471679688 194.2333984375 26.0845947265625 195 30 195 L 237 195 C 240.9154052734375 195 244.7131652832031 194.2333984375 248.2877960205078 192.721435546875 C 251.740966796875 191.2608642578125 254.8424682617188 189.1697387695312 257.506103515625 186.506103515625 C 260.1697387695312 183.8424682617188 262.2608642578125 180.740966796875 263.721435546875 177.2877960205078 C 265.2333984375 173.7131652832031 266 169.9154052734375 266 166 L 266 30 C 266 26.0845947265625 265.2333984375 22.28683471679688 263.721435546875 18.71220397949219 C 262.2608642578125 15.259033203125 260.1697387695312 12.15753173828125 257.506103515625 9.493896484375 C 254.8424682617188 6.83026123046875 251.740966796875 4.7391357421875 248.2877960205078 3.278564453125 C 244.7131652832031 1.7666015625 240.9154052734375 1 237 1 L 30 1 M 30 0 L 237 0 C 253.5685272216797 0 267 13.43147277832031 267 30 L 267 166 C 267 182.5685272216797 253.5685272216797 196 237 196 L 30 196 C 13.43147277832031 196 0 182.5685272216797 0 166 L 0 30 C 0 13.43147277832031 13.43147277832031 0 30 0 Z" stroke="none" fill="#adce32"/>
      </g>
    </g>
  </g>
</svg>
